<?xml version="1.0" encoding="utf-8"?>
<!-- Generator: Adobe Illustrator 16.0.3, SVG Export Plug-In . SVG Version: 6.00 Build 0)  -->
<!DOCTYPE svg PUBLIC "-//W3C//DTD SVG 1.1//EN" "http://www.w3.org/Graphics/SVG/1.1/DTD/svg11.dtd">
<svg version="1.1" id="Layer_1" xmlns="http://www.w3.org/2000/svg" xmlns:xlink="http://www.w3.org/1999/xlink" x="0px" y="0px"
	 width="15px" height="15px" viewBox="0 0 15 15" enable-background="new 0 0 15 15" xml:space="preserve">
<path fill="#FFFFFF" d="M11.297,10.805L8.671,8.004l2.628-2.764c0.11-0.115,0.11-0.301,0-0.417l-0.746-0.799
	C10.5,3.967,10.43,3.938,10.357,3.938c-0.074,0-0.146,0.032-0.198,0.084L7.541,6.778L4.918,4.024C4.867,3.97,4.796,3.94,4.723,3.94
	c-0.074,0-0.145,0.032-0.198,0.084l-0.746,0.8c-0.109,0.115-0.109,0.302,0,0.416l2.632,2.765l-2.624,2.799
	c-0.052,0.055-0.082,0.129-0.082,0.209c0,0.078,0.028,0.152,0.082,0.207l0.749,0.801c0.054,0.057,0.125,0.086,0.195,0.086
	s0.142-0.027,0.197-0.086L7.54,9.232l2.614,2.785c0.056,0.059,0.125,0.09,0.199,0.09c0.066,0,0.141-0.029,0.193-0.09l0.749-0.799
	c0.054-0.057,0.082-0.131,0.082-0.209C11.378,10.934,11.348,10.859,11.297,10.805z"/>
<rect y="0" fill="#D7D7D6" width="12.426" height="1.436"/>
<rect y="1.264" fill="#D7D7D6" width="1.352" height="13.736"/>
<rect y="13.566" fill="#D7D7D6" width="3.742" height="1.434"/>
<rect x="11.259" y="0" fill="#D7D7D6" width="3.741" height="1.436"/>
<rect x="13.648" y="1.264" fill="#D7D7D6" width="1.352" height="13.736"/>
<rect x="0.676" y="13.564" fill="#D7D7D6" width="14.324" height="1.436"/>
</svg>
