<?xml version="1.0" encoding="utf-8"?>
<!-- Generator: Adobe Illustrator 16.0.3, SVG Export Plug-In . SVG Version: 6.00 Build 0)  -->
<!DOCTYPE svg PUBLIC "-//W3C//DTD SVG 1.1//EN" "http://www.w3.org/Graphics/SVG/1.1/DTD/svg11.dtd">
<svg version="1.1" id="Layer_1" xmlns="http://www.w3.org/2000/svg" xmlns:xlink="http://www.w3.org/1999/xlink" x="0px" y="0px"
	 width="15px" height="15px" viewBox="0 0 15 15" enable-background="new 0 0 15 15" xml:space="preserve">
<rect x="0.514" y="0.516" display="none" fill="none" stroke="#FFFFFF" stroke-miterlimit="10" width="13.472" height="12.882"/>
<rect x="3.128" y="1.885" display="none" fill="#FFFFFF" width="8.242" height="0.786"/>
<rect x="3.128" y="3.511" display="none" fill="#FFFFFF" width="8.242" height="0.787"/>
<polygon display="none" fill="#FFFFFF" points="7.25,4.716 8.457,7.229 11.157,7.633 9.204,9.588 9.665,12.348 7.25,11.043 
	4.834,12.348 5.294,9.588 3.34,7.633 6.042,7.229 "/>
<path fill="#FFFFFF" d="M11.201,10.157c0,0.638-0.193,1.14-0.58,1.509c-0.389,0.369-0.902,0.552-1.545,0.552H2.124
	c-0.641,0-1.155-0.183-1.542-0.552C0.194,11.297,0,10.795,0,10.157c0-0.278,0.01-0.556,0.027-0.823
	c0.02-0.267,0.056-0.556,0.112-0.868C0.194,8.157,0.265,7.87,0.351,7.604C0.435,7.339,0.549,7.082,0.692,6.83
	C0.835,6.578,1,6.363,1.185,6.186c0.187-0.178,0.413-0.32,0.681-0.426C2.132,5.653,2.429,5.6,2.753,5.6
	c0.047,0,0.159,0.057,0.334,0.171C3.261,5.884,3.46,6.013,3.679,6.152c0.22,0.141,0.506,0.267,0.86,0.382
	c0.352,0.114,0.707,0.172,1.062,0.172S6.31,6.648,6.662,6.534c0.354-0.115,0.639-0.241,0.86-0.382
	c0.22-0.139,0.417-0.269,0.592-0.381C8.289,5.656,8.4,5.6,8.449,5.6c0.323,0,0.618,0.053,0.886,0.16s0.495,0.249,0.681,0.426
	c0.186,0.177,0.351,0.392,0.493,0.644c0.144,0.252,0.257,0.509,0.342,0.774c0.085,0.266,0.156,0.554,0.212,0.862
	c0.055,0.313,0.093,0.602,0.11,0.868C11.192,9.602,11.201,9.879,11.201,10.157z M8.656,3.055c0,0.843-0.299,1.563-0.896,2.16
	c-0.597,0.597-1.317,0.895-2.16,0.895S4.037,5.811,3.44,5.214c-0.596-0.596-0.895-1.317-0.895-2.16c0-0.844,0.298-1.563,0.895-2.16
	C4.037,0.298,4.757,0,5.601,0s1.563,0.299,2.16,0.895C8.357,1.491,8.656,2.211,8.656,3.055z"/>
<ellipse fill="#4C4C4C" cx="10.177" cy="10.155" rx="4.823" ry="4.845"/>
<g id="user_x5F_half_x5F_settings">
	<path fill="#FFFFFF" d="M13.764,10.891V9.477h-1.192c-0.047-0.15-0.104-0.292-0.177-0.429l0.853-0.839l-1.016-1l-0.836,0.824
		c-0.157-0.086-0.324-0.156-0.501-0.208V6.649H9.46v1.174c-0.165,0.05-0.32,0.113-0.467,0.192L8.175,7.208l-1.015,1l0.818,0.806
		c-0.082,0.146-0.146,0.3-0.196,0.462H6.591v1.414h1.192c0.051,0.174,0.124,0.339,0.211,0.493l-0.836,0.822l1.014,1.001l0.853-0.84
		c0.138,0.073,0.282,0.128,0.434,0.173v1.178h1.437V12.54c0.165-0.046,0.32-0.11,0.467-0.19l0.87,0.857l1.014-1.001l-0.87-0.855
		c0.08-0.145,0.146-0.298,0.193-0.46H13.764z M10.177,11.244c-0.595-0.001-1.075-0.475-1.076-1.061
		c0.001-0.587,0.481-1.061,1.076-1.062c0.595,0.001,1.075,0.475,1.076,1.062C11.252,10.77,10.771,11.243,10.177,11.244z"/>
</g>
</svg>
