<svg xmlns="http://www.w3.org/2000/svg" width="34.692" height="35" viewBox="0 0 34.692 35">
  <g id="App_Server" data-name="App Server" transform="translate(0)">
    <path id="Path_11" data-name="Path 11" d="M165.229,211H151v8.131h14.229Zm-4.065,5.082h-6.1v-2.033h6.1Zm0,0" transform="translate(-140.768 -196.537)" fill="#b3282d"/>
    <path id="Path_12" data-name="Path 12" d="M151,371.231h14.229V361H151Zm8.131-6.166h2.033V367.1h-2.033Zm0,0" transform="translate(-140.768 -336.231)" fill="#b3282d"/>
    <path id="Path_13" data-name="Path 13" d="M28.478,8.264A9.221,9.221,0,0,0,19.379,0a9.125,9.125,0,0,0-7.585,4.1A5.059,5.059,0,0,0,6.257,8.258a7.111,7.111,0,0,0,.926,14.17H8.2V12.264H26.494V22.428H27.51a7.11,7.11,0,0,0,.968-14.164Zm0,0" fill="#b3282d"/>
  </g>
</svg>
