<svg xmlns="http://www.w3.org/2000/svg" width="33.785" height="35" viewBox="0 0 33.785 35">
  <g id="Web_Server" data-name="Web Server" transform="translate(-1.405)">
    <g id="Group_2" data-name="Group 2" transform="translate(1.405)">
      <path id="Path_6" data-name="Path 6" d="M40.353,30.236H23.178a1,1,0,0,0-1,.995v3.387a1,1,0,0,0,1,.995H40.353a1,1,0,0,0,1-.995V31.231A1,1,0,0,0,40.353,30.236ZM23.976,32.595a.614.614,0,1,1,.614-.614A.614.614,0,0,1,23.976,32.595Zm14.753,1.771H34.39V32.924H38.73v1.441Z" transform="translate(-14.873 -19.519)" fill="#b3282d"/>
      <path id="Path_7" data-name="Path 7" d="M40.353,47.075H23.178a1,1,0,0,0-1,1v3.386a1,1,0,0,0,1,1H40.353a1,1,0,0,0,1-1V48.07A1,1,0,0,0,40.353,47.075ZM23.976,49.434a.614.614,0,1,1,.614-.614A.613.613,0,0,1,23.976,49.434ZM38.729,51.2H34.39V49.763H38.73V51.2Z" transform="translate(-14.873 -30.389)" fill="#b3282d"/>
      <path id="Path_8" data-name="Path 8" d="M40.353,63.915H23.178a1,1,0,0,0-1,1V68.3a1,1,0,0,0,1,1H40.353a1,1,0,0,0,1-1V64.91A1,1,0,0,0,40.353,63.915ZM23.976,66.274a.614.614,0,1,1,.614-.614A.613.613,0,0,1,23.976,66.274Zm14.753,1.77H34.39V66.6H38.73v1.441Z" transform="translate(-14.873 -41.26)" fill="#b3282d"/>
      <path id="Path_9" data-name="Path 9" d="M35.119,83.5h-1.83V80.838H31.018V83.5H29.185v.7H22.778v2.272h6.407v.7h5.934v-.7h6.407V84.2H35.119Z" transform="translate(-15.26 -52.177)" fill="#b3282d"/>
      <path id="Path_10" data-name="Path 10" d="M28.435,5.173a.859.859,0,0,1-.618-.344,7.424,7.424,0,0,0-5.934-3.007q-.221,0-.442.013a.854.854,0,0,1-.567-.172A8.282,8.282,0,0,0,8.411,4.735a.859.859,0,0,1-.657.483,7.38,7.38,0,0,0-.5,14.528V17.553a2.394,2.394,0,0,1,.135-.779,4.471,4.471,0,0,1,1.393-8.72c.125,0,.247.01.369.02a1.454,1.454,0,0,0,1.527-1.1,5.373,5.373,0,0,1,8.972-2.537,1.454,1.454,0,0,0,1.312.383,4.506,4.506,0,0,1,.918-.095,4.441,4.441,0,0,1,4.024,2.533,1.451,1.451,0,0,0,1.453.814c.151-.015.3-.023.448-.023a4.471,4.471,0,0,1,1.393,8.72,2.4,2.4,0,0,1,.134.779v2.192a7.379,7.379,0,0,0-.9-14.573Z" transform="translate(-1.405)" fill="#b3282d"/>
    </g>
  </g>
</svg>
