<?xml version="1.0" encoding="utf-8"?>
<!-- Generator: Adobe Illustrator 16.0.3, SVG Export Plug-In . SVG Version: 6.00 Build 0)  -->
<!DOCTYPE svg PUBLIC "-//W3C//DTD SVG 1.1//EN" "http://www.w3.org/Graphics/SVG/1.1/DTD/svg11.dtd">
<svg version="1.1" id="Layer_1" xmlns="http://www.w3.org/2000/svg" xmlns:xlink="http://www.w3.org/1999/xlink" x="0px" y="0px"
	 width="30px" height="30px" viewBox="0 0 30 30" enable-background="new 0 0 30 30" xml:space="preserve">
<path fill="#95989A" d="M28.281,13.125c0.518,0,0.959,0.183,1.324,0.549c0.367,0.366,0.549,0.808,0.549,1.325
	s-0.182,0.959-0.549,1.325c-0.365,0.365-0.807,0.549-1.324,0.549h-0.221l-1.682,9.689c-0.078,0.449-0.293,0.82-0.645,1.113
	c-0.352,0.291-0.752,0.439-1.199,0.439H5.798c-0.449,0-0.849-0.148-1.2-0.439c-0.351-0.293-0.566-0.664-0.644-1.113l-1.684-9.689
	H2.051c-0.517,0-0.959-0.184-1.325-0.549C0.36,15.958,0.178,15.517,0.178,15s0.183-0.958,0.549-1.325
	c0.366-0.366,0.808-0.549,1.325-0.549H28.281z M7.277,24.836c0.253-0.02,0.466-0.129,0.637-0.33c0.171-0.199,0.246-0.428,0.227-0.68
	l-0.468-6.09c-0.02-0.254-0.13-0.465-0.33-0.637c-0.2-0.172-0.427-0.248-0.681-0.227c-0.254,0.02-0.466,0.129-0.637,0.33
	c-0.17,0.199-0.246,0.426-0.227,0.68l0.468,6.09c0.02,0.242,0.12,0.449,0.3,0.613c0.181,0.166,0.393,0.25,0.637,0.25H7.277z
	 M13.293,23.898v-6.088c0-0.256-0.093-0.475-0.278-0.66c-0.185-0.184-0.405-0.277-0.659-0.277s-0.474,0.094-0.659,0.277
	c-0.186,0.186-0.278,0.404-0.278,0.66v6.088c0,0.254,0.093,0.475,0.278,0.66c0.185,0.184,0.405,0.277,0.659,0.277
	s0.474-0.094,0.659-0.277C13.2,24.373,13.293,24.152,13.293,23.898z M18.914,23.898v-6.088c0-0.256-0.094-0.475-0.279-0.66
	c-0.186-0.184-0.404-0.277-0.658-0.277s-0.473,0.094-0.658,0.277c-0.186,0.186-0.279,0.404-0.279,0.66v6.088
	c0,0.254,0.094,0.475,0.279,0.66c0.186,0.184,0.404,0.277,0.658,0.277s0.473-0.094,0.658-0.277
	C18.82,24.373,18.914,24.152,18.914,23.898z M24.066,23.973l0.469-6.09c0.018-0.254-0.057-0.48-0.229-0.68
	c-0.17-0.201-0.383-0.311-0.635-0.33c-0.256-0.021-0.482,0.055-0.682,0.227c-0.201,0.172-0.309,0.383-0.33,0.637l-0.469,6.09
	c-0.02,0.252,0.057,0.48,0.227,0.68c0.172,0.201,0.385,0.311,0.639,0.33h0.072c0.244,0,0.457-0.084,0.637-0.25
	C23.945,24.422,24.047,24.215,24.066,23.973z M7.145,6.159l-1.361,6.031H3.852L5.33,5.734c0.185-0.858,0.62-1.559,1.302-2.1
	c0.684-0.542,1.464-0.813,2.342-0.813h2.444c0-0.254,0.093-0.473,0.278-0.659c0.185-0.185,0.405-0.278,0.659-0.278h5.621
	c0.254,0,0.473,0.093,0.658,0.278c0.186,0.186,0.279,0.405,0.279,0.659h2.443c0.879,0,1.658,0.271,2.342,0.813
	c0.684,0.541,1.117,1.242,1.303,2.1l1.479,6.456h-1.932l-1.361-6.031c-0.107-0.429-0.33-0.781-0.666-1.054
	c-0.336-0.273-0.725-0.41-1.164-0.41h-2.443c0,0.253-0.094,0.473-0.279,0.658c-0.186,0.186-0.404,0.278-0.658,0.278h-5.621
	c-0.253,0-0.474-0.092-0.659-0.278c-0.186-0.185-0.278-0.405-0.278-0.658H8.975c-0.439,0-0.827,0.137-1.164,0.41
	C7.475,5.378,7.252,5.729,7.145,6.159z"/>
</svg>
