<?xml version="1.0" encoding="utf-8"?>
<!-- Generator: Adobe Illustrator 16.0.0, SVG Export Plug-In . SVG Version: 6.00 Build 0)  -->
<!DOCTYPE svg PUBLIC "-//W3C//DTD SVG 1.1//EN" "http://www.w3.org/Graphics/SVG/1.1/DTD/svg11.dtd">
<svg version="1.1" id="Layer_1" xmlns="http://www.w3.org/2000/svg" xmlns:xlink="http://www.w3.org/1999/xlink" x="0px" y="0px"
	 width="15px" height="15px" viewBox="0 0 15 15" enable-background="new 0 0 15 15" xml:space="preserve">
<path fill="#FFFFFF" d="M7.5,1.021c-3.578,0-6.479,2.901-6.479,6.479c0,3.577,2.9,6.479,6.479,6.479
	c3.577,0,6.479-2.902,6.479-6.479C13.979,3.923,11.077,1.021,7.5,1.021z M7.385,10.617c0.038,0.041,0.078,0.062,0.12,0.062
	c0.071,0,0.144-0.031,0.215-0.095c0.189-0.157,0.418-0.439,0.684-0.85L8.618,9.86c-0.637,1.109-1.314,1.664-2.031,1.664
	c-0.274,0-0.492-0.076-0.654-0.229c-0.162-0.155-0.244-0.351-0.244-0.587c0-0.155,0.035-0.354,0.107-0.595L6.675,7.09
	C6.76,6.799,6.802,6.58,6.802,6.432c0-0.093-0.04-0.174-0.12-0.247c-0.08-0.073-0.19-0.108-0.33-0.108
	c-0.063,0-0.139,0.002-0.228,0.006L6.207,6.03l2.146-0.149h0.38l-1.297,4.3c-0.072,0.258-0.109,0.326-0.109,0.405
	C7.327,10.633,7.346,10.577,7.385,10.617z M8.998,4.161c-0.182,0.182-0.4,0.272-0.658,0.272c-0.253,0-0.472-0.091-0.652-0.272
	c-0.182-0.181-0.271-0.4-0.271-0.658c0-0.257,0.09-0.476,0.269-0.658c0.18-0.181,0.398-0.272,0.655-0.272
	c0.262,0,0.48,0.091,0.66,0.272c0.18,0.182,0.27,0.401,0.27,0.658C9.27,3.76,9.18,3.979,8.998,4.161z"/>
</svg>
