<?xml version="1.0" encoding="utf-8"?>
<!-- Generator: Adobe Illustrator 16.0.0, SVG Export Plug-In . SVG Version: 6.00 Build 0)  -->
<!DOCTYPE svg PUBLIC "-//W3C//DTD SVG 1.1//EN" "http://www.w3.org/Graphics/SVG/1.1/DTD/svg11.dtd">
<svg version="1.1" id="Layer_1" xmlns="http://www.w3.org/2000/svg" xmlns:xlink="http://www.w3.org/1999/xlink" x="0px" y="0px"
	 width="15px" height="15px" viewBox="0 0 15 15" enable-background="new 0 0 15 15" xml:space="preserve">
<path fill="#FFFFFF" d="M1.416,5.556c0,0-0.201-1.538,2.295-1.538c2.498,0,8.539,0,8.539,0V1.967H3.778
	C3.778,1.967,0.809,2.309,1.416,5.556z"/>
<path fill="#FFFFFF" d="M5.913,9.846V3.593H4.251v6.253c-2.355-0.037-2.805,2.614-0.485,2.788C6.085,12.809,5.913,9.846,5.913,9.846
	z"/>
<path fill="#FFFFFF" d="M12.735,9.971c0,0-1.143,2.048-2.563,1.256c0,0-0.556-0.55-0.556-1.381V3.593h-1.66v6.253
	c0,0,0.31,3.426,3.496,2.644C11.453,12.489,13.289,11.854,12.735,9.971z"/>
</svg>
