<?xml version="1.0" encoding="utf-8"?>
<!-- Generator: Adobe Illustrator 16.0.0, SVG Export Plug-In . SVG Version: 6.00 Build 0)  -->
<!DOCTYPE svg PUBLIC "-//W3C//DTD SVG 1.1//EN" "http://www.w3.org/Graphics/SVG/1.1/DTD/svg11.dtd">
<svg version="1.1" id="Layer_1" xmlns="http://www.w3.org/2000/svg" xmlns:xlink="http://www.w3.org/1999/xlink" x="0px" y="0px"
	 width="15px" height="15px" viewBox="4.5 4.5 15 15" enable-background="new 4.5 4.5 15 15" xml:space="preserve">
<path fill="#606060" d="M17.009,7.2h-5.003c0-0.921-0.747-1.668-1.668-1.668H7.002C5.623,5.532,4.5,6.655,4.5,8.034v8.339
	c0,1.38,1.123,2.502,2.502,2.502h10.007c1.38,0,2.502-1.122,2.502-2.502V9.702C19.511,8.323,18.389,7.2,17.009,7.2z M17.009,17.207
	H7.002c-0.46,0-0.834-0.374-0.834-0.834v-5.837h3.335c0.229,0,0.417-0.188,0.417-0.417c0-0.229-0.188-0.417-0.417-0.417H6.168V8.034
	c0-0.46,0.374-0.834,0.834-0.834h3.335c0,0.921,0.747,1.668,1.668,1.668h5.003c0.46,0,0.834,0.374,0.834,0.833h-3.336
	c-0.229,0-0.417,0.188-0.417,0.417c0,0.229,0.188,0.417,0.417,0.417h3.336v5.837C17.843,16.833,17.469,17.207,17.009,17.207z"/>
<path fill="#606060" d="M14.507,12.203h-1.668v-1.667c0-0.461-0.373-0.834-0.833-0.834c-0.461,0-0.834,0.373-0.834,0.834v1.667
	H9.503c-0.461,0-0.834,0.373-0.834,0.834s0.373,0.834,0.834,0.834h1.668v1.668c0,0.461,0.373,0.834,0.834,0.834
	c0.461,0,0.833-0.373,0.833-0.834v-1.668h1.668c0.461,0,0.834-0.373,0.834-0.834S14.968,12.203,14.507,12.203z"/>
</svg>
