<?xml version="1.0" encoding="utf-8"?>
<!-- Generator: Adobe Illustrator 16.0.3, SVG Export Plug-In . SVG Version: 6.00 Build 0)  -->
<!DOCTYPE svg PUBLIC "-//W3C//DTD SVG 1.1//EN" "http://www.w3.org/Graphics/SVG/1.1/DTD/svg11.dtd">
<svg version="1.1" id="Layer_1" xmlns="http://www.w3.org/2000/svg" xmlns:xlink="http://www.w3.org/1999/xlink" x="0px" y="0px"
	 width="26px" height="21px" viewBox="0 0 26 21" enable-background="new 0 0 26 21" xml:space="preserve">
<rect x="0.716" y="0.578" fill="#1A1A1A" stroke="#FFFFFF" stroke-miterlimit="10" width="24.569" height="19.844"/>
<path fill="#FFFFFF" d="M14.981,15.204l-2.831-2.944c0.728-0.865,1.127-1.955,1.127-3.087c0-2.647-2.154-4.802-4.802-4.802
	c-2.648,0-4.802,2.154-4.802,4.802c0,2.648,2.154,4.802,4.802,4.802c0.994,0,1.941-0.3,2.751-0.869l2.852,2.965
	c0.119,0.125,0.279,0.193,0.451,0.193c0.163,0,0.317-0.061,0.435-0.176C15.214,15.85,15.222,15.453,14.981,15.204z M8.476,5.623
	c1.957,0,3.549,1.592,3.549,3.549c0,1.958-1.592,3.549-3.549,3.549c-1.958,0-3.55-1.592-3.55-3.549
	C4.926,7.215,6.519,5.623,8.476,5.623z"/>
<rect x="17.031" y="6.984" fill="#FFFFFF" width="5.891" height="1.016"/>
<rect x="17.031" y="9.992" fill="#FFFFFF" width="5.891" height="1.016"/>
<rect x="17.031" y="13.014" fill="#FFFFFF" width="5.891" height="1.016"/>
</svg>
