<?xml version="1.0" encoding="utf-8"?>
<!-- Generator: Adobe Illustrator 16.0.0, SVG Export Plug-In . SVG Version: 6.00 Build 0)  -->
<!DOCTYPE svg PUBLIC "-//W3C//DTD SVG 1.1//EN" "http://www.w3.org/Graphics/SVG/1.1/DTD/svg11.dtd">
<svg version="1.1" id="Layer_1" xmlns="http://www.w3.org/2000/svg" xmlns:xlink="http://www.w3.org/1999/xlink" x="0px" y="0px"
	 width="18px" height="18px" viewBox="0 0 18 18" enable-background="new 0 0 18 18" xml:space="preserve">
<g>
	<path fill="#267B70" d="M6.538,4.976c0,0.318-0.059,0.597-0.178,0.837s-0.279,0.44-0.481,0.601
		c-0.203,0.161-0.44,0.281-0.711,0.362c-0.271,0.082-0.562,0.122-0.87,0.122c-0.209,0-0.403-0.017-0.583-0.051
		C3.536,6.812,3.378,6.771,3.241,6.723S2.989,6.624,2.897,6.571s-0.159-0.1-0.199-0.141c-0.041-0.04-0.07-0.099-0.086-0.175
		c-0.017-0.077-0.026-0.187-0.026-0.33c0-0.097,0.003-0.178,0.009-0.243c0.006-0.066,0.017-0.119,0.03-0.159
		c0.014-0.041,0.033-0.07,0.056-0.086c0.023-0.017,0.051-0.026,0.082-0.026c0.044,0,0.105,0.026,0.185,0.077S3.13,5.596,3.255,5.659
		s0.273,0.119,0.447,0.17c0.173,0.052,0.374,0.077,0.601,0.077c0.15,0,0.284-0.018,0.402-0.054s0.219-0.086,0.302-0.152
		s0.146-0.147,0.189-0.243C5.24,5.361,5.261,5.253,5.261,5.135c0-0.138-0.037-0.255-0.112-0.353C5.074,4.683,4.977,4.596,4.857,4.52
		C4.737,4.443,4.6,4.372,4.447,4.304c-0.152-0.067-0.31-0.138-0.472-0.212c-0.162-0.075-0.32-0.16-0.473-0.255
		C3.35,3.741,3.213,3.628,3.093,3.495c-0.12-0.133-0.217-0.289-0.292-0.47c-0.075-0.181-0.112-0.398-0.112-0.65
		c0-0.29,0.054-0.545,0.161-0.765s0.252-0.402,0.435-0.547S3.683,0.81,3.931,0.738C4.179,0.666,4.441,0.63,4.719,0.63
		c0.143,0,0.287,0.011,0.43,0.033c0.144,0.021,0.278,0.051,0.402,0.089s0.236,0.08,0.332,0.126C5.98,0.925,6.044,0.964,6.075,0.995
		c0.031,0.031,0.052,0.058,0.063,0.08c0.011,0.021,0.021,0.051,0.028,0.086C6.174,1.197,6.18,1.243,6.183,1.297
		S6.188,1.419,6.188,1.5c0,0.09-0.002,0.167-0.007,0.229C6.176,1.792,6.168,1.844,6.157,1.884C6.146,1.924,6.131,1.954,6.11,1.973
		C6.09,1.992,6.063,2.001,6.028,2.001c-0.034,0-0.089-0.022-0.164-0.065C5.79,1.892,5.698,1.844,5.589,1.792
		C5.479,1.741,5.353,1.694,5.21,1.652C5.066,1.61,4.909,1.589,4.737,1.589c-0.134,0-0.25,0.016-0.351,0.049s-0.183,0.078-0.25,0.136
		C4.069,1.832,4.02,1.901,3.987,1.982C3.954,2.063,3.938,2.149,3.938,2.239c0,0.134,0.037,0.25,0.11,0.349
		C4.121,2.686,4.219,2.773,4.342,2.85s0.263,0.148,0.418,0.215c0.156,0.067,0.315,0.138,0.477,0.213
		C5.4,3.353,5.559,3.438,5.715,3.533C5.871,3.628,6.01,3.741,6.131,3.874s0.22,0.289,0.294,0.468
		C6.501,4.521,6.538,4.732,6.538,4.976z"/>
	<path fill="#267B70" d="M13.493,7.366c0,0.112-0.005,0.203-0.017,0.271c-0.01,0.068-0.025,0.122-0.045,0.159
		c-0.019,0.038-0.037,0.062-0.061,0.073c-0.021,0.011-0.044,0.016-0.07,0.016c-0.103,0-0.236-0.028-0.404-0.084
		c-0.166-0.056-0.346-0.136-0.54-0.241c-0.192-0.105-0.391-0.232-0.592-0.384s-0.386-0.325-0.559-0.521
		c-0.143,0.065-0.316,0.122-0.521,0.171c-0.204,0.048-0.431,0.072-0.681,0.072c-0.471,0-0.881-0.06-1.232-0.18
		c-0.351-0.12-0.643-0.306-0.877-0.559C7.661,5.906,7.485,5.584,7.369,5.193C7.251,4.802,7.193,4.336,7.193,3.797
		c0-0.489,0.063-0.93,0.188-1.321s0.31-0.723,0.557-0.996C8.183,1.206,8.488,0.997,8.851,0.85c0.364-0.146,0.785-0.22,1.265-0.22
		c0.453,0,0.854,0.061,1.199,0.183c0.349,0.122,0.641,0.308,0.88,0.559c0.238,0.251,0.421,0.568,0.542,0.952
		c0.124,0.383,0.185,0.837,0.185,1.361c0,0.271-0.016,0.526-0.054,0.765c-0.035,0.239-0.086,0.459-0.156,0.662
		C12.644,5.314,12.56,5.5,12.459,5.668c-0.098,0.168-0.213,0.316-0.341,0.444c0.193,0.168,0.364,0.296,0.514,0.383
		c0.15,0.087,0.276,0.153,0.377,0.197c0.103,0.043,0.183,0.075,0.243,0.096s0.11,0.047,0.143,0.08
		C13.43,6.9,13.455,6.957,13.47,7.036C13.486,7.116,13.493,7.226,13.493,7.366z M11.631,3.75c0-0.315-0.022-0.602-0.074-0.86
		c-0.049-0.259-0.134-0.481-0.255-0.667c-0.119-0.186-0.278-0.329-0.479-0.431c-0.199-0.101-0.449-0.152-0.748-0.152
		c-0.303,0-0.555,0.056-0.758,0.168C9.114,1.921,8.95,2.073,8.826,2.263S8.613,2.675,8.561,2.929
		C8.51,3.184,8.484,3.451,8.484,3.731c0,0.334,0.025,0.633,0.075,0.898c0.049,0.265,0.134,0.491,0.252,0.678s0.278,0.33,0.477,0.428
		c0.2,0.098,0.45,0.147,0.753,0.147c0.303,0,0.556-0.056,0.757-0.168c0.203-0.112,0.367-0.265,0.491-0.458
		c0.126-0.193,0.213-0.419,0.264-0.678C11.605,4.319,11.631,4.043,11.631,3.75z"/>
	<path fill="#267B70" d="M17.375,6.276c0,0.094-0.002,0.172-0.012,0.236c-0.007,0.063-0.019,0.117-0.035,0.159
		c-0.014,0.042-0.035,0.072-0.059,0.091c-0.023,0.019-0.049,0.028-0.081,0.028h-2.774c-0.103,0-0.189-0.03-0.26-0.091
		c-0.069-0.061-0.104-0.16-0.104-0.297V0.906c0-0.031,0.012-0.059,0.03-0.084c0.021-0.025,0.054-0.045,0.101-0.061
		c0.047-0.016,0.109-0.028,0.189-0.037c0.079-0.01,0.18-0.014,0.297-0.014c0.121,0,0.222,0.004,0.299,0.014
		c0.08,0.009,0.141,0.021,0.188,0.037c0.047,0.016,0.082,0.036,0.101,0.061c0.021,0.025,0.03,0.053,0.03,0.084v4.869h1.904
		c0.032,0,0.058,0.009,0.081,0.026s0.045,0.045,0.059,0.084c0.017,0.039,0.028,0.091,0.035,0.154
		C17.373,6.104,17.375,6.183,17.375,6.276z"/>
</g>
<path fill="#FFFFFF" d="M11.127,12.411c0,2.949-2.395,5.349-5.349,5.349c-2.955,0-5.348-2.399-5.348-5.349
	c0-2.955,2.393-5.349,5.348-5.349C8.732,7.062,11.127,9.456,11.127,12.411z"/>
<path d="M5.745,8.825c-2.535,0-4.59,2.056-4.59,4.591C1.155,15.947,3.21,18,5.745,18c2.534,0,4.59-2.053,4.59-4.584
	C10.335,10.881,8.279,8.825,5.745,8.825z M6.242,15.943L6.221,14H2v-1h4.207l-0.023-2.031l3.254,2.41L6.242,15.943z"/>
</svg>
