<?xml version="1.0" encoding="utf-8"?>
<!-- Generator: Adobe Illustrator 16.0.0, SVG Export Plug-In . SVG Version: 6.00 Build 0)  -->
<!DOCTYPE svg PUBLIC "-//W3C//DTD SVG 1.1//EN" "http://www.w3.org/Graphics/SVG/1.1/DTD/svg11.dtd">
<svg version="1.1" id="Layer_1" xmlns="http://www.w3.org/2000/svg" xmlns:xlink="http://www.w3.org/1999/xlink" x="0px" y="0px"
	 width="20px" height="20px" viewBox="0 0 20 20" enable-background="new 0 0 20 20" xml:space="preserve">
<g id="Layer_x0020_1">
	<path fill="#1265B2" d="M8.863,13.809c-0.006-0.24-0.01-0.416-0.01-0.537c0-0.695,0.098-1.304,0.296-1.809
		c0.147-0.383,0.379-0.77,0.704-1.161c0.237-0.284,0.667-0.696,1.281-1.24c0.619-0.548,1.019-0.981,1.202-1.306
		c0.188-0.321,0.277-0.676,0.277-1.057c0-0.693-0.271-1.301-0.813-1.829c-0.539-0.524-1.205-0.787-1.991-0.787
		c-0.759,0-1.392,0.239-1.899,0.713c-0.509,0.476-0.842,1.22-1,2.23L5.08,6.806c0.165-1.351,0.655-2.389,1.469-3.109
		c0.815-0.72,1.894-1.078,3.231-1.078c1.421,0,2.551,0.385,3.397,1.16c0.847,0.771,1.269,1.704,1.269,2.803
		c0,0.632-0.146,1.216-0.444,1.75c-0.297,0.533-0.874,1.186-1.739,1.949c-0.58,0.518-0.961,0.896-1.14,1.141
		c-0.179,0.247-0.312,0.527-0.396,0.84c-0.088,0.316-0.137,0.832-0.147,1.547H8.863L8.863,13.809z M8.753,17.382v-2.028h2.026v2.028
		H8.753z"/>
</g>
</svg>
