<?xml version="1.0" encoding="utf-8"?>
<!-- Generator: Adobe Illustrator 24.2.1, SVG Export Plug-In . SVG Version: 6.00 Build 0)  -->
<svg version="1.1" id="Layer_1" xmlns="http://www.w3.org/2000/svg" xmlns:xlink="http://www.w3.org/1999/xlink" x="0px" y="0px"
	 width="20px" height="20px" viewBox="0 0 20 20" style="enable-background:new 0 0 20 20;" xml:space="preserve">
<style type="text/css">
	.st0{fill:#1265B2;}
</style>
<g>
	<g>
		<g>
			<path class="st0" d="M16.7,2.7V2.1c0-0.6-0.5-1.1-1.1-1.1H4.4C3.8,1,3.3,1.5,3.3,2.1v0.6C1,6.9,1,6.8,1,7l0,0v0.7
				c0,0.6,0.4,1.2,0.9,1.5v9.4c0,0.2,0.2,0.4,0.4,0.4h15.4c0.2,0,0.4-0.2,0.4-0.4V9.2C18.6,8.9,19,8.3,19,7.7V7l0,0
				C19,6.8,18.9,6.9,16.7,2.7z M18,6.6h-2.2l-1.2-3.5H16L18,6.6z M13.2,7.3h2.1v0.4c0,0.6-0.5,1.1-1.1,1.1s-1.1-0.5-1.1-1.1V7.3
				H13.2z M13.1,6.6l-0.6-3.5H14l1.2,3.5H13.1z M4,2.1c0-0.2,0.2-0.4,0.4-0.4h11.2c0.2,0,0.4,0.2,0.4,0.4v0.4c-0.3,0-11.6,0-11.9,0
				V2.1H4z M12.5,7.3v0.4c0,0.6-0.5,1.1-1.1,1.1s-1.1-0.5-1.1-1.1V7.3H12.5z M10.4,6.6V3.1h1.5l0.6,3.5H10.4z M7.6,6.6l0.6-3.5h1.5
				v3.5H7.6z M9.6,7.3v0.4c0,0.6-0.5,1.1-1.1,1.1c-0.5-0.1-1-0.5-1-1.1V7.3H9.6z M4.9,6.6L6,3.1h1.4L6.9,6.6H4.9z M6.8,7.3v0.4
				c0,0.6-0.5,1.1-1.1,1.1s-1-0.5-1-1.1V7.3H6.8z M3.9,3.1h1.4L4.1,6.6H2L3.9,3.1z M1.7,7.7V7.3H4v0.4c0,0.6-0.6,1.1-1.2,1.1
				c-0.2,0-0.3,0-0.5-0.1C2,8.5,1.7,8.1,1.7,7.7z M8.2,18.3H4.7v-3h3.5V18.3z M8.2,14.6H4.7v-3h3.5V14.6z M17.4,18.3H8.9v-7.1
				c0-0.2-0.2-0.4-0.4-0.4H4.4C4.2,10.8,4,11,4,11.2v7.1H2.6V9.4c0.1,0,0.2,0,0.2,0c0.5,0,0.9-0.2,1.3-0.5c0.1-0.1,0.1-0.1,0.2-0.2
				c0.3,0.4,0.8,0.7,1.4,0.7s1.1-0.3,1.4-0.7C7.5,9.2,8,9.4,8.6,9.4S9.7,9.1,10,8.7c0.3,0.4,0.8,0.7,1.4,0.7c0.6,0,1.1-0.3,1.4-0.7
				c0.3,0.4,0.8,0.7,1.4,0.7c0.6,0,1.1-0.3,1.4-0.7c0.1,0.1,0.1,0.2,0.2,0.2c0.4,0.3,0.8,0.5,1.3,0.5c0.1,0,0.2,0,0.2,0v8.9H17.4z
				 M18.3,7.7c0,0.4-0.3,0.8-0.7,1c-0.1,0.1-0.3,0.1-0.4,0.1c-0.6,0-1.2-0.5-1.2-1.1V7.3h2.3V7.7z"/>
		</g>
	</g>
	<g>
		<g>
			<path class="st0" d="M16.3,15.7H16v-3.4c0-0.2-0.2-0.4-0.4-0.4h-4.2c-0.2,0-0.4,0.2-0.4,0.4v3.4h-0.4c-0.2,0-0.4,0.2-0.4,0.4
				c0,0.2,0.2,0.4,0.4,0.4h5.6c0.2,0,0.4-0.2,0.4-0.4C16.7,15.8,16.5,15.7,16.3,15.7z M15.3,15.7h-3.5v-3h3.5V15.7z"/>
		</g>
	</g>
</g>
</svg>
