<?xml version="1.0" encoding="utf-8"?>
<!-- Generator: Adobe Illustrator 16.0.3, SVG Export Plug-In . SVG Version: 6.00 Build 0)  -->
<!DOCTYPE svg PUBLIC "-//W3C//DTD SVG 1.1//EN" "http://www.w3.org/Graphics/SVG/1.1/DTD/svg11.dtd">
<svg version="1.1" id="Layer_1" xmlns="http://www.w3.org/2000/svg" xmlns:xlink="http://www.w3.org/1999/xlink" x="0px" y="0px"
	 width="30px" height="30px" viewBox="0 0 30 30" enable-background="new 0 0 30 30" xml:space="preserve">
<path fill="#95989A" d="M17.63,22.845c0-1.729,0.845-3.261,2.143-4.204c-1.193-0.507-2.602-0.834-4.312-1.004
	c-0.713-0.144-1.25-0.775-1.25-1.526c0-0.549,1.762-2.194,1.75-2.206c1.82-1.882,2.795-4.939,2.795-7.289
	C18.756,2.964,15.818,0,12.191,0C8.565,0,5.626,2.964,5.626,6.615c0,2.363,0.95,5.439,2.788,7.321c0,0,1.757,1.625,1.757,2.174
	c0,0.795-0.601,1.457-1.376,1.552c-3.87,0.406-6.183,1.625-7.977,3.963C0.3,22.301,0.019,23.657,0,24.382
	c0.006,0.188,0,3.126,0,3.126c0,1.382,1.119,2.501,2.5,2.501h19.38c1.281,0,2.335-0.962,2.483-2.202
	c-0.486,0.151-1.005,0.232-1.541,0.232C19.954,28.039,17.63,25.714,17.63,22.845z"/>
<g id="Page-1">
	<g id="icon-113-search-minus">
		<path id="search-minus" fill="#95989A" d="M25.602,26.609c-0.762,0.544-1.694,0.863-2.702,0.863c-2.574,0-4.66-2.087-4.66-4.662
			c0-2.574,2.086-4.661,4.66-4.661c2.575,0,4.662,2.087,4.662,4.661c0,1.007-0.32,1.94-0.862,2.703l3.063,3.063
			c0.3,0.302,0.299,0.784,0,1.083l-0.014,0.013c-0.299,0.299-0.785,0.3-1.084,0L25.602,26.609L25.602,26.609L25.602,26.609z
			 M22.899,26.375c1.97,0,3.566-1.596,3.566-3.564c0-1.968-1.597-3.564-3.566-3.564c-1.968,0-3.563,1.597-3.563,3.565
			C19.336,24.779,20.932,26.375,22.899,26.375L22.899,26.375z"/>
	</g>
</g>
</svg>
