<?xml version="1.0" encoding="utf-8"?>
<!-- Generator: Adobe Illustrator 16.0.3, SVG Export Plug-In . SVG Version: 6.00 Build 0)  -->
<!DOCTYPE svg PUBLIC "-//W3C//DTD SVG 1.1//EN" "http://www.w3.org/Graphics/SVG/1.1/DTD/svg11.dtd">
<svg version="1.1" id="Layer_1" xmlns="http://www.w3.org/2000/svg" xmlns:xlink="http://www.w3.org/1999/xlink" x="0px" y="0px"
	 width="15px" height="15px" viewBox="0 0 15 15" enable-background="new 0 0 15 15" xml:space="preserve">
<path d="M0,0v15h15V0H0z M1.112,1.241h3.476v3.34H1.112V1.241z M4.613,13.762H1.141V10.42h3.475L4.613,13.762L4.613,13.762z
	 M4.613,9.229H1.141v-3.41h3.475L4.613,9.229L4.613,9.229z M5.792,1.241h3.474v3.34H5.792V1.241z M9.291,13.762H5.816V10.42h3.475
	V13.762z M9.291,9.229H5.816v-3.41h3.475V9.229z M10.414,1.241h3.477v3.34h-3.477V1.241z M13.916,13.762h-3.475V10.42h3.475V13.762z
	 M13.916,9.229h-3.475v-3.41h3.475V9.229z"/>
</svg>
