<?xml version="1.0" encoding="utf-8"?>
<!-- Generator: Adobe Illustrator 16.0.3, SVG Export Plug-In . SVG Version: 6.00 Build 0)  -->
<!DOCTYPE svg PUBLIC "-//W3C//DTD SVG 1.1//EN" "http://www.w3.org/Graphics/SVG/1.1/DTD/svg11.dtd">
<svg version="1.1" id="Layer_1" xmlns="http://www.w3.org/2000/svg" xmlns:xlink="http://www.w3.org/1999/xlink" x="0px" y="0px"
	 width="15px" height="15px" viewBox="0 0 15 15" enable-background="new 0 0 15 15" xml:space="preserve">
<rect x="0.063" width="12.365" height="6.844"/>
<path fill="#4C4C4C" d="M15,13c0,1.104-0.896,2-2,2H2.063c-1.104,0-2-0.896-2-2V6.688c0-1.104,0.896-2,2-2H13c1.104,0,2,0.896,2,2
	V13z"/>
<g>
	<g>
		<path fill="#FFFFFF" d="M2.089,6.115v3.324h4.178V6.115h1.128v7.949H6.267v-3.729H2.089v3.729H0.974V6.115H2.089z"/>
		<path fill="#FFFFFF" d="M9.33,6.209c0.539-0.083,1.244-0.153,2.141-0.153c1.104,0,1.91,0.236,2.424,0.661
			C14.37,7.094,14.65,7.672,14.65,8.38c0,0.72-0.229,1.286-0.666,1.699c-0.59,0.577-1.551,0.872-2.643,0.872
			c-0.333,0-0.641-0.012-0.896-0.07v3.186H9.33V6.209z M10.445,10.042c0.244,0.06,0.552,0.083,0.923,0.083
			c1.347,0,2.167-0.602,2.167-1.698c0-1.05-0.809-1.557-2.038-1.557c-0.487,0-0.858,0.035-1.052,0.083V10.042z"/>
	</g>
</g>
</svg>
