<?xml version="1.0" encoding="utf-8"?>
<!-- Generator: Adobe Illustrator 16.0.0, SVG Export Plug-In . SVG Version: 6.00 Build 0)  -->
<!DOCTYPE svg PUBLIC "-//W3C//DTD SVG 1.1//EN" "http://www.w3.org/Graphics/SVG/1.1/DTD/svg11.dtd">
<svg version="1.1" id="Layer_1" xmlns="http://www.w3.org/2000/svg" xmlns:xlink="http://www.w3.org/1999/xlink" x="0px" y="0px"
	 width="19px" height="15px" viewBox="0 0 19 15" enable-background="new 0 0 19 15" xml:space="preserve">
<path fill="#333333" d="M17,6h-0.063H10V5h5c1.516-0.922,0-2,0-2h-0.063H10H7H6.986c0.356-0.511,1.506-0.955,1.605-0.993
	C8.684,1.978,8.76,1.945,8.813,1.905C9.219,1.591,11.938,0.906,9,0.813S3,3,3,3S2.197,3.755,1.498,5H0v7h1.44
	c0.381,0.656,0.889,1.325,1.56,2h3h4h4c1.516-0.922,0-2,0-2h-0.063H10v-1h5c1.516-0.922,0-2,0-2h-0.063H10V8h7
	C18.516,7.078,17,6,17,6z"/>
</svg>
