<?xml version="1.0" encoding="utf-8"?>
<!-- Generator: Adobe Illustrator 16.0.0, SVG Export Plug-In . SVG Version: 6.00 Build 0)  -->
<!DOCTYPE svg PUBLIC "-//W3C//DTD SVG 1.1//EN" "http://www.w3.org/Graphics/SVG/1.1/DTD/svg11.dtd">
<svg version="1.1" id="Layer_1" xmlns="http://www.w3.org/2000/svg" xmlns:xlink="http://www.w3.org/1999/xlink" x="0px" y="0px"
	 width="15px" height="15px" viewBox="0 0 15 15" enable-background="new 0 0 15 15" xml:space="preserve">
<path fill="#959595" d="M15,12.679C15,13.408,14.407,14,13.677,14H1.323C0.592,14,0,13.408,0,12.679V6.321C0,5.592,0.592,5,1.323,5
	h12.354C14.407,5,15,5.592,15,6.321V12.679z"/>
<path fill="none" stroke="#969696" stroke-miterlimit="10" d="M10.5,5.986C10.5,6.822,9.822,7.5,8.987,7.5H6.013
	C5.177,7.5,4.5,6.822,4.5,5.986V4.014C4.5,3.178,5.177,2.5,6.013,2.5h2.975c0.835,0,1.513,0.678,1.513,1.514V5.986z"/>
</svg>
