<?xml version="1.0" encoding="utf-8"?>
<!-- Generator: Adobe Illustrator 16.0.0, SVG Export Plug-In . SVG Version: 6.00 Build 0)  -->
<!DOCTYPE svg PUBLIC "-//W3C//DTD SVG 1.1//EN" "http://www.w3.org/Graphics/SVG/1.1/DTD/svg11.dtd">
<svg version="1.1" id="Layer_1" xmlns="http://www.w3.org/2000/svg" xmlns:xlink="http://www.w3.org/1999/xlink" x="0px" y="0px"
	 width="65px" height="65px" viewBox="0 0 65 65" enable-background="new 0 0 65 65" xml:space="preserve">
<path fill="#FFFFFF" d="M53,18.465C53,16.813,52.045,15,50.39,15H11.476C9.823,15,8,16.813,8,18.465v29.934
	C8,50.054,9.823,51,11.476,51H50.39c1.655,0,2.61-0.946,2.61-2.601V18.465z M23,45h-9v-9h9V45z M23,33h-9v-9h9V33z M35,45h-9v-9h9
	V45z M35,33h-9v-9h9V33z M47,45h-9v-9h9V45z M47,33h-9v-9h9V33z"/>
<rect x="8" y="9" fill="#C6C6C6" width="45" height="12"/>
<circle fill="#E5E5E5" stroke="#969696" stroke-miterlimit="10" cx="47.206" cy="48.199" r="15.884"/>
<rect x="43" y="41" fill="#969696" width="3" height="9"/>
<rect x="43" y="50" fill="#969696" width="12" height="3"/>
</svg>
