<?xml version="1.0" encoding="utf-8"?>
<!-- Generator: Adobe Illustrator 16.0.0, SVG Export Plug-In . SVG Version: 6.00 Build 0)  -->
<!DOCTYPE svg PUBLIC "-//W3C//DTD SVG 1.1//EN" "http://www.w3.org/Graphics/SVG/1.1/DTD/svg11.dtd">
<svg version="1.1" id="Layer_1" xmlns="http://www.w3.org/2000/svg" xmlns:xlink="http://www.w3.org/1999/xlink" x="0px" y="0px"
	 width="40px" height="40px" viewBox="0 0 40 40" enable-background="new 0 0 40 40" xml:space="preserve">
<path fill="none" stroke="#FFFFFF" stroke-width="2" stroke-miterlimit="10" d="M37,31.358C37,32.817,35.816,34,34.357,34H4.643
	C3.183,34,2,32.817,2,31.358V11.642C2,10.183,3.183,9,4.643,9h29.715C35.816,9,37,10.183,37,11.642V31.358z"/>
<circle fill="#FFFFFF" cx="11.108" cy="16.792" r="3.383"/>
<path fill="#FFFFFF" d="M17,28v-4.122C17,22.419,15.939,21,14.48,21H8.14C6.681,21,5,22.419,5,23.878V28H17z"/>
<rect x="20" y="16" fill="#FFFFFF" width="14" height="2"/>
<rect x="20" y="21" fill="#FFFFFF" width="14" height="2"/>
<rect x="20" y="26" fill="#FFFFFF" width="14" height="2"/>
</svg>
