<?xml version="1.0" encoding="utf-8"?>
<!-- Generator: Adobe Illustrator 16.0.0, SVG Export Plug-In . SVG Version: 6.00 Build 0)  -->
<!DOCTYPE svg PUBLIC "-//W3C//DTD SVG 1.1//EN" "http://www.w3.org/Graphics/SVG/1.1/DTD/svg11.dtd">
<svg version="1.1" id="Layer_1" xmlns="http://www.w3.org/2000/svg" xmlns:xlink="http://www.w3.org/1999/xlink" x="0px" y="0px"
	 width="40px" height="40px" viewBox="0 0 40 40" enable-background="new 0 0 40 40" xml:space="preserve">
<path fill="#FFFFFF" d="M8.74,19.527c0,0,2.701,4.351,3.5,7.352c0,0,2.15,1.45,4.251,0.7c0,0,12.453-17.004,19.354-19.355
	c0,0,2.501-0.95-4.501-0.9c0,0-9.952,6.201-15.554,14.753c0,0-2.534-5.785-5.87-4.57c-0.044,0.016-0.088,0.033-0.132,0.051
	C9.791,17.559,7.94,18.827,8.74,19.527z"/>
<path fill="#FFFFFF" d="M21.993,12H6v19h19V20.277l2-2.201V31.08c0,0,0.044,1.92-1.756,1.92H5.189C5.189,33,3,33.23,3,31.18V11.575
	c0,0-0.056-1.851,1.895-1.951c1.95-0.1,19.352,0.063,19.352,0.063L21.993,12z"/>
</svg>
