<?xml version="1.0" encoding="utf-8"?>
<!-- Generator: Adobe Illustrator 16.0.3, SVG Export Plug-In . SVG Version: 6.00 Build 0)  -->
<!DOCTYPE svg PUBLIC "-//W3C//DTD SVG 1.1//EN" "http://www.w3.org/Graphics/SVG/1.1/DTD/svg11.dtd">
<svg version="1.1" id="Layer_1" xmlns="http://www.w3.org/2000/svg" xmlns:xlink="http://www.w3.org/1999/xlink" x="0px" y="0px"
	 width="20px" height="20px" viewBox="0 0 20 20" enable-background="new 0 0 20 20" xml:space="preserve">
<g>
	<g>
		<path fill="#333333" d="M11.449,13.803c-2.304-0.831-3.041-1.533-3.041-3.034c0-0.901,0.704-0.607,1.012-2.257
			C9.55,7.827,10.171,8.5,10.29,6.937c0-0.623-0.339-0.777-0.339-0.777s0.173-0.922,0.24-1.631c0.084-0.884-0.516-3.167-3.715-3.167
			S2.677,3.645,2.761,4.528C2.829,5.238,3,6.16,3,6.16S2.662,6.314,2.662,6.937C2.781,8.5,3.402,7.827,3.53,8.511
			c0.309,1.65,1.013,1.356,1.013,2.257c0,1.501-0.736,2.203-3.041,3.034C1.224,13.901,0.562,14.057,0,14.3v3.714h14.802
			c0,0,0-1.369,0-1.948S13.762,14.636,11.449,13.803z M16.829,8.639V5.475H14.72v3.164h-3.163v2.109h3.163v3.163h2.109v-3.163h3.164
			V8.639H16.829z"/>
	</g>
</g>
</svg>
