<?xml version="1.0" encoding="utf-8"?>
<!-- Generator: Adobe Illustrator 16.0.0, SVG Export Plug-In . SVG Version: 6.00 Build 0)  -->
<!DOCTYPE svg PUBLIC "-//W3C//DTD SVG 1.1//EN" "http://www.w3.org/Graphics/SVG/1.1/DTD/svg11.dtd">
<svg version="1.1" id="Layer_1" xmlns="http://www.w3.org/2000/svg" xmlns:xlink="http://www.w3.org/1999/xlink" x="0px" y="0px"
	 width="20px" height="12px" viewBox="0 0 20 12" enable-background="new 0 0 20 12" xml:space="preserve">
<path fill="#333333" d="M20,1.244C20,1.661,19.661,2,19.244,2H0.756C0.338,2,0,1.661,0,1.244V0.756C0,0.339,0.338,0,0.756,0h18.488
	C19.661,0,20,0.339,20,0.756V1.244z"/>
<path fill="#333333" d="M20,6.244C20,6.661,19.661,7,19.244,7H0.756C0.338,7,0,6.661,0,6.244V5.756C0,5.339,0.338,5,0.756,5h18.488
	C19.661,5,20,5.339,20,5.756V6.244z"/>
<path fill="#333333" d="M20,11.244C20,11.661,19.661,12,19.244,12H0.756C0.338,12,0,11.661,0,11.244v-0.488
	C0,10.339,0.338,10,0.756,10h18.488C19.661,10,20,10.339,20,10.756V11.244z"/>
</svg>
