<?xml version="1.0" encoding="utf-8"?>
<!-- Generator: Adobe Illustrator 16.0.3, SVG Export Plug-In . SVG Version: 6.00 Build 0)  -->
<!DOCTYPE svg PUBLIC "-//W3C//DTD SVG 1.1//EN" "http://www.w3.org/Graphics/SVG/1.1/DTD/svg11.dtd">
<svg version="1.1" id="Layer_1" xmlns="http://www.w3.org/2000/svg" xmlns:xlink="http://www.w3.org/1999/xlink" x="0px" y="0px"
	 width="18px" height="18px" viewBox="0 0 18 18" enable-background="new 0 0 18 18" xml:space="preserve">
<g>
	<path fill="#454545" d="M8.962,4.862c1.328,0,2.408-1.08,2.408-2.408c0-1.328-1.08-2.408-2.408-2.408S6.554,1.126,6.554,2.454
		C6.554,3.782,7.635,4.862,8.962,4.862z"/>
	<path fill="#454545" d="M8.962,13.292c-1.328,0-2.408,1.08-2.408,2.408s1.081,2.408,2.408,2.408s2.408-1.08,2.408-2.408
		S10.29,13.292,8.962,13.292z"/>
	<path fill="#454545" d="M8.962,6.669c-1.328,0-2.408,1.08-2.408,2.408c0,1.327,1.081,2.408,2.408,2.408s2.408-1.081,2.408-2.408
		C11.37,7.749,10.29,6.669,8.962,6.669z"/>
</g>
</svg>
