<?xml version="1.0" encoding="utf-8"?>
<!-- Generator: Adobe Illustrator 16.0.0, SVG Export Plug-In . SVG Version: 6.00 Build 0)  -->
<!DOCTYPE svg PUBLIC "-//W3C//DTD SVG 1.1//EN" "http://www.w3.org/Graphics/SVG/1.1/DTD/svg11.dtd">
<svg version="1.1" id="Layer_1" xmlns="http://www.w3.org/2000/svg" xmlns:xlink="http://www.w3.org/1999/xlink" x="0px" y="0px"
	 width="18px" height="18px" viewBox="0 0 18 18" enable-background="new 0 0 18 18" xml:space="preserve">
<rect x="0.5" y="0.5" fill="none" stroke="#666666" stroke-miterlimit="10" width="17" height="17"/>
<rect x="4" y="14" fill="#666666" width="10" height="1"/>
<rect x="4" y="12" fill="#666666" width="10" height="1"/>
<rect x="4" y="10" fill="#666666" width="10" height="1"/>
<rect x="5.243" y="1.664" transform="matrix(0.674 0.7388 -0.7388 0.674 4.7883 -2.8667)" fill="#666666" width="0.798" height="4.655"/>
<rect x="5.211" y="4.319" transform="matrix(-0.7371 0.6758 -0.6758 -0.7371 14.3891 7.9818)" fill="#666666" width="0.861" height="4.942"/>
<rect x="11.898" y="4.694" transform="matrix(-0.6748 -0.738 0.738 -0.6748 15.4485 20.8519)" fill="#666666" width="0.841" height="4.657"/>
<rect x="11.898" y="1.77" transform="matrix(0.7377 -0.6752 0.6752 0.7377 0.3719 9.4382)" fill="#666666" width="0.867" height="4.942"/>
</svg>
