<?xml version="1.0" encoding="utf-8"?>
<!-- Generator: Adobe Illustrator 16.0.0, SVG Export Plug-In . SVG Version: 6.00 Build 0)  -->
<!DOCTYPE svg PUBLIC "-//W3C//DTD SVG 1.1//EN" "http://www.w3.org/Graphics/SVG/1.1/DTD/svg11.dtd">
<svg version="1.1" id="Layer_1" xmlns="http://www.w3.org/2000/svg" xmlns:xlink="http://www.w3.org/1999/xlink" x="0px" y="0px"
	 width="18px" height="18px" viewBox="0 0 18 18" enable-background="new 0 0 18 18" xml:space="preserve">
<path fill="#666666" d="M12.55,8c0.9,0,1.75,0.27,2.45,0.73V6H1v6h7.08C8.33,9.75,10.24,8,12.55,8z"/>
<g>
	<polygon fill="none" points="14,13 14,11 13,11 13,13 11,13 11,14 13,14 13,16 14,16 14,14 16,14 16,13 	"/>
	<path fill="#666666" d="M13.326,9.734c-2.082,0-3.767,1.668-3.767,3.729c0,2.062,1.685,3.729,3.767,3.729s3.767-1.667,3.767-3.729
		C17.093,11.402,15.408,9.734,13.326,9.734z M14,14v2h-1v-2h-2v-1h2v-2h1v2h2v1H14z"/>
</g>
<circle fill="#666666" cx="8.019" cy="2.401" r="2.401"/>
</svg>
