<?xml version="1.0" encoding="utf-8"?>
<!-- Generator: Adobe Illustrator 16.0.0, SVG Export Plug-In . SVG Version: 6.00 Build 0)  -->
<!DOCTYPE svg PUBLIC "-//W3C//DTD SVG 1.1//EN" "http://www.w3.org/Graphics/SVG/1.1/DTD/svg11.dtd">
<svg version="1.1" id="Layer_1" xmlns="http://www.w3.org/2000/svg" xmlns:xlink="http://www.w3.org/1999/xlink" x="0px" y="0px"
	 width="18px" height="18px" viewBox="0 0 18 18" enable-background="new 0 0 18 18" xml:space="preserve">
<path fill-rule="evenodd" clip-rule="evenodd" fill="#336699" d="M17.775,9c0,1.862-1.537,3.375-3.423,3.375H3.645
	c-1.887,0-3.419-1.514-3.419-3.375l0,0c0-1.863,1.533-3.375,3.419-3.375h10.708C16.238,5.625,17.775,7.137,17.775,9L17.775,9z"/>
<path fill="#FEFFFD" d="M17.19,9c0,1.572-1.296,2.843-2.883,2.843c-1.59,0-2.886-1.271-2.886-2.843c0-1.571,1.296-2.844,2.886-2.844
	C15.895,6.156,17.19,7.428,17.19,9z"/>
</svg>
