<?xml version="1.0" encoding="utf-8"?>
<!-- Generator: Adobe Illustrator 16.0.3, SVG Export Plug-In . SVG Version: 6.00 Build 0)  -->
<!DOCTYPE svg PUBLIC "-//W3C//DTD SVG 1.1//EN" "http://www.w3.org/Graphics/SVG/1.1/DTD/svg11.dtd">
<svg version="1.1" id="Layer_1" xmlns="http://www.w3.org/2000/svg" xmlns:xlink="http://www.w3.org/1999/xlink" x="0px" y="0px"
	 width="25px" height="25px" viewBox="0 0 25 25" enable-background="new 0 0 25 25" xml:space="preserve">
<g id="Page-1">
	<g id="Core" transform="translate(-381.000000, -381.000000)">
		<g id="select-all" transform="translate(381.000000, 381.000000)">
			<path id="Shape" fill="#333333" d="M0,2.748h2.774V0C1.249,0,0,1.236,0,2.748L0,2.748z M0,13.738h2.774v-2.748H0V13.738L0,13.738
				z M5.549,24.729h2.774v-2.747H5.549V24.729L5.549,24.729z M0,8.243h2.774V5.496H0V8.243L0,8.243z M13.871,0h-2.774v2.748h2.774V0
				L13.871,0z M22.194,0v2.748h2.774C24.969,1.236,23.72,0,22.194,0L22.194,0z M2.774,24.729v-2.747H0
				C0,23.491,1.249,24.729,2.774,24.729L2.774,24.729z M0,19.233h2.774v-2.747H0V19.233L0,19.233z M8.323,0H5.549v2.748h2.774V0
				L8.323,0z M11.097,24.729h2.774v-2.747h-2.774V24.729L11.097,24.729z M22.194,13.738h2.774v-2.748h-2.774V13.738L22.194,13.738z
				 M22.194,24.729c1.525,0,2.774-1.237,2.774-2.747h-2.774V24.729L22.194,24.729z M22.194,8.243h2.774V5.496h-2.774V8.243
				L22.194,8.243z M22.194,19.233h2.774v-2.747h-2.774V19.233L22.194,19.233z M16.646,24.729h2.775v-2.747h-2.775V24.729
				L16.646,24.729z M16.646,2.748h2.775V0h-2.775V2.748L16.646,2.748z M5.549,19.233h13.872V5.496H5.549V19.233L5.549,19.233z
				 M8.323,8.243h8.323v8.243H8.323V8.243L8.323,8.243z"/>
		</g>
	</g>
</g>
</svg>
