<?xml version="1.0" encoding="utf-8"?>
<!-- Generator: Adobe Illustrator 16.0.3, SVG Export Plug-In . SVG Version: 6.00 Build 0)  -->
<!DOCTYPE svg PUBLIC "-//W3C//DTD SVG 1.1//EN" "http://www.w3.org/Graphics/SVG/1.1/DTD/svg11.dtd">
<svg version="1.1" id="Layer_1" xmlns="http://www.w3.org/2000/svg" xmlns:xlink="http://www.w3.org/1999/xlink" x="0px" y="0px"
	 width="18px" height="18px" viewBox="55 55 18 18" enable-background="new 55 55 18 18" xml:space="preserve">
<g>
	<g>
		<path fill="#3F3F3F" d="M68.559,55.054H57.376c-1.235,0-2.236,1.001-2.236,2.236v13.418c0,1.236,1.001,2.236,2.236,2.236h6.15
			v-1.117h-6.15c-0.616,0-1.118-0.502-1.118-1.119V57.291c0-0.617,0.502-1.118,1.118-1.118h11.183c0.616,0,1.118,0.501,1.118,1.118
			v6.574l1.118-1.119v-5.456C70.795,56.056,69.794,55.054,68.559,55.054z"/>
	</g>
</g>
<path fill="#185691" d="M72.704,65.117l-0.791-0.79C71.694,64.109,71.408,64,71.122,64s-0.572,0.109-0.791,0.328l-4.8,4.799
	c-0.218,0.219-0.887,1.064-0.887,1.352l-0.559,2.467l2.468-0.559c0,0,1.131-0.668,1.35-0.887l4.801-4.801
	C73.141,66.262,73.141,65.555,72.704,65.117z M67.509,71.104c-0.063,0.061-0.281,0.207-0.55,0.379l-1.448-1.449
	c0.147-0.203,0.313-0.408,0.416-0.51l3.615-3.615l1.58,1.582L67.509,71.104z"/>
<path fill="#3F3F3F" d="M67.44,59.527h-8.946v-1.118h8.946V59.527z"/>
<path fill="#3F3F3F" d="M67.44,61.764h-8.946v-1.119h8.946V61.764z"/>
<path fill="#3F3F3F" d="M67.44,64h-8.946v-1.118h8.946V64z"/>
<path fill="#3F3F3F" d="M62.967,66.236h-4.473v-1.119h4.473V66.236z"/>
</svg>
