<?xml version="1.0" encoding="utf-8"?>
<!-- Generator: Adobe Illustrator 16.0.3, SVG Export Plug-In . SVG Version: 6.00 Build 0)  -->
<!DOCTYPE svg PUBLIC "-//W3C//DTD SVG 1.1//EN" "http://www.w3.org/Graphics/SVG/1.1/DTD/svg11.dtd">
<svg version="1.1" xmlns="http://www.w3.org/2000/svg" xmlns:xlink="http://www.w3.org/1999/xlink" x="0px" y="0px" width="27px"
	 height="20px" viewBox="0 0 27 20" enable-background="new 0 0 27 20" xml:space="preserve">
<g id="Layer_3">
	<rect x="12.884" y="15.063" fill="#555655" width="5.702" height="4.887"/>
	<rect x="15.328" y="6.918" fill="#555655" width="0.814" height="10.589"/>
	<rect x="12.07" y="3.66" fill="#555655" width="7.331" height="5.702"/>
	<rect x="7.183" y="11.805" fill="#555655" width="0.815" height="5.702"/>
	<polygon fill="#555655" points="23.473,11.805 7.183,11.805 7.183,12.619 23.473,12.619 23.473,17.507 24.287,17.507 
		24.287,12.619 24.287,11.805 	"/>
	<rect x="4.74" y="15.063" fill="#555655" width="5.701" height="4.887"/>
	<rect x="21.029" y="15.063" fill="#555655" width="5.701" height="4.887"/>
</g>
<g id="Layer_1">
	<path fill="#3B96D2" d="M9.979,5.279c-0.458,0-0.671,0.32-0.749,0.66c-0.271,1.219-1.43,3.077-3.734,3.077
		c-0.566,0-1.101-0.133-1.58-0.358l0.395-0.389c0.27-0.26,0.439-0.417,0.439-0.75c0-0.39-0.328-0.747-0.749-0.747H1.764
		c-0.455,0-0.748,0.368-0.748,0.747v2.244c0,0.401,0.319,0.745,0.748,0.745c0.36,0,0.512-0.202,0.747-0.442l0.304-0.303
		c0.784,0.471,1.702,0.745,2.682,0.745c3.728,0,5.229-3.549,5.229-4.434C10.726,5.529,10.332,5.279,9.979,5.279z M1.764,4.62
		c0.271-1.219,1.43-3.074,3.733-3.074c0.565,0,1.099,0.126,1.579,0.351L6.682,2.292C6.414,2.547,6.244,2.707,6.244,3.04
		c0,0.389,0.328,0.745,0.745,0.745h2.242c0.455,0,0.749-0.368,0.749-0.745V0.798c0-0.405-0.321-0.747-0.749-0.747
		c-0.362,0-0.513,0.204-0.746,0.442L8.178,0.799c-0.782-0.473-1.7-0.749-2.682-0.749c-3.725,0-5.228,3.547-5.228,4.434
		c0,0.543,0.398,0.794,0.747,0.794C1.47,5.279,1.687,4.957,1.764,4.62z"/>
</g>
<g id="Layer_2">
</g>
</svg>
