<?xml version="1.0" encoding="utf-8"?>
<!-- Generator: Adobe Illustrator 16.0.0, SVG Export Plug-In . SVG Version: 6.00 Build 0)  -->
<!DOCTYPE svg PUBLIC "-//W3C//DTD SVG 1.1//EN" "http://www.w3.org/Graphics/SVG/1.1/DTD/svg11.dtd">
<svg version="1.1" id="Layer_1" xmlns="http://www.w3.org/2000/svg" xmlns:xlink="http://www.w3.org/1999/xlink" x="0px" y="0px"
	 width="18px" height="18px" viewBox="0 0 18 18" enable-background="new 0 0 18 18" xml:space="preserve">
<path fill-rule="evenodd" clip-rule="evenodd" fill="#333333" d="M13.978,4.093c0.328-0.37,0.605-0.732,0.938-1.035
	c0.14-0.125,0.424-0.203,0.591-0.148c0.139,0.047,0.285,0.316,0.29,0.491c0.023,1.179,0.017,2.359,0.01,3.54
	c-0.002,0.375-0.23,0.568-0.585,0.571c-1.164,0.011-2.327,0.019-3.49-0.01c-0.185-0.005-0.458-0.171-0.518-0.33
	c-0.06-0.155,0.046-0.439,0.172-0.586c0.312-0.364,0.676-0.682,1.016-1.014c-0.979-1.132-2.878-1.489-4.42-0.869
	C6.873,5.148,6.087,5.924,5.673,7.043C5.538,7.41,5.343,7.556,4.961,7.525c-0.338-0.028-0.68-0.021-1.018-0.002
	C3.497,7.547,3.406,7.336,3.523,6.956c0.662-2.147,1.988-3.688,4.165-4.358c2.105-0.648,4.049-0.227,5.798,1.106
	C13.611,3.8,13.735,3.9,13.978,4.093z"/>
<path fill-rule="evenodd" clip-rule="evenodd" fill="#333333" d="M5.181,13.032C4.892,13.363,4.62,13.73,4.288,14.03
	c-0.152,0.138-0.45,0.237-0.63,0.182c-0.144-0.044-0.293-0.344-0.297-0.533c-0.028-1.147-0.012-2.295-0.015-3.443
	c0-0.377,0.201-0.59,0.558-0.595c1.18-0.016,2.36-0.02,3.54,0.006c0.168,0.004,0.43,0.17,0.474,0.315
	c0.053,0.17-0.025,0.451-0.151,0.593c-0.316,0.36-0.69,0.67-1.035,0.994c1.041,1.24,3.096,1.575,4.689,0.807
	c0.954-0.462,1.666-1.175,2.027-2.178c0.147-0.41,0.362-0.552,0.78-0.51c0.353,0.035,0.711,0.011,1.066,0.007
	c0.266-0.003,0.321,0.107,0.274,0.365c-0.425,2.307-2.731,4.415-5.097,4.709C8.484,14.995,6.778,14.424,5.181,13.032z"/>
</svg>
