<?xml version="1.0" encoding="utf-8"?>
<!-- Generator: Adobe Illustrator 16.0.3, SVG Export Plug-In . SVG Version: 6.00 Build 0)  -->
<!DOCTYPE svg PUBLIC "-//W3C//DTD SVG 1.1//EN" "http://www.w3.org/Graphics/SVG/1.1/DTD/svg11.dtd">
<svg version="1.1" id="Layer_1" xmlns="http://www.w3.org/2000/svg" xmlns:xlink="http://www.w3.org/1999/xlink" x="0px" y="0px"
	 width="18px" height="18px" viewBox="503 503 18 18" enable-background="new 503 503 18 18" xml:space="preserve">
<polygon fill="#185691" points="507.516,515.154 507.516,517.401 512.01,514.03 507.516,510.66 507.516,512.907 503.021,512.907 
	503.021,515.154 "/>
<path fill="#3F3F3F" d="M514.258,503.021v3.371h-5.619v2.682h1.124v-1.558h4.495v10.113l4.494,2.248h-8.989v-0.576h-1.124V521H521
	v-14.608L514.258,503.021z M516.266,507.499c-0.509,0-0.921-0.412-0.921-0.921c0-0.508,0.412-0.92,0.921-0.92
	s0.921,0.412,0.921,0.92C517.187,507.086,516.774,507.499,516.266,507.499z"/>
<rect x="508.639" y="517.77" fill="#3F3F3F" width="1.124" height="2.797"/>
<rect x="508.639" y="507.676" fill="#3F3F3F" width="1.124" height="2.795"/>
</svg>
