<?xml version="1.0" encoding="utf-8"?>
<!-- Generator: Adobe Illustrator 16.0.3, SVG Export Plug-In . SVG Version: 6.00 Build 0)  -->
<!DOCTYPE svg PUBLIC "-//W3C//DTD SVG 1.1//EN" "http://www.w3.org/Graphics/SVG/1.1/DTD/svg11.dtd">
<svg version="1.1" id="Layer_1" xmlns="http://www.w3.org/2000/svg" xmlns:xlink="http://www.w3.org/1999/xlink" x="0px" y="0px"
	 width="20px" height="20px" viewBox="0 0 20 20" enable-background="new 0 0 20 20" xml:space="preserve">
<g>
	<g>
		<path fill="#333333" d="M3.981,8.959c0.148,0.963,0.892,2.186,2.112,2.617c0.501,0.175,1.05,0.179,1.551-0.004
			c1.2-0.434,1.968-1.654,2.119-2.613c0.162-0.013,0.372-0.238,0.602-1.049c0.313-1.107-0.021-1.271-0.303-1.245
			c0.054-0.151,0.094-0.306,0.122-0.454c0.479-2.869-0.936-2.966-0.936-2.966s-0.235-0.45-0.851-0.791
			c-0.414-0.245-0.989-0.433-1.745-0.37c-0.246,0.01-0.479,0.06-0.697,0.131l0,0C5.676,2.31,5.421,2.448,5.188,2.61
			c-0.282,0.178-0.551,0.4-0.787,0.652C4.029,3.646,3.695,4.14,3.551,4.755C3.43,5.216,3.457,5.697,3.557,6.215l0,0
			c0.027,0.152,0.068,0.303,0.122,0.454C3.396,6.642,3.063,6.807,3.376,7.913C3.608,8.721,3.82,8.946,3.981,8.959z"/>
		<path fill="#333333" d="M12.419,12.722c-1.718-0.436-3.113-1.417-3.113-1.417l-1.09,3.445l-0.205,0.649l-0.004-0.011l-0.178,0.553
			l-0.576-1.631c1.414-1.972-0.286-1.952-0.38-1.948c-0.094-0.004-1.792-0.023-0.38,1.948l-0.574,1.631L5.74,15.389l-0.003,0.011
			L5.532,14.75l-1.094-3.445c0,0-1.395,0.981-3.114,1.417c-1.281,0.328-1.342,1.808-1.292,2.537c0,0,0.074,0.991,0.148,1.43
			c0,0,2.503,1.624,6.692,1.628c4.191,0,6.693-1.628,6.693-1.628c0.073-0.438,0.148-1.43,0.148-1.43
			C13.761,14.529,13.7,13.05,12.419,12.722z"/>
	</g>
</g>
<polygon fill="#333333" points="16.819,8.355 16.819,5.197 14.716,5.197 14.716,8.355 11.557,8.355 11.557,10.46 14.716,10.46 
	14.716,13.619 16.819,13.619 16.819,10.46 19.979,10.46 19.979,8.355 "/>
</svg>
