<?xml version="1.0" encoding="utf-8"?>
<!-- Generator: Adobe Illustrator 22.1.0, SVG Export Plug-In . SVG Version: 6.00 Build 0)  -->
<svg version="1.1" id="Layer_1" xmlns="http://www.w3.org/2000/svg" xmlns:xlink="http://www.w3.org/1999/xlink" x="0px" y="0px"
	 viewBox="0 0 24 24" style="enable-background:new 0 0 24 24;" xml:space="preserve">
<style type="text/css">
	.st0{display:none;opacity:0.72;fill:#459BCC;}
	.st1{fill:#459BCC;}
	.st2{fill:none;stroke:#459BCC;stroke-width:1.5;stroke-miterlimit:10;}
	.st3{fill:#459BCC;stroke:#459BCC;stroke-miterlimit:10;}
</style>
<rect x="2" y="2" class="st0" width="20" height="20"/>
<rect x="1.3" y="5.9" transform="matrix(0.7052 -0.709 0.709 0.7052 -4.5909 4.6267)" class="st1" width="3.9" height="3.9"/>
<rect x="11.4" y="11.6" transform="matrix(0.7052 -0.709 0.709 0.7052 -5.4508 12.8764)" class="st1" width="2.8" height="2.8"/>
<rect x="11.2" y="0.8" transform="matrix(0.7052 -0.709 0.709 0.7052 2.1283 9.5851)" class="st1" width="2.8" height="2.8"/>
<line class="st2" x1="8" y1="13" x2="11.6" y2="13"/>
<line class="st2" x1="8.8" y1="13.4" x2="8.7" y2="2.2"/>
<line class="st2" x1="5.1" y1="7.8" x2="8.4" y2="7.8"/>
<line class="st2" x1="8" y1="2.2" x2="11.4" y2="2.2"/>
<circle class="st2" cx="18.1" cy="17.8" r="4.9"/>
<g>
	<g>
		<polygon class="st3" points="20.2,17.1 18.1,19.2 16,17.1 15.9,17.3 18,19.5 18.2,19.5 20.4,17.3 		"/>
	</g>
</g>
</svg>
