<?xml version="1.0" encoding="utf-8"?>
<!-- Generator: Adobe Illustrator 16.0.3, SVG Export Plug-In . SVG Version: 6.00 Build 0)  -->
<!DOCTYPE svg PUBLIC "-//W3C//DTD SVG 1.1//EN" "http://www.w3.org/Graphics/SVG/1.1/DTD/svg11.dtd">
<svg version="1.1" id="Layer_1" xmlns="http://www.w3.org/2000/svg" xmlns:xlink="http://www.w3.org/1999/xlink" x="0px" y="0px"
	 width="11px" height="10px" viewBox="0 0 11 10" enable-background="new 0 0 11 10" xml:space="preserve">
<g transform="translate(480 96)">
	<path d="M-469-86h-11v-9.43h1.964c0,0.649,0.529,1.179,1.179,1.179s1.178-0.53,1.178-1.179h2.359c0,0.649,0.527,1.179,1.178,1.179
		c0.649,0,1.18-0.53,1.18-1.179H-469V-86L-469-86z M-469.787-93.072h-9.427v6.284h9.427V-93.072L-469.787-93.072z M-476.071-92.287
		h-1.572v1.572h1.572V-92.287z M-473.714-92.287h-1.572v1.572h1.572V-92.287z M-471.357-92.287h-1.572v1.572h1.572V-92.287z
		 M-476.071-89.932h-1.572v1.574h1.572V-89.932z M-473.714-89.932h-1.572v1.574h1.572V-89.932z M-471.357-89.932h-1.572v1.574h1.572
		V-89.932z"/>
</g>
<circle cx="3.148" cy="0.633" r="0.633"/>
<circle cx="7.867" cy="0.633" r="0.633"/>
</svg>
