<?xml version="1.0" encoding="utf-8"?>
<!-- Generator: Adobe Illustrator 16.0.3, SVG Export Plug-In . SVG Version: 6.00 Build 0)  -->
<!DOCTYPE svg PUBLIC "-//W3C//DTD SVG 1.1//EN" "http://www.w3.org/Graphics/SVG/1.1/DTD/svg11.dtd">
<svg version="1.1" id="Layer_1" xmlns="http://www.w3.org/2000/svg" xmlns:xlink="http://www.w3.org/1999/xlink" x="0px" y="0px"
	 width="18px" height="18px" viewBox="0 0 18 18" enable-background="new 0 0 18 18" xml:space="preserve">
<rect x="0.288" y="1.516" fill="#FFFFFF" width="10.025" height="1.816"/>
<rect x="0.571" y="16.225" fill="#FFFFFF" width="9.769" height="1.668"/>
<polygon fill="#FFFFFF" points="4.89,10.537 0.288,3.265 1.266,2.615 5.868,9.886 "/>
<polygon fill="#FFFFFF" points="5.443,10.2 0.841,2.928 1.819,2.277 6.421,9.549 "/>
<polygon fill="#FFFFFF" points="0.571,16.29 4.916,8.489 5.885,9.118 1.541,16.917 "/>
<polygon fill="#FFFFFF" points="0.924,16.606 5.269,8.908 6.238,9.528 1.893,17.225 "/>
<polygon fill="#FFFFFF" points="1.107,16.606 5.452,8.908 6.421,9.528 2.077,17.225 "/>
<ellipse fill="none" stroke="#FFFFFF" stroke-width="1.2" stroke-miterlimit="10" cx="12.317" cy="12.286" rx="5.119" ry="5.187"/>
<rect x="9.361" y="1.516" fill="#FFFFFF" width="1.052" height="2.663"/>
<rect x="9.361" y="15.207" fill="#FFFFFF" width="1.052" height="2.686"/>
<polygon fill="#FFFFFF" points="14.789,7.414 16.056,7.922 13.379,10.287 12.112,9.78 "/>
<polygon fill="#FFFFFF" points="16.423,15.24 15.962,16.482 12.835,14.676 13.296,13.437 "/>
</svg>
