<?xml version="1.0" encoding="utf-8"?>
<!-- Generator: Adobe Illustrator 16.0.3, SVG Export Plug-In . SVG Version: 6.00 Build 0)  -->
<!DOCTYPE svg PUBLIC "-//W3C//DTD SVG 1.1//EN" "http://www.w3.org/Graphics/SVG/1.1/DTD/svg11.dtd">
<svg version="1.1" id="Layer_1" xmlns="http://www.w3.org/2000/svg" xmlns:xlink="http://www.w3.org/1999/xlink" x="0px" y="0px"
	 width="18px" height="18px" viewBox="0 0 18 18" enable-background="new 0 0 18 18" xml:space="preserve">
<g id="Ebene_x0020_1">
	<path fill="#FFFFFF" d="M0.693,0h14.84c0.371,0,0.675,0.329,0.675,0.73v16.1c0,0.405-0.304,0.732-0.675,0.732H0.693
		c-0.371,0-0.674-0.326-0.674-0.732V0.73C0.02,0.329,0.324,0,0.693,0z M0.695,0.733C0.694,0.733,0.694,0.733,0.695,0.733
		L0.694,16.832c0,0,0,0,0.001,0h14.836c0.002,0,0.002,0,0.002,0V0.733c0,0,0,0-0.002,0H0.695z"/>
</g>
<rect x="1.986" y="2.449" fill="#FFFFFF" width="12.331" height="13.129"/>
<path fill="#40A511" d="M8.375,18V6.544l9.605,5.729L8.375,18z"/>
</svg>
