<?xml version="1.0" encoding="utf-8"?>
<!-- Generator: Adobe Illustrator 16.0.0, SVG Export Plug-In . SVG Version: 6.00 Build 0)  -->
<!DOCTYPE svg PUBLIC "-//W3C//DTD SVG 1.1//EN" "http://www.w3.org/Graphics/SVG/1.1/DTD/svg11.dtd">
<svg version="1.1" id="Layer_1" xmlns="http://www.w3.org/2000/svg" xmlns:xlink="http://www.w3.org/1999/xlink" x="0px" y="0px"
	 width="18px" height="18px" viewBox="0 0 18 18" enable-background="new 0 0 18 18" xml:space="preserve">
<path fill-rule="evenodd" clip-rule="evenodd" fill="#666666" d="M3.39,1c3.147,2.033,6.294,4.066,9.441,6.1
	c0.761,0.491,1.519,0.987,2.282,1.472c0.258,0.164,0.405,0.372,0.357,0.685c-0.047,0.307-0.259,0.452-0.538,0.53
	c-1.17,0.327-2.34,0.657-3.51,0.987c-0.054,0.016-0.106,0.035-0.175,0.057c0.445,0.703,0.884,1.395,1.322,2.088
	c0.481,0.758,0.965,1.516,1.444,2.275c0.25,0.396,0.162,0.746-0.245,0.982c-1.051,0.609-2.103,1.217-3.154,1.824
	c-0.113,0-0.227,0-0.34,0c-0.163-0.168-0.358-0.314-0.483-0.508c-0.843-1.299-1.671-2.607-2.504-3.912
	c-0.127-0.201-0.257-0.398-0.39-0.604c-0.076,0.057-0.133,0.098-0.189,0.139c-1.02,0.764-2.04,1.525-3.058,2.289
	c-0.215,0.162-0.443,0.229-0.692,0.105c-0.273-0.135-0.357-0.373-0.357-0.668c0.003-4.338,0.006-8.678-0.003-13.017
	C2.597,1.446,2.706,1.169,3.05,1C3.164,1,3.277,1,3.39,1z M13.371,8.932C10.178,6.87,7.026,4.834,3.858,2.788
	c0,3.644,0,7.253,0,10.888c0.083-0.061,0.141-0.1,0.196-0.141c0.845-0.631,1.689-1.264,2.534-1.895
	c0.416-0.313,0.778-0.248,1.055,0.188c0.645,1.016,1.289,2.031,1.933,3.047c0.348,0.549,0.697,1.098,1.053,1.66
	c0.673-0.391,1.33-0.773,1.997-1.16c-0.041-0.07-0.071-0.127-0.104-0.18c-0.556-0.877-1.112-1.756-1.669-2.635
	c-0.367-0.58-0.739-1.156-1.101-1.74c-0.258-0.416-0.087-0.843,0.381-0.985c0.095-0.028,0.19-0.055,0.285-0.081
	C11.385,9.485,12.352,9.216,13.371,8.932z"/>
</svg>
