<?xml version="1.0" encoding="utf-8"?>
<!-- Generator: Adobe Illustrator 16.0.0, SVG Export Plug-In . SVG Version: 6.00 Build 0)  -->
<!DOCTYPE svg PUBLIC "-//W3C//DTD SVG 1.1//EN" "http://www.w3.org/Graphics/SVG/1.1/DTD/svg11.dtd">
<svg version="1.1" id="Layer_1" xmlns="http://www.w3.org/2000/svg" xmlns:xlink="http://www.w3.org/1999/xlink" x="0px" y="0px"
	 width="18px" height="18px" viewBox="0 0 18 18" enable-background="new 0 0 18 18" xml:space="preserve">
<path fill-rule="evenodd" clip-rule="evenodd" fill="#666666" d="M9.951,13.676c-0.46-0.137-0.78-0.471-1.339-0.223
	c-0.54,0.242-0.5,0.711-0.73,1.08c-0.034,0.004-0.075,0.014-0.115,0.014c-0.265-0.002-0.592,0.084-0.781-0.039
	c-0.18-0.115-0.207-0.463-0.323-0.691c-0.048-0.094-0.145-0.174-0.235-0.242c-0.485-0.352-0.959-0.275-1.424,0.047
	c-0.023,0.018-0.054,0.027-0.122,0.055c-0.181-0.186-0.378-0.379-0.559-0.59c-0.044-0.049-0.032-0.15-0.043-0.232
	c-0.001-0.016,0.01-0.041,0.023-0.057c0.396-0.471,0.223-0.938-0.021-1.402c-0.03-0.057-0.087-0.105-0.142-0.139
	c-0.05-0.033-0.116-0.041-0.173-0.064c-0.723-0.252-0.758-0.301-0.655-1.057c0.008-0.063,0.077-0.121,0.127-0.172
	c0.026-0.026,0.073-0.04,0.112-0.045c0.6-0.055,0.842-0.489,1.021-0.978C4.599,8.868,4.581,8.762,4.55,8.687
	C4.451,8.452,4.335,8.224,4.226,7.989c0.028-0.035,0.051-0.07,0.08-0.098c0.189-0.186,0.358-0.479,0.578-0.525
	c0.214-0.044,0.476,0.18,0.724,0.261C5.708,7.66,5.832,7.631,5.943,7.623C5.982,7.62,6.017,7.58,6.056,7.574
	c0.477-0.079,0.701-0.393,0.782-0.84C6.874,6.53,7,6.493,7.19,6.493C7.88,6.499,7.871,6.495,8.128,7.13
	c0.053,0.128,0.207,0.217,0.318,0.317C8.475,7.472,8.53,7.464,8.561,7.486c0.358,0.251,0.703,0.183,1.037-0.044
	c0.224-0.153,0.383-0.118,0.568,0.092c0.408,0.461,0.433,0.456,0.158,0.985c-0.109,0.22-0.076,0.394-0.02,0.627
	c0.11,0.457,0.393,0.666,0.804,0.754c0.231,0.049,0.271,0.175,0.269,0.388c-0.009,0.67,0,0.676-0.629,0.908
	c-0.169,0.061-0.299,0.127-0.309,0.324c0,0.021-0.008,0.043-0.018,0.059c-0.273,0.416-0.189,0.805,0.07,1.186
	c0.114,0.164,0.078,0.287-0.068,0.416C10.256,13.332,10.111,13.508,9.951,13.676z M7.402,12.086c0.885,0.006,1.616-0.707,1.624-1.58
	c0.009-0.895-0.715-1.629-1.607-1.634C6.513,8.869,5.8,9.583,5.804,10.488C5.806,11.383,6.504,12.084,7.402,12.086z"/>
<path fill-rule="evenodd" clip-rule="evenodd" fill="#666666" d="M10,6.152c0.152-0.237,0.464-0.325,0.439-0.692
	c-0.018-0.258-0.063-0.454-0.276-0.592c-0.156-0.1-0.188-0.216-0.092-0.379c0.092-0.158,0.085-0.371,0.383-0.358
	c0.588,0.022,0.806-0.205,0.8-0.807c-0.009-0.398,0.358-0.285,0.521-0.447c0.274,0.115,0.347,0.458,0.748,0.458
	c0.396,0,0.499-0.288,0.745-0.454c0.113,0.042,0.229,0.091,0.351,0.13c0.171,0.055,0.218,0.156,0.206,0.341
	c-0.039,0.509,0.235,0.808,0.755,0.777c0.297-0.018,0.333,0.168,0.427,0.356c0.095,0.189,0.031,0.291-0.112,0.414
	c-0.354,0.304-0.377,0.747-0.018,1.031c0.243,0.194,0.156,0.354,0.078,0.575c-0.081,0.234-0.224,0.22-0.411,0.199
	c-0.427-0.045-0.772,0.316-0.699,0.754c0.039,0.22-0.034,0.315-0.231,0.393c-0.193,0.074-0.343,0.151-0.512-0.072
	c-0.282-0.365-0.647-0.379-0.962-0.03c-0.213,0.235-0.398,0.18-0.652,0.097c-0.276-0.091-0.229-0.276-0.229-0.473
	c0.006-0.295-0.329-0.73-0.563-0.67C10.197,6.831,10.086,6.532,10,6.152z M13.591,5.414c-0.006-0.576-0.483-1.057-1.052-1.053
	c-0.563,0.001-1.056,0.498-1.062,1.059c-0.006,0.584,0.487,1.068,1.081,1.059C13.144,6.468,13.595,6.002,13.591,5.414z"/>
<path fill="none" stroke="#666666" stroke-miterlimit="10" d="M17.5,14.5c0,1.104-0.896,2-2,2h-12c-1.104,0-2-0.896-2-2v-12
	c0-1.104,0.896-2,2-2h12c1.104,0,2,0.896,2,2V14.5z"/>
</svg>
