<?xml version="1.0" encoding="utf-8"?>
<!-- Generator: Adobe Illustrator 16.0.0, SVG Export Plug-In . SVG Version: 6.00 Build 0)  -->
<!DOCTYPE svg PUBLIC "-//W3C//DTD SVG 1.1//EN" "http://www.w3.org/Graphics/SVG/1.1/DTD/svg11.dtd">
<svg version="1.1" id="Layer_1" xmlns="http://www.w3.org/2000/svg" xmlns:xlink="http://www.w3.org/1999/xlink" x="0px" y="0px"
	 width="20px" height="20px" viewBox="0 0 20 20" enable-background="new 0 0 20 20" xml:space="preserve">
<rect x="14" y="2" fill="#444444" width="1" height="14"/>
<rect x="12.586" y="12.414" transform="matrix(0.7071 -0.7071 0.7071 0.7071 -6.7131 13.6212)" fill="#444444" width="1" height="5"/>
<rect x="15.414" y="12.414" transform="matrix(0.7071 0.7071 -0.7071 0.7071 15.207 -6.8847)" fill="#444444" width="1" height="4.999"/>
<g>
	<path fill="#444444" d="M5.771,6.014l-0.56,1.695h-0.72L6.323,2.32h0.84l1.839,5.389H8.257L7.682,6.014H5.771z M7.538,5.471
		L7.01,3.919c-0.12-0.352-0.2-0.671-0.28-0.983H6.715c-0.08,0.32-0.168,0.647-0.272,0.976L5.915,5.471H7.538z"/>
</g>
<g>
	<path fill="#444444" d="M4.448,16.219l2.99-4.374V11.82H4.704v-0.584h3.638v0.424l-2.974,4.358v0.024h3.014v0.583H4.448V16.219z"/>
</g>
</svg>
