<?xml version="1.0" encoding="utf-8"?>
<!-- Generator: Adobe Illustrator 16.0.0, SVG Export Plug-In . SVG Version: 6.00 Build 0)  -->
<!DOCTYPE svg PUBLIC "-//W3C//DTD SVG 1.1//EN" "http://www.w3.org/Graphics/SVG/1.1/DTD/svg11.dtd">
<svg version="1.1" id="captcha_control-02" xmlns="http://www.w3.org/2000/svg" xmlns:xlink="http://www.w3.org/1999/xlink" x="0px"
	 y="0px" width="20px" height="18.5px" viewBox="0 0 20 18.5" enable-background="new 0 0 20 18.5" xml:space="preserve">
<rect id="Rectangle_1136" x="0.5" y="2" fill="#FFFFFF" stroke="#0057FF" stroke-miterlimit="10" width="19" height="16"/>
<g enable-background="new    ">
	<path fill="#0057FF" d="M3.29,9.32c0.179-0.094,0.362-0.111,0.55-0.053C4.026,9.326,4.167,9.444,4.26,9.62
		c0.093,0.175,0.11,0.357,0.052,0.547c-0.058,0.188-0.175,0.329-0.351,0.423c-0.173,0.091-0.354,0.107-0.543,0.049
		c-0.188-0.058-0.33-0.175-0.423-0.35c-0.093-0.176-0.11-0.358-0.054-0.547C2.998,9.555,3.114,9.414,3.29,9.32z M4.607,11.165
		l0.738,3.536c0.044,0.201,0.081,0.33,0.109,0.385c0.018,0.032,0.045,0.055,0.085,0.067c0.041,0.014,0.075,0.013,0.104-0.002
		c0.049-0.026,0.086-0.073,0.112-0.143c0.073-0.175,0.126-0.45,0.16-0.825l0.192,0.01c-0.034,0.986-0.296,1.609-0.785,1.867
		c-0.188,0.1-0.363,0.125-0.529,0.079c-0.167-0.046-0.293-0.15-0.378-0.312c-0.056-0.106-0.104-0.255-0.142-0.444l-0.491-2.381
		c-0.047-0.229-0.097-0.394-0.15-0.494c-0.033-0.063-0.091-0.104-0.171-0.125c-0.081-0.021-0.169-0.005-0.264,0.045
		c-0.043,0.022-0.094,0.052-0.153,0.087l-0.035-0.203l1.338-1.011L4.607,11.165z"/>
</g>
<g enable-background="new    ">
	<path fill="#0057FF" d="M10.019,7.823l0.146,0.132c-0.316,0.378-0.626,0.654-0.933,0.83C8.826,9.02,8.404,9.137,7.968,9.137
		c-0.293,0-0.553-0.063-0.779-0.188c-0.226-0.126-0.393-0.302-0.5-0.527C6.581,8.195,6.527,7.963,6.527,7.726
		c0-0.534,0.145-1.059,0.435-1.575c0.29-0.516,0.672-0.924,1.147-1.225c0.475-0.302,0.942-0.452,1.401-0.452
		c0.368,0,0.645,0.081,0.83,0.244s0.278,0.364,0.278,0.605c0,0.218-0.07,0.403-0.21,0.557c-0.14,0.153-0.296,0.229-0.469,0.229
		c-0.15,0-0.274-0.049-0.374-0.146S9.418,5.75,9.418,5.616c0-0.176,0.088-0.329,0.264-0.459c0.121-0.091,0.181-0.171,0.181-0.239
		c0-0.059-0.024-0.105-0.073-0.142c-0.065-0.052-0.15-0.078-0.254-0.078c-0.273,0-0.531,0.11-0.771,0.332
		C8.445,5.323,8.201,5.694,8.031,6.144S7.777,7.02,7.777,7.423c0,0.319,0.086,0.573,0.259,0.765
		c0.172,0.189,0.377,0.285,0.615,0.285c0.208,0,0.434-0.054,0.676-0.161S9.8,8.041,10.019,7.823z"/>
</g>
<g enable-background="new    ">
	<path fill="#0057FF" d="M14.319,12.543c-0.205-0.273-0.358-0.539-0.462-0.799c-0.102-0.258-0.153-0.51-0.153-0.754
		c0-0.498,0.167-0.914,0.501-1.248c0.333-0.333,0.775-0.5,1.325-0.5c0.508,0,0.908,0.139,1.201,0.418
		c0.293,0.277,0.439,0.614,0.439,1.008c0,0.261-0.062,0.496-0.186,0.708s-0.302,0.398-0.532,0.562
		c-0.15,0.104-0.379,0.212-0.688,0.322c0.378,0.495,0.612,0.846,0.706,1.053c0.092,0.206,0.139,0.437,0.139,0.69
		c0,0.596-0.204,1.101-0.613,1.514c-0.408,0.413-0.926,0.62-1.555,0.62c-0.563,0-1.005-0.15-1.326-0.451
		c-0.32-0.302-0.48-0.68-0.48-1.136c0-0.31,0.07-0.594,0.213-0.854c0.141-0.261,0.35-0.496,0.627-0.708
		C13.676,12.834,13.958,12.687,14.319,12.543z M14.495,12.763c-0.166,0.144-0.283,0.271-0.352,0.381
		c-0.104,0.166-0.201,0.413-0.29,0.739c-0.09,0.328-0.135,0.675-0.135,1.043c0,0.306,0.06,0.531,0.178,0.676
		c0.119,0.146,0.275,0.218,0.467,0.218c0.234,0,0.436-0.107,0.605-0.322c0.238-0.296,0.356-0.652,0.356-1.069
		c0-0.273-0.056-0.527-0.166-0.762S14.827,13.131,14.495,12.763z M15.56,12.035c0.173-0.124,0.286-0.254,0.342-0.391
		c0.124-0.31,0.186-0.721,0.186-1.235c0-0.319-0.05-0.544-0.149-0.677c-0.099-0.131-0.215-0.197-0.349-0.197
		c-0.173,0-0.304,0.063-0.396,0.19c-0.16,0.222-0.239,0.524-0.239,0.908c0,0.234,0.042,0.453,0.127,0.657
		C15.166,11.494,15.325,11.742,15.56,12.035z"/>
</g>
</svg>
