<?xml version="1.0" encoding="utf-8"?>
<!-- Generator: Adobe Illustrator 16.0.0, SVG Export Plug-In . SVG Version: 6.00 Build 0)  -->
<!DOCTYPE svg PUBLIC "-//W3C//DTD SVG 1.1//EN" "http://www.w3.org/Graphics/SVG/1.1/DTD/svg11.dtd">
<svg version="1.1" id="Layer_1" xmlns="http://www.w3.org/2000/svg" xmlns:xlink="http://www.w3.org/1999/xlink" x="0px" y="0px"
	 width="18px" height="18px" viewBox="0 0 18 18" enable-background="new 0 0 18 18" xml:space="preserve">
<path fill="none" stroke="#666666" stroke-miterlimit="10" d="M16.5,13.892c0,1.545-1.063,2.608-2.608,2.608H4.108
	c-1.543,0-2.608-1.063-2.608-2.608V4.108C1.5,2.564,2.564,1.5,4.108,1.5h9.784c1.545,0,2.608,1.064,2.608,2.608V13.892z"/>
<path fill="#666666" d="M7.633,11.227H3.617c-0.404,0-0.731,0.271-0.731,0.606v1.709v0.113v1.115h5.478v-1.115v-0.113v-1.709
	C8.364,11.497,8.038,11.227,7.633,11.227z"/>
<path fill="#666666" d="M6.727,9.129c0,0.61-0.494,1.104-1.102,1.104c-0.608,0-1.101-0.494-1.101-1.104c0-0.606,0.492-1.1,1.101-1.1
	C6.233,8.029,6.727,8.523,6.727,9.129z"/>
<g>
	<path fill="#666666" d="M13.647,11.997l-0.899-1.256c-0.369-0.479-0.601-0.789-0.821-1.116H11.91
		c-0.203,0.328-0.401,0.63-0.771,1.127l-0.848,1.245H9.244l2.162-2.869L9.327,6.326h1.06l0.934,1.33
		c0.265,0.37,0.461,0.657,0.65,0.959h0.031c0.197-0.337,0.377-0.597,0.638-0.959l0.97-1.33h1.048l-2.153,2.761l2.204,2.91H13.647z"
		/>
</g>
<rect x="9" y="4" fill="#666666" width="6" height="1"/>
</svg>
