<?xml version="1.0" encoding="utf-8"?>
<!-- Generator: Adobe Illustrator 16.0.0, SVG Export Plug-In . SVG Version: 6.00 Build 0)  -->
<!DOCTYPE svg PUBLIC "-//W3C//DTD SVG 1.1//EN" "http://www.w3.org/Graphics/SVG/1.1/DTD/svg11.dtd">
<svg version="1.1" id="Layer_1" xmlns="http://www.w3.org/2000/svg" xmlns:xlink="http://www.w3.org/1999/xlink" x="0px" y="0px"
	 width="18px" height="18px" viewBox="0 0 18 18" enable-background="new 0 0 18 18" xml:space="preserve">
<rect x="15.318" y="12.368" transform="matrix(0.8454 -0.5341 0.5341 0.8454 -5.292 10.6762)" fill="#666666" width="0.96" height="4.225"/>
<path fill="none" stroke="#666666" stroke-miterlimit="10" d="M12.548,13.542c-2.258,0-4.089-1.802-4.089-4.021
	c0-2.222,1.831-4.022,4.089-4.022c0.437,0,0.855,0.069,1.25,0.193v-5.16H1.286v16.233h12.512v-3.418
	C13.403,13.472,12.984,13.542,12.548,13.542z"/>
<circle fill="none" stroke="#666666" stroke-miterlimit="10" cx="12.595" cy="9.584" r="3.935"/>
<rect x="3.049" y="3.907" fill="#666666" width="0.896" height="1"/>
<rect x="4.637" y="3.907" fill="#666666" width="5.94" height="1"/>
<rect x="3.049" y="6.907" fill="#666666" width="0.896" height="1"/>
<rect x="4.637" y="6.907" fill="#666666" width="4.688" height="1"/>
<rect x="3.049" y="9.907" fill="#666666" width="0.896" height="1"/>
<rect x="4.637" y="9.907" fill="#666666" width="4.505" height="1"/>
<rect x="3.049" y="6.907" fill="#666666" width="0.896" height="1"/>
<rect x="4.637" y="6.907" fill="#666666" width="4.505" height="1"/>
<rect x="3.049" y="12.906" fill="#666666" width="0.896" height="1"/>
<rect x="4.637" y="12.906" fill="#666666" width="7.063" height="1"/>
</svg>
