<?xml version="1.0" encoding="utf-8"?>
<!-- Generator: Adobe Illustrator 16.0.0, SVG Export Plug-In . SVG Version: 6.00 Build 0)  -->
<!DOCTYPE svg PUBLIC "-//W3C//DTD SVG 1.1//EN" "http://www.w3.org/Graphics/SVG/1.1/DTD/svg11.dtd">
<svg version="1.1" id="Layer_1" xmlns="http://www.w3.org/2000/svg" xmlns:xlink="http://www.w3.org/1999/xlink" x="0px" y="0px"
	 width="18px" height="18px" viewBox="0 0 18 18" enable-background="new 0 0 18 18" xml:space="preserve">
<rect x="9.94" y="4.616" transform="matrix(0.6897 0.7241 -0.7241 0.6897 7.9018 -7.7609)" fill="#336699" width="6.133" height="1.447"/>
<rect x="8.461" y="0.605" transform="matrix(0.6902 0.7236 -0.7236 0.6902 3.807 -6.2346)" fill="#336699" width="1.447" height="1.447"/>
<rect x="15.947" y="8.462" transform="matrix(0.6897 0.7241 -0.7241 0.6897 11.8241 -9.2213)" fill="#336699" width="1.447" height="1.446"/>
<rect x="1.932" y="12.038" transform="matrix(0.6899 0.7239 -0.7239 0.6899 10.8161 0.2739)" fill="#336699" width="6.312" height="1.446"/>
<rect x="0.605" y="8.092" transform="matrix(0.6899 0.7239 -0.7239 0.6899 6.7938 1.7721)" fill="#336699" width="1.447" height="1.446"/>
<rect x="8.092" y="15.948" transform="matrix(0.69 0.7238 -0.7238 0.69 14.799 -1.2126)" fill="#336699" width="1.446" height="1.447"/>
<rect x="4.606" y="1.866" transform="matrix(0.69 0.7238 -0.7238 0.69 5.2734 -2.3061)" fill="#336699" width="1.447" height="6.276"/>
<rect x="11.977" y="9.756" transform="matrix(0.689 0.7248 -0.7248 0.689 13.3501 -5.1707)" fill="#336699" width="1.446" height="6.428"/>
</svg>
