<?xml version="1.0" encoding="utf-8"?>
<!-- Generator: Adobe Illustrator 16.0.3, SVG Export Plug-In . SVG Version: 6.00 Build 0)  -->
<!DOCTYPE svg PUBLIC "-//W3C//DTD SVG 1.1//EN" "http://www.w3.org/Graphics/SVG/1.1/DTD/svg11.dtd">
<svg version="1.1" id="Layer_1" xmlns:sketch="http://www.bohemiancoding.com/sketch/ns"
	 xmlns="http://www.w3.org/2000/svg" xmlns:xlink="http://www.w3.org/1999/xlink" x="0px" y="0px" width="18px" height="18px"
	 viewBox="7 7 18 18" enable-background="new 7 7 18 18" xml:space="preserve">
<title></title>
<desc></desc>
<g id="Page-1">
	<g id="icon-141-box-filled">
		<path id="box-filled" fill="#245A8F" d="M7,13l3.6-6h10.8l3.6,6v0.375V25H7V13L7,13z M24.118,13l-3.149-5.25h-9.937L7.882,13
			H24.118L24.118,13z M7.72,13.75v10.501h16.56V13.75H7.72L7.72,13.75z M14.198,17.501c-0.794,0-1.438,0.664-1.438,1.499
			c0,0.829,0.645,1.501,1.438,1.501h3.603c0.796,0,1.439-0.668,1.439-1.501c0-0.828-0.646-1.499-1.439-1.499H14.198L14.198,17.501z
			 M14.202,18.251c-0.398,0-0.722,0.333-0.722,0.749c0,0.414,0.315,0.749,0.722,0.749h3.595c0.4,0,0.724-0.33,0.724-0.749
			c0-0.414-0.315-0.749-0.724-0.749H14.202L14.202,18.251z M12.04,8.5l-0.432,0.75h8.783L19.96,8.5H12.04L12.04,8.5z M11.104,10
			l-0.432,0.75h10.657L20.896,10H11.104L11.104,10z M10.24,11.5l-0.432,0.75h12.384l-0.432-0.75H10.24L10.24,11.5z"/>
	</g>
</g>
</svg>
