<?xml version="1.0" encoding="utf-8"?>
<!-- Generator: Adobe Illustrator 16.0.3, SVG Export Plug-In . SVG Version: 6.00 Build 0)  -->
<!DOCTYPE svg PUBLIC "-//W3C//DTD SVG 1.1//EN" "http://www.w3.org/Graphics/SVG/1.1/DTD/svg11.dtd">
<svg version="1.1" id="Layer_1" xmlns="http://www.w3.org/2000/svg" xmlns:xlink="http://www.w3.org/1999/xlink" x="0px" y="0px"
	 width="18px" height="18px" viewBox="0 0 18 18" enable-background="new 0 0 18 18" xml:space="preserve">
<g>
	<path id="path-1_2_" fill="#666666" d="M6.098,0.054v0.455c-0.63,0.107-1.096,0.342-1.396,0.705
		c-0.3,0.362-0.449,0.749-0.449,1.159c0,0.436,0.072,0.976,0.218,1.619c0.157,0.688,0.236,1.265,0.236,1.732
		c0,0.518-0.145,1.016-0.436,1.496c-0.29,0.48-0.634,0.844-1.031,1.094C2.842,8.563,2.303,8.786,1.621,8.981
		c1.174,0.361,1.984,0.848,2.433,1.463s0.672,1.226,0.672,1.832c0,0.365-0.076,0.883-0.227,1.552
		c-0.158,0.669-0.236,1.234-0.236,1.694c0,1.099,0.612,1.755,1.835,1.97v0.454c-0.561,0-1.017-0.041-1.367-0.123
		c-0.351-0.082-0.74-0.273-1.169-0.573c-0.43-0.3-0.766-0.673-1.009-1.121c-0.242-0.449-0.364-0.902-0.364-1.364
		c0-0.421,0.098-1.034,0.293-1.836c0.146-0.6,0.218-1.116,0.218-1.552c0-1.174-0.619-1.868-1.856-2.083V8.698
		c0.663-0.101,1.138-0.366,1.424-0.795C2.557,7.474,2.701,7.016,2.701,6.53c0-0.43-0.07-0.925-0.209-1.486
		c-0.196-0.795-0.293-1.388-0.293-1.78c0-0.763,0.333-1.484,0.999-2.162C3.862,0.422,4.83,0.074,6.098,0.054L6.098,0.054z"/>
</g>
<g>
	<path id="path-3_2_" fill="#666666" d="M11.934,0.054v0.455c0.631,0.107,1.097,0.342,1.396,0.705
		c0.301,0.362,0.45,0.749,0.45,1.159c0,0.436-0.072,0.976-0.217,1.619c-0.159,0.688-0.237,1.265-0.237,1.732
		c0,0.518,0.145,1.016,0.435,1.496s0.635,0.844,1.032,1.094c0.397,0.249,0.938,0.472,1.618,0.667
		c-1.173,0.361-1.984,0.848-2.432,1.463c-0.449,0.615-0.673,1.226-0.673,1.832c0,0.365,0.075,0.883,0.228,1.552
		c0.158,0.669,0.236,1.234,0.236,1.694c0,1.099-0.611,1.755-1.836,1.97v0.454c0.561,0,1.018-0.041,1.368-0.123
		c0.35-0.082,0.739-0.273,1.168-0.573c0.43-0.3,0.766-0.673,1.008-1.121c0.243-0.449,0.365-0.902,0.365-1.364
		c0-0.421-0.098-1.034-0.294-1.836c-0.144-0.6-0.217-1.116-0.217-1.552c0-1.174,0.617-1.868,1.855-2.083V8.698
		c-0.662-0.101-1.138-0.366-1.425-0.795c-0.287-0.429-0.431-0.887-0.431-1.373c0-0.43,0.069-0.925,0.207-1.486
		c0.196-0.795,0.295-1.388,0.295-1.78c0-0.763-0.333-1.484-0.999-2.162C14.169,0.422,13.201,0.074,11.934,0.054L11.934,0.054z"/>
</g>
</svg>
