<?xml version="1.0" encoding="utf-8"?>
<!-- Generator: Adobe Illustrator 16.0.0, SVG Export Plug-In . SVG Version: 6.00 Build 0)  -->
<!DOCTYPE svg PUBLIC "-//W3C//DTD SVG 1.1//EN" "http://www.w3.org/Graphics/SVG/1.1/DTD/svg11.dtd">
<svg version="1.1" id="Layer_1" xmlns="http://www.w3.org/2000/svg" xmlns:xlink="http://www.w3.org/1999/xlink" x="0px" y="0px"
	 width="70px" height="60px" viewBox="0 0 70 60" enable-background="new 0 0 70 60" xml:space="preserve">
<path fill="#FAFEFF" d="M48.75,5h-9.994c-0.676-2-2.212-3-4.006-3h-3.5c-1.793,0-3.33,1-4.005,3H17.25C14.834,5,13,6.584,13,9
	v44.625C13,56.041,14.834,58,17.25,58h31.5c2.416,0,4.25-1.959,4.25-4.375V9C53,6.584,51.166,5,48.75,5z M22,10h8V6h5v4h9v4H22V10z
	 M23,49h-4v-4h4V49z M23,41h-4v-4h4V41z M23,33h-4v-4h4V33z M23,25h-4v-4h4V25z M47,49H26v-4h21V49z M47,41H26v-4h21V41z M47,33H26
	v-4h21V33z M47,25H26v-4h21V25z"/>
</svg>
