<?xml version="1.0" encoding="utf-8"?>
<!-- Generator: Adobe Illustrator 16.0.0, SVG Export Plug-In . SVG Version: 6.00 Build 0)  -->
<!DOCTYPE svg PUBLIC "-//W3C//DTD SVG 1.1//EN" "http://www.w3.org/Graphics/SVG/1.1/DTD/svg11.dtd">
<svg version="1.1" id="Layer_1" xmlns="http://www.w3.org/2000/svg" xmlns:xlink="http://www.w3.org/1999/xlink" x="0px" y="0px"
	 width="16px" height="16px" viewBox="0 0 16 16" enable-background="new 0 0 16 16" xml:space="preserve">
<g>
	<path fill="#969696" d="M4.72,8.376c-0.747,0-1.349-0.237-1.806-0.71S2.23,6.555,2.23,5.754c0-0.874,0.243-1.567,0.729-2.08
		s1.134-0.769,1.945-0.769c0.776,0,1.384,0.232,1.819,0.696C7.16,4.065,7.379,4.717,7.379,5.557c0,0.864-0.242,1.55-0.725,2.058
		C6.17,8.123,5.525,8.376,4.72,8.376z M12.389,3.052L5.548,13.555H3.761l6.825-10.503H12.389z M4.859,4.194
		c-0.713,0-1.069,0.496-1.069,1.487c0,0.938,0.339,1.406,1.018,1.406c0.694,0,1.04-0.488,1.04-1.465
		C5.848,4.67,5.519,4.194,4.859,4.194z M11.26,13.701c-0.746,0-1.348-0.236-1.805-0.711c-0.457-0.473-0.686-1.11-0.686-1.911
		c0-0.874,0.244-1.567,0.73-2.08c0.484-0.513,1.133-0.769,1.943-0.769c0.781,0,1.389,0.229,1.824,0.688
		c0.434,0.458,0.652,1.109,0.652,1.949c0,0.863-0.242,1.553-0.727,2.064C12.711,13.445,12.066,13.701,11.26,13.701z M11.377,9.52
		c-0.707,0-1.061,0.495-1.061,1.486c0,0.938,0.344,1.406,1.031,1.406c0.693,0,1.041-0.488,1.041-1.465
		c0-0.454-0.094-0.806-0.279-1.055S11.68,9.52,11.377,9.52z"/>
</g>
</svg>
