<?xml version="1.0" encoding="utf-8"?>
<!-- Generator: Adobe Illustrator 16.0.0, SVG Export Plug-In . SVG Version: 6.00 Build 0)  -->
<!DOCTYPE svg PUBLIC "-//W3C//DTD SVG 1.1//EN" "http://www.w3.org/Graphics/SVG/1.1/DTD/svg11.dtd">
<svg version="1.1" id="Layer_1" xmlns="http://www.w3.org/2000/svg" xmlns:xlink="http://www.w3.org/1999/xlink" x="0px" y="0px"
	 width="17px" height="17px" viewBox="0 0 17 17" enable-background="new 0 0 17 17" xml:space="preserve">
<circle fill="none" stroke="#969696" stroke-miterlimit="10" cx="8.328" cy="8.547" r="7.891"/>
<g>
	<path fill="#969696" d="M9.455,11.287c0,0.318,0.059,0.527,0.176,0.625s0.273,0.161,0.469,0.19s0.334,0.07,0.415,0.123
		s0.122,0.161,0.122,0.327c0,0.217-0.189,0.326-0.567,0.326c-0.164,0-0.408-0.02-0.734-0.059c-0.327-0.039-0.568-0.059-0.725-0.059
		c-0.157,0-0.386,0.026-0.686,0.078c-0.3,0.052-0.525,0.078-0.675,0.078c-0.15,0-0.279-0.043-0.387-0.129
		c-0.108-0.086-0.162-0.197-0.162-0.336c0-0.086,0.029-0.16,0.088-0.223s0.208-0.113,0.449-0.152s0.409-0.117,0.503-0.234
		c0.094-0.116,0.142-0.398,0.142-0.848V7.702c0-0.279-0.059-0.465-0.176-0.556s-0.29-0.159-0.518-0.205S6.82,6.837,6.765,6.764
		C6.709,6.692,6.682,6.603,6.682,6.497c0-0.118,0.047-0.216,0.142-0.292s0.208-0.114,0.338-0.114c0.111,0,0.27,0.024,0.476,0.073
		c0.206,0.049,0.357,0.073,0.456,0.073c0.111,0,0.281-0.018,0.51-0.054s0.398-0.054,0.51-0.054c0.241,0,0.362,0.202,0.362,0.605
		c0,0.065-0.003,0.151-0.01,0.259s-0.01,0.181-0.01,0.22V11.287z M8.659,2.811c0.298,0,0.556,0.108,0.772,0.326
		c0.218,0.217,0.326,0.475,0.326,0.772c0,0.266-0.107,0.491-0.321,0.676S8.971,4.861,8.679,4.861S8.136,4.759,7.925,4.555
		S7.609,4.106,7.609,3.821c0-0.272,0.105-0.509,0.316-0.709S8.381,2.811,8.659,2.811z"/>
</g>
</svg>
