<?xml version="1.0" encoding="utf-8"?>
<!-- Generator: Adobe Illustrator 16.0.0, SVG Export Plug-In . SVG Version: 6.00 Build 0)  -->
<!DOCTYPE svg PUBLIC "-//W3C//DTD SVG 1.1//EN" "http://www.w3.org/Graphics/SVG/1.1/DTD/svg11.dtd">
<svg version="1.1" id="Layer_1" xmlns="http://www.w3.org/2000/svg" xmlns:xlink="http://www.w3.org/1999/xlink" x="0px" y="0px"
	 width="65px" height="65px" viewBox="0 0 65 65" enable-background="new 0 0 65 65" xml:space="preserve">
<rect x="7.5" y="8.5" fill="none" stroke="#FFFFFF" stroke-width="3" stroke-miterlimit="10" width="50" height="50"/>
<g>
	<path fill="#FFFDFD" d="M33.76,47.277v4.238h-2.851v-4.121c-2.644-0.012-5.104-0.611-7.382-1.797v-5.41
		c0.755,0.613,1.881,1.18,3.378,1.699c1.497,0.521,2.832,0.82,4.004,0.898v-7.108c-3.047-1.133-5.127-2.36-6.24-3.681
		c-1.113-1.321-1.67-2.933-1.67-4.834c0-2.044,0.723-3.785,2.167-5.224c1.445-1.438,3.359-2.275,5.742-2.51v-3.632h2.851v3.554
		c2.747,0.13,4.798,0.573,6.152,1.328v5.273c-1.823-1.106-3.874-1.783-6.152-2.031v7.402c2.852,1.029,4.896,2.204,6.133,3.525
		c1.236,1.321,1.855,2.92,1.855,4.794c0,2.162-0.69,3.904-2.07,5.225C38.298,46.188,36.325,46.992,33.76,47.277z M30.909,30.189
		v-6.191c-1.81,0.326-2.715,1.27-2.715,2.832C28.194,28.171,29.099,29.291,30.909,30.189z M33.76,36.79v5.917
		c1.861-0.285,2.793-1.217,2.793-2.793C36.553,38.639,35.621,37.598,33.76,36.79z"/>
</g>
</svg>
