<?xml version="1.0" encoding="utf-8"?>
<!-- Generator: Adobe Illustrator 16.0.0, SVG Export Plug-In . SVG Version: 6.00 Build 0)  -->
<!DOCTYPE svg PUBLIC "-//W3C//DTD SVG 1.1//EN" "http://www.w3.org/Graphics/SVG/1.1/DTD/svg11.dtd">
<svg version="1.1" id="Layer_1" xmlns="http://www.w3.org/2000/svg" xmlns:xlink="http://www.w3.org/1999/xlink" x="0px" y="0px"
	 width="40px" height="40px" viewBox="0 0 40 40" enable-background="new 0 0 40 40" xml:space="preserve">
<rect x="10" y="8" fill="#FFB848" stroke="#FFFFFF" stroke-width="2" stroke-miterlimit="10" width="28" height="15"/>
<rect x="6" y="12" fill="#FFB848" stroke="#FFFFFF" stroke-width="2" stroke-miterlimit="10" width="28" height="14"/>
<rect x="1" y="16" fill="#FFB848" stroke="#FFFFFF" stroke-width="2" stroke-miterlimit="10" width="28" height="15"/>
<g>
	<path fill="#FFFFFF" d="M15.958,26.703v1.209h-0.813v-1.175c-0.754-0.004-1.456-0.175-2.105-0.513v-1.543
		c0.215,0.175,0.536,0.336,0.963,0.484s0.808,0.234,1.142,0.256v-2.027c-0.869-0.323-1.462-0.673-1.78-1.05
		s-0.476-0.836-0.476-1.379c0-0.583,0.206-1.08,0.618-1.49s0.958-0.649,1.638-0.716v-1.036h0.813v1.014
		c0.783,0.037,1.368,0.164,1.754,0.379v1.504c-0.52-0.315-1.105-0.509-1.754-0.579v2.111c0.813,0.294,1.396,0.629,1.749,1.006
		c0.353,0.377,0.529,0.833,0.529,1.367c0,0.617-0.197,1.113-0.59,1.49S16.689,26.622,15.958,26.703z M15.144,21.829v-1.766
		c-0.516,0.093-0.774,0.362-0.774,0.808C14.37,21.254,14.628,21.573,15.144,21.829z M15.958,23.712V25.4
		c0.531-0.082,0.796-0.348,0.796-0.797C16.754,24.24,16.488,23.942,15.958,23.712z"/>
</g>
</svg>
