<?xml version="1.0" encoding="utf-8"?>
<!-- Generator: Adobe Illustrator 16.0.0, SVG Export Plug-In . SVG Version: 6.00 Build 0)  -->
<!DOCTYPE svg PUBLIC "-//W3C//DTD SVG 1.1//EN" "http://www.w3.org/Graphics/SVG/1.1/DTD/svg11.dtd">
<svg version="1.1" id="Layer_1" xmlns="http://www.w3.org/2000/svg" xmlns:xlink="http://www.w3.org/1999/xlink" x="0px" y="0px"
	 width="65px" height="65px" viewBox="0 0 65 65" enable-background="new 0 0 65 65" xml:space="preserve">
<path fill="#FFFFFF" d="M47.052,13h-6.467c0-2-1.447-4-3.234-4h-9.702c-1.787,0-3.233,2-3.233,4h-6.468
	C16.161,13,15,13.799,15,15.584v38.804C15,56.178,16.161,58,17.948,58h29.104C48.84,58,50,56.178,50,54.389V15.584
	C50,13.799,48.84,13,47.052,13z M44,51H21v-3h23V51z M44,45H21v-3h23V45z M44,39H21v-3h23V39z M44,33H21v-3h23V33z M44,27H21v-3h23
	V27z M44,19H21v-3h6v-3h11v3h6V19z"/>
</svg>
