<?xml version="1.0" encoding="utf-8"?>
<!-- Generator: Adobe Illustrator 16.0.0, SVG Export Plug-In . SVG Version: 6.00 Build 0)  -->
<!DOCTYPE svg PUBLIC "-//W3C//DTD SVG 1.1//EN" "http://www.w3.org/Graphics/SVG/1.1/DTD/svg11.dtd">
<svg version="1.1" id="Layer_1" xmlns="http://www.w3.org/2000/svg" xmlns:xlink="http://www.w3.org/1999/xlink" x="0px" y="0px"
	 width="30px" height="30px" viewBox="0 0 30 30" enable-background="new 0 0 30 30" xml:space="preserve">
<polygon fill="#333333" points="9,21.081 13.238,23.525 9,25.975 "/>
<rect x="5" y="23" fill="#333333" width="6" height="1"/>
<rect x="5" y="19" fill="#333333" width="1" height="5"/>
<polygon fill="#333333" points="21,8.893 16.762,6.447 21,4 "/>
<rect x="19" y="6" fill="#333333" width="6" height="1"/>
<rect x="24" y="6" fill="#333333" width="1" height="5"/>
<polygon fill="none" stroke="#333333" stroke-miterlimit="10" points="10.663,4.5 3.5,4.5 3.5,16.5 13.5,16.5 13.5,7.337 "/>
<polygon fill="#333333" points="10,5.779 10,8 13.762,8 10,4.219 "/>
<polygon fill="none" stroke="#333333" stroke-miterlimit="10" points="23.662,13.5 16.5,13.5 16.5,25.5 26.5,25.5 26.5,16.338 "/>
<polygon fill="#333333" points="23,14.779 23,17 26.762,17 23,13.219 "/>
</svg>
