<?xml version="1.0" encoding="utf-8"?>
<!-- Generator: Adobe Illustrator 16.0.3, SVG Export Plug-In . SVG Version: 6.00 Build 0)  -->
<!DOCTYPE svg PUBLIC "-//W3C//DTD SVG 1.1//EN" "http://www.w3.org/Graphics/SVG/1.1/DTD/svg11.dtd">
<svg version="1.1" id="Layer_1" xmlns="http://www.w3.org/2000/svg" xmlns:xlink="http://www.w3.org/1999/xlink" x="0px" y="0px"
	 width="25px" height="20px" viewBox="0 0 25 20" enable-background="new 0 0 25 20" xml:space="preserve">
<g id="Layer_2">
	<rect x="0.545" y="1.702" fill="none" stroke="#FFFFFF" stroke-miterlimit="10" width="23.91" height="16.599"/>
</g>
<g>
	<path fill="#FFFFFF" d="M2.19,13.909l2.424-3.705l-2.197-3.39h1.674l1.423,2.278l1.393-2.279h1.66L6.36,10.259l2.424,3.648H7.056
		l-1.572-2.455l-1.578,2.455H2.19V13.909z"/>
	<path fill="#FFFFFF" d="M9.501,13.909V6.814h2.145l1.288,4.839l1.27-4.839h2.148v7.095h-1.336V8.324l-1.406,5.583h-1.378
		L10.83,8.324v5.583L9.501,13.909L9.501,13.909z"/>
	<path fill="#FFFFFF" d="M17.814,13.909V6.871h1.432v5.841h3.564v1.195h-4.996V13.909L17.814,13.909z"/>
</g>
</svg>
