<?xml version="1.0" encoding="utf-8"?>
<!-- Generator: Adobe Illustrator 16.0.0, SVG Export Plug-In . SVG Version: 6.00 Build 0)  -->
<!DOCTYPE svg PUBLIC "-//W3C//DTD SVG 1.1//EN" "http://www.w3.org/Graphics/SVG/1.1/DTD/svg11.dtd">
<svg version="1.1" id="Layer_1" xmlns="http://www.w3.org/2000/svg" xmlns:xlink="http://www.w3.org/1999/xlink" x="0px" y="0px"
	 width="18px" height="18px" viewBox="0 0 18 18" enable-background="new 0 0 18 18" xml:space="preserve">
<path fill="#FFFFFF" d="M9.148,0.399C4.268,0.407,0.394,4.303,0.397,9.2c0.004,4.906,3.863,8.768,8.768,8.774
	c4.921,0.007,8.814-3.844,8.82-8.726C17.993,4.273,14.116,0.392,9.148,0.399z M9.094,3.381c0.831-0.046,1.28,0.436,1.388,1.236
	c-0.028,0.858-0.499,1.356-1.298,1.362c-0.8,0.007-1.313-0.495-1.314-1.324C7.869,3.886,8.344,3.424,9.094,3.381z M6.932,14
	c1.829-1,1.453-2.33,1.491-3.711c0.02-0.755,0.063-1.391-0.8-1.78C7.404,8.411,7.194,8.211,7.324,7.917
	c0.11-0.252,0.378-0.124,0.583-0.143c2.546-0.227,2.525-0.401,2.555,2.189C10.479,11.449,9.905,13,11.74,14
	C10.292,14,8.845,14,6.932,14z"/>
</svg>
