<?xml version="1.0" encoding="utf-8"?>
<!-- Generator: Adobe Illustrator 16.0.0, SVG Export Plug-In . SVG Version: 6.00 Build 0)  -->
<!DOCTYPE svg PUBLIC "-//W3C//DTD SVG 1.1//EN" "http://www.w3.org/Graphics/SVG/1.1/DTD/svg11.dtd">
<svg version="1.1" id="Layer_1" xmlns="http://www.w3.org/2000/svg" xmlns:xlink="http://www.w3.org/1999/xlink" x="0px" y="0px"
	 width="18px" height="18px" viewBox="0 0 18 18" enable-background="new 0 0 18 18" xml:space="preserve">
<path fill-rule="evenodd" clip-rule="evenodd" fill="#FFFFFF" d="M0.738,8.999C0.74,4.455,4.341,0.887,8.891,0.856
	c4.388-0.029,8.172,3.609,8.141,8.208c-0.032,4.46-3.711,8.149-8.268,8.091C4.27,17.096,0.67,13.368,0.738,8.999z M10.231,10.832
	c0-0.887-0.007-1.773,0.006-2.66c0.004-0.269-0.079-0.385-0.358-0.38c-0.647,0.011-1.296,0.009-1.944,0
	C7.676,7.79,7.588,7.904,7.589,8.152c0.005,1.786,0.005,3.572,0.001,5.357c-0.001,0.245,0.077,0.357,0.345,0.352
	c0.648-0.014,1.296-0.016,1.944,0.002c0.285,0.005,0.363-0.104,0.359-0.372C10.225,12.604,10.231,11.718,10.231,10.832z
	 M10.315,5.28c0.001-0.788-0.623-1.415-1.407-1.412C8.138,3.872,7.48,4.534,7.494,5.292c0.014,0.74,0.667,1.391,1.408,1.401
	C9.667,6.705,10.314,6.057,10.315,5.28z"/>
</svg>
