<?xml version="1.0" encoding="utf-8"?>
<!-- Generator: Adobe Illustrator 16.0.0, SVG Export Plug-In . SVG Version: 6.00 Build 0)  -->
<!DOCTYPE svg PUBLIC "-//W3C//DTD SVG 1.1//EN" "http://www.w3.org/Graphics/SVG/1.1/DTD/svg11.dtd">
<svg version="1.1" id="Layer_1" xmlns="http://www.w3.org/2000/svg" xmlns:xlink="http://www.w3.org/1999/xlink" x="0px" y="0px"
	 width="16px" height="16px" viewBox="0 0 16 16" enable-background="new 0 0 16 16" xml:space="preserve">
<g>
	<path fill="#FFFFFF" d="M3.711,6.352L2,1.352h1.323l0.649,2.114C4.155,4.06,4.321,4.631,4.448,5.254h0.023
		C4.606,4.653,4.773,4.06,4.955,3.489l0.681-2.137H6.92l-1.799,5H3.711z"/>
	<path fill="#FFFFFF" d="M8.836,2.532H8.819L7.837,2.97L7.64,2.124L9.002,1.53H10v4.822H8.836V2.532z"/>
</g>
<g>
	<path fill="#FFFFFF" d="M7.182,13.567l-1.529-5h1.182l0.581,2.114c0.163,0.594,0.312,1.165,0.426,1.788h0.021
		c0.121-0.601,0.27-1.194,0.433-1.766l0.608-2.137h1.147l-1.607,5H7.182z"/>
	<path fill="#FFFFFF" d="M10.389,13.567v-0.683l0.595-0.563c1.006-0.943,1.494-1.483,1.509-2.048c0-0.393-0.228-0.704-0.758-0.704
		c-0.397,0-0.743,0.207-0.984,0.401L10.445,9.16c0.347-0.274,0.884-0.496,1.509-0.496c1.04,0,1.612,0.639,1.612,1.514
		c0,0.809-0.559,1.453-1.224,2.076l-0.427,0.372v0.015h1.736v0.927H10.389z"/>
</g>
<rect x="0.5" y="0.5" fill="none" stroke="#FFFFFF" stroke-miterlimit="10" width="12" height="8"/>
<polygon fill="none" stroke="#FFFFFF" stroke-miterlimit="10" points="15.5,7.5 15.5,15.5 3.5,15.5 3.5,8.5 12.5,8.5 12.5,7.5 "/>
</svg>
