<?xml version="1.0" encoding="utf-8"?>
<!-- Generator: Adobe Illustrator 16.0.0, SVG Export Plug-In . SVG Version: 6.00 Build 0)  -->
<!DOCTYPE svg PUBLIC "-//W3C//DTD SVG 1.1//EN" "http://www.w3.org/Graphics/SVG/1.1/DTD/svg11.dtd">
<svg version="1.1" id="Layer_1" xmlns="http://www.w3.org/2000/svg" xmlns:xlink="http://www.w3.org/1999/xlink" x="0px" y="0px"
	 width="18px" height="18px" viewBox="0 0 18 18" enable-background="new 0 0 18 18" xml:space="preserve">
<path fill-rule="evenodd" clip-rule="evenodd" fill="#666666" d="M9.277,0.71c1.66,0.027,3.567,0.224,5.36,0.932
	c0.716,0.281,1.381,0.629,1.863,1.199c0.515,0.614,0.515,1.296-0.012,1.905c-0.643,0.747-1.558,1.132-2.522,1.429
	c-1.95,0.599-3.961,0.773-6.015,0.661C6.396,6.751,4.883,6.521,3.443,5.978C2.727,5.707,2.054,5.366,1.554,4.814
	c-0.625-0.689-0.597-1.465,0.073-2.13C2.232,2.082,3.021,1.731,3.85,1.456C5.31,0.967,7.271,0.691,9.277,0.71z"/>
<path fill-rule="evenodd" clip-rule="evenodd" fill="#666666" d="M8.549,17.413c-1.662-0.044-3.286-0.306-4.84-0.959
	c-0.732-0.31-1.423-0.703-1.977-1.327c-0.388-0.438-0.583-0.947-0.576-1.551c0.005-0.51-0.001-1.022,0.001-1.532
	c0.001-0.125-0.01-0.267,0.125-0.331c0.129-0.065,0.229,0.017,0.327,0.093c1.405,1.079,3.023,1.535,4.698,1.814
	c1.429,0.239,2.864,0.291,4.304,0.152c1.845-0.179,3.634-0.565,5.274-1.548c0.216-0.131,0.41-0.301,0.62-0.445
	c0.251-0.171,0.402-0.107,0.407,0.191c0.013,0.626,0.029,1.255-0.015,1.877c-0.058,0.854-0.586,1.394-1.197,1.849
	c-1.073,0.797-2.305,1.175-3.566,1.434C10.953,17.373,9.752,17.453,8.549,17.413z"/>
<rect x="1.167" y="9.283" fill-rule="evenodd" clip-rule="evenodd" fill="#666666" width="15.732" height="4.673"/>
<path fill-rule="evenodd" clip-rule="evenodd" fill="#666666" d="M8.549,12.92c-1.662-0.047-3.286-0.318-4.84-0.999
	c-0.732-0.319-1.423-0.729-1.977-1.379c-0.388-0.454-0.583-0.983-0.576-1.61c0.005-0.53-0.001-1.062,0.001-1.594
	c0.001-0.129-0.01-0.276,0.125-0.342C1.413,6.927,1.512,7.011,1.61,7.091c1.405,1.122,3.023,1.595,4.698,1.885
	c1.429,0.249,2.864,0.303,4.304,0.158c1.845-0.186,3.634-0.587,5.274-1.607c0.216-0.137,0.41-0.313,0.62-0.463
	c0.251-0.178,0.402-0.112,0.407,0.198c0.013,0.651,0.029,1.304-0.015,1.952c-0.058,0.887-0.586,1.447-1.197,1.92
	c-1.073,0.828-2.305,1.222-3.566,1.492C10.953,12.878,9.752,12.96,8.549,12.92z"/>
</svg>
