<?xml version="1.0" encoding="utf-8"?>
<!-- Generator: Adobe Illustrator 16.0.0, SVG Export Plug-In . SVG Version: 6.00 Build 0)  -->
<!DOCTYPE svg PUBLIC "-//W3C//DTD SVG 1.1//EN" "http://www.w3.org/Graphics/SVG/1.1/DTD/svg11.dtd">
<svg version="1.1" id="Layer_1" xmlns="http://www.w3.org/2000/svg" xmlns:xlink="http://www.w3.org/1999/xlink" x="0px" y="0px"
	 width="18px" height="18px" viewBox="0 0 18 18" enable-background="new 0 0 18 18" xml:space="preserve">
<path fill-rule="evenodd" clip-rule="evenodd" fill="#666666" d="M9.483,16.725c-0.573-0.171-0.971-0.589-1.666-0.277
	c-0.672,0.302-0.623,0.883-0.908,1.343c-0.042,0.005-0.092,0.018-0.143,0.018c-0.331-0.003-0.737,0.105-0.973-0.047
	c-0.225-0.145-0.256-0.573-0.401-0.861c-0.06-0.12-0.182-0.22-0.294-0.302c-0.603-0.435-1.192-0.343-1.77,0.06
	c-0.03,0.021-0.067,0.031-0.152,0.067c-0.226-0.232-0.472-0.473-0.695-0.731c-0.056-0.064-0.041-0.191-0.054-0.291
	c-0.002-0.021,0.012-0.051,0.028-0.069c0.493-0.59,0.278-1.17-0.025-1.745c-0.038-0.071-0.109-0.133-0.179-0.178
	c-0.062-0.039-0.142-0.05-0.214-0.075c-0.9-0.313-0.942-0.378-0.814-1.316c0.011-0.079,0.095-0.151,0.158-0.214
	c0.033-0.033,0.092-0.052,0.14-0.056c0.746-0.069,1.047-0.608,1.271-1.217c0.033-0.09,0.01-0.22-0.029-0.314
	C2.641,10.225,2.498,9.941,2.36,9.648c0.035-0.044,0.063-0.086,0.098-0.122C2.695,9.295,2.905,8.93,3.179,8.873
	C3.444,8.818,3.77,9.096,4.079,9.197c0.126,0.042,0.28,0.007,0.419-0.004c0.047-0.004,0.09-0.053,0.139-0.062
	C5.23,9.033,5.509,8.643,5.609,8.087c0.045-0.253,0.203-0.3,0.441-0.299c0.857,0.006,0.845,0.002,1.167,0.792
	c0.064,0.16,0.256,0.27,0.396,0.395c0.035,0.031,0.103,0.021,0.142,0.049C8.2,9.335,8.629,9.251,9.044,8.968
	c0.279-0.19,0.478-0.146,0.708,0.116c0.507,0.574,0.536,0.565,0.199,1.225c-0.138,0.274-0.098,0.491-0.026,0.779
	c0.137,0.567,0.485,0.829,1.001,0.938c0.284,0.062,0.338,0.219,0.333,0.484c-0.013,0.833-0.001,0.841-0.786,1.129
	c-0.208,0.077-0.37,0.16-0.381,0.406c0,0.025-0.012,0.053-0.025,0.072c-0.338,0.516-0.232,0.999,0.091,1.471
	c0.144,0.204,0.098,0.359-0.086,0.522C9.862,16.297,9.682,16.515,9.483,16.725z M6.312,14.747c1.102,0.005,2.011-0.88,2.021-1.966
	c0.011-1.113-0.89-2.03-2-2.034c-1.126-0.003-2.014,0.884-2.01,2.012C4.327,13.875,5.195,14.743,6.312,14.747z"/>
<path fill-rule="evenodd" clip-rule="evenodd" fill="#666666" d="M10.508,8.395c0.188-0.294,0.573-0.401,0.543-0.856
	c-0.022-0.32-0.076-0.562-0.34-0.733c-0.195-0.124-0.232-0.268-0.115-0.469c0.115-0.196,0.107-0.459,0.475-0.445
	c0.729,0.029,0.997-0.253,0.987-0.998c-0.009-0.492,0.447-0.353,0.647-0.553c0.339,0.143,0.429,0.566,0.925,0.567
	c0.492,0.001,0.618-0.356,0.926-0.562c0.139,0.052,0.282,0.115,0.431,0.162c0.215,0.068,0.272,0.193,0.254,0.422
	c-0.049,0.63,0.296,1,0.936,0.962c0.368-0.022,0.413,0.208,0.53,0.441c0.118,0.234,0.038,0.36-0.14,0.512
	c-0.44,0.377-0.464,0.924-0.021,1.277c0.302,0.24,0.191,0.438,0.096,0.711c-0.102,0.291-0.275,0.272-0.508,0.247
	c-0.53-0.057-0.955,0.391-0.864,0.933c0.045,0.272-0.044,0.391-0.285,0.485c-0.242,0.092-0.427,0.188-0.639-0.089
	c-0.347-0.453-0.798-0.47-1.188-0.038c-0.265,0.291-0.492,0.223-0.806,0.119c-0.342-0.112-0.288-0.34-0.285-0.584
	c0.006-0.366-0.408-0.904-0.698-0.83C10.753,9.235,10.615,8.865,10.508,8.395z M14.951,7.481c-0.006-0.714-0.598-1.309-1.301-1.305
	c-0.692,0.003-1.307,0.618-1.314,1.312c-0.007,0.723,0.604,1.322,1.34,1.31C14.398,8.787,14.956,8.209,14.951,7.481z"/>
</svg>
