<?xml version="1.0" encoding="utf-8"?>
<!-- Generator: Adobe Illustrator 16.0.3, SVG Export Plug-In . SVG Version: 6.00 Build 0)  -->
<!DOCTYPE svg PUBLIC "-//W3C//DTD SVG 1.1//EN" "http://www.w3.org/Graphics/SVG/1.1/DTD/svg11.dtd">
<svg version="1.1" id="Layer_1" xmlns="http://www.w3.org/2000/svg" xmlns:xlink="http://www.w3.org/1999/xlink" x="0px" y="0px"
	 width="15px" height="15px" viewBox="0 0 15 15" enable-background="new 0 0 15 15" xml:space="preserve">
<circle fill="#FFFFFF" cx="7.373" cy="1.783" r="1.783"/>
<rect x="4.344" y="3.837" fill="#FFFFFF" width="6.059" height="3.823"/>
<circle fill="#FFFFFF" cx="2.159" cy="12.835" r="2.159"/>
<rect x="8.875" y="10.669" fill="#FFFFFF" width="6.125" height="4.331"/>
<polygon fill="#FFFFFF" points="11.883,8.721 12.824,9.801 12.824,6.454 13.233,6.454 13.233,9.801 14.229,8.721 14.46,8.978 
	13.056,10.535 11.651,8.978 "/>
<rect x="10.066" y="5.517" fill="#FFFFFF" width="3.167" height="0.408"/>
<polygon fill="#FFFFFF" points="3.345,9.042 1.988,10.6 0.63,9.042 0.854,8.785 1.816,9.865 1.816,6.518 2.211,6.518 2.211,9.865 
	3.121,8.785 "/>
<rect x="1.813" y="5.517" fill="#FFFFFF" width="3.777" height="0.408"/>
<rect x="1.813" y="5.517" fill="#FFFFFF" width="0.398" height="1.436"/>
<rect x="12.836" y="5.517" fill="#FFFFFF" width="0.397" height="1.436"/>
</svg>
