<?xml version="1.0" encoding="utf-8"?>
<!-- Generator: Adobe Illustrator 16.0.3, SVG Export Plug-In . SVG Version: 6.00 Build 0)  -->
<!DOCTYPE svg PUBLIC "-//W3C//DTD SVG 1.1//EN" "http://www.w3.org/Graphics/SVG/1.1/DTD/svg11.dtd">
<svg version="1.1" id="Layer_1" xmlns="http://www.w3.org/2000/svg" xmlns:xlink="http://www.w3.org/1999/xlink" x="0px" y="0px"
	 width="15px" height="15px" viewBox="0 0 15 15" enable-background="new 0 0 15 15" xml:space="preserve">
<rect x="0.031" display="none" fill="#FFFFFF" width="13.104" height="5.222"/>
<rect x="0.031" y="6.563" display="none" fill="#FFFFFF" width="4.391" height="6.563"/>
<rect x="5.945" y="6.563" display="none" fill="#FFFFFF" width="7.188" height="6.563"/>
<rect x="0.514" y="0.516" fill="none" stroke="#FFFFFF" stroke-miterlimit="10" width="13.472" height="12.882"/>
<rect x="3.128" y="1.885" fill="#FFFFFF" width="8.242" height="0.786"/>
<rect x="3.128" y="3.511" fill="#FFFFFF" width="8.242" height="0.787"/>
<polygon fill="#FFFFFF" points="7.25,4.716 8.457,7.229 11.157,7.633 9.204,9.588 9.665,12.348 7.25,11.043 4.834,12.348 
	5.294,9.588 3.34,7.633 6.042,7.229 "/>
<circle fill="#4C4C4C" cx="8.93" cy="8.961" r="6.039"/>
<g enable-background="new    ">
	<path fill="#FFFFFF" d="M5.391,13.346V5.108h1.16V8.49h4.559V5.108h1.16v8.238h-1.16V9.463H6.551v3.883H5.391z"/>
</g>
</svg>
