<?xml version="1.0" encoding="utf-8"?>
<!-- Generator: Adobe Illustrator 16.0.3, SVG Export Plug-In . SVG Version: 6.00 Build 0)  -->
<!DOCTYPE svg PUBLIC "-//W3C//DTD SVG 1.1//EN" "http://www.w3.org/Graphics/SVG/1.1/DTD/svg11.dtd">
<svg version="1.1" id="Layer_1" xmlns="http://www.w3.org/2000/svg" xmlns:xlink="http://www.w3.org/1999/xlink" x="0px" y="0px"
	 width="78px" height="78px" viewBox="0 0 78 78" enable-background="new 0 0 78 78" xml:space="preserve">
<g id="miu">
	<g id="Artboard-1" transform="translate(-719.000000, -227.000000)">
		<g id="slice" transform="translate(215.000000, 119.000000)">
		</g>
		<path fill="#878787" d="M778.7,234.262h-6.298v3.436h6.298c0,0,4.356,0.41,4.356,4.256v55.383c0,4.244-4.356,4.347-4.356,4.347
			h-41.105c0,0-4.313-0.5-4.313-4.347v-55.383c0-3.846,4.313-4.256,4.313-4.256h6.298v-3.436h-6.298c0,0-7.755,0-7.755,7.692
			c0,22.267,0,55.383,0,55.383c0,7.692,7.755,7.692,7.755,7.692H778.7c0,0,7.753,0,7.753-7.692v-55.383
			C786.453,234.262,778.7,234.262,778.7,234.262z"/>
		<path fill="#878787" d="M765.225,234.29c0,0,0.131-7.104-7.078-7.104c-7.207,0-7.077,7.104-7.077,7.104s-3.538,0.154-3.538,3.601
			c0,3.448,3.538,3.448,3.538,3.448h14.155c0,0,3.537,0.25,3.537-3.448C768.762,234.193,765.225,234.29,765.225,234.29z
			 M758.146,237.8c-1.955,0-3.539-1.584-3.539-3.538c0-1.954,1.584-3.538,3.539-3.538c1.956,0,3.538,1.584,3.538,3.538
			C761.684,236.216,760.104,237.8,758.146,237.8z"/>
	</g>
</g>
<path fill="#1C89B7" d="M52.426,52.206H25.488c-0.962,0-1.749,0.785-1.749,1.748s0.787,1.749,1.749,1.749h27.026
	c0.963,0,1.748-0.786,1.748-1.749S53.389,52.206,52.426,52.206z"/>
<path fill="#1C89B7" d="M52.426,61.826H25.488c-0.962,0-1.749,0.787-1.749,1.75c0,0.961,0.787,1.748,1.749,1.748h27.026
	c0.963,0,1.748-0.787,1.748-1.748C54.262,62.613,53.389,61.826,52.426,61.826z"/>
<g>
	<path fill="#1C89B7" d="M50.094,45.583h-4.876l-1.938-5.042h-8.873l-1.832,5.042h-4.754l8.645-22.196h4.739L50.094,45.583z
		 M41.842,36.801l-3.058-8.236l-2.998,8.236H41.842z"/>
</g>
</svg>
