<svg xmlns="http://www.w3.org/2000/svg" width="20" height="20" viewBox="0 0 20 20">
  <defs>
    <style>
      .cls-1 {
        fill: #fff;
        fill-rule: evenodd;
      }
    </style>
  </defs>
  <path class="cls-1" d="M30,161a10,10,0,1,0,10,10A10,10,0,0,0,30,161Zm2.082,15.5c-0.515.2-.925,0.358-1.232,0.464a3.241,3.241,0,0,1-1.069.16,2.129,2.129,0,0,1-1.454-.456,1.472,1.472,0,0,1-.517-1.157,4.181,4.181,0,0,1,.038-0.558c0.026-.19.068-0.4,0.124-0.643l0.645-2.276c0.057-.218.106-0.426,0.145-0.619a2.747,2.747,0,0,0,.058-0.536,0.825,0.825,0,0,0-.18-0.607,1.021,1.021,0,0,0-.688-0.17,1.794,1.794,0,0,0-.512.076c-0.174.053-.324,0.1-0.448,0.149l0.17-.7q0.633-.258,1.211-0.441A3.567,3.567,0,0,1,29.463,169a2.09,2.09,0,0,1,1.433.449,1.492,1.492,0,0,1,.5,1.165c0,0.1-.012.274-0.035,0.523a3.5,3.5,0,0,1-.129.686l-0.641,2.269c-0.052.182-.1,0.391-0.141,0.624a3.276,3.276,0,0,0-.062.53,0.76,0.76,0,0,0,.2.616,1.135,1.135,0,0,0,.7.164,2.038,2.038,0,0,0,.53-0.082,2.925,2.925,0,0,0,.428-0.144Zm-0.114-9.21a1.528,1.528,0,0,1-1.079.416,1.544,1.544,0,0,1-1.084-.416,1.359,1.359,0,0,1,0-2.023,1.535,1.535,0,0,1,1.084-.421,1.518,1.518,0,0,1,1.079.421A1.364,1.364,0,0,1,31.966,167.288Z" transform="translate(-20 -161)"/>
</svg>
