<svg xmlns="http://www.w3.org/2000/svg" width="16.5" height="22" viewBox="0 0 16.5 22">
  <defs>
    <style>
      .cls-1 {
        fill: #8596ca;
        fill-rule: evenodd;
      }
    </style>
  </defs>
  <path class="cls-1" d="M56.965,443.726l-3.429-1.751a0.968,0.968,0,0,1-.524-0.868v-1.239c0.082-.1.169-0.22,0.258-0.349a8.452,8.452,0,0,0,1.06-2.126,1.457,1.457,0,0,0,.835-1.326V434.6a1.484,1.484,0,0,0-.359-0.963v-1.95a3.336,3.336,0,0,0-.751-2.392A4.464,4.464,0,0,0,50.5,428a4.467,4.467,0,0,0-3.556,1.294,3.339,3.339,0,0,0-.751,2.393v1.95a1.483,1.483,0,0,0-.359.963v1.467a1.471,1.471,0,0,0,.537,1.14,7.755,7.755,0,0,0,1.257,2.653v1.213a0.973,0.973,0,0,1-.494.851l-3.2,1.784a3.319,3.319,0,0,0-1.688,2.9V447.8c0,1.74,5.4,2.2,8.255,2.2s8.255-.46,8.255-2.2v-1.116A3.3,3.3,0,0,0,56.965,443.726Z" transform="translate(-42.25 -428)"/>
</svg>
