<svg xmlns="http://www.w3.org/2000/svg" width="21.375" height="19.812" viewBox="0 0 21.375 19.812">
  <defs>
    <style>
      .cls-1 {
        fill: #8596ca;
        fill-rule: evenodd;
      }
    </style>
  </defs>
  <path id="Shape_99_copy_2" data-name="Shape 99 copy 2" class="cls-1" d="M52.681,250.253L49.6,248.677a0.87,0.87,0,0,1-.472-0.78v-1.116c0.074-.092.152-0.2,0.232-0.314a7.6,7.6,0,0,0,.954-1.913,1.312,1.312,0,0,0,.752-1.194v-1.32a1.33,1.33,0,0,0-.323-0.866v-1.756a3,3,0,0,0-.676-2.153,4.018,4.018,0,0,0-3.2-1.165,4.018,4.018,0,0,0-3.2,1.165,3,3,0,0,0-.676,2.153v1.756a1.33,1.33,0,0,0-.323.866v1.32a1.323,1.323,0,0,0,.484,1.026,6.976,6.976,0,0,0,1.132,2.388v1.092a0.875,0.875,0,0,1-.445.766l-2.882,1.6a2.987,2.987,0,0,0-1.519,2.614v1.069c0,1.566,4.86,1.98,7.43,1.98s7.429-.414,7.429-1.98v-1A2.969,2.969,0,0,0,52.681,250.253Zm6.963-2.06L57.4,247.047a0.633,0.633,0,0,1-.343-0.568v-0.811c0.054-.067.11-0.144,0.169-0.228a5.539,5.539,0,0,0,.694-1.392,0.953,0.953,0,0,0,.547-0.868v-0.96a0.97,0.97,0,0,0-.235-0.63v-1.277a2.186,2.186,0,0,0-.491-1.566,3.622,3.622,0,0,0-4.655,0,2.184,2.184,0,0,0-.492,1.566v1.277a0.969,0.969,0,0,0-.235.63v0.96a0.962,0.962,0,0,0,.352.746,5.073,5.073,0,0,0,.823,1.737v0.794a0.637,0.637,0,0,1-.323.557l-2.1,1.168a2.172,2.172,0,0,0-1.1,1.9v0.777c0,1.139,3.535,1.44,5.4,1.44s5.4-.3,5.4-1.44v-0.73A2.16,2.16,0,0,0,59.644,248.193Z" transform="translate(-39.438 -236.094)"/>
</svg>
