<svg xmlns="http://www.w3.org/2000/svg" width="20.375" height="17.968" viewBox="0 0 20.375 17.968">
  <defs>
    <style>
      .cls-1 {
        fill: #8596ca;
        fill-rule: evenodd;
      }
    </style>
  </defs>
  <path class="cls-1" d="M59.5,576.536l-8.843-15.313a1.334,1.334,0,0,0-2.309,0L39.5,576.536a1.334,1.334,0,0,0,1.154,2H58.343A1.334,1.334,0,0,0,59.5,576.536Zm-9.985-10.6a1.011,1.011,0,0,1,1.009,1.037l-0.167,5.815a0.846,0.846,0,0,1-1.692,0L48.5,566.976A1.014,1.014,0,0,1,49.512,565.939ZM49.5,576.457a1.05,1.05,0,1,1,1.05-1.05A1.05,1.05,0,0,1,49.5,576.457Z" transform="translate(-39.313 -560.563)"/>
</svg>
