<svg xmlns="http://www.w3.org/2000/svg" width="14.94" height="19.063" viewBox="0 0 14.94 19.063">
  <defs>
    <style>
      .cls-1 {
        fill: #fff;
        fill-rule: evenodd;
      }
    </style>
  </defs>
  <path class="cls-1" d="M1756.62,56.03a0.625,0.625,0,0,1-.63-0.622v-5.6h-8.08a0.616,0.616,0,0,0-.62.622V68.264a0.616,0.616,0,0,0,.62.622h13.68a0.616,0.616,0,0,0,.62-0.622V56.03h-5.59Zm-6.22,9.124a0.622,0.622,0,1,1,.62-0.622A0.625,0.625,0,0,1,1750.4,65.154Zm0-2.488a0.622,0.622,0,1,1,.62-0.622A0.625,0.625,0,0,1,1750.4,62.666Zm0-2.488a0.622,0.622,0,1,1,.62-0.622A0.625,0.625,0,0,1,1750.4,60.177Zm8.7,4.977h-6.22a0.622,0.622,0,0,1,0-1.244h6.22A0.622,0.622,0,1,1,1759.1,65.154Zm0-2.488h-6.22a0.622,0.622,0,0,1,0-1.244h6.22A0.622,0.622,0,1,1,1759.1,62.666Zm0-2.488h-6.22a0.622,0.622,0,0,1,0-1.244h6.22A0.622,0.622,0,1,1,1759.1,60.177Zm-1.86-10v4.612h4.61Z" transform="translate(-1747.28 -49.813)"/>
</svg>
