<?xml version="1.0" encoding="utf-8"?>
<!-- Generator: Adobe Illustrator 23.0.3, SVG Export Plug-In . SVG Version: 6.00 Build 0)  -->
<svg version="1.1" xmlns="http://www.w3.org/2000/svg" xmlns:xlink="http://www.w3.org/1999/xlink" x="0px" y="0px" width="100px"
	 height="100px" viewBox="0 0 100 100" style="enable-background:new 0 0 100 100;" xml:space="preserve">
<style type="text/css">
	.Drop_x0020_Shadow{fill:none;}
	.Outer_x0020_Glow_x0020_5_x0020_pt{fill:none;}
	.Blue_x0020_Neon{fill:none;stroke:#8AACDA;stroke-width:7;stroke-linecap:round;stroke-linejoin:round;}
	.Chrome_x0020_Highlight{fill:url(#SVGID_1_);stroke:#FFFFFF;stroke-width:0.3629;stroke-miterlimit:1;}
	.Jive_GS{fill:#FEDD00;}
	.Alyssa_GS{fill:#A7D0E3;}
	.st0{display:none;}
	.st1{display:inline;}
	.st2{fill:#566181;}
	.st3{fill:#8797CA;}
	.st4{fill:#F7911E;}
	.st5{fill:#FEDC0E;}
	.st6{fill:#DBD9DC;}
	.st7{fill:#B48765;}
	.st8{fill:#966E51;}
	.st9{fill:#5D424C;}
	.st10{fill:#503541;}
	.st11{fill:#C39772;}
	.st12{fill:#EDEBEC;}
	.st13{fill:#F9D7A5;}
	.st14{fill:#F1C891;}
	.st15{fill:#DEB073;}
	.st16{fill:#D5A063;}
	.st17{fill:#CE9259;}
	.st18{fill:#FFE1B4;}
</style>
<linearGradient id="SVGID_1_" gradientUnits="userSpaceOnUse" x1="0" y1="0" x2="6.123234e-17" y2="-1">
	<stop  offset="0" style="stop-color:#656666"/>
	<stop  offset="0.618" style="stop-color:#1A1A1A"/>
	<stop  offset="0.6292" style="stop-color:#545554"/>
	<stop  offset="0.9831" style="stop-color:#3E3E3E"/>
</linearGradient>
<g id="Layer_1" class="st0">
	<g class="st1">
		<path class="st2" d="M21.3,0l-15,16.7V90H73V0H21.3z"/>
		<path class="st3" d="M21.3,6.7v10H13H6.3L21.3,0V6.7z"/>
		<path class="st3" d="M66.3,6.7v16.7H13v-6.7h8.3v-10H66.3z"/>
		<path class="st3" d="M13,63.3h20v20H13V63.3z"/>
		<path class="st3" d="M61.3,63.3l0.2,0.3C56.4,67.2,53,73.2,53,80c0,1.1,0.1,2.2,0.3,3.3L53,83.3H33v-20H61.3z"/>
		<path class="st4" d="M73,60c11.1,0,20,8.9,20,20s-8.9,20-20,20c-7.6,0-14.2-4.2-17.6-10.5c-1-1.9-1.8-4-2.2-6.3
			C53.1,82.2,53,81.1,53,80c0-6.8,3.4-12.8,8.5-16.4c1.6-1.1,3.3-2,5.2-2.6C68.7,60.3,70.8,60,73,60z"/>
		<path class="st3" d="M66.3,60l0.3,1c-1.9,0.6-3.6,1.5-5.2,2.6l-0.2-0.3H33v-6.7h33.3V60z"/>
		<path class="st3" d="M13,56.7h20v6.7H13V56.7z"/>
		<path class="st5" d="M71.3,65v3.6c-2.9,0.7-5,3.3-5,6.4c0,3.7,3,6.7,6.7,6.7c1.8,0,3.3,1.5,3.3,3.3s-1.5,3.3-3.3,3.3
			s-3.3-1.5-3.3-3.3h-3.3c0,3.1,2.1,5.7,5,6.4V95h3.3v-3.6c2.9-0.7,5-3.3,5-6.4c0-3.7-3-6.7-6.7-6.7c-1.8,0-3.3-1.5-3.3-3.3
			s1.5-3.3,3.3-3.3s3.3,1.5,3.3,3.3h3.3c0-3.1-2.1-5.7-5-6.4V65H71.3z"/>
		<path class="st2" d="M10.1,15l9.6-10.7V15H10.1z M51.4,81.7H34.7V65h22.7c-3.7,3.9-6.1,9.2-6.1,15C51.3,80.6,51.4,81.1,51.4,81.7z
			 M14.7,65h16.7v16.7H14.7V65z M61.2,45"/>
		<path class="st3" d="M19.7,68.3h6.7v3.3h-6.7V68.3z"/>
		<path class="st3" d="M19.7,75h6.7v3.3h-6.7V75z"/>
		<path class="st3" d="M39.7,68.3h6.7v3.3h-6.7V68.3z"/>
		<path class="st3" d="M39.7,75h6.7v3.3h-6.7V75z"/>
		<path class="st3" d="M11.3,30.4h56.4v3.3H11.3V30.4z"/>
		<path class="st3" d="M11.3,39.2h56.4v3.3H11.3V39.2z"/>
		<path class="st3" d="M62.2,48.3h3.3v3.3h-3.3V48.3z"/>
		<path class="st3" d="M11.3,48.3h47.5v3.3H11.3V48.3z"/>
		<path class="st2" d="M64.7,60c-1.2,0.5-2.3,1.1-3.3,1.8v-0.1H34.7v-3.3h30L64.7,60L64.7,60z"/>
		<rect x="14.7" y="58.3" class="st2" width="16.7" height="3.3"/>
	</g>
</g>
<g id="Layer_2" class="st0">
	<g class="st1">
		<path class="st6" d="M94.7,56.3l-8.7-3.4H55l-8.7,3.4c-3.3,1.3-5.5,4.6-5.3,8.2L42,90.9c0.1,1.5,1.3,2.7,2.8,2.7h51.3
			c1.5,0,2.7-1.2,2.8-2.7l1.1-26.4C100.1,60.9,98,57.6,94.7,56.3z"/>
		<polygon class="st2" points="68.4,62.7 66.6,93.6 74.3,93.6 72.5,62.7 		"/>
		<path class="st3" d="M71.7,64.1h-2.4c-0.9,0-1.6-0.7-1.6-1.6v-4h5.6v4C73.3,63.3,72.6,64.1,71.7,64.1z"/>
		<rect x="60.6" y="41.6" class="st7" width="19.7" height="16.9"/>
		<path class="st8" d="M60.6,46.8c2.8,2,6.2,3.2,9.8,3.2c3.6,0,7.1-1.2,9.8-3.2v-5.2H60.6V46.8z"/>
		<path class="st9" d="M70.5,6.5c-7,0.4-11,4.2-11,4.2s-5.9,0-5.9,7c0,5.6,1.4,11.2,1.4,11.2h32.3C90.2,13.5,83.5,5.8,70.5,6.5z"/>
		<path class="st10" d="M62,23.1c-5.2-6.5-2.6-12.4-2.6-12.4s-5.9,0-5.9,7c0,5.6,1.4,11.2,1.4,11.2h7L62,23.1L62,23.1z"/>
		<path class="st11" d="M85.9,27.5h-1.4l-1.9-3.4c-0.3-0.5-0.9-0.8-1.5-0.7c-9.3,1.7-15.3-0.5-17.6-1.5c-0.6-0.3-1.3-0.1-1.7,0.4
			c-1.4,2-3,3.6-3.9,4.4c-0.5,0.5-1.2,0.7-1.9,0.7h-1c0,0,0,0,0,0c-0.2,0-0.3,0-0.5,0c-1.4,0.3-2.3,1.6-2.3,3v1
			c0,1.3,0.9,2.6,2.2,2.9c0.3,0.1,0.6,0.1,0.9,0.1c0.7-0.1,1.3,0.5,1.4,1.1c1.2,6.5,6.9,11.5,13.8,11.5s12.6-5,13.8-11.5
			c0.1-0.7,0.7-1.1,1.4-1.1h0.3c1.6,0,2.8-1.3,2.8-2.8v-1.4C88.8,28.8,87.5,27.5,85.9,27.5z"/>
		<path class="st7" d="M62,33.1v-11c-0.1,0.1-0.2,0.1-0.2,0.2c-1.4,2-3,3.6-3.9,4.4c-0.5,0.5-1.2,0.7-1.9,0.7h-1c0,0,0,0,0,0
			c-0.2,0-0.3,0-0.5,0c-1.4,0.3-2.3,1.6-2.3,3v1c0,1.3,0.9,2.6,2.2,2.9c0.3,0.1,0.6,0.1,0.9,0.1c0.7-0.1,1.3,0.5,1.4,1.1
			c1.2,6.5,6.9,11.5,13.8,11.5c1,0,1.9-0.1,2.8-0.3C66.9,45.6,62,39.9,62,33.1z"/>
		<g>
			<path class="st12" d="M70.5,58.5l-10.3-9c-0.6-0.5-1.4-0.5-1.9,0.1L55,52.9l6.5,9.8c1,1.5,3.1,1.7,4.3,0.4L70.5,58.5z"/>
			<path class="st12" d="M70.5,58.5l10.3-9c0.6-0.5,1.4-0.5,1.9,0.1l3.3,3.3l-6.5,9.8c-1,1.5-3.1,1.7-4.3,0.4L70.5,58.5z"/>
			<path class="st12" d="M92.6,65.8l6.1-6.1c0.9,1.4,1.3,3,1.2,4.7l-1.1,26.4c-0.1,1.5-1.3,2.7-2.8,2.7h-6V71.8
				C90.2,69.6,91,67.4,92.6,65.8z"/>
			<path class="st12" d="M56.6,75.3h6.6c0.9,0,1.6-0.7,1.6-1.6v-1c0-0.9-0.7-1.6-1.6-1.6h-6.6c-0.9,0-1.6,0.7-1.6,1.6v1
				C55,74.6,55.7,75.3,56.6,75.3z"/>
		</g>
		<path class="st2" d="M45.5,64.6L38,61.2H12.6l-7.6,3.3c-3.2,1.4-5.2,4.6-5.1,8.1l0.8,18.2c0.1,1.5,1.3,2.7,2.8,2.7H47
			c1.5,0,2.7-1.2,2.8-2.7l0.8-18.2C50.7,69.2,48.7,65.9,45.5,64.6z"/>
		<rect x="18.3" y="51.4" class="st13" width="14.1" height="14.1"/>
		<path class="st14" d="M18.3,55.5c2.2,1,4.5,1.5,7,1.5c2.5,0,4.9-0.6,7-1.5v-4.1H18.3V55.5z"/>
		<circle class="st15" cx="25.3" cy="14.9" r="8.4"/>
		<ellipse class="st16" cx="25.3" cy="29.6" rx="16.9" ry="16.2"/>
		<path class="st17" d="M19.7,31.7c-5.6-5.6-6.5-10.5-6.3-13.5c-3,2.9-4.9,7-4.9,11.4c0,3,0.9,5.9,2.4,8.3L19.7,31.7z"/>
		<path class="st18" d="M41.3,34.6c-0.1,0-0.8-0.1-0.8-0.1c-0.7,0-1.5-0.3-2-0.8l-1.2-1.2c-0.5-0.5-1.1-0.8-1.8-0.8
			c-2.7-0.2-10.3-0.8-16.3-3.8c-0.6-0.3-1.4-0.1-1.8,0.5c-1.6,2.5-3.5,4.4-4.6,5.4c-0.5,0.5-1.2,0.7-1.9,0.7h-1c0,0,0,0,0,0
			c-0.2,0-0.3,0-0.5,0c-1.4,0.3-2.3,1.6-2.3,3v1c0,1.3,0.9,2.6,2.2,2.9c0.3,0.1,0.6,0.1,0.9,0.1c0.7-0.1,1.3,0.5,1.4,1.1
			c1.2,6.5,6.9,11.5,13.8,11.5s12.6-5,13.8-11.5c0.1-0.7,0.7-1.2,1.4-1.1c0.3,0,0.6,0,0.9-0.1c1.3-0.3,2.2-1.6,2.2-2.9v-1.3
			C43.6,36,42.6,35,41.3,34.6z"/>
		<path class="st13" d="M16.9,40.2V29.1c-1.5,2.1-3.2,3.8-4.2,4.7c-0.5,0.5-1.2,0.7-1.9,0.7h-1c0,0,0,0,0,0c-0.2,0-0.3,0-0.5,0
			c-1.4,0.3-2.3,1.6-2.3,3v1c0,1.3,0.9,2.6,2.2,2.9c0.3,0.1,0.6,0.1,0.9,0.1c0.7-0.1,1.3,0.5,1.4,1.1c1.2,6.5,6.9,11.5,13.8,11.5
			c1,0,1.9-0.1,2.8-0.3C21.7,52.6,16.9,47,16.9,40.2z"/>
		<g>
			<path class="st3" d="M7.6,72.6l-5.1-6.2C0.8,68-0.1,70.3,0,72.6l0.8,18.2c0.1,1.5,1.3,2.7,2.8,2.7h6.2V78.9
				C9.8,76.6,9,74.3,7.6,72.6z"/>
			<path class="st3" d="M43,72.6l5.1-6.2c1.6,1.6,2.5,3.9,2.4,6.2l-0.8,18.2c-0.1,1.5-1.3,2.7-2.8,2.7h-6.2V78.9
				C40.8,76.6,41.6,74.3,43,72.6z"/>
			<path class="st3" d="M34.7,58c-0.5-0.5-1.4-0.5-2,0l-6.8,6.8c-0.4,0.4-0.9,0.4-1.3,0L17.9,58c-0.5-0.5-1.4-0.5-2,0l-3.2,3.2
				l5.2,8.4c0.5,0.7,1.5,0.9,2.1,0.3l3.1-2.7c0.3-0.3,0.8,0,0.8,0.4v25.8h2.8V67.7c0-0.4,0.5-0.7,0.8-0.4l3.1,2.7
				c0.7,0.6,1.7,0.4,2.1-0.3l5.2-8.4L34.7,58z"/>
			<path class="st3" d="M14.3,82.3h5.2c0.9,0,1.6-0.7,1.6-1.6v-1c0-0.9-0.7-1.6-1.6-1.6h-5.2c-0.9,0-1.6,0.7-1.6,1.6v1
				C12.6,81.6,13.4,82.3,14.3,82.3z"/>
		</g>
	</g>
</g>
<g id="Layer_3">
	<g>
		<path class="st2" d="M12.7,6.8h74.6V100H12.7V6.8z"/>
		<path class="st5" d="M16.1,84.7h64.4v3.4H16.1V84.7z"/>
		<path class="st3" d="M68.6,30.5h10.2v42.4H68.6V30.5z"/>
		<path class="st3" d="M34.7,0h27.1v15.3H34.7V0z"/>
		<g>
			<path class="st4" d="M16.1,78h37.3v3.4H16.1V78z"/>
			<path class="st4" d="M56.8,78h23.7v3.4H56.8V78z"/>
			<path class="st3" d="M16.1,91.5h27.1v3.4H16.1V91.5z"/>
			<path class="st3" d="M46.6,91.5h33.9v3.4H46.6V91.5z"/>
		</g>
		<path class="st3" d="M17.8,50.8H28v22H17.8V50.8z"/>
		<path class="st3" d="M34.7,44.1h10.2v28.8H34.7V44.1z"/>
		<path class="st3" d="M51.7,37.3h10.2v35.6H51.7V37.3z"/>
		<path class="st3" d="M18.5,42.2l-1.3-3.1L29,34c0.1,0,0.1,0,0.2-0.1L46,28.9l15.2-6.7l17-6.8l1.3,3.1l-16.9,6.8l-15.2,6.8
			c-0.1,0-0.1,0.1-0.2,0.1l-16.9,5.1L18.5,42.2z"/>
	</g>
</g>
</svg>
