<?xml version="1.0" encoding="utf-8"?>
<!-- Generator: Adobe Illustrator 23.0.3, SVG Export Plug-In . SVG Version: 6.00 Build 0)  -->
<svg version="1.1" id="Layer_1" xmlns="http://www.w3.org/2000/svg" xmlns:xlink="http://www.w3.org/1999/xlink" x="0px" y="0px"
	 width="22.8px" height="17.1px" viewBox="0 0 22.8 17.1" style="enable-background:new 0 0 22.8 17.1;" xml:space="preserve">
<style type="text/css">
	.st0{fill:#FFFFFF;}
</style>
<g>
	<path class="st0" d="M16.4,5.3c-0.1,0.8-0.4,1.4-1.1,1.9c-0.5,0.3-1,0.4-1.5,0.4c-1.1-0.1-1.9-0.8-2.3-2.2
		c-0.1,0.8-0.5,1.5-1.2,1.9c-0.5,0.3-1,0.4-1.5,0.3c-1.1-0.1-1.9-1-2.1-2.2c0,0.2-0.1,0.3-0.1,0.5C6.2,6.9,5.2,7.6,4.1,7.6
		C3,7.6,2,6.9,1.7,5.8C1.6,5.5,1.7,5.2,1.9,4.9C2.8,3.5,3.7,2,4.6,0.6c0.1-0.1,0.2-0.2,0.3-0.2c4.1,0,8.2,0,12.3,0
		c0.1,0,0.2,0,0.3,0.2c1.1,1.5,2.3,3,3.4,4.5c0.1,0.2,0.2,0.3,0.1,0.6c-0.2,1.1-1,1.9-2.1,2c-1.1,0.1-2.1-0.6-2.4-1.7
		C16.5,5.7,16.4,5.5,16.4,5.3z"/>
	<path class="st0" d="M11.5,7.8c1.4,1.3,3.4,1.2,4.8,0c0.4,0.4,0.9,0.7,1.5,0.8c0.6,0.2,1.2,0.1,1.8,0c0,2.7,0,5.4,0,8.1
		c-5.4,0-10.9,0-16.3,0c0-2.7,0-5.4,0-8.1C4.6,9,5.7,8.7,6.7,7.8C8.1,9.1,10.1,9.1,11.5,7.8z M16.6,15.7c0-1.7,0-3.4,0-5.1
		c-1,0-2,0-3,0c0,1.7,0,3.4,0,5.1C14.5,15.7,15.5,15.7,16.6,15.7z M5.3,13.7c1.7,0,3.4,0,5.1,0c0-1,0-2,0-3c-1.7,0-3.4,0-5.1,0
		C5.3,11.6,5.3,12.6,5.3,13.7z"/>
</g>
</svg>
