<?xml version="1.0" encoding="utf-8"?>
<!-- Generator: Adobe Illustrator 16.0.3, SVG Export Plug-In . SVG Version: 6.00 Build 0)  -->
<!DOCTYPE svg PUBLIC "-//W3C//DTD SVG 1.1//EN" "http://www.w3.org/Graphics/SVG/1.1/DTD/svg11.dtd">
<svg version="1.1" id="Layer_1" xmlns="http://www.w3.org/2000/svg" xmlns:xlink="http://www.w3.org/1999/xlink" x="0px" y="0px"
	 width="78px" height="78px" viewBox="0 0 78 78" enable-background="new 0 0 78 78" xml:space="preserve">
<g id="Page-1">
	<g id="icon-93-inbox-upload">
		<path id="inbox-upload" fill="#878787" stroke="#878787" stroke-miterlimit="10" d="M39,19.506l-0.25,0.428l0,0L39,20.117l0,0l0,0
			l-0.23,0.154l0,0l0,0l-0.02-0.337L39,19.506z M43.548,27.521h16.374l13.266,21.226H52.644v6.069c0,3.335-2.712,6.06-6.058,6.06
			H31.412c-3.34,0-6.058-2.712-6.058-6.06v-6.069H4.811l13.266-21.226H34.45v-3.032H16.258L1.098,48.746v1.516v25.773h75.804V50.262
			v-1.516L61.74,24.488H43.548V27.521L43.548,27.521L43.548,27.521z M55.677,51.777h18.191v21.227H4.129V51.777h18.193v4.55
			c0,4.185,3.382,7.579,7.568,7.579h18.216c4.183,0,7.57-3.364,7.57-7.579V51.777L55.677,51.777L55.677,51.777z"/>
	</g>
</g>
<path fill="#1C89B7" stroke="#1C89B7" stroke-miterlimit="10" d="M50.423,15.824c0.417,0.412,1.092,0.412,1.508,0
	c0.416-0.412,0.417-1.08,0-1.493L39.752,2.273c-0.417-0.412-1.091-0.412-1.507,0L26.067,14.331c-0.416,0.413-0.417,1.08,0,1.493
	c0.416,0.412,1.091,0.412,1.508,0L38.998,4.827L50.423,15.824z"/>
<g>
	<path fill="#1C89B7" d="M40.625,38.965c0,0.55-0.45,1-1,1h-1.252c-0.55,0-1-0.45-1-1V5.882c0-0.55,0.45-1,1-1h1.252
		c0.55,0,1,0.45,1,1V38.965z"/>
</g>
</svg>
