<svg xmlns="http://www.w3.org/2000/svg" width="19.125" height="19.125" viewBox="0 0 19.125 19.125">
  <defs>
    <style>
      .cls-1 {
        fill: #556080;
        fill-rule: evenodd;
      }
    </style>
  </defs>
  <path class="cls-1" d="M685.5,507.57c2.366,0,4.284-2.267,4.284-5.063,0-3.877-1.918-5.063-4.284-5.063s-4.285,1.186-4.285,5.063C681.215,505.3,683.134,507.57,685.5,507.57Zm9.461,7.452-2.162-4.916a1.085,1.085,0,0,0-.489-0.525l-3.354-1.764a0.216,0.216,0,0,0-.23.02,5.25,5.25,0,0,1-6.452,0,0.217,0.217,0,0,0-.231-0.02l-3.354,1.764a1.09,1.09,0,0,0-.489.525l-2.161,4.916a1.1,1.1,0,0,0,.081,1.037,1.075,1.075,0,0,0,.907.5h16.946a1.074,1.074,0,0,0,.906-0.5A1.1,1.1,0,0,0,694.961,515.022Z" transform="translate(-675.938 -497.438)"/>
</svg>
