<?xml version="1.0" encoding="utf-8"?>
<!-- Generator: Adobe Illustrator 16.0.0, SVG Export Plug-In . SVG Version: 6.00 Build 0)  -->
<!DOCTYPE svg PUBLIC "-//W3C//DTD SVG 1.1//EN" "http://www.w3.org/Graphics/SVG/1.1/DTD/svg11.dtd">
<svg version="1.1" id="Layer_1" xmlns="http://www.w3.org/2000/svg" xmlns:xlink="http://www.w3.org/1999/xlink" x="0px" y="0px"
	 width="18px" height="14px" viewBox="0 0 18 14" enable-background="new 0 0 18 14" xml:space="preserve">
<path fill="#D4FD59" stroke="#353530" stroke-miterlimit="10" d="M17.5,11.5c0,1.104-0.896,2-2,2h-13c-1.104,0-2-0.896-2-2v-9
	c0-1.104,0.896-2,2-2h13c1.104,0,2,0.896,2,2V11.5z"/>
<rect x="3.5" y="2.5" fill="none" stroke="#353530" stroke-miterlimit="10" width="11" height="9"/>
<rect x="3" y="5" fill="#353530" width="12" height="1"/>
<rect x="3" y="8" fill="#353530" width="12" height="1"/>
<rect x="3.635" y="7.716" transform="matrix(-0.0041 1 -1 -0.0041 14.7341 1.7594)" fill="#353530" width="5.711" height="1"/>
<rect x="4" y="3" fill="#26C468" width="10" height="2"/>
</svg>
