<?xml version="1.0" encoding="utf-8"?>
<!-- Generator: Adobe Illustrator 16.0.0, SVG Export Plug-In . SVG Version: 6.00 Build 0)  -->
<!DOCTYPE svg PUBLIC "-//W3C//DTD SVG 1.1//EN" "http://www.w3.org/Graphics/SVG/1.1/DTD/svg11.dtd">
<svg version="1.1" id="Layer_1" xmlns="http://www.w3.org/2000/svg" xmlns:xlink="http://www.w3.org/1999/xlink" x="0px" y="0px"
	 width="25px" height="20px" viewBox="0 0 25 20" enable-background="new 0 0 25 20" xml:space="preserve">
<rect x="2.5" y="3.5" fill="#FFFFFF" stroke="#333333" stroke-miterlimit="10" width="8.996" height="14"/>
<rect x="3.026" y="4.018" fill="#7D50D3" width="19.008" height="12.968"/>
<g>
	<path d="M6.815,7.856H5.078V7.228h4.23v0.628H7.561v5.086H6.815V7.856z"/>
	<path d="M9.73,11.026c0.017,1.008,0.661,1.425,1.407,1.425c0.534,0,0.856-0.094,1.137-0.213l0.126,0.534
		c-0.263,0.119-0.712,0.255-1.365,0.255c-1.263,0-2.018-0.831-2.018-2.068c0-1.238,0.729-2.213,1.924-2.213
		c1.34,0,1.696,1.179,1.696,1.933c0,0.152-0.017,0.271-0.026,0.348H9.73z M11.917,10.493c0.008-0.475-0.195-1.213-1.034-1.213
		c-0.754,0-1.085,0.696-1.145,1.213H11.917z"/>
	<path d="M13.883,8.839l0.584,0.881c0.153,0.229,0.28,0.441,0.416,0.67h0.024c0.136-0.246,0.272-0.458,0.408-0.679l0.575-0.873
		h0.807l-1.399,1.984l1.441,2.119h-0.849l-0.602-0.924c-0.16-0.237-0.297-0.466-0.44-0.712h-0.017
		c-0.136,0.246-0.28,0.466-0.433,0.712l-0.594,0.924h-0.823l1.458-2.095l-1.39-2.008H13.883z"/>
	<path d="M18.467,7.661v1.179h1.067v0.568h-1.067v2.213c0,0.509,0.145,0.798,0.559,0.798c0.195,0,0.34-0.026,0.434-0.053
		l0.034,0.561c-0.145,0.06-0.374,0.102-0.662,0.102c-0.348,0-0.628-0.11-0.806-0.314c-0.211-0.22-0.288-0.584-0.288-1.068V9.407
		h-0.636V8.839h0.636V7.856L18.467,7.661z"/>
</g>
</svg>
