<?xml version="1.0" encoding="utf-8"?>
<!-- Generator: Adobe Illustrator 16.0.0, SVG Export Plug-In . SVG Version: 6.00 Build 0)  -->
<!DOCTYPE svg PUBLIC "-//W3C//DTD SVG 1.1//EN" "http://www.w3.org/Graphics/SVG/1.1/DTD/svg11.dtd">
<svg version="1.1" id="Layer_1" xmlns="http://www.w3.org/2000/svg" xmlns:xlink="http://www.w3.org/1999/xlink" x="0px" y="0px"
	 width="20px" height="20px" viewBox="0 0 20 20" enable-background="new 0 0 20 20" xml:space="preserve">
<path fill="#282828" d="M8.063,17.648V19.6L7.59,19.218c-0.072-0.059-1.808-1.467-3.566-3.487c-2.428-2.785-3.657-5.287-3.657-7.433
	V8.085c0-4.244,3.452-7.696,7.696-7.696c4.242,0,7.696,3.452,7.696,7.696v0.213c0,0.181-0.01,0.363-0.026,0.548l-1.506-1.373
	c-0.309-3.129-2.955-5.582-6.164-5.582c-3.416,0-6.194,2.779-6.194,6.194v0.213C1.868,11.924,6.54,16.314,8.063,17.648z
	 M12.68,16.57h2.254v-2.252H12.68V16.57z M8.063,4.895c1.76,0,3.19,1.432,3.19,3.19s-1.431,3.192-3.19,3.192
	c-1.761,0-3.191-1.433-3.191-3.192S6.302,4.895,8.063,4.895z M8.063,6.396c-0.933,0-1.689,0.758-1.689,1.688
	s0.758,1.688,1.689,1.688c0.931,0,1.688-0.758,1.688-1.688S8.993,6.396,8.063,6.396z M18.622,15.549L18.2,15.164v2.41
	c0,1.123-0.913,2.037-2.035,2.037H11.41c-1.123,0-2.036-0.914-2.036-2.037v-2.41l-0.422,0.385l-1.013-1.109l5.848-5.334l5.847,5.334
	L18.622,15.549z M16.698,13.795l-2.911-2.656l-2.911,2.656v3.779c0,0.295,0.239,0.535,0.534,0.535h4.755
	c0.294,0,0.532-0.24,0.532-0.535L16.698,13.795L16.698,13.795z"/>
</svg>
