<?xml version="1.0" encoding="utf-8"?>
<!-- Generator: Adobe Illustrator 16.0.3, SVG Export Plug-In . SVG Version: 6.00 Build 0)  -->
<!DOCTYPE svg PUBLIC "-//W3C//DTD SVG 1.1//EN" "http://www.w3.org/Graphics/SVG/1.1/DTD/svg11.dtd">
<svg version="1.1" id="Layer_1" xmlns="http://www.w3.org/2000/svg" xmlns:xlink="http://www.w3.org/1999/xlink" x="0px" y="0px"
	 width="20px" height="20px" viewBox="0 0 20 20" enable-background="new 0 0 20 20" xml:space="preserve">
<g id="Layer_x0020_1">
	<path fill="#FFFFFF" d="M8.863,13.808c-0.006-0.239-0.01-0.416-0.01-0.536c0-0.697,0.098-1.304,0.296-1.809
		c0.147-0.383,0.379-0.769,0.704-1.161c0.237-0.284,0.667-0.696,1.281-1.24c0.619-0.548,1.019-0.981,1.202-1.306
		c0.188-0.321,0.278-0.676,0.278-1.057c0-0.693-0.271-1.301-0.813-1.829c-0.539-0.524-1.205-0.787-1.991-0.787
		c-0.759,0-1.392,0.239-1.899,0.713c-0.509,0.476-0.842,1.22-1,2.23L5.08,6.806c0.165-1.351,0.655-2.389,1.469-3.109
		c0.815-0.72,1.894-1.078,3.231-1.078c1.421,0,2.551,0.385,3.397,1.16c0.846,0.771,1.268,1.704,1.268,2.803
		c0,0.632-0.147,1.216-0.445,1.75c-0.297,0.533-0.874,1.186-1.739,1.949c-0.581,0.518-0.961,0.897-1.14,1.141
		c-0.178,0.247-0.31,0.527-0.396,0.84c-0.088,0.316-0.136,0.832-0.148,1.547L8.863,13.808L8.863,13.808z M8.753,17.382v-2.029h2.027
		v2.029H8.753z"/>
</g>
</svg>
