<?xml version="1.0" encoding="utf-8"?>
<!-- Generator: Adobe Illustrator 16.0.0, SVG Export Plug-In . SVG Version: 6.00 Build 0)  -->
<!DOCTYPE svg PUBLIC "-//W3C//DTD SVG 1.1//EN" "http://www.w3.org/Graphics/SVG/1.1/DTD/svg11.dtd">
<svg version="1.1" id="Layer_1" xmlns="http://www.w3.org/2000/svg" xmlns:xlink="http://www.w3.org/1999/xlink" x="0px" y="0px"
	 width="20px" height="20px" viewBox="0 0 20 20" enable-background="new 0 0 20 20" xml:space="preserve">
<g id="Layer_21">
	<g>
		<path fill="#1265B2" d="M4.132,17.188c0-0.041-0.003-0.08-0.009-0.117c0.005-0.023,0.009-0.049,0.009-0.074v-0.939
			c0-0.134-0.094-0.242-0.211-0.242c-0.116,0-0.21,0.108-0.21,0.242v0.939c0,0.025,0.004,0.051,0.01,0.074
			c-0.005,0.037-0.01,0.076-0.01,0.117l1.021,1.394l0,0l0.543,0.169l-0.194-0.27L4.132,17.188z"/>
		<path fill="#1265B2" d="M5.949,18.581l-1.021-1.394c0-0.041-0.003-0.08-0.008-0.117c0.005-0.022,0.008-0.049,0.008-0.074v-0.939
			c0-0.135-0.094-0.246-0.21-0.246c-0.116,0-0.21,0.111-0.21,0.246v0.939c0,0.025,0.003,0.052,0.01,0.074
			c-0.005,0.037-0.01,0.076-0.01,0.117l1.018,1.391l-0.003,0.003l0.543,0.168l-0.124-0.168H5.949L5.949,18.581z"/>
		<path fill="#1265B2" d="M7.542,18.581l-1.021-1.394c0-0.041-0.003-0.08-0.01-0.117c0.006-0.022,0.01-0.049,0.01-0.074v-0.939
			c0-0.135-0.093-0.246-0.21-0.246c-0.115,0-0.21,0.111-0.21,0.246v0.939c0,0.025,0.003,0.052,0.01,0.074
			c-0.005,0.037-0.01,0.076-0.01,0.117l1.019,1.394l0,0l0.544,0.168L7.542,18.581L7.542,18.581z"/>
		<path fill="#1265B2" d="M8.339,18.581l-1.021-1.394c0-0.041-0.003-0.08-0.01-0.117c0.006-0.022,0.01-0.049,0.01-0.074v-0.939
			c0-0.135-0.094-0.246-0.21-0.246c-0.116,0-0.21,0.111-0.21,0.246v0.939c0,0.025,0.004,0.052,0.01,0.074
			c-0.005,0.037-0.01,0.076-0.01,0.117l1.02,1.394H7.914l0.545,0.168l-0.123-0.168H8.339L8.339,18.581z"/>
		<path fill="#1265B2" d="M9.933,18.581l-1.021-1.394c0-0.041-0.003-0.08-0.01-0.117c0.006-0.022,0.01-0.049,0.01-0.074v-0.939
			c0-0.135-0.094-0.246-0.211-0.246c-0.116,0-0.209,0.111-0.209,0.246v0.939c0,0.025,0.003,0.052,0.01,0.074
			c-0.006,0.037-0.01,0.076-0.01,0.117l1.017,1.391l-0.003,0.003l0.543,0.168l-0.123-0.168H9.933z"/>
		<path fill="#1265B2" d="M11.527,18.581l-1.022-1.394c0-0.041-0.005-0.08-0.01-0.117c0.005-0.022,0.01-0.049,0.01-0.074v-0.939
			c0-0.135-0.094-0.246-0.21-0.246c-0.116,0-0.211,0.111-0.211,0.246v0.939c0,0.025,0.003,0.052,0.009,0.074
			c-0.006,0.037-0.009,0.076-0.009,0.117l1.02,1.394l0,0l0.545,0.168L11.527,18.581L11.527,18.581L11.527,18.581z"/>
		<path fill="#1265B2" d="M12.322,18.581l-1.021-1.394c0-0.041-0.002-0.08-0.009-0.117c0.007-0.022,0.009-0.049,0.009-0.074v-0.939
			c0-0.135-0.094-0.246-0.215-0.246c-0.113,0-0.206,0.111-0.206,0.246v0.939c0,0.025,0.002,0.052,0.011,0.074
			c-0.009,0.037-0.011,0.076-0.011,0.117l1.021,1.394l0,0l0.543,0.168L12.322,18.581L12.322,18.581z"/>
		<path fill="#1265B2" d="M13.915,18.581l-1.019-1.394c0-0.041-0.004-0.08-0.01-0.117c0.006-0.022,0.01-0.049,0.01-0.074v-0.939
			c0-0.135-0.092-0.246-0.213-0.246c-0.113,0-0.207,0.111-0.207,0.246v0.939c0,0.025,0,0.052,0.01,0.074
			c-0.01,0.037-0.01,0.076-0.01,0.117l1.021,1.394l0,0l0.542,0.168L13.915,18.581L13.915,18.581L13.915,18.581z"/>
		<path fill="#1265B2" d="M14.712,18.581l-1.019-1.394c0-0.041-0.006-0.08-0.012-0.117c0.006-0.022,0.012-0.049,0.012-0.074v-0.939
			c0-0.135-0.096-0.246-0.213-0.246c-0.114,0-0.209,0.111-0.209,0.246v0.939c0,0.025,0.002,0.052,0.01,0.074
			c-0.008,0.037-0.01,0.076-0.01,0.117l1.02,1.394l0,0l0.545,0.168L14.712,18.581L14.712,18.581z"/>
		<path fill="#1265B2" d="M9.073,7.41c0.341,0,0.617-0.202,0.617-0.453V1.703c0-0.25-0.277-0.453-0.617-0.453
			c-0.34,0-0.617,0.203-0.617,0.453v5.254C8.456,7.208,8.731,7.41,9.073,7.41z"/>
		<path fill="#1265B2" d="M14.307,13.885L9.689,7.208v0.093c0,0.341-0.275,0.617-0.617,0.617c-0.342,0-0.616-0.275-0.616-0.616
			V7.208L3.85,13.869l-0.162,1.771h10.77L14.307,13.885z"/>
		<path fill="#1265B2" d="M6.744,18.581L6.744,18.581l-1.02-1.394c0-0.041-0.003-0.08-0.01-0.117c0.005-0.022,0.01-0.049,0.01-0.074
			v-0.939c0-0.135-0.094-0.246-0.21-0.246c-0.116,0-0.21,0.111-0.21,0.246v0.939c0,0.025,0.003,0.052,0.01,0.074
			c-0.006,0.037-0.01,0.076-0.01,0.117l1.011,1.381H6.314l0.002,0.002l0.007,0.011H6.35l0.507,0.153L6.744,18.581z"/>
		<path fill="#1265B2" d="M9.13,18.581h0.005l-1.02-1.394c0-0.041-0.003-0.08-0.01-0.117c0.005-0.022,0.01-0.049,0.01-0.074v-0.939
			c0-0.135-0.093-0.246-0.21-0.246c-0.116,0-0.21,0.111-0.21,0.246v0.939c0,0.025,0.003,0.052,0.01,0.074
			c-0.006,0.037-0.01,0.076-0.01,0.117l1.008,1.377l-0.002,0.004h0.005l0.007,0.013h0.026l0.503,0.153L9.13,18.581z"/>
		<path fill="#1265B2" d="M10.625,18.438l-0.917-1.252c0-0.041-0.003-0.08-0.01-0.115c0.007-0.024,0.01-0.049,0.01-0.075v-0.938
			c0-0.135-0.094-0.244-0.21-0.244c-0.116,0-0.21,0.108-0.21,0.242v0.94c0,0.024,0.004,0.051,0.009,0.073
			c-0.005,0.037-0.009,0.076-0.009,0.117l1.02,1.394h0.007l0.542,0.169l-0.229-0.313L10.625,18.438z"/>
		<path fill="#1265B2" d="M13.016,18.438l-0.916-1.25c0-0.041-0.004-0.08-0.009-0.117c0.005-0.023,0.009-0.049,0.009-0.074v-0.939
			c0-0.134-0.094-0.242-0.207-0.242c-0.119,0-0.213,0.108-0.213,0.242v0.939c0,0.025,0.002,0.051,0.01,0.074
			c-0.008,0.037-0.01,0.076-0.01,0.117l1.021,1.394h0.015l0.525,0.162L13.016,18.438z"/>
		<path fill="#1265B2" d="M15.482,18.545l-0.994-1.355c0-0.043-0.004-0.082-0.01-0.116c0.006-0.023,0.01-0.05,0.01-0.075v-0.939
			c0-0.135-0.092-0.244-0.211-0.244c-0.114,0-0.209,0.109-0.209,0.244v0.939c0,0.025,0.002,0.052,0.011,0.075
			c-0.009,0.034-0.011,0.073-0.011,0.116l1.019,1.394h0.005l0.542,0.168L15.482,18.545z"/>
	</g>
</g>
</svg>
