<svg xmlns="http://www.w3.org/2000/svg" width="15" height="117" viewBox="0 0 15 117">
  <g id="Group_5799" data-name="Group 5799" transform="translate(-2728 -10636)">
    <g id="Group_5798" data-name="Group 5798" transform="translate(0 4)">
      <g id="technical-support" transform="translate(2728.5 10719)">
        <path id="Path_24359" data-name="Path 24359" d="M175.281,59.3h.82a1.457,1.457,0,0,0,1.253,1.44v-.47a2.275,2.275,0,1,0-4.55,0v.484h1.022a1.456,1.456,0,0,0,1.455-1.454Z" transform="translate(-168.079 -56.414)" fill="rgba(255,255,255,0.9)"/>
        <path id="Path_24360" data-name="Path 24360" d="M75.613,6.989h.774a3.469,3.469,0,0,1-.023-.395V3.861a3.1,3.1,0,0,1,6.19,0V6.594a3.465,3.465,0,0,1-.023.395h.774a1.118,1.118,0,0,0,1.117-1.117V4.627a1.118,1.118,0,0,0-1.071-1.116,3.912,3.912,0,0,0-7.784,0A1.118,1.118,0,0,0,74.5,4.627V5.872a1.118,1.118,0,0,0,1.113,1.117Z" transform="translate(-72.459)" fill="rgba(255,255,255,0.9)"/>
        <path id="Path_24361" data-name="Path 24361" d="M175.08,158.152a2.211,2.211,0,0,0,1.742-.875h-1.271v-.82h1.694a2.61,2.61,0,0,0,.11-.753v-1.438a2.276,2.276,0,0,1-1.663-.964,2.274,2.274,0,0,1-1.865.973H172.8V155.7A2.369,2.369,0,0,0,175.08,158.152Z" transform="translate(-168.08 -149.11)" fill="rgba(255,255,255,0.9)"/>
        <path id="Path_24362" data-name="Path 24362" d="M176.6,321.957v-1.1a2.983,2.983,0,0,1-4.6.013v1.08h0a4.148,4.148,0,0,0,2.293.991,4.193,4.193,0,0,0,2.307-.989Z" transform="translate(-167.296 -312.088)" fill="rgba(255,255,255,0.9)"/>
        <path id="Path_24363" data-name="Path 24363" d="M12.966,372.818l-2.742-.9A5.52,5.52,0,0,1,7,373.427a5.453,5.453,0,0,1-3.213-1.51l-2.749.9A1.5,1.5,0,0,0,0,374.245v1.5H2.824v-1.422h.82v1.422h6.711v-1.422h.82v1.422H14v-1.5a1.5,1.5,0,0,0-1.034-1.427Z" transform="translate(0 -361.747)" fill="rgba(255,255,255,0.9)"/>
      </g>
      <path id="Call_center" data-name="Call center" d="M7.725-3.021l.013.038A2.849,2.849,0,0,1,6.83-.727a3.573,3.573,0,0,1-2.52.86A3.391,3.391,0,0,1,1.7-.955a3.947,3.947,0,0,1-1-2.783V-5.5a3.992,3.992,0,0,1,.99-2.783A3.32,3.32,0,0,1,4.266-9.375a3.73,3.73,0,0,1,2.568.832,2.821,2.821,0,0,1,.911,2.279l-.013.038H6.24a1.9,1.9,0,0,0-.5-1.419,2.02,2.02,0,0,0-1.473-.492,1.752,1.752,0,0,0-1.489.746,3.09,3.09,0,0,0-.55,1.881v1.771a3.074,3.074,0,0,0,.559,1.895A1.8,1.8,0,0,0,4.31-1.1a1.941,1.941,0,0,0,1.438-.5A1.941,1.941,0,0,0,6.24-3.021ZM13.2,0q-.083-.26-.136-.508a3.63,3.63,0,0,1-.073-.5,2.645,2.645,0,0,1-.832.809A2.139,2.139,0,0,1,11,.133,2.283,2.283,0,0,1,9.353-.419a2.005,2.005,0,0,1-.574-1.517,1.792,1.792,0,0,1,.787-1.552,3.8,3.8,0,0,1,2.215-.555h1.2v-.6a1.121,1.121,0,0,0-.314-.844,1.257,1.257,0,0,0-.911-.3,1.3,1.3,0,0,0-.838.251.8.8,0,0,0-.311.651l-1.485.006-.006-.038a1.7,1.7,0,0,1,.727-1.441A3.08,3.08,0,0,1,11.851-7a2.938,2.938,0,0,1,1.936.609,2.145,2.145,0,0,1,.736,1.752v3.053a5.631,5.631,0,0,0,.057.816,4.331,4.331,0,0,0,.185.77ZM11.318-1.1a1.928,1.928,0,0,0,1.044-.3,1.47,1.47,0,0,0,.619-.667V-3.079H11.756a1.547,1.547,0,0,0-1.054.333,1.012,1.012,0,0,0-.381.784.8.8,0,0,0,.257.625,1.068,1.068,0,0,0,.74.237ZM17.78,0H16.237V-9.9H17.78Zm3.37,0H19.608V-9.9H21.15Zm7.763-1.1a1.282,1.282,0,0,0,.892-.33,1.08,1.08,0,0,0,.365-.838h1.4l.013.038a2.071,2.071,0,0,1-.765,1.663,2.773,2.773,0,0,1-1.9.7,2.8,2.8,0,0,1-2.292-.981A3.765,3.765,0,0,1,25.82-3.32v-.222a3.768,3.768,0,0,1,.806-2.469A2.787,2.787,0,0,1,28.907-7a2.694,2.694,0,0,1,1.949.72,2.352,2.352,0,0,1,.724,1.831l-.013.038h-1.4a1.393,1.393,0,0,0-.349-.958,1.164,1.164,0,0,0-.914-.394,1.258,1.258,0,0,0-1.187.638,3.157,3.157,0,0,0-.362,1.577v.222a3.186,3.186,0,0,0,.359,1.59,1.266,1.266,0,0,0,1.2.636ZM35.788.133a2.99,2.99,0,0,1-2.352-.949,3.554,3.554,0,0,1-.847-2.46V-3.53a3.674,3.674,0,0,1,.847-2.491A2.738,2.738,0,0,1,35.623-7a2.57,2.57,0,0,1,2.1.854,3.453,3.453,0,0,1,.711,2.282v.832H34.182L34.169-3a2.25,2.25,0,0,0,.444,1.371,1.516,1.516,0,0,0,1.263.527,3.475,3.475,0,0,0,1.089-.152,3.108,3.108,0,0,0,.854-.438l.5,1.009A3.269,3.269,0,0,1,37.28-.1a4.363,4.363,0,0,1-1.492.233Zm-.165-5.891a1.192,1.192,0,0,0-.965.435,2.155,2.155,0,0,0-.451,1.133l.013.032H36.9v-.121a1.734,1.734,0,0,0-.308-1.07,1.14,1.14,0,0,0-.974-.408Zm5.453-1.111.089.99a2.457,2.457,0,0,1,.847-.822A2.261,2.261,0,0,1,43.164-7a2.145,2.145,0,0,1,1.673.66,3,3,0,0,1,.6,2.063V0H43.894V-4.259A1.659,1.659,0,0,0,43.583-5.4a1.219,1.219,0,0,0-.939-.336,1.842,1.842,0,0,0-.857.187,1.5,1.5,0,0,0-.578.517V0H39.667V-6.868Zm7.941-1.669v1.669h1.231v1.143H49.017v3.8a.828.828,0,0,0,.184.606.667.667,0,0,0,.489.181,1.364,1.364,0,0,0,.248-.022,1.5,1.5,0,0,0,.229-.06L50.331-.1a1.772,1.772,0,0,1-.467.168,2.568,2.568,0,0,1-.562.06,1.78,1.78,0,0,1-1.336-.5A2.173,2.173,0,0,1,47.48-1.93v-3.8H46.433V-6.868H47.48v-1.67ZM54.406.133a2.99,2.99,0,0,1-2.352-.949,3.554,3.554,0,0,1-.847-2.46V-3.53a3.674,3.674,0,0,1,.847-2.491A2.738,2.738,0,0,1,54.241-7a2.57,2.57,0,0,1,2.1.854,3.453,3.453,0,0,1,.711,2.282v.832H52.8L52.787-3a2.25,2.25,0,0,0,.444,1.371,1.516,1.516,0,0,0,1.263.527,3.475,3.475,0,0,0,1.089-.152,3.108,3.108,0,0,0,.854-.438l.5,1.009A3.269,3.269,0,0,1,55.9-.1a4.363,4.363,0,0,1-1.494.233Zm-.165-5.891a1.192,1.192,0,0,0-.965.435,2.155,2.155,0,0,0-.451,1.133l.013.032h2.685v-.121a1.734,1.734,0,0,0-.308-1.07,1.14,1.14,0,0,0-.974-.408Zm7.478.279-.66-.025a1.383,1.383,0,0,0-.752.19,1.254,1.254,0,0,0-.467.54V0H58.3V-6.868h1.409l.1,1a2.2,2.2,0,0,1,.67-.825A1.559,1.559,0,0,1,61.42-7a1.437,1.437,0,0,1,.26.022,1.9,1.9,0,0,1,.222.054Z" transform="translate(2740 10710) rotate(-90)" fill="rgba(255,255,255,0.9)"/>
    </g>
    <rect id="Rectangle_1731" data-name="Rectangle 1731" width="15" height="117" transform="translate(2728 10636)" fill="none"/>
  </g>
</svg>
