<?xml version="1.0" encoding="utf-8"?>
<!-- Generator: Adobe Illustrator 16.0.0, SVG Export Plug-In . SVG Version: 6.00 Build 0)  -->
<!DOCTYPE svg PUBLIC "-//W3C//DTD SVG 1.1//EN" "http://www.w3.org/Graphics/SVG/1.1/DTD/svg11.dtd">
<svg version="1.1" id="Layer_1" xmlns="http://www.w3.org/2000/svg" xmlns:xlink="http://www.w3.org/1999/xlink" x="0px" y="0px"
	 width="14px" height="14px" viewBox="0 0 14 14" enable-background="new 0 0 14 14" xml:space="preserve">
<path fill="#FFFFFF" d="M12.863,11.221L8.645,7l4.221-4.221c0.455-0.456,0.455-1.189,0-1.645s-1.188-0.456-1.645,0L7,5.355
	l-4.221-4.22c-0.456-0.456-1.189-0.456-1.645,0c-0.456,0.456-0.456,1.189,0,1.646L5.355,7l-4.221,4.22
	c-0.456,0.456-0.456,1.188,0,1.645c0.456,0.456,1.189,0.456,1.645,0L7,8.645l4.221,4.221c0.455,0.455,1.188,0.455,1.643,0
	C13.318,12.409,13.318,11.673,12.863,11.221z"/>
</svg>
