<svg xmlns="http://www.w3.org/2000/svg" width="35" height="35" viewBox="0 0 35 35">
  <g id="Database_" data-name="Database " transform="translate(3.9 1.331)">
    <g id="Rectangle_3" data-name="Rectangle 3" transform="translate(-3.9 -1.331)" fill="#fff" stroke="#707070" stroke-width="1" opacity="0">
      <rect width="35" height="35" stroke="none"/>
      <rect x="0.5" y="0.5" width="34" height="34" fill="none"/>
    </g>
    <path id="Path_28" data-name="Path 28" d="M16.9,30.351q-.605.019-1.208.019c-.4,0-.808-.006-1.212-.019a27.211,27.211,0,0,1-8.069-1.26A9.476,9.476,0,0,1,4.1,28v4.358c1.32,1.377,5.746,2.648,11.591,2.648s10.272-1.27,11.591-2.648V28a9.5,9.5,0,0,1-2.33,1.1A27.259,27.259,0,0,1,16.9,30.351Z" transform="translate(0 -15.018)" fill="#b3282d"/>
    <path id="Path_29" data-name="Path 29" d="M4.1,14.889v4.358c1.223,1.277,5.115,2.462,10.333,2.628l.162,0c.151,0,.3.008.455.011q.318.006.641.006t.641-.005c.153,0,.3-.006.455-.011l.162,0c5.217-.166,9.11-1.352,10.333-2.628V14.889c-2.257,1.55-7.027,2.37-11.591,2.37S6.357,16.439,4.1,14.889Z" transform="translate(0 -7.986)" fill="#b3282d"/>
    <path id="Path_30" data-name="Path 30" d="M27.22,3.96C26.7,1.966,22.7,0,15.691,0,8.7,0,4.7,1.957,4.168,3.946a.45.45,0,0,0-.068.227V5.242c1.315,1.373,5.711,2.64,11.591,2.64s10.276-1.267,11.591-2.64V4.173A.427.427,0,0,0,27.22,3.96Z" fill="#b3282d"/>
    <path id="Path_31" data-name="Path 31" d="M4.1,41v3.8a.436.436,0,0,0,.054.209c.548,2.27,5.446,3.964,11.537,3.964s10.967-1.687,11.533-3.948a.46.46,0,0,0,.058-.224V41c-1.917,1.35-5.867,2.41-11.591,2.41S6.017,42.35,4.1,41Z" transform="translate(0 -21.991)" fill="#b3282d"/>
  </g>
</svg>
