<svg xmlns="http://www.w3.org/2000/svg" width="40.295" height="35" viewBox="0 0 40.295 35">
  <g id="Job_Server" data-name="Job Server" transform="translate(0.001)">
    <path id="Path_20" data-name="Path 20" d="M7.161,23.61h9.444V11.805H34.657a8.287,8.287,0,0,0-6.564-4.658A9.389,9.389,0,0,0,10.826,4.724l-.123,0A5.971,5.971,0,0,0,4.8,9.858,7.082,7.082,0,0,0,0,16.527,7.159,7.159,0,0,0,7.161,23.61Zm0,0" fill="#b3282d"/>
    <path id="Path_21" data-name="Path 21" d="M241,189.444h21.328V180H241Zm9.444-5.9h7.083V185.9h-7.083Zm-4.722,0h2.361V185.9h-2.361Zm0,0" transform="translate(-222.034 -166.06)" fill="#b3282d"/>
    <path id="Path_22" data-name="Path 22" d="M241,339.444h21.328V330H241Zm9.444-5.9h7.083V335.9h-7.083Zm-4.722,0h2.361V335.9h-2.361Zm0,0" transform="translate(-222.034 -304.444)" fill="#b3282d"/>
  </g>
</svg>
