<svg xmlns="http://www.w3.org/2000/svg" width="42.29" height="35.9" viewBox="0 0 42.29 35.9">
  <g id="BPM_Server" data-name="BPM Server" transform="translate(1.001)">
    <path id="Path_20" data-name="Path 20" d="M7.541,24.861h9.944V12.43H36.493a8.725,8.725,0,0,0-6.912-4.9A9.887,9.887,0,0,0,11.4,4.974l-.13,0A6.288,6.288,0,0,0,5.055,10.38,7.457,7.457,0,0,0,0,17.4a7.538,7.538,0,0,0,7.541,7.458Zm0,0" transform="translate(-1)" fill="#b3282d"/>
    <g id="header-bpm" transform="translate(19.599 15.398)">
      <circle id="Ellipse_1" data-name="Ellipse 1" cx="2.166" cy="2.166" r="2.166" transform="translate(1.546 2.669)" fill="#fff" stroke="#b3282d" stroke-miterlimit="10" stroke-width="1.8"/>
      <rect id="Rectangle_1" data-name="Rectangle 1" width="8.692" height="6.733" transform="translate(11.783 12.869)" fill="#fff" stroke="#b3282d" stroke-miterlimit="10" stroke-width="1.8"/>
      <rect id="Rectangle_2" data-name="Rectangle 2" width="6.062" height="6.062" transform="translate(11.844 4.287) rotate(-45)" fill="#fff" stroke="#b3282d" stroke-miterlimit="10" stroke-width="1.8"/>
      <path id="Path_23" data-name="Path 23" d="M10.291,21.724V14.99a.844.844,0,0,0-.844-.844H3.711a.844.844,0,0,0-.844.844v6.734Z" transform="translate(-2.867 -5.066)" fill="#fff" stroke="#b3282d" stroke-miterlimit="10" stroke-width="1.8"/>
    </g>
  </g>
</svg>
