<svg xmlns="http://www.w3.org/2000/svg" width="15.218" height="117" viewBox="0 0 15.218 117">
  <g id="Group_5803" data-name="Group 5803" transform="translate(-2868 -10636)">
    <rect id="Rectangle_1731" data-name="Rectangle 1731" width="15" height="117" transform="translate(2868 10636)" fill="none"/>
    <g id="Group_5802" data-name="Group 5802" transform="translate(0 -0.177)">
      <g id="Group_5798" data-name="Group 5798" transform="translate(138.902 4)">
        <path id="Path_24367" data-name="Path 24367" d="M5.649-2.133h.038L8.36-9.242h1.968V0H8.785V-6.64l-.038-.006L6.2,0H5.142L2.552-6.773l-.038.013V0H.971V-9.242H3ZM14.4-2.755l.152.686h.038l1.5-4.8H17.78L14.936,1.041a3.526,3.526,0,0,1-.768,1.225,1.87,1.87,0,0,1-1.4.508,2.4,2.4,0,0,1-.409-.038q-.219-.038-.422-.089L12.1,1.454l.235.019q.152.013.229.013a.847.847,0,0,0,.67-.286,2.428,2.428,0,0,0,.409-.66L13.9-.083,11.407-6.868h1.682ZM22.1,0V-9.242H25.13a3.985,3.985,0,0,1,2.393.632,2.189,2.189,0,0,1,.863,1.888,1.856,1.856,0,0,1-.346,1.1,2.147,2.147,0,0,1-.962.743,2.073,2.073,0,0,1,1.368.768,2.323,2.323,0,0,1,.479,1.46,2.375,2.375,0,0,1-.851,1.977A3.68,3.68,0,0,1,25.727,0Zm1.542-4.2v2.971h2.082A1.855,1.855,0,0,0,26.958-1.6a1.307,1.307,0,0,0,.432-1.057,1.476,1.476,0,0,0-.425-1.111A1.729,1.729,0,0,0,25.771-4.2H23.645Zm0-1.149H25.3a1.74,1.74,0,0,0,1.133-.34,1.171,1.171,0,0,0,.416-.962,1.2,1.2,0,0,0-.438-1.019A2.08,2.08,0,0,0,25.13-8H23.645ZM34.36,0q-.083-.26-.136-.508A3.63,3.63,0,0,1,34.15-1a2.645,2.645,0,0,1-.832.809,2.139,2.139,0,0,1-1.162.327A2.283,2.283,0,0,1,30.51-.419a2.005,2.005,0,0,1-.574-1.517,1.792,1.792,0,0,1,.787-1.552,3.8,3.8,0,0,1,2.215-.555h1.2v-.6a1.121,1.121,0,0,0-.314-.844,1.257,1.257,0,0,0-.911-.3,1.3,1.3,0,0,0-.838.251.8.8,0,0,0-.311.651l-1.485.006-.006-.038A1.7,1.7,0,0,1,31-6.367,3.08,3.08,0,0,1,33.008-7a2.938,2.938,0,0,1,1.936.609,2.145,2.145,0,0,1,.736,1.752v3.053a5.631,5.631,0,0,0,.057.816A4.331,4.331,0,0,0,35.921,0ZM32.475-1.1A1.928,1.928,0,0,0,33.519-1.4a1.47,1.47,0,0,0,.619-.667V-3.079H32.913a1.547,1.547,0,0,0-1.054.333,1.012,1.012,0,0,0-.381.784.8.8,0,0,0,.257.625A1.068,1.068,0,0,0,32.475-1.1Zm8.677-.774a.711.711,0,0,0-.3-.587,3.119,3.119,0,0,0-1.139-.416,4.634,4.634,0,0,1-1.854-.73,1.538,1.538,0,0,1-.641-1.295,1.865,1.865,0,0,1,.73-1.476A2.893,2.893,0,0,1,39.87-7a2.982,2.982,0,0,1,1.984.632,1.83,1.83,0,0,1,.72,1.52l-.013.038H41.082a.962.962,0,0,0-.33-.727,1.242,1.242,0,0,0-.882-.308,1.261,1.261,0,0,0-.851.254.794.794,0,0,0-.292.622A.669.669,0,0,0,39-4.405a2.992,2.992,0,0,0,1.124.375,4.653,4.653,0,0,1,1.9.746,1.576,1.576,0,0,1,.641,1.317A1.825,1.825,0,0,1,41.9-.454a3.222,3.222,0,0,1-2.015.587,3.076,3.076,0,0,1-2.114-.686,1.936,1.936,0,0,1-.736-1.574l.013-.038h1.435a1.029,1.029,0,0,0,.432.87,1.735,1.735,0,0,0,.99.273,1.551,1.551,0,0,0,.917-.235A.73.73,0,0,0,41.152-1.879ZM46.167-3H45.6V0H44.059V-9.9H45.6V-4.24h.527l1.86-2.628h1.809L47.436-3.707,50.051,0h-1.8ZM53.644.133a2.99,2.99,0,0,1-2.352-.949,3.554,3.554,0,0,1-.847-2.46v-.254a3.674,3.674,0,0,1,.847-2.491A2.738,2.738,0,0,1,53.479-7a2.57,2.57,0,0,1,2.095.854,3.453,3.453,0,0,1,.711,2.282v.832H52.038L52.025-3a2.25,2.25,0,0,0,.444,1.371,1.516,1.516,0,0,0,1.263.527,3.475,3.475,0,0,0,1.089-.152,3.108,3.108,0,0,0,.854-.438l.5,1.009A3.269,3.269,0,0,1,55.136-.1,4.363,4.363,0,0,1,53.644.133Zm-.165-5.891a1.192,1.192,0,0,0-.965.435,2.155,2.155,0,0,0-.451,1.133l.013.032h2.685v-.121a1.734,1.734,0,0,0-.308-1.07A1.14,1.14,0,0,0,53.479-5.757Zm6.03-2.78v1.669h1.231v1.143H59.509v3.8a.828.828,0,0,0,.184.606.667.667,0,0,0,.489.181,1.364,1.364,0,0,0,.248-.022,1.5,1.5,0,0,0,.229-.06L60.823-.1a1.772,1.772,0,0,1-.467.168,2.568,2.568,0,0,1-.562.06,1.78,1.78,0,0,1-1.336-.5,2.173,2.173,0,0,1-.486-1.565v-3.8H56.926V-6.868h1.047V-8.538Z" transform="translate(2740 10710) rotate(-90)" fill="rgba(255,255,255,0.9)"/>
      </g>
      <g id="supermarket" transform="translate(2869 10703.72)">
        <g id="Group_5801" data-name="Group 5801" transform="translate(0 20.222)">
          <path id="Path_24364" data-name="Path 24364" d="M288.948,23.66h1.246l-1.848-3.17a.538.538,0,1,0-.928.543Z" transform="translate(-278.957 -20.222)" fill="rgba(255,255,255,0.9)"/>
          <path id="Path_24365" data-name="Path 24365" d="M105.076,21.076a.538.538,0,0,0-.928-.543L102.3,23.706h1.246Z" transform="translate(-99.314 -20.266)" fill="rgba(255,255,255,0.9)"/>
          <path id="Path_24366" data-name="Path 24366" d="M13.3,171.278H.914a.913.913,0,0,0-.914.914V173.2a.913.913,0,0,0,.914.914H1.2l.881,4.778a1.252,1.252,0,0,0,1.159,1.01h7.554a1.252,1.252,0,0,0,1.159-1.01l.887-4.781H13.3a.913.913,0,0,0,.914-.914v-1.013A.917.917,0,0,0,13.3,171.278Zm-8.257,4.775v2.061a.517.517,0,1,1-1.033,0v-2.89a.517.517,0,1,1,1.033,0Zm1.658,0v2.061a.517.517,0,1,1-1.033,0v-2.89a.516.516,0,0,1,.517-.517.527.527,0,0,1,.517.517Zm1.667,1.2v.864a.517.517,0,1,1-1.033,0v-2.89a.527.527,0,0,1,.517-.517.516.516,0,0,1,.517.517Zm1.658,0v.864a.517.517,0,1,1-1.033,0v-2.89a.517.517,0,1,1,1.033,0Z" transform="translate(0 -166.869)" fill="rgba(255,255,255,0.9)"/>
        </g>
      </g>
    </g>
  </g>
</svg>
