<?xml version="1.0" encoding="utf-8"?>
<!-- Generator: Adobe Illustrator 23.0.3, SVG Export Plug-In . SVG Version: 6.00 Build 0)  -->
<svg version="1.1" id="Layer_1" xmlns="http://www.w3.org/2000/svg" xmlns:xlink="http://www.w3.org/1999/xlink" x="0px" y="0px"
	 viewBox="0 0 30 30" style="enable-background:new 0 0 30 30;" xml:space="preserve">
<style type="text/css">
	.st0{fill:#0D5898;}
</style>
<path class="st0" d="M28.3,13.1c0.5,0,1,0.2,1.3,0.5c0.4,0.4,0.5,0.8,0.5,1.3s-0.2,1-0.5,1.3c-0.4,0.4-0.8,0.5-1.3,0.5h-0.2
	l-1.7,9.7c-0.1,0.4-0.3,0.8-0.6,1.1c-0.4,0.3-0.8,0.4-1.2,0.4H5.8c-0.4,0-0.8-0.1-1.2-0.4C4.2,27.4,4,27,4,26.6l-1.7-9.7H2.1
	c-0.5,0-1-0.2-1.3-0.5C0.4,16,0.2,15.5,0.2,15c0-0.5,0.2-1,0.5-1.3c0.4-0.4,0.8-0.5,1.3-0.5L28.3,13.1L28.3,13.1z M7.3,24.8
	c0.3,0,0.5-0.1,0.6-0.3c0.2-0.2,0.2-0.4,0.2-0.7l-0.5-6.1c0-0.3-0.1-0.5-0.3-0.6c-0.2-0.2-0.4-0.2-0.7-0.2S6.2,17,6,17.2
	c-0.2,0.2-0.2,0.4-0.2,0.7L6.3,24c0,0.2,0.1,0.4,0.3,0.6C6.7,24.8,7,24.8,7.3,24.8L7.3,24.8L7.3,24.8z M13.3,23.9v-6.1
	c0-0.3-0.1-0.5-0.3-0.7s-0.4-0.3-0.7-0.3s-0.5,0.1-0.7,0.3c-0.2,0.2-0.3,0.4-0.3,0.7v6.1c0,0.3,0.1,0.5,0.3,0.7
	c0.2,0.2,0.4,0.3,0.7,0.3s0.5-0.1,0.7-0.3C13.2,24.4,13.3,24.2,13.3,23.9z M18.9,23.9v-6.1c0-0.3-0.1-0.5-0.3-0.7s-0.4-0.3-0.7-0.3
	s-0.5,0.1-0.7,0.3c-0.2,0.2-0.3,0.4-0.3,0.7v6.1c0,0.3,0.1,0.5,0.3,0.7c0.2,0.2,0.4,0.3,0.7,0.3s0.5-0.1,0.7-0.3
	C18.8,24.4,18.9,24.2,18.9,23.9z M24.1,24l0.5-6.1c0-0.3-0.1-0.5-0.2-0.7c-0.2-0.2-0.4-0.3-0.6-0.3c-0.3,0-0.5,0.1-0.7,0.2
	c-0.2,0.2-0.3,0.4-0.3,0.6l-0.5,6.1c0,0.3,0.1,0.5,0.2,0.7c0.2,0.2,0.4,0.3,0.6,0.3h0.1c0.2,0,0.5-0.1,0.6-0.3
	C23.9,24.4,24,24.2,24.1,24z M7.1,6.2l-1.4,6H3.9l1.5-6.5c0.2-0.9,0.6-1.6,1.3-2.1C7.3,3.1,8.1,2.8,9,2.8h2.4c0-0.3,0.1-0.5,0.3-0.7
	c0.2-0.2,0.4-0.3,0.7-0.3H18c0.3,0,0.5,0.1,0.7,0.3c0.2,0.2,0.3,0.4,0.3,0.7h2.4c0.9,0,1.7,0.3,2.3,0.8c0.7,0.5,1.1,1.2,1.3,2.1
	l1.5,6.5h-1.9l-1.4-6c-0.1-0.4-0.3-0.8-0.7-1.1s-0.7-0.4-1.2-0.4h-2.4c0,0.3-0.1,0.5-0.3,0.7c-0.2,0.2-0.4,0.3-0.7,0.3h-5.6
	c-0.3,0-0.5-0.1-0.7-0.3c-0.2-0.2-0.3-0.4-0.3-0.7H9c-0.4,0-0.8,0.1-1.2,0.4C7.5,5.4,7.3,5.7,7.1,6.2z"/>
</svg>
