<?xml version="1.0" encoding="utf-8"?>
<!-- Generator: Adobe Illustrator 23.0.3, SVG Export Plug-In . SVG Version: 6.00 Build 0)  -->
<svg version="1.1" id="Layer_1" xmlns="http://www.w3.org/2000/svg" xmlns:xlink="http://www.w3.org/1999/xlink" x="0px" y="0px"
	 viewBox="0 0 30 30" style="enable-background:new 0 0 30 30;" xml:space="preserve">
<style type="text/css">
	.st0{fill:#0D5898;}
</style>
<path class="st0" d="M17.6,22.8c0-1.7,0.8-3.3,2.1-4.2c-1.2-0.5-2.6-0.8-4.3-1c-0.7-0.1-1.3-0.8-1.3-1.5c0-0.5,1.8-2.2,1.8-2.2
	c1.8-1.9,2.8-4.9,2.8-7.3C18.8,3,15.8,0,12.2,0C8.6,0,5.6,3,5.6,6.6c0,2.4,0.9,5.4,2.8,7.3c0,0,1.8,1.6,1.8,2.2
	c0,0.8-0.6,1.5-1.4,1.6c-3.9,0.4-6.2,1.6-8,4c-0.5,0.7-0.8,2-0.8,2.8c0,0.2,0,3.1,0,3.1C0,28.9,1.1,30,2.5,30h19.4
	c1.3,0,2.3-1,2.5-2.2c-0.5,0.2-1,0.2-1.5,0.2C20,28,17.6,25.7,17.6,22.8z"/>
<g id="Page-1">
	<g id="icon-113-search-minus">
		<path id="search-minus" class="st0" d="M25.6,26.6c-0.8,0.5-1.7,0.9-2.7,0.9c-2.6,0-4.7-2.1-4.7-4.7s2.1-4.7,4.7-4.7
			s4.7,2.1,4.7,4.7c0,1-0.3,1.9-0.9,2.7l3.1,3.1c0.3,0.3,0.3,0.8,0,1.1l0,0c-0.3,0.3-0.8,0.3-1.1,0L25.6,26.6L25.6,26.6L25.6,26.6z
			 M22.9,26.4c2,0,3.6-1.6,3.6-3.6s-1.6-3.6-3.6-3.6c-2,0-3.6,1.6-3.6,3.6C19.3,24.8,20.9,26.4,22.9,26.4L22.9,26.4z"/>
	</g>
</g>
</svg>
