<?xml version="1.0" encoding="utf-8"?>
<!-- Generator: Adobe Illustrator 16.0.3, SVG Export Plug-In . SVG Version: 6.00 Build 0)  -->
<!DOCTYPE svg PUBLIC "-//W3C//DTD SVG 1.1//EN" "http://www.w3.org/Graphics/SVG/1.1/DTD/svg11.dtd">
<svg version="1.1" id="Layer_1" xmlns="http://www.w3.org/2000/svg" xmlns:xlink="http://www.w3.org/1999/xlink" x="0px" y="0px"
	 width="19px" height="19px" viewBox="0 0 19 19" enable-background="new 0 0 19 19" xml:space="preserve">
<g>
	<path fill="#FFFFFF" d="M8.574,7.25C8.481,7.342,8.408,7.447,8.345,7.557L8.304,7.516L8.278,7.69
		C8.177,7.925,8.141,8.183,8.169,8.442l-0.405,2.796l2.84-0.399c0.265,0.028,0.526-0.007,0.765-0.106l0.177-0.024l-0.04-0.041
		c0.109-0.062,0.218-0.133,0.311-0.226l5.135-5.052l-3.243-3.191L8.574,7.25z"/>
	<path fill="#FFFFFF" d="M18.473,1.568l-0.885-0.87c-0.651-0.641-1.663-0.684-2.261-0.097l-0.809,0.797l3.241,3.191l0.81-0.798
		C19.167,3.205,19.123,2.209,18.473,1.568z"/>
	<path fill="#FFFFFF" d="M15.238,9.696V17H2.032V2h9.095l1.548-1.42c0.165-0.161,0.358-0.221,0.563-0.293
		c0.044-0.119,0.105-0.18,0.178-0.287H0v19h17.27V7.928L15.238,9.696z"/>
</g>
<rect x="3.386" y="5.042" fill="#FFFFFF" width="2.963" height="1.677"/>
<rect x="3.386" y="9.161" fill="#FFFFFF" width="2.963" height="1.677"/>
<rect x="3.386" y="13.369" fill="#FFFFFF" width="9.863" height="1.678"/>
</svg>
