<?xml version="1.0" encoding="utf-8"?>
<!-- Generator: Adobe Illustrator 16.0.3, SVG Export Plug-In . SVG Version: 6.00 Build 0)  -->
<!DOCTYPE svg PUBLIC "-//W3C//DTD SVG 1.1//EN" "http://www.w3.org/Graphics/SVG/1.1/DTD/svg11.dtd">
<svg version="1.1" id="Layer_1" xmlns="http://www.w3.org/2000/svg" xmlns:xlink="http://www.w3.org/1999/xlink" x="0px" y="0px"
	 width="24px" height="20px" viewBox="0 0 24 20" enable-background="new 0 0 24 20" xml:space="preserve">
<rect fill="#FFFFFF" width="7.186" height="1.14"/>
<rect x="9.848" fill="#FFFFFF" width="6.142" height="1.14"/>
<rect x="0.817" y="15.994" fill="#FFFFFF" width="16.085" height="1.141"/>
<rect y="1.074" fill="#FFFFFF" width="1.125" height="16.061"/>
<rect x="14.861" y="0.459" fill="#FFFFFF" width="1.127" height="16.676"/>
<path fill="#FFFFFF" d="M13.441,13.361L9.092,8.95l4.327-4.35c0.325-0.328,0.325-0.859,0-1.186c-0.326-0.326-0.853-0.326-1.181,0
	L7.917,7.758L3.53,3.313c-0.325-0.33-0.853-0.33-1.179,0c-0.326,0.331-0.326,0.87,0,1.199l4.378,4.441l-4.402,4.424
	c-0.325,0.33-0.325,0.861,0,1.186c0.326,0.328,0.854,0.328,1.181,0l4.395-4.42l4.361,4.418c0.323,0.33,0.852,0.33,1.179,0
	C13.766,14.23,13.766,13.691,13.441,13.361z"/>
<path fill="#47C8F5" d="M17.547,19.902V9.929L24,14.912L17.547,19.902z"/>
<rect x="5.688" y="13.584" fill="#47C8F5" width="12.186" height="3.574"/>
</svg>
