<?xml version="1.0" encoding="utf-8"?>
<!-- Generator: Adobe Illustrator 16.0.3, SVG Export Plug-In . SVG Version: 6.00 Build 0)  -->
<!DOCTYPE svg PUBLIC "-//W3C//DTD SVG 1.1//EN" "http://www.w3.org/Graphics/SVG/1.1/DTD/svg11.dtd">
<svg version="1.1" id="Layer_1" xmlns="http://www.w3.org/2000/svg" xmlns:xlink="http://www.w3.org/1999/xlink" x="0px" y="0px"
	 width="18px" height="18px" viewBox="7 7 18 18" enable-background="new 7 7 18 18" xml:space="preserve">
<g>
	<path fill="#FFFFFF" d="M8.395,19.16l-0.003,0.001c0.001,0.002,0.001,0.003,0.003,0.005c0.001,0.017,0.004,0.032,0.007,0.048
		c0,0.003,0,0.004,0,0.007l0.631,4.101c0.077,0.496,0.542,0.838,1.039,0.761c0.498-0.076,0.839-0.54,0.763-1.037l-0.098-0.638
		c0.114,0.094,0.229,0.188,0.349,0.275c1.624,1.192,3.714,1.765,5.864,1.434c2.147-0.33,3.969-1.505,5.157-3.131
		c0.588-0.803,1.021-1.719,1.272-2.699l-2.487-0.685c-0.168,0.673-0.464,1.303-0.868,1.855c-0.806,1.097-2.02,1.882-3.47,2.106
		c-1.45,0.222-2.844-0.162-3.942-0.966c-0.134-0.099-0.264-0.205-0.389-0.317l0.721,0.069c0.461,0.045,0.875-0.324,0.923-0.825
		c0.047-0.502-0.286-0.944-0.748-0.989l-3.801-0.369c-0.413-0.039-0.786,0.253-0.895,0.672c-0.008,0.032-0.011,0.061-0.017,0.091
		c-0.003,0.021-0.01,0.042-0.011,0.063c-0.001,0.007,0,0.012,0,0.018c-0.002,0.028-0.001,0.057,0,0.085
		C8.395,19.118,8.394,19.14,8.395,19.16z"/>
	<path fill="#FFFFFF" d="M23.102,12.84l0.003,0c-0.002-0.002-0.002-0.003-0.003-0.006c-0.001-0.016-0.005-0.032-0.007-0.047
		c0-0.002,0-0.005,0-0.007l-0.631-4.1c-0.077-0.497-0.542-0.839-1.04-0.762c-0.497,0.077-0.839,0.542-0.763,1.039l0.099,0.637
		c-0.115-0.094-0.23-0.188-0.35-0.275c-1.625-1.191-3.713-1.765-5.862-1.435c-2.149,0.331-3.969,1.507-5.159,3.132
		c-0.588,0.802-1.021,1.719-1.272,2.698l2.487,0.684c0.168-0.673,0.463-1.302,0.868-1.855c0.806-1.096,2.02-1.882,3.47-2.106
		c1.45-0.222,2.844,0.162,3.942,0.965c0.136,0.1,0.265,0.206,0.39,0.317l-0.721-0.07c-0.462-0.045-0.876,0.326-0.923,0.827
		c-0.049,0.501,0.285,0.944,0.747,0.989l3.802,0.368c0.412,0.04,0.785-0.252,0.894-0.672c0.009-0.03,0.012-0.06,0.018-0.091
		c0.002-0.021,0.011-0.04,0.012-0.063c0.001-0.006,0-0.012,0-0.018c0.002-0.028,0.001-0.057,0.001-0.085
		C23.101,12.882,23.103,12.861,23.102,12.84z"/>
</g>
</svg>
