<?xml version="1.0" encoding="utf-8"?>
<!-- Generator: Adobe Illustrator 16.0.3, SVG Export Plug-In . SVG Version: 6.00 Build 0)  -->
<!DOCTYPE svg PUBLIC "-//W3C//DTD SVG 1.1//EN" "http://www.w3.org/Graphics/SVG/1.1/DTD/svg11.dtd">
<svg version="1.1" id="Layer_1" xmlns="http://www.w3.org/2000/svg" xmlns:xlink="http://www.w3.org/1999/xlink" x="0px" y="0px"
	 width="15px" height="15px" viewBox="0 0 15 15" enable-background="new 0 0 15 15" xml:space="preserve">
<polygon fill="#D7D7D6" points="9.254,7.261 9.254,5.852 5.723,5.852 5.723,7.262 8.377,7.262 8.377,7.261 "/>
<rect x="8.377" y="7.261" fill="#D7D7D6" width="0.877" height="0.001"/>
<rect x="8.777" y="1.589" width="1.346" height="5.672"/>
<rect x="8.777" y="8.596" width="1.346" height="1.07"/>
<rect x="8.777" y="11.002" width="1.346" height="0.881"/>
<rect x="9.063" y="1.589" width="3.986" height="1.41"/>
<g id="Icons_with_numbers_2_">
	<g id="Group_2_" transform="translate(-288.000000, -336.000000)">
		<path id="Triangle_185_2_" d="M303.018,338.292l-2.617,2.219v-4.436L303.018,338.292z"/>
	</g>
</g>
<path d="M-0.017,6.5h8.05l-4.025,4.611L-0.017,6.5z"/>
<path d="M8.033,6.594h-8.049l4.024-4.516L8.033,6.594z"/>
<path d="M6.619,5.373v9.551h8.398V5.373H6.619z M13.732,13.402H8.377V12.07h5.355V13.402z M13.732,11.002H8.377V9.666h5.355V11.002z
	 M13.732,8.596H8.377V7.261h5.355V8.596z"/>
</svg>
