<?xml version="1.0" encoding="utf-8"?>
<!-- Generator: Adobe Illustrator 16.0.3, SVG Export Plug-In . SVG Version: 6.00 Build 0)  -->
<!DOCTYPE svg PUBLIC "-//W3C//DTD SVG 1.1//EN" "http://www.w3.org/Graphics/SVG/1.1/DTD/svg11.dtd">
<svg version="1.1" id="Layer_1" xmlns="http://www.w3.org/2000/svg" xmlns:xlink="http://www.w3.org/1999/xlink" x="0px" y="0px"
	 width="16px" height="17px" viewBox="-0.5 -1 16 17" enable-background="new -0.5 -1 16 17" xml:space="preserve">
<path fill="#D7D7D6" d="M-0.5-1v15h16V-1H-0.5z M0.686,0.241h3.708v3.34H0.686V0.241z M4.42,12.762H0.717V9.42h3.707L4.42,12.762
	L4.42,12.762z M4.42,8.229H0.717v-3.41h3.707L4.42,8.229L4.42,8.229z M5.678,0.241h3.706v3.34H5.678V0.241z M9.41,12.762H5.704V9.42
	H9.41V12.762z M9.41,8.229H5.704v-3.41H9.41V8.229z M10.608,0.241h3.708v3.34h-3.708V0.241z M14.344,12.762h-3.706V9.42h3.706
	V12.762z M14.344,8.229h-3.706v-3.41h3.706V8.229z"/>
<ellipse fill="#4C4C4C" cx="10.313" cy="10.969" rx="5.188" ry="5.031"/>
<g enable-background="new    ">
	<path fill="#FFFFFF" d="M13.063,8.462c-0.042,0.052-0.087,0.092-0.135,0.119c-0.05,0.026-0.108,0.04-0.178,0.04
		c-0.079,0-0.172-0.031-0.28-0.092c-0.105-0.06-0.24-0.126-0.401-0.197c-0.16-0.071-0.353-0.138-0.576-0.197
		c-0.229-0.06-0.5-0.09-0.819-0.09c-0.305,0-0.569,0.031-0.799,0.092C9.646,8.198,9.451,8.282,9.294,8.388
		C9.138,8.492,9.021,8.616,8.943,8.759C8.864,8.902,8.824,9.057,8.824,9.221c0,0.212,0.07,0.386,0.206,0.525
		c0.137,0.139,0.319,0.258,0.543,0.355c0.227,0.099,0.483,0.185,0.769,0.256c0.285,0.072,0.577,0.146,0.878,0.224
		c0.3,0.079,0.593,0.166,0.878,0.262c0.286,0.098,0.541,0.221,0.767,0.368c0.228,0.146,0.409,0.329,0.545,0.542
		c0.135,0.215,0.206,0.479,0.206,0.791c0,0.329-0.075,0.641-0.227,0.932c-0.147,0.291-0.364,0.542-0.649,0.755
		c-0.288,0.217-0.637,0.385-1.054,0.507c-0.416,0.123-0.89,0.187-1.418,0.187c-0.65,0-1.241-0.089-1.771-0.267
		c-0.529-0.179-0.983-0.417-1.359-0.721l0.39-0.483c0.037-0.04,0.082-0.073,0.136-0.099c0.054-0.027,0.112-0.039,0.178-0.039
		c0.06,0,0.128,0.018,0.205,0.055c0.077,0.036,0.165,0.084,0.263,0.139c0.098,0.056,0.209,0.119,0.334,0.186
		c0.127,0.067,0.269,0.128,0.43,0.184c0.16,0.058,0.343,0.104,0.547,0.141c0.204,0.037,0.436,0.056,0.691,0.056
		c0.32,0,0.606-0.033,0.858-0.101c0.249-0.065,0.463-0.161,0.637-0.283c0.175-0.12,0.309-0.265,0.402-0.434
		c0.091-0.169,0.137-0.357,0.137-0.565c0-0.229-0.067-0.416-0.205-0.562c-0.134-0.145-0.317-0.267-0.54-0.365
		c-0.224-0.098-0.479-0.185-0.767-0.252c-0.288-0.067-0.58-0.139-0.877-0.211c-0.3-0.072-0.591-0.154-0.881-0.249
		c-0.288-0.096-0.541-0.219-0.765-0.369c-0.223-0.153-0.404-0.342-0.541-0.568S7.562,9.606,7.562,9.272
		c0-0.267,0.069-0.524,0.207-0.774s0.337-0.471,0.6-0.664C8.631,7.64,8.955,7.485,9.338,7.369c0.382-0.115,0.822-0.173,1.321-0.173
		c0.558,0,1.063,0.066,1.521,0.2c0.459,0.134,0.861,0.328,1.209,0.581L13.063,8.462z"/>
</g>
</svg>
