<?xml version="1.0" encoding="utf-8"?>
<!-- Generator: Adobe Illustrator 16.0.3, SVG Export Plug-In . SVG Version: 6.00 Build 0)  -->
<!DOCTYPE svg PUBLIC "-//W3C//DTD SVG 1.1//EN" "http://www.w3.org/Graphics/SVG/1.1/DTD/svg11.dtd">
<svg version="1.1" id="Layer_1" xmlns="http://www.w3.org/2000/svg" xmlns:xlink="http://www.w3.org/1999/xlink" x="0px" y="0px"
	 width="16px" height="17px" viewBox="-0.5 -1 16 17" enable-background="new -0.5 -1 16 17" xml:space="preserve">
<path fill="#FFFFFF" d="M10.941,8.744l-2.625-2.8l2.629-2.764c0.109-0.115,0.109-0.301,0-0.416l-0.746-0.8
	c-0.053-0.056-0.123-0.084-0.195-0.084c-0.074,0-0.146,0.031-0.199,0.084L7.188,4.718L4.564,1.965
	C4.512,1.913,4.443,1.881,4.368,1.881c-0.074,0-0.145,0.032-0.197,0.084l-0.746,0.8c-0.108,0.115-0.108,0.301,0,0.416l2.632,2.764
	L3.433,8.742C3.38,8.801,3.351,8.875,3.351,8.951c0,0.08,0.028,0.154,0.082,0.211l0.749,0.801c0.054,0.059,0.125,0.086,0.195,0.086
	s0.142-0.025,0.197-0.086l2.613-2.79l2.616,2.786c0.055,0.059,0.125,0.088,0.197,0.088c0.064,0,0.141-0.025,0.191-0.088l0.748-0.801
	c0.057-0.059,0.082-0.129,0.082-0.209C11.023,8.875,10.992,8.799,10.941,8.744z"/>
<rect x="-0.375" y="-0.969" fill="#D7D7D6" width="3.96" height="1.436"/>
<rect x="-0.375" y="0.296" fill="#D7D7D6" width="1.431" height="13.735"/>
<rect x="-0.375" y="12.596" fill="#D7D7D6" width="3.959" height="1.436"/>
<rect x="11.541" y="-0.969" fill="#D7D7D6" width="3.959" height="1.436"/>
<rect x="14.069" y="0.296" fill="#D7D7D6" width="1.431" height="13.735"/>
<rect x="11.321" y="12.594" fill="#D7D7D6" width="3.741" height="1.438"/>
<circle fill="#4C4C4C" cx="10.486" cy="10.982" r="5.018"/>
<g enable-background="new    ">
	<path fill="#FFFFFF" d="M13.146,8.48c-0.04,0.053-0.084,0.093-0.131,0.118c-0.046,0.027-0.104,0.04-0.172,0.04
		c-0.076,0-0.166-0.03-0.27-0.09s-0.231-0.126-0.388-0.197c-0.155-0.071-0.342-0.138-0.56-0.197
		c-0.218-0.061-0.481-0.089-0.791-0.089c-0.293,0-0.549,0.03-0.771,0.092s-0.409,0.144-0.56,0.25
		c-0.15,0.104-0.264,0.228-0.341,0.37C9.087,8.92,9.049,9.074,9.049,9.238c0,0.21,0.066,0.385,0.199,0.524
		C9.38,9.9,9.555,10.019,9.772,10.116c0.22,0.099,0.466,0.186,0.742,0.255c0.276,0.072,0.559,0.146,0.85,0.226
		c0.289,0.076,0.571,0.163,0.848,0.26s0.522,0.219,0.74,0.366c0.22,0.147,0.395,0.327,0.527,0.542
		c0.131,0.214,0.197,0.478,0.197,0.789c0,0.328-0.071,0.639-0.216,0.927c-0.144,0.291-0.353,0.543-0.629,0.756
		c-0.277,0.214-0.616,0.382-1.019,0.504c-0.402,0.123-0.858,0.186-1.37,0.186c-0.63,0-1.199-0.088-1.712-0.264
		c-0.513-0.18-0.95-0.419-1.314-0.721l0.378-0.482c0.035-0.039,0.08-0.071,0.131-0.099c0.052-0.025,0.108-0.04,0.172-0.04
		c0.059,0,0.125,0.019,0.198,0.056c0.074,0.036,0.159,0.085,0.253,0.14c0.094,0.056,0.202,0.118,0.323,0.185s0.26,0.128,0.415,0.184
		c0.156,0.057,0.331,0.104,0.528,0.14c0.198,0.038,0.42,0.055,0.669,0.055c0.31,0,0.584-0.032,0.828-0.099
		c0.242-0.066,0.447-0.16,0.616-0.282c0.168-0.121,0.298-0.266,0.388-0.434c0.088-0.169,0.135-0.356,0.135-0.563
		c0-0.229-0.066-0.415-0.2-0.561c-0.13-0.146-0.306-0.267-0.521-0.365c-0.215-0.098-0.464-0.183-0.742-0.251
		c-0.276-0.067-0.56-0.137-0.847-0.211c-0.288-0.069-0.57-0.153-0.85-0.247c-0.278-0.096-0.523-0.219-0.74-0.369
		c-0.216-0.152-0.391-0.341-0.521-0.565c-0.133-0.228-0.2-0.507-0.2-0.84c0-0.268,0.066-0.524,0.2-0.773
		c0.133-0.25,0.326-0.47,0.579-0.664c0.254-0.193,0.565-0.347,0.937-0.463c0.37-0.115,0.796-0.173,1.275-0.173
		c0.541,0,1.029,0.066,1.472,0.199c0.442,0.134,0.832,0.327,1.169,0.579L13.146,8.48z"/>
</g>
</svg>
