<?xml version="1.0" encoding="utf-8"?>
<!-- Generator: Adobe Illustrator 16.0.3, SVG Export Plug-In . SVG Version: 6.00 Build 0)  -->
<!DOCTYPE svg PUBLIC "-//W3C//DTD SVG 1.1//EN" "http://www.w3.org/Graphics/SVG/1.1/DTD/svg11.dtd">
<svg version="1.1" id="Layer_1" xmlns="http://www.w3.org/2000/svg" xmlns:xlink="http://www.w3.org/1999/xlink" x="0px" y="0px"
	 width="20px" height="20px" viewBox="0 0 20 20" enable-background="new 0 0 20 20" xml:space="preserve">
<path id="previous" fill="#FFFFFF" d="M16.621,8.567h-6.33V5.854c0-0.5-0.405-0.904-0.904-0.904c-0.418,0-0.634,0.261-0.903,0.487
	L3.622,9.472c-0.345,0.282-0.564,0.502-0.564,0.904c0,0.404,0.218,0.622,0.564,0.903l4.861,4.033
	C8.752,15.544,8.968,15.8,9.386,15.8c0.5,0,0.904-0.403,0.904-0.903v-2.713h6.33c0.499,0,0.903-0.404,0.903-0.902V9.472
	C17.525,8.973,17.12,8.567,16.621,8.567z"/>
</svg>
