<?xml version="1.0" encoding="utf-8"?>
<!-- Generator: Adobe Illustrator 16.0.0, SVG Export Plug-In . SVG Version: 6.00 Build 0)  -->
<!DOCTYPE svg PUBLIC "-//W3C//DTD SVG 1.1//EN" "http://www.w3.org/Graphics/SVG/1.1/DTD/svg11.dtd">
<svg version="1.1" id="Layer_1" xmlns="http://www.w3.org/2000/svg" xmlns:xlink="http://www.w3.org/1999/xlink" x="0px" y="0px"
	 width="20px" height="20px" viewBox="0 0 20 20" enable-background="new 0 0 20 20" xml:space="preserve">
<g id="reset" transform="translate(-23405.661 -10486.031)">
	<path id="Path_6" fill="#007979" d="M23412.902,10502.912c0.367,0.1,0.742-0.12,0.84-0.487c0.098-0.363-0.121-0.741-0.484-0.839
		l0,0c-3.008-0.807-4.795-3.899-3.99-6.908c0.809-3.008,3.9-4.793,6.908-3.986s4.793,3.898,3.988,6.905c0,0.002,0,0.002,0,0.002
		c-0.098,0.368,0.121,0.741,0.488,0.843c0.363,0.099,0.738-0.119,0.836-0.486l0,0c1.004-3.741-1.217-7.585-4.959-8.587
		c-3.74-1.001-7.584,1.22-8.584,4.96C23406.941,10498.068,23409.162,10501.91,23412.902,10502.912z"/>
	<path id="Path_7" fill="#007979" d="M23423.949,10496.099c0.289-0.241,0.332-0.673,0.094-0.964
		c-0.242-0.292-0.672-0.334-0.965-0.096l0,0l-2.158,1.777l-1.777-2.158c-0.234-0.297-0.662-0.346-0.963-0.111
		c-0.293,0.234-0.344,0.664-0.109,0.961c0.006,0.008,0.008,0.015,0.016,0.019l2.172,2.644c0.014,0.016,0.023,0.032,0.039,0.048
		c0.238,0.291,0.672,0.335,0.965,0.094c0,0,0,0,0.004,0l0,0L23423.949,10496.099z"/>
</g>
</svg>
