<?xml version="1.0" encoding="utf-8"?>
<!-- Generator: Adobe Illustrator 16.0.3, SVG Export Plug-In . SVG Version: 6.00 Build 0)  -->
<!DOCTYPE svg PUBLIC "-//W3C//DTD SVG 1.1//EN" "http://www.w3.org/Graphics/SVG/1.1/DTD/svg11.dtd">
<svg version="1.1" id="Layer_1" xmlns="http://www.w3.org/2000/svg" xmlns:xlink="http://www.w3.org/1999/xlink" x="0px" y="0px"
	 width="20px" height="20px" viewBox="0 0 20 20" enable-background="new 0 0 20 20" xml:space="preserve">
<path id="XMLID_83_" fill="#739500" d="M16.6,5.271H3.403c-0.405,0-0.733-0.328-0.733-0.732c0-0.405,0.328-0.734,0.733-0.734h13.195
	c0.405,0,0.731,0.329,0.731,0.734C17.33,4.942,17.004,5.271,16.6,5.271z M17.33,8.455c0-0.404-0.326-0.732-0.73-0.732H9.012
	c-0.405,0-0.732,0.327-0.732,0.732c0,0.405,0.327,0.732,0.732,0.732H16.6C17.004,9.187,17.33,8.86,17.33,8.455z M17.33,12.361
	c0-0.406-0.326-0.735-0.73-0.735H6.773c-0.403,0-0.731,0.329-0.731,0.735c0,0.404,0.328,0.73,0.731,0.73h9.825
	C17.004,13.094,17.33,12.768,17.33,12.361z M17.281,16.266c0-0.401-0.326-0.731-0.734-0.731H4.063c-0.405,0-0.734,0.33-0.734,0.731
	C3.328,16.672,3.657,17,4.063,17h12.486C16.955,17,17.281,16.672,17.281,16.266z"/>
</svg>
