<?xml version="1.0" encoding="utf-8"?>
<!-- Generator: Adobe Illustrator 16.0.0, SVG Export Plug-In . SVG Version: 6.00 Build 0)  -->
<!DOCTYPE svg PUBLIC "-//W3C//DTD SVG 1.1//EN" "http://www.w3.org/Graphics/SVG/1.1/DTD/svg11.dtd">
<svg version="1.1" id="Layer_1" xmlns="http://www.w3.org/2000/svg" xmlns:xlink="http://www.w3.org/1999/xlink" x="0px" y="0px"
	 width="13px" height="13px" viewBox="0 0 13 13" enable-background="new 0 0 13 13" xml:space="preserve">
<g id="Layer_1_1_">
	<g>
		<path d="M11.091,0.073H1.909c-1.019,0-1.835,0.826-1.835,1.837v9.182c0,1.008,0.817,1.836,1.835,1.836h9.182
			c1.009,0,1.836-0.828,1.836-1.836V1.91C12.927,0.898,12.1,0.073,11.091,0.073z"/>
		<path d="M5.026,8.295L3.091,6.361L2.444,7.006l2.582,2.58l5.528-5.528L9.909,3.413L5.026,8.295z"/>
	</g>
	<g>
		<path fill="#007979" d="M11.091,0.073H1.909c-1.019,0-1.835,0.826-1.835,1.837v9.182c0,1.008,0.817,1.836,1.835,1.836h9.182
			c1.009,0,1.836-0.828,1.836-1.836V1.91C12.927,0.898,12.1,0.073,11.091,0.073z"/>
		<path fill="#FFFFFF" d="M5.026,8.295L3.091,6.361L2.444,7.006l2.582,2.58l5.528-5.528L9.909,3.413L5.026,8.295z"/>
	</g>
</g>
</svg>
