<?xml version="1.0" encoding="utf-8"?>
<!-- Generator: Adobe Illustrator 16.0.0, SVG Export Plug-In . SVG Version: 6.00 Build 0)  -->
<!DOCTYPE svg PUBLIC "-//W3C//DTD SVG 1.1//EN" "http://www.w3.org/Graphics/SVG/1.1/DTD/svg11.dtd">
<svg version="1.1" id="Capa_1" xmlns="http://www.w3.org/2000/svg" xmlns:xlink="http://www.w3.org/1999/xlink" x="0px" y="0px"
	 width="20px" height="20px" viewBox="0 0 20 20" enable-background="new 0 0 20 20" xml:space="preserve">
<g>
	<g>
		<path fill="#282828" stroke="#282828" stroke-width="0.5" stroke-miterlimit="10" d="M9.999,0.324
			c-1.068,0-1.936,0.865-1.936,1.936c0,1.068,0.865,1.936,1.936,1.936c1.065-0.002,1.935-0.867,1.937-1.936
			C11.936,1.189,11.066,0.324,9.999,0.324z M9.999,3.549c-0.713,0-1.29-0.579-1.29-1.291s0.577-1.291,1.29-1.291
			c0.712,0,1.289,0.579,1.289,1.291S10.711,3.549,9.999,3.549z"/>
	</g>
</g>
<g>
	<g>
		<path fill="#282828" stroke="#282828" stroke-width="0.5" stroke-miterlimit="10" d="M11.288,4.517h-0.075l-0.068,0.032
			c-0.722,0.36-1.567,0.36-2.292,0L8.785,4.517H8.709c-0.892,0-1.612,0.722-1.612,1.612v1.935c0,0.535,0.432,0.968,0.967,0.968
			h3.872c0.535,0,0.967-0.433,0.967-0.968V6.129C12.898,5.239,12.18,4.517,11.288,4.517z M12.257,8.064
			c0,0.18-0.146,0.324-0.321,0.324H8.063c-0.178,0-0.322-0.145-0.322-0.324V6.129c0-0.509,0.393-0.929,0.898-0.966
			c0.861,0.4,1.855,0.4,2.716,0c0.508,0.037,0.898,0.457,0.898,0.966L12.257,8.064L12.257,8.064z"/>
	</g>
</g>
<g>
	<g>
		<path fill="#282828" stroke="#282828" stroke-width="0.5" stroke-miterlimit="10" d="M16.771,10.967
			c-1.069,0-1.938,0.867-1.938,1.936c0,1.072,0.865,1.938,1.938,1.938c1.066,0,1.937-0.864,1.937-1.938
			C18.708,11.836,17.841,10.969,16.771,10.967z M16.771,14.193c-0.713,0-1.291-0.576-1.291-1.291c0-0.713,0.578-1.289,1.291-1.289
			c0.711,0,1.289,0.576,1.289,1.289C18.063,13.617,17.482,14.193,16.771,14.193z"/>
	</g>
</g>
<g>
	<g>
		<path fill="#282828" stroke="#282828" stroke-width="0.5" stroke-miterlimit="10" d="M18.063,15.162h-0.074l-0.068,0.031
			c-0.722,0.355-1.568,0.355-2.293,0l-0.064-0.031h-0.076c-0.893,0-1.61,0.723-1.611,1.613v1.934c0,0.535,0.434,0.967,0.967,0.967
			h3.871c0.534,0,0.969-0.432,0.969-0.967v-1.934C19.674,15.885,18.952,15.162,18.063,15.162z M19.027,18.709
			c0,0.18-0.144,0.322-0.319,0.322h-3.871c-0.178,0-0.321-0.143-0.321-0.322v-1.934c0-0.508,0.395-0.932,0.898-0.965
			c0.859,0.396,1.854,0.396,2.718,0c0.507,0.033,0.896,0.457,0.896,0.965V18.709L19.027,18.709z"/>
	</g>
</g>
<g>
	<g>
		<path fill="#282828" stroke="#282828" stroke-width="0.5" stroke-miterlimit="10" d="M3.226,10.967
			c-1.068,0-1.936,0.867-1.936,1.936c0,1.072,0.867,1.938,1.936,1.938c1.067,0,1.936-0.864,1.936-1.938
			C5.159,11.836,4.293,10.969,3.226,10.967z M3.226,14.193c-0.713,0-1.291-0.576-1.291-1.291c0-0.713,0.578-1.289,1.291-1.289
			c0.711,0,1.291,0.576,1.291,1.289C4.517,13.617,3.937,14.193,3.226,14.193z"/>
	</g>
</g>
<g>
	<g>
		<path fill="#282828" stroke="#282828" stroke-width="0.5" stroke-miterlimit="10" d="M4.517,15.162H4.438l-0.067,0.031
			c-0.722,0.355-1.57,0.355-2.292,0l-0.066-0.031H1.935c-0.891,0-1.61,0.723-1.611,1.613v1.934c0,0.535,0.433,0.967,0.967,0.967
			h3.871c0.533,0,0.967-0.432,0.967-0.967v-1.934C6.127,15.885,5.405,15.162,4.517,15.162z M5.481,18.709
			c0,0.18-0.144,0.322-0.321,0.322H1.289c-0.179,0-0.323-0.143-0.323-0.322v-1.934c0-0.508,0.393-0.932,0.898-0.965
			c0.863,0.396,1.855,0.396,2.718,0c0.506,0.033,0.899,0.457,0.899,0.965V18.709L5.481,18.709z"/>
	</g>
</g>
<g>
	<g>
		<path fill="#282828" stroke="#282828" stroke-width="0.5" stroke-miterlimit="10" d="M12.605,16.807L12.605,16.807
			c-0.058-0.136-0.213-0.193-0.347-0.139l0,0c-1.187,0.498-2.503,0.587-3.747,0.258l0.246-0.072c0.14-0.043,0.221-0.188,0.178-0.326
			c-0.04-0.137-0.187-0.219-0.325-0.178l-1.052,0.309c-0.003,0-0.006,0.005-0.01,0.006c-0.024,0.009-0.046,0.021-0.067,0.039
			c-0.01,0.005-0.017,0.008-0.027,0.016c-0.028,0.024-0.05,0.055-0.064,0.09c-0.015,0.034-0.021,0.072-0.02,0.107
			c0.007,0.035,0.016,0.072,0.027,0.105c0.002,0.006,0,0.01,0.003,0.014l0.525,1.004c0.067,0.128,0.226,0.181,0.355,0.111
			c0.128-0.065,0.178-0.226,0.111-0.355l-0.213-0.406c1.411,0.424,2.926,0.342,4.285-0.234C12.6,17.096,12.664,16.941,12.605,16.807
			z"/>
	</g>
</g>
<g>
	<g>
		<path fill="#282828" stroke="#282828" stroke-width="0.5" stroke-miterlimit="10" d="M18.109,8.396
			c-0.082-0.08-0.211-0.08-0.291,0l-0.289,0.29c-0.172-1.795-1.313-3.354-2.973-4.06c-0.104-0.044-0.225,0.003-0.271,0.107
			c-0.041,0.104,0.005,0.225,0.108,0.27c1.49,0.633,2.526,2.016,2.713,3.624l-0.229-0.23c-0.083-0.08-0.211-0.077-0.291,0.005
			c-0.076,0.08-0.076,0.205,0,0.284l0.615,0.616c0.08,0.08,0.21,0.08,0.29,0l0,0l0.616-0.616
			C18.189,8.604,18.189,8.475,18.109,8.396z"/>
	</g>
</g>
<g>
	<g>
		<path fill="#282828" stroke="#282828" stroke-width="0.5" stroke-miterlimit="10" d="M5.822,4.786c0-0.014-0.002-0.026-0.006-0.04
			c0-0.001-0.003-0.003-0.003-0.006c-0.001-0.003,0-0.004,0-0.006C5.808,4.724,5.8,4.715,5.792,4.705
			C5.784,4.692,5.776,4.679,5.767,4.668c-0.015-0.013-0.028-0.021-0.044-0.03C5.715,4.631,5.708,4.625,5.698,4.621L4.804,4.213
			C4.691,4.166,4.56,4.22,4.513,4.333C4.469,4.442,4.516,4.564,4.62,4.618L5.082,4.83c-1.74,0.932-2.826,2.747-2.826,4.72
			c0,0.123,0.101,0.224,0.223,0.224c0.124,0,0.223-0.102,0.223-0.224C2.701,7.813,3.621,6.204,5.12,5.32L4.958,5.658
			C4.904,5.769,4.952,5.903,5.061,5.956c0.03,0.015,0.062,0.021,0.097,0.021c0.086,0,0.163-0.048,0.2-0.125L5.805,4.92
			c0-0.001,0-0.004,0.001-0.008c0.005-0.014,0.01-0.03,0.012-0.046c0.004-0.012,0.006-0.024,0.008-0.037
			C5.828,4.814,5.827,4.798,5.822,4.786z"/>
	</g>
</g>
</svg>
