<?xml version="1.0" encoding="utf-8"?>
<!-- Generator: Adobe Illustrator 16.0.0, SVG Export Plug-In . SVG Version: 6.00 Build 0)  -->
<!DOCTYPE svg PUBLIC "-//W3C//DTD SVG 1.1//EN" "http://www.w3.org/Graphics/SVG/1.1/DTD/svg11.dtd">
<svg version="1.1" id="Capa_1" xmlns="http://www.w3.org/2000/svg" xmlns:xlink="http://www.w3.org/1999/xlink" x="0px" y="0px"
	 width="20px" height="20px" viewBox="0 0 20 20" enable-background="new 0 0 20 20" xml:space="preserve">
<g>
	<g>
		<path fill="#282828" d="M5.445,2.237c-1.869,0-3.383,1.682-3.383,3.753c0,2.073,1.514,3.753,3.383,3.753
			c1.867-0.001,3.381-1.68,3.383-3.753C8.828,3.919,7.314,2.237,5.445,2.237z M5.445,8.494c-1.246,0-2.256-1.121-2.256-2.503
			c0-1.383,1.01-2.502,2.256-2.502c1.244,0,2.254,1.119,2.254,2.502C7.701,7.373,6.691,8.494,5.445,8.494z"/>
	</g>
</g>
<g>
	<g>
		<path fill="#282828" d="M7.701,10.37H7.568l-0.119,0.065c-1.262,0.694-2.746,0.694-4.008,0L3.322,10.37H3.189
			c-1.556,0.001-2.817,1.401-2.82,3.129v3.752c0,1.036,0.759,1.875,1.693,1.875h6.766c0.934,0,1.691-0.839,1.691-1.875v-3.752
			C10.52,11.771,9.256,10.371,7.701,10.37z M9.391,17.251c0,0.349-0.251,0.624-0.563,0.624H2.062c-0.311,0-0.563-0.275-0.563-0.624
			v-3.752c0-0.987,0.687-1.806,1.571-1.872c1.506,0.771,3.244,0.771,4.75,0c0.887,0.066,1.571,0.885,1.571,1.872V17.251z"/>
	</g>
</g>
<rect x="18.131" y="0.874" fill="#282828" width="1.5" height="18.208"/>
<rect x="15.09" y="5.957" fill="#282828" width="1.5" height="13.125"/>
<rect x="12.049" y="10.415" fill="#282828" width="1.5" height="8.667"/>
</svg>
