<?xml version="1.0" encoding="utf-8"?>
<!-- Generator: Adobe Illustrator 16.0.0, SVG Export Plug-In . SVG Version: 6.00 Build 0)  -->
<!DOCTYPE svg PUBLIC "-//W3C//DTD SVG 1.1//EN" "http://www.w3.org/Graphics/SVG/1.1/DTD/svg11.dtd">
<svg version="1.1" id="Layer_1" xmlns="http://www.w3.org/2000/svg" xmlns:xlink="http://www.w3.org/1999/xlink" x="0px" y="0px"
	 width="30px" height="30px" viewBox="0 0 30 30" enable-background="new 0 0 30 30" xml:space="preserve">
<path fill="#007979" d="M17.63,22.846c0-1.729,0.845-3.262,2.144-4.205c-1.191-0.507-2.603-0.834-4.313-1.004
	c-0.713-0.144-1.25-0.775-1.25-1.525c0-0.549,1.762-2.192,1.75-2.205c1.82-1.882,2.795-4.939,2.795-7.289
	C18.756,2.964,15.818,0,12.191,0C8.565,0,5.626,2.964,5.626,6.615c0,2.363,0.95,5.439,2.788,7.321c0,0,1.757,1.625,1.757,2.173
	c0,0.795-0.601,1.457-1.376,1.553c-3.87,0.406-6.183,1.625-7.977,3.963C0.3,22.301,0.019,23.657,0,24.382
	c0.006,0.188,0,3.126,0,3.126c0,1.383,1.119,2.501,2.5,2.501h19.38c1.281,0,2.335-0.962,2.483-2.202
	c-0.486,0.151-1.006,0.232-1.541,0.232C19.954,28.039,17.63,25.714,17.63,22.846z"/>
<g id="Page-1">
	<g id="icon-113-search-minus">
		<path id="search-minus" fill="#007979" d="M25.602,26.609c-0.762,0.543-1.691,0.863-2.701,0.863c-2.572,0-4.658-2.09-4.658-4.662
			c0-2.574,2.086-4.662,4.658-4.662c2.574,0,4.662,2.088,4.662,4.662c0,1.006-0.318,1.938-0.86,2.703l3.063,3.063
			c0.299,0.302,0.299,0.783,0,1.083l-0.016,0.013c-0.299,0.299-0.785,0.301-1.084,0L25.602,26.609L25.602,26.609L25.602,26.609z
			 M22.898,26.375c1.971,0,3.564-1.596,3.564-3.564c0-1.968-1.597-3.563-3.564-3.563c-1.967,0-3.563,1.597-3.563,3.564
			C19.336,24.779,20.932,26.375,22.898,26.375L22.898,26.375z"/>
	</g>
</g>
</svg>
