<?xml version="1.0" encoding="utf-8"?>
<!-- Generator: Adobe Illustrator 16.0.0, SVG Export Plug-In . SVG Version: 6.00 Build 0)  -->
<!DOCTYPE svg PUBLIC "-//W3C//DTD SVG 1.1//EN" "http://www.w3.org/Graphics/SVG/1.1/DTD/svg11.dtd">
<svg version="1.1" id="att_-_add_fields_from_BO" xmlns="http://www.w3.org/2000/svg" xmlns:xlink="http://www.w3.org/1999/xlink"
	 x="0px" y="0px" width="45px" height="50px" viewBox="17.5 15 45 50" enable-background="new 17.5 15 45 50" xml:space="preserve">
<g>
	<g>
		<path d="M56.178,29.108v12.263L38.222,60.528H19.915c-1.331,0-2.415-1.074-2.415-2.412V17.828c0-1.334,1.084-2.418,2.415-2.418
			h22.562c1.34,0,3.191,0.782,4.135,1.712l7.857,7.859C55.4,25.912,56.178,27.774,56.178,29.108z M52.957,31.526h-10.48
			c-1.336,0-2.416-1.083-2.416-2.417V18.635H20.725v38.668h15.71l16.522-17.816V31.526z M26.473,34.748h17.715
			c0.455,0,0.807,0.352,0.807,0.808v1.611c0,0.453-0.352,0.807-0.807,0.807H26.473c-0.458,0-0.811-0.352-0.811-0.807v-1.611
			C25.662,35.1,26.014,34.748,26.473,34.748z M41.99,42v1.609c0,0.453-0.354,0.808-0.811,0.808H26.473
			c-0.458,0-0.811-0.356-0.811-0.808V42c0-0.454,0.352-0.808,0.811-0.808H41.18C41.637,41.195,41.99,41.547,41.99,42z
			 M37.464,48.447v1.611c0,0.448-0.352,0.799-0.811,0.799H26.473c-0.458,0-0.811-0.353-0.811-0.799v-1.611
			c0-0.456,0.352-0.811,0.811-0.811h10.184C37.112,47.637,37.464,47.991,37.464,48.447z M43.285,28.304h9.469
			c-0.15-0.426-0.369-0.856-0.547-1.032l-7.887-7.879c-0.178-0.179-0.607-0.403-1.033-0.553v9.464H43.285z"/>
	</g>
	<path d="M60.096,52.655L48.162,64.59h-5.123v-5.113l11.938-11.94L60.096,52.655z M49.516,60.821l-2.725-2.691l-2.045,2.059v0.986
		h1.693v1.716h1L49.516,60.821z M54.449,50.097l-6.652,6.676c-0.221,0.212-0.244,0.593-0.023,0.817
		c0.205,0.215,0.594,0.186,0.799-0.033l6.672-6.662c0.221-0.221,0.244-0.59,0.023-0.813C55.041,49.856,54.689,49.889,54.449,50.097z
		 M61.229,51.522L56.105,46.4l1.635-1.638c0.664-0.654,1.766-0.654,2.414,0l2.709,2.705c0.643,0.653,0.643,1.757,0,2.411
		L61.229,51.522z"/>
</g>
</svg>
