<?xml version="1.0" encoding="utf-8"?>
<!-- Generator: Adobe Illustrator 16.0.3, SVG Export Plug-In . SVG Version: 6.00 Build 0)  -->
<!DOCTYPE svg PUBLIC "-//W3C//DTD SVG 1.1//EN" "http://www.w3.org/Graphics/SVG/1.1/DTD/svg11.dtd">
<svg version="1.1" id="Layer_1" xmlns="http://www.w3.org/2000/svg" xmlns:xlink="http://www.w3.org/1999/xlink" x="0px" y="0px"
	 width="15px" height="15px" viewBox="0 0 15 15" enable-background="new 0 0 15 15" xml:space="preserve">
<rect x="0.031" display="none" fill="#FFFFFF" width="13.104" height="5.222"/>
<rect x="0.031" y="6.563" display="none" fill="#FFFFFF" width="4.391" height="6.563"/>
<rect x="5.945" y="6.563" display="none" fill="#FFFFFF" width="7.188" height="6.563"/>
<rect x="0.514" y="0.516" fill="none" stroke="#FFFFFF" stroke-miterlimit="10" width="13.472" height="12.882"/>
<rect x="3.128" y="1.885" fill="#FFFFFF" width="8.242" height="0.786"/>
<rect x="3.128" y="3.511" fill="#FFFFFF" width="8.242" height="0.787"/>
<polygon fill="#FFFFFF" points="7.25,4.716 8.457,7.229 11.157,7.633 9.204,9.588 9.665,12.348 7.25,11.043 4.834,12.348 
	5.294,9.588 3.34,7.633 6.042,7.229 "/>
<rect x="4.616" display="none" fill="#FFFFFF" width="9.259" height="3.316"/>
<rect y="0.001" display="none" fill="#FFFFFF" width="3.137" height="13.164"/>
<rect x="4.616" y="6" display="none" fill="#FFFFFF" width="7.8" height="7.166"/>
<circle fill="#4C4C4C" cx="8.93" cy="8.961" r="6.039"/>
<path fill="#FFFFFF" d="M6.392,5.061c0.668-0.098,1.543-0.18,2.655-0.18c1.37,0,2.369,0.279,3.008,0.78
	c0.59,0.445,0.938,1.126,0.938,1.962c0,0.85-0.285,1.519-0.826,2.006c-0.731,0.681-1.924,1.027-3.276,1.027
	c-0.412,0-0.795-0.015-1.113-0.082v3.758H6.392V5.061z M7.776,9.583c0.302,0.072,0.685,0.1,1.146,0.1
	c1.67,0,2.688-0.711,2.688-2.003c0-1.239-1.002-1.836-2.527-1.836c-0.604,0-1.063,0.041-1.304,0.098L7.776,9.583L7.776,9.583z"/>
</svg>
