<?xml version="1.0" encoding="utf-8"?>
<!-- Generator: Adobe Illustrator 16.0.3, SVG Export Plug-In . SVG Version: 6.00 Build 0)  -->
<!DOCTYPE svg PUBLIC "-//W3C//DTD SVG 1.1//EN" "http://www.w3.org/Graphics/SVG/1.1/DTD/svg11.dtd">
<svg version="1.1" id="Layer_1" xmlns="http://www.w3.org/2000/svg" xmlns:xlink="http://www.w3.org/1999/xlink" x="0px" y="0px"
	 width="16px" height="17px" viewBox="-0.5 -1 16 17" enable-background="new -0.5 -1 16 17" xml:space="preserve">
<rect x="5.249" y="5.549" fill="#D7D7D6" width="3.537" height="1.599"/>
<rect x="8.307" y="0.716" fill="#D7D7D6" width="1.349" height="11.673"/>
<rect x="8.59" y="0.716" fill="#D7D7D6" width="3.992" height="1.599"/>
<g id="Icons_with_numbers_2_">
	<g id="Group_2_" transform="translate(-288.000000, -336.000000)">
		<path id="Triangle_185_2_" fill="#FFFFFF" d="M302.553,337.514l-2.621,2.516V335L302.553,337.514z"/>
	</g>
</g>
<rect x="8.979" y="10.791" fill="#D7D7D6" width="3.551" height="1.6"/>
<g id="Icons_with_numbers_3_">
	<g id="Group_3_" transform="translate(-288.000000, -336.000000)">
		<path id="Triangle_185_3_" fill="#FFFFFF" d="M302.553,347.59l-2.621,2.516v-5.029L302.553,347.59z"/>
	</g>
</g>
<path fill="#FFFFFF" d="M-0.499,6.348h8.061l-4.031,5.164L-0.499,6.348z"/>
<path fill="#FFFFFF" d="M7.562,6.391H-0.5l4.029-5.122L7.562,6.391z"/>
<ellipse fill="#4C4C4C" cx="10.155" cy="10.81" rx="5.285" ry="5.19"/>
<g enable-background="new    ">
	<path fill="#FFFFFF" d="M12.958,8.222c-0.042,0.055-0.089,0.095-0.138,0.122c-0.05,0.028-0.11,0.043-0.182,0.043
		c-0.081,0-0.174-0.032-0.284-0.093c-0.109-0.062-0.244-0.131-0.408-0.205c-0.163-0.073-0.36-0.142-0.589-0.203
		c-0.23-0.062-0.509-0.093-0.835-0.093c-0.31,0-0.579,0.032-0.814,0.096C9.475,7.952,9.277,8.036,9.119,8.146
		C8.96,8.254,8.841,8.382,8.761,8.528C8.68,8.677,8.64,8.837,8.64,9.006c0,0.218,0.069,0.398,0.21,0.541
		c0.14,0.144,0.323,0.265,0.555,0.368c0.229,0.102,0.489,0.189,0.78,0.263c0.291,0.074,0.589,0.151,0.896,0.232
		c0.306,0.081,0.604,0.169,0.895,0.27s0.551,0.227,0.78,0.381c0.231,0.149,0.416,0.34,0.556,0.559
		c0.138,0.221,0.209,0.493,0.209,0.814c0,0.342-0.076,0.663-0.229,0.962c-0.151,0.3-0.373,0.56-0.663,0.78
		c-0.293,0.221-0.65,0.396-1.074,0.522c-0.423,0.126-0.905,0.191-1.444,0.191c-0.663,0-1.265-0.092-1.805-0.275
		c-0.541-0.183-1.001-0.43-1.385-0.743l0.398-0.499c0.038-0.042,0.084-0.074,0.138-0.101c0.054-0.029,0.114-0.042,0.181-0.042
		c0.061,0,0.131,0.02,0.209,0.057c0.078,0.038,0.168,0.087,0.267,0.144c0.1,0.058,0.213,0.122,0.341,0.191
		c0.128,0.068,0.273,0.133,0.438,0.19s0.351,0.107,0.558,0.144c0.207,0.04,0.443,0.058,0.703,0.058c0.327,0,0.618-0.033,0.875-0.103
		c0.255-0.067,0.472-0.166,0.649-0.293c0.177-0.123,0.313-0.272,0.408-0.447c0.093-0.175,0.142-0.367,0.142-0.584
		c0-0.234-0.069-0.429-0.21-0.577c-0.138-0.152-0.323-0.277-0.551-0.379c-0.227-0.102-0.487-0.188-0.781-0.26
		c-0.293-0.07-0.59-0.144-0.894-0.218c-0.304-0.075-0.6-0.16-0.896-0.257c-0.294-0.1-0.552-0.227-0.78-0.382
		c-0.228-0.157-0.411-0.352-0.55-0.585c-0.141-0.233-0.21-0.522-0.21-0.869c0-0.276,0.069-0.542,0.21-0.8
		c0.14-0.258,0.344-0.485,0.611-0.686c0.268-0.198,0.597-0.359,0.986-0.479c0.392-0.119,0.84-0.179,1.347-0.179
		c0.569,0,1.085,0.069,1.551,0.207c0.467,0.139,0.878,0.338,1.232,0.6L12.958,8.222z"/>
</g>
</svg>
