<?xml version="1.0" encoding="utf-8"?>
<!-- Generator: Adobe Illustrator 16.0.0, SVG Export Plug-In . SVG Version: 6.00 Build 0)  -->
<!DOCTYPE svg PUBLIC "-//W3C//DTD SVG 1.1//EN" "http://www.w3.org/Graphics/SVG/1.1/DTD/svg11.dtd">
<svg version="1.1" id="Layer_1" xmlns="http://www.w3.org/2000/svg" xmlns:xlink="http://www.w3.org/1999/xlink" x="0px" y="0px"
	 width="18px" height="14px" viewBox="0 0 18 14" enable-background="new 0 0 18 14" xml:space="preserve">
<path fill="#D4FD59" stroke="#353530" stroke-miterlimit="10" d="M17.5,11.5c0,1.104-0.896,2-2,2h-13c-1.104,0-2-0.896-2-2v-9
	c0-1.104,0.896-2,2-2h13c1.104,0,2,0.896,2,2V11.5z"/>
<path fill-rule="evenodd" clip-rule="evenodd" fill="#343434" d="M8.706,11.474c-0.482-0.144-0.818-0.493-1.404-0.232
	c-0.567,0.254-0.525,0.745-0.766,1.133c-0.035,0.003-0.078,0.014-0.121,0.014c-0.278-0.002-0.621,0.089-0.82-0.04
	c-0.188-0.121-0.216-0.486-0.338-0.726c-0.05-0.1-0.152-0.184-0.247-0.254c-0.508-0.37-1.006-0.289-1.494,0.049
	c-0.024,0.019-0.056,0.027-0.127,0.057c-0.19-0.194-0.397-0.397-0.586-0.618c-0.046-0.051-0.034-0.158-0.045-0.245
	c-0.001-0.016,0.01-0.043,0.024-0.058C3.197,10.058,3.016,9.569,2.76,9.08C2.728,9.021,2.668,8.97,2.61,8.936
	C2.558,8.899,2.489,8.892,2.429,8.867C1.67,8.604,1.634,8.552,1.742,7.759c0.009-0.065,0.081-0.127,0.134-0.181
	c0.027-0.027,0.076-0.042,0.117-0.047c0.629-0.058,0.884-0.513,1.072-1.026C3.092,6.43,3.073,6.319,3.04,6.24
	C2.937,5.993,2.815,5.754,2.7,5.508c0.029-0.037,0.053-0.073,0.083-0.103C2.982,5.209,3.16,4.902,3.39,4.854
	c0.225-0.046,0.499,0.189,0.759,0.273c0.107,0.036,0.236,0.006,0.354-0.003C4.543,5.121,4.58,5.079,4.62,5.072
	c0.5-0.083,0.735-0.412,0.82-0.881c0.038-0.214,0.17-0.253,0.37-0.253c0.723,0.006,0.714,0.002,0.984,0.668
	C6.85,4.741,7.011,4.834,7.128,4.939c0.029,0.026,0.087,0.018,0.12,0.041c0.376,0.264,0.737,0.192,1.087-0.046
	c0.235-0.16,0.402-0.124,0.596,0.097C9.36,5.515,9.386,5.509,9.099,6.064c-0.115,0.231-0.08,0.414-0.021,0.658
	c0.115,0.479,0.411,0.699,0.843,0.792c0.243,0.051,0.285,0.184,0.281,0.407c-0.009,0.703,0,0.709-0.659,0.952
	C9.365,8.938,9.229,9.008,9.219,9.215c0,0.022-0.008,0.044-0.019,0.06c-0.287,0.438-0.198,0.845,0.074,1.244
	c0.12,0.172,0.082,0.302-0.072,0.438C9.026,11.114,8.874,11.298,8.706,11.474z M6.032,9.806C6.96,9.812,7.728,9.064,7.736,8.149
	c0.01-0.939-0.75-1.71-1.686-1.715C5.1,6.431,4.352,7.18,4.356,8.131C4.358,9.069,5.09,9.804,6.032,9.806z"/>
<path fill-rule="evenodd" clip-rule="evenodd" fill="#343434" d="M10.48,5.346c0.16-0.249,0.486-0.34,0.461-0.726
	c-0.019-0.271-0.065-0.476-0.289-0.621c-0.164-0.105-0.197-0.227-0.097-0.397c0.097-0.166,0.089-0.389,0.401-0.376
	c0.617,0.023,0.845-0.215,0.839-0.847c-0.009-0.417,0.376-0.299,0.547-0.469c0.288,0.121,0.364,0.48,0.785,0.481
	c0.416,0,0.523-0.302,0.781-0.476c0.119,0.044,0.241,0.096,0.368,0.137c0.18,0.058,0.229,0.163,0.216,0.358
	c-0.04,0.534,0.247,0.848,0.792,0.815c0.312-0.019,0.35,0.176,0.448,0.374c0.1,0.198,0.032,0.305-0.118,0.434
	c-0.372,0.319-0.396,0.784-0.019,1.082c0.256,0.204,0.164,0.372,0.082,0.603c-0.085,0.246-0.234,0.231-0.431,0.209
	C14.8,5.88,14.438,6.259,14.514,6.719c0.041,0.23-0.035,0.331-0.242,0.412c-0.203,0.078-0.359,0.159-0.537-0.076
	c-0.296-0.383-0.679-0.398-1.009-0.032c-0.224,0.247-0.418,0.188-0.685,0.102c-0.29-0.096-0.241-0.29-0.241-0.497
	c0.007-0.31-0.345-0.766-0.59-0.703C10.688,6.058,10.571,5.745,10.48,5.346z M14.248,4.571c-0.007-0.604-0.508-1.108-1.104-1.105
	c-0.59,0.001-1.107,0.522-1.114,1.111c-0.006,0.613,0.512,1.12,1.135,1.111C13.778,5.678,14.252,5.188,14.248,4.571z"/>
</svg>
