<?xml version="1.0" encoding="utf-8"?>
<!-- Generator: Adobe Illustrator 16.0.0, SVG Export Plug-In . SVG Version: 6.00 Build 0)  -->
<!DOCTYPE svg PUBLIC "-//W3C//DTD SVG 1.1//EN" "http://www.w3.org/Graphics/SVG/1.1/DTD/svg11.dtd">
<svg version="1.1" id="Layer_1" xmlns="http://www.w3.org/2000/svg" xmlns:xlink="http://www.w3.org/1999/xlink" x="0px" y="0px"
	 width="18px" height="18px" viewBox="0 0 18 18" enable-background="new 0 0 18 18" xml:space="preserve">
<path fill-rule="evenodd" clip-rule="evenodd" fill="#666666" d="M9.008,13.859c-1.159,0-2.317,0.026-3.476-0.005
	c-1.361-0.029-2.184-0.781-2.302-2.178C3.155,10.785,3.185,9.882,3.226,8.99c0.035-0.724,0.374-1.334,0.938-1.754
	c1.238-0.921,2.498-1.813,3.758-2.704c0.198-0.14,0.455-0.426,0.69-0.127c0.204,0.26-0.018,0.514-0.194,0.724
	C8.308,5.26,8.178,5.371,8.078,5.504c-0.282,0.39-0.938,0.646-0.671,1.25c0.23,0.521,0.824,0.318,1.268,0.324
	c1.521,0.019,3.045,0.003,4.567,0.011c0.389,0.003,0.893-0.059,0.911,0.528c0.015,0.667-0.524,0.584-0.95,0.589
	c-0.991,0.009-1.984,0-2.976,0.015C9.976,8.223,9.621,8.171,9.596,8.548c-0.032,0.464,0.367,0.415,0.646,0.419
	c1.287,0.017,2.58-0.011,3.869,0.031c0.498,0.018,1.29-0.304,1.32,0.615c0.027,0.943-0.771,0.647-1.272,0.663
	c-1.289,0.037-2.58,0.006-3.87,0.021c-0.309,0.005-0.751-0.063-0.72,0.459c0.023,0.41,0.415,0.395,0.698,0.4
	c1.159,0.018,2.318,0.005,3.478,0.025c0.377,0.006,0.898-0.071,0.865,0.55c-0.023,0.541-0.507,0.446-0.853,0.451
	c-1.156,0.019-2.315,0.004-3.473,0.021c-0.291,0.005-0.68-0.019-0.712,0.387c-0.038,0.506,0.399,0.47,0.714,0.478
	c0.826,0.024,1.652,0.012,2.481,0.024c0.259,0.004,0.592-0.009,0.602,0.371c0.005,0.384-0.332,0.386-0.589,0.389
	c-1.256,0.007-2.514,0.002-3.772,0.002C9.008,13.856,9.008,13.859,9.008,13.859z"/>
<rect x="3" y="8" fill-rule="evenodd" clip-rule="evenodd" fill="#666666" width="1" height="5"/>
<path fill="none" stroke="#666666" stroke-miterlimit="10" d="M17.5,15.5c0,1.104-0.896,2-2,2h-12c-1.104,0-2-0.896-2-2v-12
	c0-1.104,0.896-2,2-2h12c1.104,0,2,0.896,2,2V15.5z"/>
</svg>
