<?xml version="1.0" encoding="utf-8"?>
<!-- Generator: Adobe Illustrator 16.0.3, SVG Export Plug-In . SVG Version: 6.00 Build 0)  -->
<!DOCTYPE svg PUBLIC "-//W3C//DTD SVG 1.1//EN" "http://www.w3.org/Graphics/SVG/1.1/DTD/svg11.dtd">
<svg version="1.1"
	 id="svg2" xmlns:svg="http://www.w3.org/2000/svg" xmlns:cc="http://creativecommons.org/ns#" xmlns:inkscape="http://www.inkscape.org/namespaces/inkscape" xmlns:dc="http://purl.org/dc/elements/1.1/" xmlns:rdf="http://www.w3.org/1999/02/22-rdf-syntax-ns#" xmlns:sodipodi="http://sodipodi.sourceforge.net/DTD/sodipodi-0.dtd"
	 xmlns="http://www.w3.org/2000/svg" xmlns:xlink="http://www.w3.org/1999/xlink" x="0px" y="0px" width="32px" height="32px"
	 viewBox="0 0 32 32" enable-background="new 0 0 32 32" xml:space="preserve">
<g id="background">
	<rect fill="none" width="32" height="32"/>
</g>
<g id="upload">
	<path fill="#FFFFFF" d="M2,20.219v8h28v-8H2z M8,26.219H4v-2h4V26.219z"/>
	<polygon fill="#FFFFFF" points="22,10.219 18,10.219 18,16.219 14,16.219 14,10.219 10,10.219 16,4.219 	"/>
</g>
<path fill="#FFFFFF" d="M16,19.459c4.913,0,8.896-3.984,8.896-8.896c0-4.914-3.983-8.896-8.896-8.896
	c-4.914,0-8.896,3.982-8.896,8.896C7.104,15.475,11.086,19.459,16,19.459z M16,2.762c4.293,0,7.784,3.509,7.784,7.801
	c0,4.292-3.491,7.784-7.784,7.784s-7.784-3.492-7.784-7.784S11.707,2.762,16,2.762z"/>
</svg>
