<?xml version="1.0" encoding="utf-8"?>
<!-- Generator: Adobe Illustrator 16.0.0, SVG Export Plug-In . SVG Version: 6.00 Build 0)  -->
<!DOCTYPE svg PUBLIC "-//W3C//DTD SVG 1.1//EN" "http://www.w3.org/Graphics/SVG/1.1/DTD/svg11.dtd">
<svg version="1.1" id="Layer_1" xmlns="http://www.w3.org/2000/svg" xmlns:xlink="http://www.w3.org/1999/xlink" x="0px" y="0px"
	 width="16px" height="15px" viewBox="0 0 16 15" enable-background="new 0 0 16 15" xml:space="preserve">
<path fill="#333333" d="M9.773,8.207L8.99,8.078C8.558,7.894,8.475,6.861,8.475,6.861L8.99,6.179V5.875l-0.554-0.58L8.041,5.322
	L7.322,5.737c-0.175,0.037-0.23,0-0.23,0C6.511,5.655,6.152,5.24,6.152,5.24L6.023,4.392L5.811,4.143h-0.82L4.743,4.429L4.604,5.267
	C4.3,5.58,3.738,5.737,3.738,5.737C3.505,5.752,2.694,5.249,2.694,5.249L2.331,5.286L1.779,5.82L1.81,6.165l0.51,0.872
	c0.006,0.565-0.565,1.057-0.565,1.057l-0.891,0.13L0.691,8.462V9.26l0.197,0.146L1.799,9.64c0.389,0.26,0.493,1.11,0.493,1.11
	l-0.493,0.793v0.345l0.571,0.54l0.346-0.016l0.921-0.488c0.682,0.084,0.991,0.577,0.991,0.577l0.12,0.838l0.267,0.239h0.765
	l0.198-0.262c0,0,0.064-0.649,0.295-0.972c0.23-0.323,1.06-0.407,1.06-0.407l0.728,0.498l0.331,0.046l0.571-0.626l-0.037-0.351
	c0,0-0.507-0.737-0.46-0.884c0.046-0.148,0.056-0.7,0.358-0.867c0.304-0.165,1.004-0.23,1.004-0.23l0.269-0.248V8.49L9.773,8.207z
	 M5.394,10.494c-0.903,0-1.634-0.731-1.634-1.633c0-0.904,0.731-1.634,1.634-1.634c0.902,0,1.633,0.73,1.633,1.634
	C7.027,9.763,6.296,10.494,5.394,10.494z"/>
<path fill="#333333" d="M15.768,4.792L15.204,4.7c-0.312-0.133-0.372-0.876-0.372-0.876l0.372-0.492V3.113l-0.398-0.418l-0.286,0.02
	l-0.517,0.299c-0.128,0.026-0.167,0-0.167,0c-0.419-0.06-0.678-0.358-0.678-0.358l-0.092-0.611l-0.154-0.179h-0.59l-0.179,0.206
	l-0.1,0.604c-0.22,0.225-0.625,0.338-0.625,0.338c-0.168,0.011-0.751-0.352-0.751-0.352l-0.262,0.027l-0.397,0.385l0.022,0.248
	l0.366,0.628C10.402,4.356,9.989,4.71,9.989,4.71L9.348,4.803L9.225,4.976v0.575l0.143,0.106l0.656,0.168
	c0.278,0.187,0.354,0.799,0.354,0.799l-0.354,0.571v0.25l0.411,0.388l0.247-0.011l0.665-0.353c0.49,0.061,0.714,0.416,0.714,0.416
	l0.087,0.604l0.191,0.173h0.551l0.144-0.19c0,0,0.046-0.467,0.212-0.7c0.166-0.232,0.764-0.292,0.764-0.292l0.524,0.357l0.238,0.034
	l0.412-0.45l-0.026-0.253c0,0-0.365-0.531-0.331-0.637c0.032-0.107,0.04-0.505,0.257-0.625c0.221-0.119,0.724-0.166,0.724-0.166
	L16,5.563V4.997L15.768,4.792z M12.612,6.44c-0.649,0-1.176-0.526-1.176-1.176c0-0.651,0.526-1.177,1.176-1.177
	c0.65,0,1.176,0.526,1.176,1.177C13.788,5.914,13.263,6.44,12.612,6.44z"/>
</svg>
