<?xml version="1.0" encoding="utf-8"?>
<!-- Generator: Adobe Illustrator 16.0.0, SVG Export Plug-In . SVG Version: 6.00 Build 0)  -->
<!DOCTYPE svg PUBLIC "-//W3C//DTD SVG 1.1//EN" "http://www.w3.org/Graphics/SVG/1.1/DTD/svg11.dtd">
<svg version="1.1" id="Layer_1" xmlns="http://www.w3.org/2000/svg" xmlns:xlink="http://www.w3.org/1999/xlink" x="0px" y="0px"
	 width="18px" height="18px" viewBox="0 0 18 18" enable-background="new 0 0 18 18" xml:space="preserve">
<polyline fill="none" stroke="#666666" stroke-miterlimit="10" points="8,15.5 0.5,15.5 0.5,2.5 8,2.5 "/>
<rect x="2" y="5" fill="#666666" width="16" height="8"/>
<g>
	<path fill="#FFFFFF" d="M4.168,6.753H2.323V6.087h4.492v0.666H4.96v5.402H4.168V6.753z"/>
	<path fill="#FFFFFF" d="M7.264,10.121c0.018,1.07,0.703,1.512,1.495,1.512c0.567,0,0.909-0.099,1.206-0.225l0.135,0.566
		c-0.279,0.127-0.756,0.271-1.45,0.271c-1.341,0-2.142-0.882-2.142-2.196s0.774-2.35,2.043-2.35c1.423,0,1.8,1.251,1.8,2.053
		c0,0.162-0.018,0.288-0.027,0.37H7.264z M9.586,9.554c0.009-0.504-0.207-1.288-1.099-1.288c-0.801,0-1.152,0.738-1.215,1.288H9.586
		z"/>
	<path fill="#FFFFFF" d="M11.674,7.798l0.621,0.937c0.162,0.243,0.297,0.468,0.441,0.711h0.027c0.145-0.261,0.287-0.486,0.432-0.72
		l0.613-0.927h0.855l-1.486,2.107l1.531,2.25h-0.9l-0.641-0.981c-0.17-0.252-0.314-0.495-0.467-0.756h-0.02
		c-0.143,0.261-0.297,0.495-0.459,0.756l-0.629,0.981h-0.873l1.547-2.224l-1.477-2.134H11.674z"/>
	<path fill="#FFFFFF" d="M16.543,6.546v1.251h1.135v0.604h-1.135v2.35c0,0.54,0.152,0.847,0.594,0.847
		c0.207,0,0.359-0.027,0.459-0.055l0.037,0.594c-0.154,0.063-0.396,0.108-0.703,0.108c-0.369,0-0.666-0.116-0.855-0.333
		c-0.225-0.234-0.307-0.621-0.307-1.135V8.401h-0.674V7.798h0.674V6.753L16.543,6.546z"/>
</g>
</svg>
