<?xml version="1.0" encoding="utf-8"?>
<!-- Generator: Adobe Illustrator 16.0.3, SVG Export Plug-In . SVG Version: 6.00 Build 0)  -->
<!DOCTYPE svg PUBLIC "-//W3C//DTD SVG 1.1//EN" "http://www.w3.org/Graphics/SVG/1.1/DTD/svg11.dtd">
<svg version="1.1" id="Layer_1" xmlns="http://www.w3.org/2000/svg" xmlns:xlink="http://www.w3.org/1999/xlink" x="0px" y="0px"
	 width="15px" height="8px" viewBox="0 0 15 8" enable-background="new 0 0 15 8" xml:space="preserve">
<g>
	<path d="M0.003,7.611l0.551-1.221c0.155,0.094,0.331,0.141,0.528,0.141c0.637,0,1.437-0.607,2.393-1.822l0.378-0.487L2.998,2.094
		C2.784,1.555,2.574,1.287,2.369,1.287c-0.251,0-0.632,0.361-1.143,1.085L1.389,1.5C2,0.646,2.524,0.222,2.959,0.222
		c0.409,0,0.791,0.431,1.146,1.292l0.718,1.737l0.408-0.554c1.222-1.65,2.225-2.475,3.009-2.475c0.209,0,0.425,0.073,0.646,0.221
		L8.238,1.654c-0.174-0.111-0.341-0.166-0.5-0.166c-0.693,0-1.51,0.608-2.448,1.823L4.988,3.697l0.941,2.321
		C6.149,6.572,6.367,6.85,6.585,6.85c0.296,0,0.71-0.33,1.246-0.99L7.679,6.658C7.035,7.406,6.47,7.777,5.975,7.777
		c-0.473,0-0.854-0.365-1.148-1.102L4.013,4.643L3.504,5.328C2.295,6.961,1.35,7.777,0.667,7.777
		C0.495,7.777,0.274,7.723,0.003,7.611z"/>
</g>
<g>
	<path d="M8.117,8L10.5,0h0.644L8.749,8H8.117z"/>
</g>
<g>
	<polygon points="14.173,1.586 11.721,6.555 10.522,5.92 9.941,6.785 12.146,7.854 12.334,7.463 12.334,7.463 14.997,1.984 	"/>
</g>
</svg>
