<?xml version="1.0" encoding="utf-8"?>
<!-- Generator: Adobe Illustrator 16.0.3, SVG Export Plug-In . SVG Version: 6.00 Build 0)  -->
<!DOCTYPE svg PUBLIC "-//W3C//DTD SVG 1.1//EN" "http://www.w3.org/Graphics/SVG/1.1/DTD/svg11.dtd">
<svg version="1.1" id="Layer_1" xmlns="http://www.w3.org/2000/svg" xmlns:xlink="http://www.w3.org/1999/xlink" x="0px" y="0px"
	 width="11px" height="9px" viewBox="0 0 11 9" enable-background="new 0 0 11 9" xml:space="preserve">
<g>
	<path d="M10.102,2.151c0-0.083-0.051-0.123-0.1-0.163L5.878,0.067c-0.05-0.041-0.153-0.041-0.252,0L1.452,1.988
		c-0.051,0.04-0.101,0.08-0.101,0.163c0,0.082,0.051,0.123,0.101,0.163l4.122,1.92c0.052,0,0.103,0.042,0.103,0.042
		s0.102,0,0.102-0.042l4.124-1.92C10.051,2.274,10.102,2.192,10.102,2.151z"/>
	<path d="M10.33,2.681c-0.053-0.042-0.156-0.042-0.258,0L5.854,4.644C5.801,4.686,5.749,4.729,5.749,4.812v3.93
		c0,0.082,0.052,0.126,0.105,0.167c0.051,0,0.104,0.043,0.104,0.043s0.104,0,0.104-0.043l4.215-1.965
		c0.054-0.043,0.105-0.084,0.105-0.167V2.846C10.434,2.805,10.383,2.722,10.33,2.681z"/>
	<path d="M0.618,2.752v4.021c0,0.088,0.054,0.13,0.104,0.173l4.217,2.013C4.939,9,5.044,9,5.044,9s0.053-0.042,0.105-0.042
		C5.202,8.915,5.25,8.871,5.25,8.785V4.763c0-0.085-0.048-0.129-0.102-0.172L0.931,2.58c-0.104-0.042-0.209-0.042-0.26,0
		C0.618,2.625,0.567,2.709,0.618,2.752z"/>
</g>
</svg>
