<?xml version="1.0" encoding="utf-8"?>
<!-- Generator: Adobe Illustrator 16.0.3, SVG Export Plug-In . SVG Version: 6.00 Build 0)  -->
<!DOCTYPE svg PUBLIC "-//W3C//DTD SVG 1.1//EN" "http://www.w3.org/Graphics/SVG/1.1/DTD/svg11.dtd">
<svg version="1.1" id="Layer_1" xmlns="http://www.w3.org/2000/svg" xmlns:xlink="http://www.w3.org/1999/xlink" x="0px" y="0px"
	 width="18px" height="18px" viewBox="0 0 18 18" enable-background="new 0 0 18 18" xml:space="preserve">
<g transform="translate(192 48)">
	<path fill="#FFFFFF" d="M-175.596-33.086c-0.002-0.844-0.508-0.864-1.113-1.146l-2.825-1.321c-0.049-0.021-0.098-0.045-0.145-0.069
		v-0.001c-0.502-0.266-0.944-0.636-1.108-0.894l-0.007-0.008l-0.001-0.005c-0.01-0.017-0.021-0.035-0.027-0.05l-0.007-0.014
		l-0.002-0.003l-0.006-0.012v-0.002c-0.075-0.129-0.151-0.188-0.218-0.164l-0.003,0.001l-0.003,0.001v0.002l-0.003,0.003h-0.002
		l-0.005,0.002c-0.076,0.049-0.063-0.002-0.092-0.099c-0.077-0.243-0.202-0.699-0.222-0.765c-0.03-0.129-0.107,0.196-0.088-0.152
		l0.031-0.632c0.051-0.066,0.094-0.119,0.121-0.157c0.186-0.245,0.198-0.895,0.289-1.051s0.276-0.192,0.459-0.929
		c0.187-0.735,0.41-1.788,0.173-1.805c-0.058-0.002-0.125,0.042-0.193,0.108c0.043-0.27,0.133-0.881,0.152-1.333
		c0.025-0.596-0.061-2.124-0.352-2.683c-0.181-0.352-0.546-0.698-0.912-0.967c-0.22-0.162-0.438-0.297-0.615-0.389
		c-0.534-0.275-2.212-0.15-2.78,0c-0.647,0.167-1.101,0.644-1.39,1.204c-0.29,0.559-0.419,2.241-0.393,2.839
		c0.013,0.264,0.149,0.716,0.184,0.992c0.02,0.144,0.039,0.144,0.053,0.246c-0.024-0.011-0.047-0.016-0.069-0.014
		c-0.239,0.016-0.013,1.067,0.171,1.803s0.369,0.771,0.461,0.93c0.092,0.158,0.107,0.807,0.29,1.051
		c0.028,0.042,0.074,0.096,0.129,0.162l0.036,0.516l0.062,0.286c-0.029-0.082-0.085-0.136-0.111-0.027
		c-0.079,0.281-0.16,0.565-0.238,0.842c-0.008-0.013-0.021-0.021-0.036-0.022c-0.078-0.078-0.18-0.013-0.274,0.172
		c-0.14,0.273-0.602,0.665-1.138,0.941l-0.007,0.034l-0.009,0.038l-0.003,0.014c-0.042,0.019-0.085,0.041-0.127,0.061l-2.823,1.319
		c-0.604,0.282-1.11,0.302-1.114,1.146l-0.466,2.867h16.94l-0.629-2.866L-175.596-33.086z"/>
</g>
<path fill="#FFFFFF" d="M12.018,4.643h5.984L15.01,9.625L12.018,4.643z"/>
</svg>
