<?xml version="1.0" encoding="utf-8"?>
<!-- Generator: Adobe Illustrator 16.0.0, SVG Export Plug-In . SVG Version: 6.00 Build 0)  -->
<!DOCTYPE svg PUBLIC "-//W3C//DTD SVG 1.1//EN" "http://www.w3.org/Graphics/SVG/1.1/DTD/svg11.dtd">
<svg version="1.1" id="Layer_1" xmlns="http://www.w3.org/2000/svg" xmlns:xlink="http://www.w3.org/1999/xlink" x="0px" y="0px"
	 width="18px" height="18px" viewBox="0 0 18 18" enable-background="new 0 0 18 18" xml:space="preserve">
<path fill-rule="evenodd" clip-rule="evenodd" fill="#FFFFFF" d="M1.907,5.385C1.99,5.118,2.132,4.9,2.379,4.752
	c0.249-0.15,0.519-0.118,0.788-0.113c0.072,0.001,0.066,0.064,0.067,0.113c0.002,0.142,0.002,0.282,0.019,0.424
	c0.053,0.445,0.404,0.758,0.859,0.756c0.443-0.002,0.79-0.319,0.841-0.761c0.016-0.142,0.02-0.283,0.018-0.424
	C4.969,4.665,5.002,4.629,5.084,4.635c0.028,0.002,0.055,0,0.083,0c1.631,0,3.264,0,4.895,0c0.195,0,0.197,0.001,0.195,0.197
	C10.255,4.955,10.265,5.077,10.28,5.2c0.047,0.421,0.408,0.734,0.852,0.732c0.434-0.001,0.793-0.316,0.842-0.73
	c0.016-0.146,0.025-0.291,0.02-0.438c-0.004-0.091,0.027-0.13,0.125-0.132c0.289-0.003,0.578-0.015,0.824,0.181
	c0.242,0.193,0.385,0.438,0.387,0.751c0.002,1.102-0.002,2.204,0.004,3.306c0.002,0.143-0.045,0.183-0.18,0.175
	c-0.17-0.01-0.338-0.003-0.508-0.003c-0.211,0-0.213,0-0.213-0.206c0-0.462-0.002-0.923,0.002-1.385
	c0.002-0.12-0.023-0.168-0.158-0.168C9.167,7.288,6.059,7.288,2.951,7.285c-0.118,0-0.159,0.03-0.158,0.153
	c0.004,1.924,0.002,3.851,0.003,5.774c0,0.178,0.025,0.201,0.211,0.201c1.618,0,3.237,0,4.855,0c0.2,0,0.2,0.002,0.2,0.203
	c0,0.18-0.007,0.357,0.003,0.537c0.007,0.129-0.046,0.16-0.167,0.16c-0.525-0.006-1.051-0.004-1.577-0.004c-1.116,0-2.231,0-3.347,0
	c-0.589,0-0.868-0.195-1.067-0.75C1.907,10.836,1.907,8.11,1.907,5.385z"/>
<path fill-rule="evenodd" clip-rule="evenodd" fill="#FFFFFF" d="M4.267,2.888C4.481,2.999,4.56,3.173,4.555,3.416
	C4.542,3.977,4.552,4.539,4.55,5.101C4.549,5.307,4.414,5.478,4.225,5.523C4.006,5.574,3.796,5.484,3.698,5.299
	C3.66,5.228,3.653,5.152,3.653,5.073C3.654,4.521,3.662,3.968,3.65,3.416C3.645,3.173,3.723,2.999,3.938,2.888
	C4.047,2.888,4.157,2.888,4.267,2.888z"/>
<path fill-rule="evenodd" clip-rule="evenodd" fill="#FFFFFF" d="M11.29,2.888c0.215,0.111,0.293,0.285,0.289,0.527
	c-0.012,0.562-0.004,1.124-0.006,1.685c0,0.207-0.137,0.377-0.324,0.422c-0.221,0.051-0.43-0.039-0.527-0.224
	C10.69,5.237,10.677,5.171,10.677,5.1c0-0.593,0.002-1.187-0.002-1.781c0-0.211,0.119-0.336,0.287-0.431
	C11.071,2.888,11.181,2.888,11.29,2.888z"/>
<g>
	<path fill="#FFFFFF" d="M4.85,9.732H4.84l-0.614,0.293L4.102,9.46l0.853-0.396h0.624v3.223H4.85V9.732z"/>
</g>
<g>
	<path fill="#FFFFFF" d="M7.228,12.092v-0.457l0.416-0.375c0.704-0.629,1.046-0.99,1.056-1.368c0-0.263-0.159-0.472-0.531-0.472
		c-0.277,0-0.52,0.139-0.688,0.269L7.267,9.147c0.243-0.183,0.62-0.331,1.055-0.331c0.729,0,1.13,0.426,1.13,1.01
		c0,0.541-0.392,0.972-0.857,1.388l-0.297,0.248v0.01h1.214v0.619H7.228z"/>
</g>
<circle fill="none" stroke="#FFFFFF" stroke-miterlimit="10" cx="11.831" cy="12.758" r="2.757"/>
<rect x="13.258" y="15.299" transform="matrix(0.7425 0.6699 -0.6699 0.7425 14.5052 -6.0797)" fill="#FFFFFF" width="3.805" height="1.054"/>
</svg>
