<svg xmlns="http://www.w3.org/2000/svg" width="19.438" height="19.25" viewBox="0 0 19.438 19.25">
  <defs>
    <style>
      .cls-1 {
        fill: #fff;
        fill-rule: evenodd;
      }
    </style>
  </defs>
  <path class="cls-1" d="M30.5,171.574c2.405,0,4.356-2.282,4.356-5.1,0-3.9-1.95-5.1-4.356-5.1s-4.356,1.194-4.356,5.1C26.144,169.292,28.094,171.574,30.5,171.574Zm9.618,7.5-2.2-4.95a1.109,1.109,0,0,0-.5-0.529l-3.411-1.775a0.22,0.22,0,0,0-.234.02,5.381,5.381,0,0,1-6.559,0,0.221,0.221,0,0,0-.234-0.02l-3.41,1.775a1.108,1.108,0,0,0-.5.529l-2.2,4.95a1.1,1.1,0,0,0,1,1.545H39.114A1.1,1.1,0,0,0,40.118,179.077Z" transform="translate(-20.781 -161.375)"/>
</svg>
