<?xml version="1.0" encoding="utf-8"?>
<!-- Generator: Adobe Illustrator 16.0.3, SVG Export Plug-In . SVG Version: 6.00 Build 0)  -->
<!DOCTYPE svg PUBLIC "-//W3C//DTD SVG 1.1//EN" "http://www.w3.org/Graphics/SVG/1.1/DTD/svg11.dtd">
<svg version="1.1" id="Layer_1" xmlns="http://www.w3.org/2000/svg" xmlns:xlink="http://www.w3.org/1999/xlink" x="0px" y="0px"
	 width="17px" height="17px" viewBox="0 0 17 17" enable-background="new 0 0 17 17" xml:space="preserve">
<g>
	<g>
		<g>
			<path fill="#969696" d="M9.798,11.3c-0.063-0.071-0.142-0.123-0.227-0.167c-0.18-0.093-0.377-0.15-0.573-0.202v1.521
				c0.319-0.036,0.686-0.153,0.853-0.448l0,0c0.079-0.145,0.096-0.316,0.063-0.475C9.897,11.441,9.858,11.362,9.798,11.3z"/>
		</g>
		<g>
			<path fill="#969696" d="M9.848,12.007c0-0.003,0.003-0.003,0.003-0.003l0,0C9.851,12.004,9.848,12.004,9.848,12.007z"/>
		</g>
		<g>
			<path fill="#969696" d="M7.297,8.608c-0.072,0.1-0.114,0.217-0.127,0.337C7.159,9.066,7.166,9.203,7.211,9.316
				C7.256,9.426,7.349,9.508,7.444,9.57c0.106,0.075,0.223,0.131,0.344,0.179C7.887,9.79,8,9.828,8.125,9.865v-1.73
				C7.815,8.2,7.479,8.341,7.297,8.608z"/>
		</g>
		<g>
			<path fill="#969696" d="M9.856,11.99c-0.004,0.006-0.004,0.009-0.006,0.011l0,0C9.853,11.999,9.853,11.996,9.856,11.99z"/>
		</g>
		<g>
			<path fill="#969696" d="M9.864,11.977L9.864,11.977L9.864,11.977z"/>
		</g>
		<g>
			<path fill="#969696" d="M9.534,3.701c1.294-1.087,2.157-3.537,1.627-3.643c-0.707-0.142-2.242,0.48-2.984,0.592
				C7.125,0.776,5.978-0.491,5.333,0.216C4.812,0.79,5.71,2.882,7.114,3.792C2.921,5.851-2.97,16.196,7.311,16.947
				C21.534,17.985,14.411,5.708,9.534,3.701z M11.253,12.191c-0.053,0.496-0.317,0.949-0.711,1.256
				c-0.415,0.321-0.939,0.474-1.46,0.513v0.551c0,0.148-0.064,0.291-0.175,0.389c-0.152,0.136-0.374,0.17-0.558,0.085
				c-0.183-0.085-0.3-0.271-0.3-0.474v-0.602c-0.092-0.017-0.18-0.036-0.267-0.06c-0.487-0.136-0.936-0.396-1.267-0.78
				c-0.162-0.189-0.297-0.408-0.388-0.642c-0.023-0.063-0.047-0.125-0.064-0.189c-0.017-0.057-0.038-0.114-0.041-0.175
				c-0.01-0.098,0.007-0.203,0.054-0.291c0.098-0.183,0.301-0.294,0.507-0.277c0.203,0.021,0.378,0.158,0.442,0.354
				c0.02,0.058,0.034,0.118,0.058,0.18c0.021,0.057,0.047,0.115,0.078,0.169c0.064,0.107,0.138,0.205,0.229,0.29
				c0.182,0.175,0.416,0.291,0.659,0.361V10.8c-0.477-0.122-0.966-0.28-1.358-0.584c-0.192-0.148-0.352-0.335-0.459-0.551
				C6.12,9.436,6.073,9.178,6.073,8.926C6.07,8.665,6.12,8.408,6.229,8.172C6.33,7.953,6.475,7.757,6.65,7.591
				C7.032,7.24,7.539,7.044,8.049,6.973V6.929V6.402c0-0.148,0.063-0.291,0.172-0.388c0.152-0.135,0.374-0.169,0.56-0.084
				C8.965,6.014,9.082,6.2,9.082,6.402v0.527v0.04C9.149,6.979,9.217,6.99,9.285,7c0.496,0.091,0.986,0.297,1.351,0.655
				c0.172,0.172,0.314,0.375,0.412,0.594c0.026,0.064,0.055,0.125,0.074,0.189c0.021,0.061,0.037,0.122,0.048,0.186
				c0.016,0.102,0,0.202-0.045,0.294c-0.084,0.19-0.283,0.307-0.489,0.297c-0.202-0.008-0.389-0.139-0.458-0.331
				c-0.024-0.054-0.034-0.115-0.056-0.173c-0.023-0.057-0.054-0.111-0.085-0.162C9.97,8.449,9.89,8.365,9.791,8.293
				C9.586,8.142,9.332,8.061,9.082,8.017v1.959c0.298,0.071,0.598,0.148,0.885,0.263c0.433,0.169,0.841,0.433,1.077,0.846
				c-0.036-0.065-0.074-0.13,0,0c0.075,0.128,0.038,0.067,0.004,0.002C11.234,11.418,11.298,11.813,11.253,12.191z"/>
		</g>
		<g>
			<path fill="#969696" d="M9.845,12.013c-0.002,0.005-0.006,0.008-0.008,0.014C9.839,12.023,9.843,12.018,9.845,12.013z"/>
		</g>
	</g>
</g>
</svg>
