<svg xmlns="http://www.w3.org/2000/svg" width="17.292" height="21.44" viewBox="0 0 17.292 21.44">
  <g id="male-telemarketer" transform="translate(-35.601)">
    <path id="Path_103" data-name="Path 103" d="M111.084,35.5a5.222,5.222,0,0,0,4.127,3.11,4.677,4.677,0,0,0,2.812-1.3q-.539.038-1.153.038l-.305,0a1.2,1.2,0,0,1-.729.249h-.874a1.194,1.194,0,1,1,0-2.388h.874a1.19,1.19,0,0,1,.83.335h.215a9.7,9.7,0,0,0,2.358-.228,1.3,1.3,0,0,1-.1-.5V31.789a1.3,1.3,0,0,1,.319-.85,4.9,4.9,0,0,0-.6-1.954c-.6-.975-1.763-1.428-3.653-1.428a4.493,4.493,0,0,0-3.31,1,3.9,3.9,0,0,0-.946,2.378,1.3,1.3,0,0,1,.326.859v3.028A1.289,1.289,0,0,1,111.084,35.5Z" transform="translate(-70.964 -25.952)" fill="#8596ca"/>
    <path id="Path_104" data-name="Path 104" d="M64.735,9.58h1.048a.715.715,0,0,0,.715-.715V5.838a.714.714,0,0,0-.356-.617c.234-2.479,1.191-4.2,4.868-4.2,2.112,0,3.43.542,4.149,1.7a5.887,5.887,0,0,1,.713,2.5.714.714,0,0,0-.35.614V8.865a.715.715,0,0,0,.557.7,6.466,6.466,0,0,1-3.4.611q-.241,0-.5-.006a.611.611,0,0,0-.543-.33h-.874a.612.612,0,1,0,0,1.223h.874a.61.61,0,0,0,.5-.254c.184,0,.364.008.538.008,2.233,0,3.652-.381,4.227-1.137q.037-.048.067-.1h.323A.715.715,0,0,0,78,8.865V5.838a.715.715,0,0,0-.715-.715h-.394A6.7,6.7,0,0,0,76.03,2.19C75.119.716,73.477,0,71.011,0S66.9.716,65.991,2.19a6.7,6.7,0,0,0-.862,2.933h-.394a.715.715,0,0,0-.715.715V8.866A.715.715,0,0,0,64.735,9.58Z" transform="translate(-26.764)" fill="#8596ca"/>
    <path id="Path_105" data-name="Path 105" d="M52.889,214.648c-.238-1.478-.727-3.381-1.708-4.058-.669-.461-3.005-1.71-4-2.242l-.021-.011a.326.326,0,0,0-.355.031,4.241,4.241,0,0,1-1.7.822.326.326,0,0,0-.234.2l-.618,1.629-.618-1.629a.326.326,0,0,0-.234-.2,4.242,4.242,0,0,1-1.7-.822.326.326,0,0,0-.355-.031c-.986.527-3.353,1.8-4.021,2.252-1.13.761-1.624,3.515-1.711,4.06a.326.326,0,0,0,.015.161c.04.114,1.077,2.8,8.627,2.8s8.587-2.681,8.627-2.8A.326.326,0,0,0,52.889,214.648Zm-3.516-1.7h-2.99v-.63h2.99Z" transform="translate(0 -196.164)" fill="#8596ca"/>
  </g>
</svg>
