<?xml version="1.0" encoding="utf-8"?>
<!-- Generator: Adobe Illustrator 16.0.0, SVG Export Plug-In . SVG Version: 6.00 Build 0)  -->
<!DOCTYPE svg PUBLIC "-//W3C//DTD SVG 1.1//EN" "http://www.w3.org/Graphics/SVG/1.1/DTD/svg11.dtd">
<svg version="1.1" id="Layer_1" xmlns="http://www.w3.org/2000/svg" xmlns:xlink="http://www.w3.org/1999/xlink" x="0px" y="0px"
	 width="15px" height="15px" viewBox="0 0 15 15" enable-background="new 0 0 15 15" xml:space="preserve">
<path fill="#30323E" d="M7.222,9.09C6.037,8.116,5.246,6.913,4.831,6.228l-0.31-0.584c0.108-0.116,0.935-1.002,1.293-1.483
	c0.45-0.604-0.203-1.148-0.203-1.148S3.773,1.174,3.354,0.809c-0.419-0.364-0.9-0.162-0.9-0.162C1.573,1.216,0.661,1.71,0.606,4.089
	c-0.002,2.227,1.688,4.523,3.517,6.301c1.831,2.009,4.345,4.021,6.774,4.019c2.38-0.053,2.875-0.967,3.441-1.848
	c0,0,0.204-0.48-0.162-0.9c-0.364-0.419-2.202-2.256-2.202-2.256S11.43,8.75,10.825,9.2c-0.45,0.337-1.258,1.085-1.452,1.266
	C9.373,10.467,8.021,9.746,7.222,9.09z"/>
</svg>
