<svg xmlns="http://www.w3.org/2000/svg" width="21.094" height="20.25" viewBox="0 0 21.094 20.25">
  <defs>
    <style>
      .cls-1 {
        fill: #8596ca;
        fill-rule: evenodd;
      }
    </style>
  </defs>
  <path class="cls-1" d="M59.777,211.753a0.991,0.991,0,0,0-.082-1.427l-9.425-8.177a1.183,1.183,0,0,0-1.532.017l-9.457,8.6a0.986,0.986,0,0,0-.046,1.425l0.237,0.244a1.04,1.04,0,0,0,1.419.108l0.707-.627V221.1a1.025,1.025,0,0,0,1.029,1.02h3.686a1.025,1.025,0,0,0,1.029-1.02v-6.428h4.7V221.1a0.967,0.967,0,0,0,.966,1.019h3.907a1.024,1.024,0,0,0,1.029-1.02v-9.058l0.436,0.379a0.929,0.929,0,0,0,1.128-.375Z" transform="translate(-38.969 -201.875)"/>
</svg>
