<svg xmlns="http://www.w3.org/2000/svg" width="18" height="17.406" viewBox="0 0 18 17.406">
  <defs>
    <style>
      .cls-1 {
        fill: #fff;
        fill-rule: evenodd;
      }
    </style>
  </defs>
  <path id="Shape_65_copy_2" data-name="Shape 65 copy 2" class="cls-1" d="M1720.27,59.289a0.85,0.85,0,0,0-.07-1.227l-8.04-7.032a1.006,1.006,0,0,0-1.31.015l-8.07,7.392a0.847,0.847,0,0,0-.04,1.225l0.2,0.21a0.882,0.882,0,0,0,1.21.093l0.61-.54v7.9a0.876,0.876,0,0,0,.88.877h3.14a0.876,0.876,0,0,0,.88-0.877V61.8h4.01v5.527a0.834,0.834,0,0,0,.83.877h3.33a0.876,0.876,0,0,0,.88-0.877V59.537s0.17,0.146.37,0.326a0.8,0.8,0,0,0,.97-0.323Z" transform="translate(-1702.5 -50.813)"/>
</svg>
