<?xml version="1.0" encoding="utf-8"?>
<!-- Generator: Adobe Illustrator 16.0.0, SVG Export Plug-In . SVG Version: 6.00 Build 0)  -->
<!DOCTYPE svg PUBLIC "-//W3C//DTD SVG 1.1//EN" "http://www.w3.org/Graphics/SVG/1.1/DTD/svg11.dtd">
<svg version="1.1" id="Layer_1" xmlns="http://www.w3.org/2000/svg" xmlns:xlink="http://www.w3.org/1999/xlink" x="0px" y="0px"
	 width="17px" height="17px" viewBox="0 0 17 17" enable-background="new 0 0 17 17" xml:space="preserve">
<g>
	<path fill="#969696" d="M16.738,8.299c0.305-0.341,0.274-0.866-0.068-1.17L9.12,0.417C8.778,0.113,8.228,0.119,7.893,0.431
		L0.317,7.486C-0.019,7.798-0.035,8.322,0.28,8.655l0.189,0.2c0.316,0.333,0.825,0.374,1.138,0.089l0.567-0.516v7.542
		c0,0.462,0.368,0.836,0.823,0.836h2.954c0.455,0,0.824-0.374,0.824-0.836v-5.275h3.768v5.275c-0.007,0.462,0.317,0.836,0.772,0.836
		h3.131c0.455,0,0.823-0.374,0.823-0.836V8.536c0,0,0.156,0.139,0.35,0.312c0.191,0.172,0.598,0.033,0.902-0.309L16.738,8.299z"/>
</g>
</svg>
