<svg xmlns="http://www.w3.org/2000/svg" width="20.563" height="24.657" viewBox="0 0 20.563 24.657">
  <defs>
    <style>
      .cls-1 {
        fill: #8596ca;
        fill-rule: evenodd;
      }
    </style>
  </defs>
  <path class="cls-1" d="M52.187,284.029a1.181,1.181,0,0,0-.331-0.24,4.046,4.046,0,0,0-.837-0.294v2.2a1.576,1.576,0,0,0,1.241-.651h0a1,1,0,0,0,.092-0.688A0.691,0.691,0,0,0,52.187,284.029Zm0.07,1.024,0,0h0Zm-3.415-4.55a0.825,0.825,0,0,0-.144.388,0.929,0.929,0,0,0,.047.429,0.687,0.687,0,0,0,.268.293,2.116,2.116,0,0,0,.4.2c0.116,0.046.247,0.091,0.388,0.134v-2A1.53,1.53,0,0,0,48.842,280.5Zm3.426,4.53-0.009.016h0Zm0.012-.021h0Zm-0.481-12c1.884-1.575,3.143-5.124,2.368-5.279-1.029-.207-3.265.7-4.346,0.857-1.532.185-3.2-1.654-4.139-.629-0.762.833,0.546,3.863,2.592,5.183-6.105,2.986-14.686,17.978.284,19.065C69.274,293.72,58.9,275.927,51.8,273.017Zm1.779,11.823a2.164,2.164,0,0,1-.84,1.472,3.225,3.225,0,0,1-1.719.6v0.645a0.609,0.609,0,0,1-1.218,0v-0.7q-0.157-.03-0.312-0.072a2.992,2.992,0,0,1-1.49-.913,2.664,2.664,0,0,1-.459-0.755c-0.028-.072-0.054-0.145-0.076-0.22a1.126,1.126,0,0,1-.048-0.2,0.6,0.6,0,0,1,.066-0.341,0.61,0.61,0,0,1,1.118.089c0.023,0.07.039,0.142,0.065,0.211a1.3,1.3,0,0,0,.094.2,1.547,1.547,0,0,0,.267.341,1.811,1.811,0,0,0,.775.42v-2.4a4.348,4.348,0,0,1-1.6-.687,1.86,1.86,0,0,1-.539-0.645,2.012,2.012,0,0,1-.188-0.868,2.065,2.065,0,0,1,.182-0.879,2.157,2.157,0,0,1,.5-0.683,3.056,3.056,0,0,1,1.643-.724v-0.671a0.611,0.611,0,0,1,.206-0.454,0.609,0.609,0,0,1,1.013.454v0.667c0.079,0.01.159,0.022,0.238,0.036a3.012,3.012,0,0,1,1.59.769,2.307,2.307,0,0,1,.487.7,2.338,2.338,0,0,1,.086.222,1.338,1.338,0,0,1,.057.216,0.6,0.6,0,0,1-.051.346,0.61,0.61,0,0,1-1.121-.039c-0.026-.066-0.038-0.137-0.064-0.2a1.127,1.127,0,0,0-.1-0.191,1.164,1.164,0,0,0-.288-0.3,1.983,1.983,0,0,0-.836-0.325v2.3a7.816,7.816,0,0,1,1.041.307,2.433,2.433,0,0,1,1.27.99c-0.043-.075-0.085-0.149,0,0s0.044,0.078,0,0A2.153,2.153,0,0,1,53.578,284.84Zm-1.328.225-0.009.016Z" transform="translate(-40.25 -267.656)"/>
</svg>
