<?xml version="1.0" encoding="utf-8"?>
<!-- Generator: Adobe Illustrator 16.0.3, SVG Export Plug-In . SVG Version: 6.00 Build 0)  -->
<!DOCTYPE svg PUBLIC "-//W3C//DTD SVG 1.1//EN" "http://www.w3.org/Graphics/SVG/1.1/DTD/svg11.dtd">
<svg version="1.1" id="Layer_1" xmlns="http://www.w3.org/2000/svg" xmlns:xlink="http://www.w3.org/1999/xlink" x="0px" y="0px"
	 width="17px" height="17px" viewBox="0 0 17 17" enable-background="new 0 0 17 17" xml:space="preserve">
<g>
	<path fill="#969696" d="M6.313,11.399c-0.451-0.461-1.054-0.77-1.742-0.902c0.973-0.324,1.676-1.245,1.676-2.326
		c0-1.353-1.101-2.454-2.454-2.454c-1.352,0-2.453,1.101-2.453,2.454c0,1.081,0.704,2.001,1.677,2.326
		c-0.688,0.133-1.292,0.441-1.742,0.902c-0.596,0.609-0.898,1.452-0.875,2.434c0.007,0.311,0.26,0.559,0.57,0.559h5.649
		c0.31,0,0.563-0.248,0.57-0.559C7.212,12.852,6.909,12.009,6.313,11.399z"/>
	<path fill="#969696" d="M15.727,7.977c-0.451-0.462-1.055-0.771-1.743-0.902c0.974-0.326,1.676-1.245,1.676-2.327
		c0-1.352-1.1-2.453-2.452-2.453c-1.354,0-2.454,1.101-2.454,2.453c0,1.082,0.703,2.001,1.676,2.327
		c-0.688,0.132-1.291,0.44-1.742,0.902c-0.596,0.609-0.897,1.452-0.875,2.435c0.008,0.309,0.26,0.557,0.571,0.557h5.648
		c0.309,0,0.563-0.248,0.569-0.557C16.625,9.429,16.321,8.585,15.727,7.977z"/>
	<path fill="#969696" d="M3.146,5.176c0.101,0.07,0.216,0.105,0.329,0.105c0.18,0,0.355-0.083,0.467-0.241
		C5.061,3.458,6.878,2.51,8.81,2.495L8.453,2.852c-0.222,0.223-0.222,0.584,0,0.807C8.565,3.77,8.71,3.826,8.856,3.826
		c0.147,0,0.293-0.056,0.403-0.167l1.331-1.332c0.223-0.223,0.223-0.584,0-0.807L9.26,0.188c-0.223-0.222-0.584-0.222-0.807,0
		c-0.222,0.223-0.222,0.584,0,0.807l0.359,0.358C6.51,1.368,4.343,2.497,3.01,4.38C2.828,4.638,2.889,4.994,3.146,5.176z"/>
	<path fill="#969696" d="M14.234,11.812c-0.258-0.18-0.614-0.117-0.794,0.141c-1.037,1.486-2.681,2.42-4.466,2.562l0.366-0.366
		c0.224-0.224,0.224-0.584,0-0.808s-0.585-0.224-0.807,0l-1.331,1.331c-0.223,0.224-0.223,0.584,0,0.808l1.331,1.331
		c0.112,0.111,0.258,0.168,0.404,0.168s0.293-0.057,0.403-0.168c0.224-0.222,0.224-0.584,0-0.807l-0.347-0.348
		c2.151-0.147,4.137-1.264,5.382-3.049C14.557,12.347,14.492,11.992,14.234,11.812z"/>
</g>
</svg>
