<?xml version="1.0" encoding="utf-8"?>
<!-- Generator: Adobe Illustrator 23.0.3, SVG Export Plug-In . SVG Version: 6.00 Build 0)  -->
<svg version="1.1" xmlns="http://www.w3.org/2000/svg" xmlns:xlink="http://www.w3.org/1999/xlink" x="0px" y="0px" width="100px"
	 height="100px" viewBox="0 0 100 100" style="enable-background:new 0 0 100 100;" xml:space="preserve">
<style type="text/css">
	.st0{display:none;}
	.st1{display:inline;}
	.st2{fill:#8797CA;}
	.st3{fill:#F7911E;}
	.st4{fill:#566181;}
	.st5{fill:#FEDC0E;}
	.st6{fill:#6B7999;}
	.st7{fill:#F7CAA5;}
	.st8{fill:#FF9100;}
	.st9{fill:#FFDC13;}
	.st10{fill:#EDB288;}
	.st11{fill:#556080;}
	.st12{fill:#8697CB;}
	.st13{fill:#FFA511;}
	.st14{fill:#E5AF17;}
</style>
<g id="Layer_1" class="st0">
	<g class="st1">
		<path class="st2" d="M89.3,10.6v10H71.7v-10c0-4.8,3.9-8.8,8.8-8.8h0C85.4,1.8,89.3,5.7,89.3,10.6L89.3,10.6z"/>
		<path class="st3" d="M55.7,67.5c3.6-5.3,9.6-8.4,16-8.5c0.1,0,0.1,0,0.2,0c10.8,0,19.6,8.8,19.6,19.6c0,10.8-8.8,19.6-19.6,19.6
			c-10.8,0-19.6-8.8-19.6-19.6C52.3,74.6,53.5,70.7,55.7,67.5L55.7,67.5z"/>
		<path class="st4" d="M55.7,67.5c-4.1,5.9-4.6,13.6-1.4,20c-18.7,0-45.9,0-45.9,0l0.4-77.3c0-4.6,3.8-8.3,8.4-8.3h63.2
			c-4.8,0-8.8,3.9-8.8,8.8V59C65.3,59,59.4,62.2,55.7,67.5L55.7,67.5z"/>
		<path class="st2" d="M39.9,13.4c7.9,0,14.2,6.4,14.2,14.2c0,7.9-6.4,14.2-14.2,14.2s-14.2-6.4-14.2-14.2c0,0,0,0,0,0
			C25.7,19.7,32.1,13.4,39.9,13.4z"/>
		<path class="st4" d="M39.9,26.8c-1.4,0-2.5-1.1-2.5-2.5c0-1.4,1.1-2.5,2.5-2.5c1.4,0,2.5,1.1,2.5,2.5v0c0,0.7,0.5,1.2,1.2,1.2
			c0.7,0,1.2-0.5,1.2-1.2c0-2.3-1.7-4.4-4-4.8v-0.9c0-0.7-0.5-1.2-1.2-1.2c-0.7,0-1.2,0.5-1.2,1.2v1c-2.6,0.8-4,3.6-3.1,6.1
			c0.7,2,2.5,3.4,4.6,3.4c1.4,0,2.5,1.1,2.5,2.5c0,1.4-1.1,2.5-2.5,2.5c-1.4,0-2.5-1.1-2.5-2.5c0-0.7-0.5-1.2-1.2-1.2
			c-0.7,0-1.2,0.5-1.2,1.2c0,2.3,1.6,4.2,3.8,4.8v1.2c0,0.7,0.5,1.2,1.2,1.2s1.2-0.5,1.2-1.2v-1.2c2.6-0.7,4.1-3.4,3.4-6
			C44.1,28.3,42.1,26.8,39.9,26.8L39.9,26.8z"/>
		<g>
			<path class="st2" d="M63.8,52.7H16.5c-0.7,0-1.2-0.5-1.2-1.2c0-0.7,0.5-1.2,1.2-1.2h47.3c0.7,0,1.2,0.5,1.2,1.2
				C65,52.2,64.4,52.7,63.8,52.7z"/>
			<path class="st2" d="M63.8,60.7H16.5c-0.7,0-1.2-0.5-1.2-1.2c0-0.7,0.5-1.2,1.2-1.2h47.3c0.7,0,1.2,0.5,1.2,1.2
				C65,60.1,64.4,60.7,63.8,60.7z"/>
			<path class="st2" d="M55.8,68.7H16.5c-0.7,0-1.2-0.5-1.2-1.2c0-0.7,0.5-1.2,1.2-1.2h39.3c0.7,0,1.2,0.5,1.2,1.2
				C57,68.1,56.4,68.7,55.8,68.7z"/>
			<path class="st2" d="M52.5,76.6h-36c-0.7,0-1.2-0.5-1.2-1.2c0-0.7,0.5-1.2,1.2-1.2h36c0.7,0,1.2,0.5,1.2,1.2
				C53.7,76.1,53.1,76.6,52.5,76.6z"/>
		</g>
		<path class="st5" d="M69.2,86.5L69.2,86.5c-0.5,0-0.9-0.2-1.2-0.5l-7-7.1c-0.7-0.7-0.6-1.8,0-2.4c0.7-0.7,1.7-0.6,2.4,0l5.8,5.8
			l11.3-11.3c0.7-0.7,1.7-0.7,2.4,0c0.7,0.7,0.7,1.7,0,2.4l0,0L70.4,86C70,86.3,69.6,86.5,69.2,86.5L69.2,86.5z"/>
	</g>
</g>
<g id="Layer_2" class="st0">
	<g class="st1">
		<path class="st4" d="M94.9,38.9l0.4-0.5l0.7,0.5v53.9c0,1.7-1.4,3.2-3.2,3.2H7.2C5.4,96,4,94.6,4,92.8V38.9l0.7-0.5l0.4,0.5H94.9z
			"/>
		<path class="st2" d="M95.3,38.4l-0.4,0.5L51.6,72.2h-3.2L5.1,38.9l-0.4-0.5l15.2-11.8l20.9-16.2l7.3-5.7c1.1-0.9,2.7-0.9,3.8,0
			l7.3,5.7l20.9,16.2L95.3,38.4z"/>
		<path class="st3" d="M80.1,13.5v36.8L51.6,72.2h-3.2L19.9,50.3V13.5c0-1.7,1.4-3.2,3.2-3.2H77C78.7,10.4,80.1,11.8,80.1,13.5z"/>
		<g>
			<path class="st5" d="M34.1,23h31.7c0.9,0,1.6-0.7,1.6-1.6c0-0.9-0.7-1.6-1.6-1.6H34.1c-0.9,0-1.6,0.7-1.6,1.6
				C32.6,22.3,33.3,23,34.1,23z"/>
			<path class="st5" d="M65.9,29.4H34.1c-0.9,0-1.6,0.7-1.6,1.6s0.7,1.6,1.6,1.6h31.7c0.9,0,1.6-0.7,1.6-1.6S66.7,29.4,65.9,29.4z"
				/>
			<path class="st5" d="M65.9,38.9H51.6c-0.9,0-1.6,0.7-1.6,1.6s0.7,1.6,1.6,1.6h14.3c0.9,0,1.6-0.7,1.6-1.6S66.7,38.9,65.9,38.9z"
				/>
		</g>
		<path class="st2" d="M95.4,94.7c-0.6,0.8-1.5,1.3-2.6,1.3H7.2c-1,0-2-0.5-2.6-1.3L41,66.5l7.1-5.5c1.1-0.9,2.7-0.9,3.8,0l7.1,5.5
			L95.4,94.7z"/>
	</g>
</g>
<g id="Layer_3" class="st0">
	<g class="st1">
		<path class="st4" d="M8.1,20.5h83.8c1.7,0,3.1,1.4,3.1,3.1v52.8c0,1.7-1.4,3.1-3.1,3.1H8.1c-1.7,0-3.1-1.4-3.1-3.1V23.6
			C5,21.9,6.4,20.5,8.1,20.5z"/>
		<g>
			<path class="st3" d="M26.7,31.4h3.1c3.4,0,6.2,2.8,6.2,6.2v6.2c0,3.4-2.8,6.2-6.2,6.2h-3.1c-3.4,0-6.2-2.8-6.2-6.2v-6.2
				C20.5,34.2,23.3,31.4,26.7,31.4z"/>
			<path class="st3" d="M33.4,70.2h7.3v-7.8c0.1-3.3-2.5-6.1-5.8-6.2H21.7c-3.3,0.1-5.9,2.9-5.8,6.2v7.8H33.4z"/>
		</g>
		<rect x="48.4" y="20.5" class="st2" width="3.1" height="59"/>
		<g>
			<path class="st5" d="M57.8,34.5h27.9c0.9,0,1.6-0.7,1.6-1.6c0-0.9-0.7-1.6-1.6-1.6H57.8c-0.9,0-1.6,0.7-1.6,1.6
				C56.2,33.8,56.9,34.5,57.8,34.5z"/>
			<path class="st5" d="M85.7,40.7H57.8c-0.9,0-1.6,0.7-1.6,1.6c0,0.9,0.7,1.6,1.6,1.6h27.9c0.9,0,1.6-0.7,1.6-1.6
				C87.2,41.4,86.5,40.7,85.7,40.7z"/>
			<path class="st5" d="M85.7,50H57.8c-0.9,0-1.6,0.7-1.6,1.6c0,0.9,0.7,1.6,1.6,1.6h27.9c0.9,0,1.6-0.7,1.6-1.6
				C87.2,50.7,86.5,50,85.7,50z"/>
			<path class="st5" d="M85.7,59.3h-14c-0.9,0-1.6,0.7-1.6,1.6c0,0.9,0.7,1.6,1.6,1.6h14c0.9,0,1.6-0.7,1.6-1.6
				C87.2,60,86.5,59.3,85.7,59.3z"/>
		</g>
	</g>
</g>
<g id="Layer_4" class="st0">
	<g class="st1">
		<path class="st4" d="M55.2,75.1c0-11,8.9-19.9,19.9-19.9c0.1,0,0.2,0,0.2,0V5H13.4v80.1h44.5C56.2,82.2,55.2,78.8,55.2,75.1z"/>
		<circle class="st3" cx="75.1" cy="75.1" r="19.9"/>
		<path class="st5" d="M82,82.2H71.3c-1.5,0-2.8-1.2-2.8-2.8V67.8c0-1.5,1.2-2.8,2.8-2.8s2.8,1.2,2.8,2.8v8.9H82
			c1.5,0,2.8,1.2,2.8,2.8C84.7,81,83.5,82.2,82,82.2z"/>
		<rect x="5" y="5" class="st2" width="8.4" height="80.1"/>
		<path class="st2" d="M61.9,18.7H43.4c-1,0-1.8-0.8-1.8-1.8s0.8-1.8,1.8-1.8h18.5c1,0,1.8,0.8,1.8,1.8S62.9,18.7,61.9,18.7z"/>
		<path class="st2" d="M68.5,26.2H50c-1,0-1.8-0.8-1.8-1.8s0.8-1.8,1.8-1.8h18.5c1,0,1.8,0.8,1.8,1.8C70.3,25.4,69.5,26.2,68.5,26.2
			z"/>
		<circle class="st2" cx="28" cy="20.7" r="8.1"/>
		<path class="st4" d="M27.6,24.1c-0.2,0-0.5,0-0.7-0.1l-2.3-1c-0.9-0.4-1.4-1.5-1-2.4c0.4-0.9,1.5-1.4,2.4-1l1.2,0.5l2.3-2.3
			c0.7-0.7,1.9-0.7,2.6,0c0.7,0.7,0.7,1.9,0,2.6l-3.2,3.2C28.6,23.9,28.1,24.1,27.6,24.1z"/>
		<path class="st2" d="M61.9,43.1H43.4c-1,0-1.8-0.8-1.8-1.8s0.8-1.8,1.8-1.8h18.5c1,0,1.8,0.8,1.8,1.8S62.9,43.1,61.9,43.1z"/>
		<path class="st2" d="M68.5,50.7H50c-1,0-1.8-0.8-1.8-1.8S49,47,50,47h18.5c1,0,1.8,0.8,1.8,1.8S69.5,50.7,68.5,50.7z"/>
		<circle class="st2" cx="28" cy="45.1" r="8.1"/>
		<path class="st4" d="M27.6,48.5c-0.2,0-0.5,0-0.7-0.1l-2.3-1c-0.9-0.4-1.4-1.5-1-2.4c0.4-0.9,1.5-1.4,2.4-1l1.2,0.5l2.3-2.3
			c0.7-0.7,1.9-0.7,2.6,0c0.7,0.7,0.7,1.9,0,2.6l-3.2,3.2C28.6,48.3,28.1,48.5,27.6,48.5z"/>
		<circle class="st2" cx="28" cy="69.5" r="8.1"/>
		<path class="st4" d="M27.6,72.9c-0.2,0-0.5,0-0.7-0.1l-2.2-0.9c-0.8-0.3-1.4-1.2-1.2-2.1c0.3-1.1,1.5-1.7,2.5-1.3l1.2,0.5l2.2-2.2
			c0.6-0.6,1.7-0.8,2.4-0.3c0.9,0.7,1,2,0.2,2.8l-3.2,3.2C28.6,72.7,28.1,72.9,27.6,72.9z"/>
	</g>
</g>
<g id="Layer_5" class="st0">
	<g class="st1">
		<g>
			<polygon class="st2" points="94.4,24.6 79.1,38.7 55.9,38.7 55.9,38.1 70.9,24.1 71.4,24.6 			"/>
			<polygon class="st2" points="41.5,24.6 41.9,24.9 27.6,38.1 27.6,38.7 5.6,38.7 20.9,24.6 			"/>
		</g>
		<g>
			<path class="st4" d="M27,52.9H5.6c-1.1,0-2.1-0.9-2.1-2.1s0.9-2.1,2.1-2.1H27c1.1,0,2.1,0.9,2.1,2.1C29,52,28.1,52.9,27,52.9z"/>
			<path class="st4" d="M79.1,52.9H56.2c-1.1,0-2.1-0.9-2.1-2.1s0.9-2.1,2.1-2.1h22.1l14.8-11.7c0.9-0.7,2.2-0.5,2.9,0.4
				c0.7,0.9,0.5,2.2-0.4,2.9L80.3,52.5C79.9,52.7,79.5,52.9,79.1,52.9z"/>
			<path class="st4" d="M27,65.1H5.6c-1.1,0-2.1-0.9-2.1-2.1s0.9-2.1,2.1-2.1H27c1.1,0,2.1,0.9,2.1,2.1S28.1,65.1,27,65.1z"/>
			<path class="st4" d="M79.1,65.1H56.5c-1.1,0-2.1-0.9-2.1-2.1s0.9-2.1,2.1-2.1h22l14.7-10.6c0.9-0.7,2.2-0.5,2.9,0.4
				c0.7,0.9,0.5,2.2-0.4,2.9l0,0l-15.3,11C80,65,79.5,65.1,79.1,65.1z"/>
			<path class="st4" d="M79.1,77.2H5.6c-1.1,0-2.1-0.9-2.1-2.1S4.4,73,5.6,73h72.9l14.8-9.7c0.9-0.6,2.3-0.3,2.9,0.6
				c0.6,0.9,0.3,2.3-0.6,2.9l0,0l-15.3,10C79.9,77.1,79.5,77.2,79.1,77.2z"/>
		</g>
		<polygon class="st3" points="73.4,22.8 72,24.1 57,38.1 57,38.7 57,74.1 57,77.2 26.5,77.2 26.5,74.1 26.5,38.7 26.5,38.1 
			40.8,24.9 43,22.8 		"/>
		<path class="st5" d="M41.7,53.1c-1.8,0-3.2-1.5-3.2-3.2c0-1.8,1.5-3.2,3.2-3.2c1.8,0,3.2,1.5,3.2,3.2l0,0c0,1.1,0.9,2.1,2.1,2.1
			s2.1-0.9,2.1-2.1c0-3.2-2.2-6.1-5.3-7v-1.3c0-1.1-0.9-2.1-2.1-2.1c-1.1,0-2.1,0.9-2.1,2.1v1.3c-3.1,0.8-5.3,3.8-5.3,7
			c0,4.1,3.3,7.4,7.4,7.4c1.8,0,3.2,1.5,3.2,3.2s-1.5,3.2-3.2,3.2c-1.8,0-3.2-1.5-3.2-3.2l0,0c0-1.1-0.9-2.1-2.1-2.1
			c-1.1,0-2.1,0.9-2.1,2.1c0,3.2,2.2,6.1,5.3,7v1.3c0,1.1,0.9,2.1,2.1,2.1c1.1,0,2.1-0.9,2.1-2.1v-1.3c3.1-0.8,5.3-3.8,5.3-7
			C49.1,56.5,45.7,53.1,41.7,53.1L41.7,53.1z"/>
	</g>
</g>
<g id="Layer_6" class="st0">
	<g class="st1">
		<path class="st3" d="M22.3,57.3L5.5,81.8l16.2-3l3,16.2l16-23.3L22.3,57.3z"/>
		<path class="st3" d="M77.7,57.3L59.3,71.7l16,23.3l3-16.2l16.2,3L77.7,57.3z"/>
		<path class="st4" d="M50,5C30,5,13.8,21.3,13.8,41.2c0,20,16.3,36.2,36.2,36.2c20,0,36.2-16.3,36.2-36.2C86.2,21.3,70,5,50,5z"/>
		<path class="st2" d="M50,5v72.5c20,0,36.2-16.3,36.2-36.2C86.2,21.3,70,5,50,5z"/>
		<path class="st5" d="M43.5,56.7L31.2,44.3l3.8-3.8l8.6,8.6l21.5-21.5l3.8,3.8L43.5,56.7z"/>
		<path class="st5" d="M50,50.3l18.8-18.9l-3.8-3.8L50,42.7V50.3z"/>
	</g>
</g>
<g id="Layer_7" class="st0">
	<g class="st1">
		<path class="st2" d="M14.3,5v83.8h9.3V11.2h43.4l9.3,9.3V5H14.3z"/>
		<path class="st4" d="M67.1,11.2H23.6V95h62.1V29.8H67.1V11.2z"/>
		<path class="st6" d="M67.1,29.8h18.6l-9.3-9.3l-9.3-9.3V29.8z"/>
		<rect x="32.6" y="40.9" class="st3" width="39.5" height="3.9"/>
		<rect x="32.6" y="29.5" class="st5" width="20.1" height="3.9"/>
		<rect x="32.6" y="51.1" class="st3" width="39.5" height="3.9"/>
		<rect x="32.6" y="60.4" class="st3" width="39.5" height="3.9"/>
		<rect x="32.6" y="69.7" class="st3" width="39.5" height="3.9"/>
	</g>
</g>
<g id="Layer_8" class="st0">
	<g class="st1">
		<path class="st4" d="M77,5H11c3.3,0,6,2.7,6,6v39v39c0,1.6,0.7,3.1,1.8,4.2c1.1,1.1,2.6,1.8,4.2,1.8c3.3,0,6-2.7,6-6v-6h54V11
			C83,7.7,80.3,5,77,5z"/>
		<path class="st2" d="M17,50H5V11c0-1.6,0.7-3.1,1.8-4.2C7.9,5.7,9.4,5,11,5c3.3,0,6,2.7,6,6V50z"/>
		<path class="st2" d="M95,83v6c0,3.3-2.7,6-6,6H23c3.3,0,6-2.7,6-6v-6h6h6h6h6h6h6h6h6h6H95z"/>
		<g>
			<path class="st3" d="M35,74h6v9h-6V74z"/>
			<path class="st3" d="M47,68h6v15h-6V68z"/>
			<path class="st3" d="M59,65h6v18h-6V65z"/>
			<path class="st3" d="M71,59h6v24h-6V59z"/>
		</g>
		<path class="st5" d="M69.9,40.2l-2.4,9.7l-3.6-3.6l-3.6-3.6L69.9,40.2z"/>
		<path class="st3" d="M31.5,30.5c-1.7,0-3-1.3-3-3h-3c0,2.8,1.9,5.1,4.5,5.8v3.2h3v-3h4.5v-6c0-3.3-2.7-6-6-6c-1.7,0-3-1.3-3-3v-3
			h3c1.7,0,3,1.3,3,3h3c0-2.8-1.9-5.1-4.5-5.8V9.5h-3v3h-4.5v6c0,3.3,2.7,6,6,6c1.7,0,3,1.3,3,3v3H31.5z"/>
		<path class="st2" d="M47.5,15.5h3v3h-3V15.5z"/>
		<path class="st2" d="M53.5,15.5h24v3h-24V15.5z"/>
		<path class="st2" d="M47.5,21.5h3v3h-3V21.5z"/>
		<path class="st2" d="M53.5,21.5h24v3h-24V21.5z"/>
		<path class="st2" d="M47.5,27.5h3v3h-3V27.5z"/>
		<path class="st2" d="M53.5,27.5h24v3h-24V27.5z"/>
		<path class="st5" d="M62.2,46.2L55.4,53l-4.8-4.8L37.7,61l1.7,1.7l11.2-11.2l4.8,4.8l8.4-8.4l4.3,4.3l3.4-13.7l-13.7,3.4
			L62.2,46.2z M66.9,47.5l-4.2-4.2l5.6-1.4L66.9,47.5z"/>
		<path class="st4" d="M87.5,87.5h3v3h-3V87.5z"/>
		<path class="st4" d="M81.5,87.5h3v3h-3V87.5z"/>
		<path class="st4" d="M75.5,87.5h3v3h-3V87.5z"/>
		<path class="st4" d="M9.5,42.5h3v3h-3V42.5z"/>
		<path class="st4" d="M9.5,36.5h3v3h-3V36.5z"/>
		<path class="st4" d="M9.5,30.5h3v3h-3V30.5z"/>
	</g>
</g>
<g id="Layer_9" class="st0">
	<g class="st1">
		<path class="st7" d="M70.4,72.1l15.3-7.2c3.4-1.7,7.5-0.5,9.3,2.8L64,87.8c-4.2,1.9-8.8,2.4-13.3,1.5l-21.4-6
			c-2-0.6-4.1-0.3-5.9,0.6l-4.5,2.4l0.6-21.8l0.2,0c6.4-4.5,14.8-5.1,21.8-1.5l1.3,0.7c2,1,4.2,1.6,6.5,1.7l12.6,0.3
			C65.7,65.7,69.2,68.3,70.4,72.1z"/>
		<path class="st8" d="M74.6,33.8c0,13-10.5,23.5-23.5,23.5S27.6,46.7,27.6,33.8s10.5-23.5,23.5-23.5S74.6,20.8,74.6,33.8z"/>
		<path class="st9" d="M51.1,31.9c-2.2,0-4-1.8-4-4c0-2.2,1.8-4,4-4c2.2,0,4,1.8,4,4c0,1,0.8,1.7,1.7,1.7c1,0,1.7-0.8,1.7-1.7
			c0-3.5-2.5-6.5-5.9-7.3v-1.6c0-1-0.8-1.7-1.7-1.7c-1,0-1.7,0.8-1.7,1.7v1.7c-3.6,1-5.9,4.5-5.4,8.2c0.5,3.7,3.6,6.4,7.4,6.4
			c2.2,0,3.9,1.7,4,3.9c0,2.2-1.7,4-3.8,4c-0.2,0-0.4-0.1-0.6,0c-2-0.2-3.5-1.9-3.5-3.9c0-1-0.8-1.7-1.7-1.7s-1.7,0.8-1.7,1.7
			c0,3.4,2.2,6.3,5.5,7.2v1.7c0,1,0.8,1.7,1.7,1.7c1,0,1.7-0.8,1.7-1.7v-1.6c3.7-0.8,6.3-4.3,5.9-8C58.1,34.8,54.9,31.9,51.1,31.9z"
			/>
		<path class="st10" d="M70.9,77L70.9,77l-20.7-0.6c-1,0-1.7-0.8-1.7-1.8c0-1,0.8-1.7,1.8-1.7L69,73.5c-0.1-0.3-0.1-0.6-0.2-0.8
			c-1-3.1-3.8-5.2-7-5.2L49.1,67c-2.5-0.1-5-0.7-7.2-1.9l-1.3-0.7c-6.4-3.3-14.1-2.8-20,1.4c-0.8,0.6-1.9,0.4-2.4-0.4
			c-0.6-0.8-0.4-1.9,0.4-2.4c6.9-4.9,16-5.6,23.6-1.6l1.3,0.7c1.8,0.9,3.7,1.4,5.7,1.5l12.6,0.3c2.9,0.1,5.7,1.3,7.8,3.5
			c2,2.1,3.1,5,3,7.9C72.6,76.2,71.8,77,70.9,77L70.9,77z"/>
		<path class="st11" d="M18.9,86.3l-0.1,2.5L5,88.4l0.8-30.3l13.8,0.4l-0.2,6L18.9,86.3z"/>
		<path class="st12" d="M11.9,86.3l0,2.5L5,88.4l0.4-30.3l6.9,0.4l-0.1,6L11.9,86.3z"/>
	</g>
</g>
<g id="Layer_10" class="st0">
	<g class="st1">
		<path class="st11" d="M13.4,50c0-14.1,0-28.1,0-42.2C13.4,5.6,14,5,16.1,5c17.4,0,34.8,0,52.1,0c0.8,0,1.1,0.1,1,1
			c-0.1,3.4,0,6.8,0,10.2c0,3.8,2.4,6.2,6.2,6.2c3.5,0,6.9,0,10.4,0c0.6,0,0.8,0.1,0.8,0.8c0,23.2,0,46.4,0,69.6
			c0,1.6-0.7,2.3-2.6,2.3c-21.6,0-43.2,0-64.8,0c-1,0-2.1,0-3.1,0c-2.1,0-2.7-0.6-2.7-2.7C13.4,78.2,13.4,64.1,13.4,50z M50.4,31.8
			c0-5.3,0-10.5,0-15.8c0-2-0.6-2.6-2.5-2.6c-8.9,0-17.8,0-26.7,0c-1.8,0-2.5,0.6-2.5,2.4c0,10.5,0,21.1,0,31.6
			c0,1.9,0.6,2.5,2.5,2.5c8.9,0,17.8,0,26.7,0c1.9,0,2.6-0.6,2.6-2.6C50.4,42.2,50.4,37,50.4,31.8z M50.2,59.2c9.5,0,18.9,0,28.4,0
			c0.3,0,0.7,0,1,0c1-0.1,1.7-0.9,1.7-1.9c0-1-0.7-1.7-1.7-1.9c-0.3,0-0.6,0-1,0c-19,0-37.9,0-56.9,0c-0.5,0-1,0-1.4,0.2
			c-0.8,0.3-1.2,0.9-1.2,1.7c0,0.8,0.4,1.5,1.2,1.8c0.5,0.2,0.9,0.2,1.4,0.2C31.2,59.2,40.7,59.2,50.2,59.2z M50.2,77.5
			c9.5,0,18.9,0,28.4,0c0.3,0,0.7,0,1,0c1-0.2,1.7-0.9,1.7-1.9c0-1-0.7-1.7-1.7-1.9c-0.2,0-0.5,0-0.8,0c-19.1,0-38.1,0-57.2,0
			c-0.4,0-0.9,0-1.3,0.2c-0.8,0.3-1.2,0.9-1.2,1.7c0,0.8,0.4,1.5,1.2,1.8c0.5,0.2,0.9,0.2,1.4,0.2C31.2,77.5,40.7,77.5,50.2,77.5z
			 M50.1,64.5c-9.4,0-18.8,0-28.2,0c-1.8,0-2.7,0.7-2.7,2c0,1.2,0.9,1.9,2.7,1.9c18.7,0,37.5,0,56.2,0c0.5,0,1,0,1.5-0.2
			c0.8-0.3,1.2-0.9,1.2-1.7c0-0.8-0.4-1.5-1.2-1.8c-0.5-0.2-0.9-0.2-1.4-0.2C68.8,64.5,59.5,64.5,50.1,64.5z M46.3,86.6
			c8.3,0,16.6,0,25,0c1.5,0,2.4-0.7,2.4-1.9c0-1.2-0.9-1.9-2.4-1.9c-0.1,0-0.2,0-0.3,0c-16.4,0-32.8,0-49.2,0c-0.4,0-0.9,0-1.3,0.1
			c-0.9,0.3-1.3,1-1.3,1.8c0,0.8,0.4,1.4,1.3,1.7c0.4,0.2,0.9,0.1,1.3,0.1C29.9,86.6,38.1,86.6,46.3,86.6z M68.3,40.9
			c3.5,0,6.9,0,10.4,0c1.3,0,2.1-0.8,2.1-1.9c0-1-0.8-1.9-1.9-1.9c-7.1,0-14.1,0-21.2,0c-0.2,0-0.5,0.1-0.7,0.2
			c-0.8,0.3-1.2,0.9-1.2,1.7c0,0.8,0.4,1.5,1.2,1.8c0.4,0.2,0.9,0.2,1.3,0.2C61.6,40.9,65,40.9,68.3,40.9z M68.6,46.2
			c-3.4,0-6.7,0-10.1,0c-1.3,0-2.1,0.8-2.1,1.9c0,1.1,0.8,1.9,1.9,1.9c6.9,0,13.7,0,20.6,0c0.2,0,0.5-0.1,0.7-0.2
			c0.8-0.3,1.2-0.9,1.2-1.7c0-0.8-0.4-1.5-1.2-1.8c-0.4-0.2-0.8-0.2-1.2-0.2C75.1,46.2,71.8,46.2,68.6,46.2z M72,31.7
			c2.3,0,4.5,0,6.8,0c1.2,0,2.1-0.8,2-1.9c0-1.1-0.8-1.9-2-1.9c-4.5,0-8.9,0-13.4,0c-0.9,0-1.6,0.4-1.9,1.3c-0.4,1.3,0.5,2.5,2,2.5
			C67.7,31.7,69.8,31.7,72,31.7z M59.5,29.8c0-1-0.8-1.9-1.8-1.9c-1,0-2,0.9-2,1.9c0,1,0.9,1.9,1.9,1.9
			C58.7,31.7,59.5,30.9,59.5,29.8z M77.5,84.6c0,1,0.8,1.9,1.8,2c1,0.1,1.9-0.8,2-1.8c0.1-1.1-0.8-2-1.8-2
			C78.5,82.8,77.6,83.6,77.5,84.6z"/>
		<path class="st12" d="M69.1,5.3c5.7,5.7,11.3,11.4,17.1,17.1c-2.2,0-4.4,0-6.5,0c-2.4,0-4.9,0-7.3,0c-1.9,0-3.2-1.1-3.2-2.9
			C69.1,14.7,69.1,10,69.1,5.3z"/>
		<path class="st12" d="M50.4,31.8c0,5.2,0,10.4,0,15.6c0,2-0.6,2.6-2.6,2.6c-8.9,0-17.8,0-26.7,0c-1.9,0-2.5-0.6-2.5-2.5
			c0-10.5,0-21.1,0-31.6c0-1.8,0.7-2.4,2.5-2.4c8.9,0,17.8,0,26.7,0c1.9,0,2.5,0.6,2.5,2.6C50.4,21.3,50.4,26.5,50.4,31.8z
			 M46.6,35.6c0-6.1,0-11.9,0-17.7c0-0.7-0.3-0.7-0.8-0.7c-7.5,0-15,0-22.5,0c-0.7,0-0.8,0.2-0.8,0.9c0,5.6,0,11.2,0,16.8
			c0,0.2-0.1,0.4,0.1,0.7c1.7-1.5,3.6-2.4,5.8-2.8c-0.9-1.8-0.9-3.6-0.7-5.4c0.3-2.9,2.7-5.4,5.5-5.8c3-0.5,5.9,0.9,7.2,3.5
			c1.2,2.3,1.2,4.7,0.4,7.2c-0.1,0.3-0.4,0.6,0.2,0.7C43.1,33.2,44.8,34.2,46.6,35.6z M34.5,46.2c3.3,0,6.6,0,9.9,0
			c2.3,0,2.3,0,2.1-2.3c-0.3-3.9-3.1-7-6.9-7.4c-3.3-0.4-6.6-0.2-9.9-0.1c-1.4,0.1-2.7,0.6-3.9,1.4c-2.5,1.8-3.5,4.4-3.4,7.4
			c0,0.7,0.1,1,0.9,1C27.1,46.2,30.8,46.2,34.5,46.2z M37.6,28.8c0-0.3,0-0.6,0-1c-0.2-1.2-1.1-2.3-2.2-2.6
			c-1.2-0.3-2.5,0.1-3.3,1.2c-0.8,1.1-0.8,3.6-0.1,4.7c0.7,1,1.7,1.5,3,1.3c1.2-0.2,2.1-0.9,2.5-2.1C37.6,29.8,37.6,29.3,37.6,28.8z
			"/>
		<path class="st12" d="M50.2,59.2c-9.5,0-18.9,0-28.4,0c-0.5,0-1,0-1.4-0.2c-0.8-0.3-1.2-1-1.2-1.8c0-0.8,0.4-1.4,1.2-1.7
			c0.5-0.2,0.9-0.2,1.4-0.2c19,0,37.9,0,56.9,0c0.3,0,0.6,0,1,0c1,0.2,1.7,0.9,1.7,1.9c0,1-0.7,1.7-1.7,1.9c-0.3,0.1-0.7,0-1,0
			C69.1,59.2,59.6,59.2,50.2,59.2z"/>
		<path class="st12" d="M50.2,77.5c-9.5,0-18.9,0-28.4,0c-0.5,0-1,0-1.4-0.2c-0.8-0.3-1.2-1-1.2-1.8c0-0.8,0.4-1.4,1.2-1.7
			c0.4-0.2,0.9-0.2,1.3-0.2c19.1,0,38.1,0,57.2,0c0.3,0,0.5,0,0.8,0c1,0.2,1.7,0.9,1.7,1.9c0,1-0.7,1.7-1.7,1.9c-0.3,0.1-0.7,0-1,0
			C69.1,77.5,59.6,77.5,50.2,77.5z"/>
		<path class="st12" d="M50.1,64.5c9.4,0,18.7,0,28.1,0c0.5,0,1,0,1.4,0.2c0.8,0.3,1.2,1,1.2,1.8c0,0.8-0.4,1.4-1.2,1.7
			c-0.5,0.2-1,0.2-1.5,0.2c-18.7,0-37.5,0-56.2,0c-1.8,0-2.7-0.6-2.7-1.9c0-1.3,0.9-2,2.7-2C31.3,64.5,40.7,64.5,50.1,64.5z"/>
		<path class="st12" d="M46.3,86.6c-8.2,0-16.3,0-24.5,0c-0.4,0-0.9,0-1.3-0.1c-0.8-0.3-1.2-0.9-1.3-1.7c0-0.9,0.4-1.5,1.3-1.8
			c0.4-0.2,0.9-0.1,1.3-0.1c16.4,0,32.8,0,49.2,0c0.1,0,0.2,0,0.3,0c1.5,0,2.4,0.8,2.4,1.9c0,1.2-0.9,1.9-2.4,1.9
			C62.9,86.6,54.6,86.6,46.3,86.6z"/>
		<path class="st12" d="M68.3,40.9c-3.3,0-6.7,0-10,0c-0.4,0-0.9,0-1.3-0.2c-0.8-0.3-1.2-1-1.2-1.8c0-0.8,0.4-1.4,1.2-1.7
			c0.2-0.1,0.5-0.2,0.7-0.2c7.1,0,14.1,0,21.2,0c1.2,0,2,0.9,1.9,1.9c0,1.1-0.9,1.8-2.1,1.9C75.2,40.9,71.8,40.9,68.3,40.9z"/>
		<path class="st12" d="M68.6,46.2c3.3,0,6.5,0,9.8,0c0.4,0,0.8,0,1.2,0.2c0.8,0.3,1.2,1,1.2,1.8c0,0.8-0.4,1.4-1.2,1.7
			c-0.2,0.1-0.5,0.2-0.7,0.2c-6.9,0-13.7,0-20.6,0c-1.2,0-2-0.9-1.9-1.9c0-1.1,0.8-1.9,2.1-1.9C61.8,46.2,65.2,46.2,68.6,46.2z"/>
		<path class="st12" d="M72,31.7c-2.2,0-4.3,0-6.5,0c-1.5,0-2.5-1.2-2-2.5c0.3-0.9,1-1.3,1.9-1.3c4.5,0,8.9,0,13.4,0
			c1.2,0,2,0.8,2,1.9c0,1.1-0.8,1.9-2,1.9C76.5,31.7,74.3,31.7,72,31.7z"/>
		<path class="st12" d="M59.5,29.8c0,1-0.9,1.9-1.9,1.9c-1,0-1.9-0.9-1.9-1.9c0-1,1-1.9,2-1.9C58.7,27.9,59.6,28.8,59.5,29.8z"/>
		<path class="st12" d="M77.5,84.6c0-1,1-1.9,1.9-1.8c1.1,0,1.9,1,1.8,2c-0.1,1-1,1.8-2,1.8C78.3,86.5,77.5,85.6,77.5,84.6z"/>
		<path class="st11" d="M46.5,35.6c-1.7-1.5-3.5-2.4-5.6-2.9c-0.6-0.1-0.3-0.4-0.2-0.7c0.8-2.4,0.9-4.9-0.4-7.2
			c-1.4-2.6-4.3-3.9-7.2-3.5c-2.8,0.5-5.2,2.9-5.5,5.8c-0.2,1.8-0.2,3.6,0.7,5.4c-2.2,0.5-4.2,1.4-5.8,2.8c-0.2-0.2-0.1-0.5-0.1-0.7
			c0-5.6,0-11.2,0-16.8c0-0.6,0.1-0.9,0.8-0.9c7.5,0,15,0,22.5,0c0.5,0,0.8,0,0.8,0.7C46.5,23.7,46.5,29.6,46.5,35.6z"/>
		<path class="st8" d="M34.5,46.6c-4,0-8,0-12,0c-0.8,0-1-0.3-1-1c-0.1-3.3,1-6,3.7-8c1.2-0.9,2.6-1.5,4.1-1.6
			c3.5-0.1,7.1-0.3,10.6,0.1c4.1,0.4,7.2,3.8,7.4,8c0.2,2.5,0.2,2.5-2.3,2.5C41.6,46.6,38.1,46.6,34.5,46.6z"/>
		<path class="st9" d="M38.7,28.8c0,0.7,0,1.4-0.2,2.1c-0.5,1.7-1.7,2.7-3.4,2.9c-1.7,0.3-3.1-0.4-4.1-1.8c-1.1-1.6-1-5,0.1-6.5
			c1-1.4,2.8-2.1,4.6-1.6c1.6,0.4,2.8,1.9,3,3.6C38.8,27.9,38.7,28.4,38.7,28.8z"/>
	</g>
</g>
<g id="Layer_11">
	<g>
		<g>
			<path class="st8" d="M83.4,5c-2.6,0-4.7,2.1-4.7,4.7v1.6H88V9.7C88,7.1,85.9,5,83.4,5z"/>
			<rect x="78.7" y="37.6" class="st8" width="9.3" height="46.6"/>
		</g>
		<polygon class="st13" points="78.7,84.1 88,84.1 83.4,93.4 		"/>
		<rect x="4.2" y="11.2" class="st11" width="68.3" height="83.8"/>
		<path class="st12" d="M4.2,84.1V95h68.3V46.4C57.7,69.9,32,84.1,4.2,84.1z"/>
		<g>
			<rect x="18.2" y="5" class="st12" width="40.3" height="6.2"/>
			<path class="st12" d="M57,22.1H41.5c-0.9,0-1.6-0.7-1.6-1.6c0-0.9-0.7-1.6-1.6-1.6c-0.9,0-1.6,0.7-1.6,1.6c0,0.9-0.7,1.6-1.6,1.6
				H19.7c-0.9,0-1.6-0.7-1.6-1.6v-9.3h3.1V19H34c0.9-2.4,3.5-3.7,5.9-2.8c1.3,0.5,2.4,1.5,2.8,2.8h12.7v-7.8h3.1v9.3
				C58.5,21.4,57.8,22.1,57,22.1z"/>
		</g>
		<circle class="st12" cx="18.2" cy="31.4" r="4.7"/>
		<circle class="st12" cx="18.2" cy="46.9" r="4.7"/>
		<g>
			<path class="st12" d="M63.2,29.8H41.5c-0.9,0-1.6-0.7-1.6-1.6s0.7-1.6,1.6-1.6h21.7c0.9,0,1.6,0.7,1.6,1.6
				C64.7,29.1,64,29.8,63.2,29.8z"/>
			<path class="st12" d="M35.3,29.8h-6.2c-0.9,0-1.6-0.7-1.6-1.6s0.7-1.6,1.6-1.6h6.2c0.9,0,1.6,0.7,1.6,1.6
				C36.8,29.1,36.1,29.8,35.3,29.8z"/>
			<path class="st12" d="M63.2,36H50.8c-0.9,0-1.6-0.7-1.6-1.6c0-0.9,0.7-1.6,1.6-1.6h12.4c0.9,0,1.6,0.7,1.6,1.6
				C64.7,35.3,64,36,63.2,36z"/>
			<path class="st12" d="M44.6,36H29.1c-0.9,0-1.6-0.7-1.6-1.6c0-0.9,0.7-1.6,1.6-1.6h15.5c0.9,0,1.6,0.7,1.6,1.6
				C46.1,35.3,45.4,36,44.6,36z"/>
			<path class="st12" d="M63.2,45.3H57c-0.9,0-1.6-0.7-1.6-1.6c0-0.9,0.7-1.6,1.6-1.6h6.2c0.9,0,1.6,0.7,1.6,1.6
				C64.7,44.6,64,45.3,63.2,45.3z"/>
			<path class="st12" d="M50.8,45.3H29.1c-0.9,0-1.6-0.7-1.6-1.6c0-0.9,0.7-1.6,1.6-1.6h21.7c0.9,0,1.6,0.7,1.6,1.6
				C52.3,44.6,51.6,45.3,50.8,45.3z"/>
			<path class="st12" d="M63.2,51.6H46.1c-0.9,0-1.6-0.7-1.6-1.6s0.7-1.6,1.6-1.6h17.1c0.9,0,1.6,0.7,1.6,1.6S64,51.6,63.2,51.6z"/>
			<path class="st12" d="M39.9,51.6H29.1c-0.9,0-1.6-0.7-1.6-1.6s0.7-1.6,1.6-1.6h10.9c0.9,0,1.6,0.7,1.6,1.6S40.8,51.6,39.9,51.6z"
				/>
		</g>
		<path class="st9" d="M94.2,34.5c-0.9,0-1.6-0.7-1.6-1.6V19c0-2.6-2.1-4.7-4.7-4.7c-0.9,0-1.6-0.7-1.6-1.6c0-0.9,0.7-1.6,1.6-1.6
			c4.3,0,7.8,3.5,7.8,7.8v14C95.8,33.8,95.1,34.5,94.2,34.5z"/>
		<rect x="78.7" y="11.2" class="st13" width="9.3" height="26.4"/>
		<path class="st9" d="M39.2,85c3.4-2.9,5.4-7.2,5.4-11.7H27.5L39.2,85z"/>
		<g>
			<path class="st8" d="M27.5,73.3h17.1c0-8.6-6.9-15.6-15.5-15.6s-15.6,6.9-15.6,15.5c0,8.6,6.9,15.6,15.5,15.6
				c3.8,0,7.4-1.3,10.2-3.8L27.5,73.3z"/>
		</g>
		<path class="st14" d="M39.2,85c3.4-2.9,5.3-7.2,5.4-11.7c-3.7,2.1-7.5,4-11.5,5.5L39.2,85z"/>
		<path class="st14" d="M88,84.1v-6.2c0,2.2-0.7,4.4-2,6.2H88z"/>
		<path class="st8" d="M80.7,88.2l2.6,5.3l4.7-9.3h-2C84.8,86,82.9,87.4,80.7,88.2z"/>
		<path class="st9" d="M81.8,91.9c0,0.9,0.7,1.6,1.6,1.6s1.6-0.7,1.6-1.6v-1.6h-3.1L81.8,91.9L81.8,91.9z"/>
		<path class="st14" d="M88,11.2L88,11.2l0-1.6C88,7.1,85.9,5,83.4,5c-1,0-1.9,0.3-2.7,0.9C83.6,6.9,86.1,8.7,88,11.2z"/>
	</g>
</g>
</svg>
