<svg xmlns="http://www.w3.org/2000/svg" width="38.361" height="46.229" viewBox="0 0 38.361 46.229">
  <g id="Group_22" data-name="Group 22" transform="translate(-761 -348.771)">
    <path id="Subtraction_2" data-name="Subtraction 2" d="M21.639,57.049H.984A.985.985,0,0,1,0,56.065V14.754a.984.984,0,0,1,.984-.983h.984V54.1a.981.981,0,0,0,.672.933.984.984,0,0,0,1.1-.343L5.9,51.8l2.17,2.888a.983.983,0,0,0,1.573,0L11.8,51.8l2.164,2.884a1.019,1.019,0,0,0,1.574,0L17.7,51.8l2.164,2.884a.979.979,0,0,0,.615.378,9.839,9.839,0,0,0,1.154,1.981Zm-6.88-4.588h0L12.6,49.575a1.019,1.019,0,0,0-1.574,0L8.859,52.46l-2.17-2.886a1.021,1.021,0,0,0-1.574,0l-1.18,1.574V13.771H31.476V41.509a9.931,9.931,0,0,0-3.935,0V40.328H23.607V42.3h1.609a9.911,9.911,0,0,0-3.576,2.95v-.983H7.869v1.967h13.12a9.832,9.832,0,0,0-1.316,4.913L18.5,49.575a.984.984,0,0,0-1.574,0L14.759,52.46ZM7.869,40.328V42.3H21.64V40.328Zm15.738-3.935v1.967h3.934V36.393Zm-15.738,0v1.967H21.64V36.393Zm5.9-7.869a2.954,2.954,0,0,0,2.95,2.951v1.966h1.967V31.476a2.951,2.951,0,0,0,0-5.9H16.721a.983.983,0,1,1,0-1.966h1.967a.984.984,0,0,1,.984.983H21.64a2.954,2.954,0,0,0-2.951-2.95V19.672H16.721V21.64a2.951,2.951,0,0,0,0,5.9h1.967a.984.984,0,0,1,0,1.967H16.721a.985.985,0,0,1-.984-.984ZM35.41,43.278h0a9.836,9.836,0,0,0-1.966-1.147V13.771h.984a.984.984,0,0,1,.984.983V43.278Z" transform="translate(761 335)" fill="#8596ca"/>
    <circle id="Ellipse_11" data-name="Ellipse 11" cx="8.852" cy="8.852" r="8.852" transform="translate(781.656 377.295)" fill="#8596ca"/>
    <circle id="Ellipse_12" data-name="Ellipse 12" cx="7.377" cy="7.377" r="7.377" transform="translate(783.131 378.77)" fill="#fff"/>
    <path id="Path_72" data-name="Path 72" d="M104.773,49.232h-4.434V44.388a.639.639,0,0,0-1.278,0v5.483a.639.639,0,0,0,.639.639h5.073a.639.639,0,1,0,0-1.278Z" transform="translate(690.015 337.373)" fill="#8596ca"/>
  </g>
</svg>
