<?xml version="1.0" encoding="utf-8"?>
<!-- Generator: Adobe Illustrator 23.0.3, SVG Export Plug-In . SVG Version: 6.00 Build 0)  -->
<svg version="1.1" xmlns="http://www.w3.org/2000/svg" xmlns:xlink="http://www.w3.org/1999/xlink" x="0px" y="0px" width="100px"
	 height="100px" viewBox="0 0 100 100" style="enable-background:new 0 0 100 100;" xml:space="preserve">
<style type="text/css">
	.st0{display:none;}
	.st1{display:inline;}
	.st2{fill:#8797CA;}
	.st3{fill:#F7911E;}
	.st4{fill:#566181;}
	.st5{fill:#FEDC0E;}
	.st6{fill:#F7941D;}
</style>
<g id="Layer_1" class="st0">
	<g class="st1">
		<path class="st2" d="M89.3,10.6v10H71.7v-10c0-4.8,3.9-8.8,8.8-8.8h0C85.4,1.8,89.3,5.7,89.3,10.6L89.3,10.6z"/>
		<path class="st3" d="M55.7,67.5c3.6-5.3,9.6-8.4,16-8.5c0.1,0,0.1,0,0.2,0c10.8,0,19.6,8.8,19.6,19.6c0,10.8-8.8,19.6-19.6,19.6
			c-10.8,0-19.6-8.8-19.6-19.6C52.3,74.6,53.5,70.7,55.7,67.5L55.7,67.5z"/>
		<path class="st4" d="M55.7,67.5c-4.1,5.9-4.6,13.6-1.4,20c-18.7,0-45.9,0-45.9,0l0.4-77.3c0-4.6,3.8-8.3,8.4-8.3h63.2
			c-4.8,0-8.8,3.9-8.8,8.8V59C65.3,59,59.4,62.2,55.7,67.5L55.7,67.5z"/>
		<path class="st2" d="M39.9,13.4c7.9,0,14.2,6.4,14.2,14.2c0,7.9-6.4,14.2-14.2,14.2s-14.2-6.4-14.2-14.2c0,0,0,0,0,0
			C25.7,19.7,32.1,13.4,39.9,13.4z"/>
		<path class="st4" d="M39.9,26.8c-1.4,0-2.5-1.1-2.5-2.5c0-1.4,1.1-2.5,2.5-2.5c1.4,0,2.5,1.1,2.5,2.5v0c0,0.7,0.5,1.2,1.2,1.2
			c0.7,0,1.2-0.5,1.2-1.2c0-2.3-1.7-4.4-4-4.8v-0.9c0-0.7-0.5-1.2-1.2-1.2c-0.7,0-1.2,0.5-1.2,1.2v1c-2.6,0.8-4,3.6-3.1,6.1
			c0.7,2,2.5,3.4,4.6,3.4c1.4,0,2.5,1.1,2.5,2.5c0,1.4-1.1,2.5-2.5,2.5c-1.4,0-2.5-1.1-2.5-2.5c0-0.7-0.5-1.2-1.2-1.2
			c-0.7,0-1.2,0.5-1.2,1.2c0,2.3,1.6,4.2,3.8,4.8v1.2c0,0.7,0.5,1.2,1.2,1.2s1.2-0.5,1.2-1.2v-1.2c2.6-0.7,4.1-3.4,3.4-6
			C44.1,28.3,42.1,26.8,39.9,26.8L39.9,26.8z"/>
		<g>
			<path class="st2" d="M63.8,52.7H16.5c-0.7,0-1.2-0.5-1.2-1.2c0-0.7,0.5-1.2,1.2-1.2h47.3c0.7,0,1.2,0.5,1.2,1.2
				C65,52.2,64.4,52.7,63.8,52.7z"/>
			<path class="st2" d="M63.8,60.7H16.5c-0.7,0-1.2-0.5-1.2-1.2c0-0.7,0.5-1.2,1.2-1.2h47.3c0.7,0,1.2,0.5,1.2,1.2
				C65,60.1,64.4,60.7,63.8,60.7z"/>
			<path class="st2" d="M55.8,68.7H16.5c-0.7,0-1.2-0.5-1.2-1.2c0-0.7,0.5-1.2,1.2-1.2h39.3c0.7,0,1.2,0.5,1.2,1.2
				C57,68.1,56.4,68.7,55.8,68.7z"/>
			<path class="st2" d="M52.5,76.6h-36c-0.7,0-1.2-0.5-1.2-1.2c0-0.7,0.5-1.2,1.2-1.2h36c0.7,0,1.2,0.5,1.2,1.2
				C53.7,76.1,53.1,76.6,52.5,76.6z"/>
		</g>
		<path class="st5" d="M69.2,86.5L69.2,86.5c-0.5,0-0.9-0.2-1.2-0.5l-7-7.1c-0.7-0.7-0.6-1.8,0-2.4c0.7-0.7,1.7-0.6,2.4,0l5.8,5.8
			l11.3-11.3c0.7-0.7,1.7-0.7,2.4,0c0.7,0.7,0.7,1.7,0,2.4l0,0L70.4,86C70,86.3,69.6,86.5,69.2,86.5L69.2,86.5z"/>
	</g>
</g>
<g id="Layer_2" class="st0">
	<g class="st1">
		<path class="st4" d="M94.9,38.9l0.4-0.5l0.7,0.5v53.9c0,1.7-1.4,3.2-3.2,3.2H7.2C5.4,96,4,94.6,4,92.8V38.9l0.7-0.5l0.4,0.5H94.9z
			"/>
		<path class="st2" d="M95.3,38.4l-0.4,0.5L51.6,72.2h-3.2L5.1,38.9l-0.4-0.5l15.2-11.8l20.9-16.2l7.3-5.7c1.1-0.9,2.7-0.9,3.8,0
			l7.3,5.7l20.9,16.2L95.3,38.4z"/>
		<path class="st3" d="M80.1,13.5v36.8L51.6,72.2h-3.2L19.9,50.3V13.5c0-1.7,1.4-3.2,3.2-3.2H77C78.7,10.4,80.1,11.8,80.1,13.5z"/>
		<g>
			<path class="st5" d="M34.1,23h31.7c0.9,0,1.6-0.7,1.6-1.6c0-0.9-0.7-1.6-1.6-1.6H34.1c-0.9,0-1.6,0.7-1.6,1.6
				C32.6,22.3,33.3,23,34.1,23z"/>
			<path class="st5" d="M65.9,29.4H34.1c-0.9,0-1.6,0.7-1.6,1.6s0.7,1.6,1.6,1.6h31.7c0.9,0,1.6-0.7,1.6-1.6S66.7,29.4,65.9,29.4z"
				/>
			<path class="st5" d="M65.9,38.9H51.6c-0.9,0-1.6,0.7-1.6,1.6s0.7,1.6,1.6,1.6h14.3c0.9,0,1.6-0.7,1.6-1.6S66.7,38.9,65.9,38.9z"
				/>
		</g>
		<path class="st2" d="M95.4,94.7c-0.6,0.8-1.5,1.3-2.6,1.3H7.2c-1,0-2-0.5-2.6-1.3L41,66.5l7.1-5.5c1.1-0.9,2.7-0.9,3.8,0l7.1,5.5
			L95.4,94.7z"/>
	</g>
</g>
<g id="Layer_4">
	<g>
		<path class="st4" d="M62.5,7.2H9.9V96h72.4V26.9H62.5V7.2z"/>
		<path class="st2" d="M8.7,4h26.8c1.3,0,2.4,1.1,2.4,2.4v34.1c0,1.3-1.1,2.4-2.4,2.4H8.7c-1.3,0-2.4-1.1-2.4-2.4V6.4
			C6.3,5.1,7.4,4,8.7,4z"/>
		<path class="st2" d="M62.5,26.9h19.7L62.5,7.2V26.9z"/>
		<path class="st4" d="M10,7.6h24.3v6.1H10V7.6z"/>
		<g>
			<path class="st4" d="M12.4,17.4h2.4c0.7,0,1.2,0.5,1.2,1.2V21c0,0.7-0.5,1.2-1.2,1.2h-2.4c-0.7,0-1.2-0.5-1.2-1.2v-2.4
				C11.2,17.9,11.7,17.4,12.4,17.4z"/>
			<path class="st4" d="M20.9,17.4h2.4c0.7,0,1.2,0.5,1.2,1.2V21c0,0.7-0.5,1.2-1.2,1.2h-2.4c-0.7,0-1.2-0.5-1.2-1.2v-2.4
				C19.7,17.9,20.2,17.4,20.9,17.4z"/>
			<path class="st4" d="M29.4,17.4h2.4c0.7,0,1.2,0.5,1.2,1.2V21c0,0.7-0.5,1.2-1.2,1.2h-2.4c-0.7,0-1.2-0.5-1.2-1.2v-2.4
				C28.2,17.9,28.7,17.4,29.4,17.4z"/>
			<path class="st4" d="M12.4,25.9h2.4c0.7,0,1.2,0.5,1.2,1.2v2.4c0,0.7-0.5,1.2-1.2,1.2h-2.4c-0.7,0-1.2-0.5-1.2-1.2v-2.4
				C11.2,26.4,11.7,25.9,12.4,25.9z"/>
			<path class="st4" d="M20.9,25.9h2.4c0.7,0,1.2,0.5,1.2,1.2v2.4c0,0.7-0.5,1.2-1.2,1.2h-2.4c-0.7,0-1.2-0.5-1.2-1.2v-2.4
				C19.7,26.4,20.2,25.9,20.9,25.9z"/>
			<path class="st4" d="M29.4,25.9h2.4c0.7,0,1.2,0.5,1.2,1.2v2.4c0,0.7-0.5,1.2-1.2,1.2h-2.4c-0.7,0-1.2-0.5-1.2-1.2v-2.4
				C28.2,26.4,28.7,25.9,29.4,25.9z"/>
			<path class="st4" d="M12.4,34.4h2.4c0.7,0,1.2,0.5,1.2,1.2v2.4c0,0.7-0.5,1.2-1.2,1.2h-2.4c-0.7,0-1.2-0.5-1.2-1.2v-2.4
				C11.2,35,11.7,34.4,12.4,34.4z"/>
			<path class="st4" d="M20.9,34.4h2.4c0.7,0,1.2,0.5,1.2,1.2v2.4c0,0.7-0.5,1.2-1.2,1.2h-2.4c-0.7,0-1.2-0.5-1.2-1.2v-2.4
				C19.7,35,20.2,34.4,20.9,34.4z"/>
		</g>
		<path class="st5" d="M92.7,57.3c1.3-1.3,1.3-3.4,0-4.7c-1.3-1.3-3.4-1.3-4.7,0l-2.3,2.3l4.7,4.7L92.7,57.3z"/>
		<path class="st3" d="M59.9,80.8l-4,8.6l8.6-4l22.4-22.4l-4.7-4.7L59.9,80.8z"/>
		<path class="st6" d="M82.3,58.4l3.5-3.5l4.7,4.7l-3.5,3.5L82.3,58.4z"/>
		<path class="st3" d="M49.3,74.6c0,8.2-6.6,14.8-14.8,14.8s-14.8-6.6-14.8-14.8s6.6-14.8,14.8-14.8S49.3,66.4,49.3,74.6z"/>
		<path class="st4" d="M29.4,34.4h2.4c0.7,0,1.2,0.5,1.2,1.2v2.4c0,0.7-0.5,1.2-1.2,1.2h-2.4c-0.7,0-1.2-0.5-1.2-1.2v-2.4
			C28.2,35,28.7,34.4,29.4,34.4z"/>
		<path class="st5" d="M34.5,69.7c2,0,3.3,1,3.3,1.6h3.3c0-2.3-2.1-4.2-4.9-4.8v-1.8h-3.3v1.8C30,67.1,28,69,28,71.3
			c0,2.8,2.9,4.9,6.6,4.9c2,0,3.3,1,3.3,1.6c0,0.7-1.3,1.6-3.3,1.6s-3.3-1-3.3-1.6H28c0,2.3,2.1,4.2,4.9,4.8v1.8h3.3v-1.8
			c2.9-0.5,4.9-2.4,4.9-4.8c0-2.8-2.9-4.9-6.6-4.9c-2,0-3.3-1-3.3-1.6C31.2,70.7,32.5,69.7,34.5,69.7z"/>
		<path class="st2" d="M49.3,40.1h3.3v3.3h-3.3V40.1z"/>
		<path class="st2" d="M55.9,40.1h19.7v3.3H55.9V40.1z"/>
		<path class="st2" d="M49.3,33.5h3.3v3.3h-3.3V33.5z"/>
		<path class="st2" d="M55.9,33.5h19.7v3.3H55.9V33.5z"/>
		<path class="st2" d="M49.3,46.7h3.3v3.3h-3.3V46.7z"/>
		<path class="st2" d="M55.9,46.7h19.7v3.3H55.9V46.7z"/>
		<path class="st2" d="M49.3,53.2h3.3v3.3h-3.3V53.2z"/>
		<path class="st2" d="M55.9,53.2h19.7v3.3H55.9V53.2z"/>
	</g>
</g>
<g id="Layer_3" class="st0">
	<g class="st1">
		<path class="st4" d="M8.1,20.5h83.8c1.7,0,3.1,1.4,3.1,3.1v52.8c0,1.7-1.4,3.1-3.1,3.1H8.1c-1.7,0-3.1-1.4-3.1-3.1V23.6
			C5,21.9,6.4,20.5,8.1,20.5z"/>
		<g>
			<path class="st3" d="M26.7,31.4h3.1c3.4,0,6.2,2.8,6.2,6.2v6.2c0,3.4-2.8,6.2-6.2,6.2h-3.1c-3.4,0-6.2-2.8-6.2-6.2v-6.2
				C20.5,34.2,23.3,31.4,26.7,31.4z"/>
			<path class="st3" d="M33.4,70.2h7.3v-7.8c0.1-3.3-2.5-6.1-5.8-6.2H21.7c-3.3,0.1-5.9,2.9-5.8,6.2v7.8H33.4z"/>
		</g>
		<rect x="48.4" y="20.5" class="st2" width="3.1" height="59"/>
		<g>
			<path class="st5" d="M57.8,34.5h27.9c0.9,0,1.6-0.7,1.6-1.6c0-0.9-0.7-1.6-1.6-1.6H57.8c-0.9,0-1.6,0.7-1.6,1.6
				C56.2,33.8,56.9,34.5,57.8,34.5z"/>
			<path class="st5" d="M85.7,40.7H57.8c-0.9,0-1.6,0.7-1.6,1.6c0,0.9,0.7,1.6,1.6,1.6h27.9c0.9,0,1.6-0.7,1.6-1.6
				C87.2,41.4,86.5,40.7,85.7,40.7z"/>
			<path class="st5" d="M85.7,50H57.8c-0.9,0-1.6,0.7-1.6,1.6c0,0.9,0.7,1.6,1.6,1.6h27.9c0.9,0,1.6-0.7,1.6-1.6
				C87.2,50.7,86.5,50,85.7,50z"/>
			<path class="st5" d="M85.7,59.3h-14c-0.9,0-1.6,0.7-1.6,1.6c0,0.9,0.7,1.6,1.6,1.6h14c0.9,0,1.6-0.7,1.6-1.6
				C87.2,60,86.5,59.3,85.7,59.3z"/>
		</g>
	</g>
</g>
</svg>
