<svg xmlns="http://www.w3.org/2000/svg" width="17.875" height="21.438" viewBox="0 0 17.875 21.438">
  <defs>
    <style>
      .cls-1 {
        fill: #8596ca;
        fill-rule: evenodd;
      }
    </style>
  </defs>
  <path class="cls-1" d="M56.221,622.71H55.584v15.4a1.875,1.875,0,0,1-1.888,1.856H42.1v0.571a1.2,1.2,0,0,0,1.2,1.184H56.219a1.2,1.2,0,0,0,1.2-1.184V623.894A1.193,1.193,0,0,0,56.221,622.71Zm-8.985,16.58h6.458a1.2,1.2,0,0,0,1.2-1.184V621.467a1.2,1.2,0,0,0-1.2-1.184h-8.6v0.392a1.136,1.136,0,0,1,.007.125v3.244a1.684,1.684,0,0,1-1.7,1.667H40.1c-0.034,0-.071,0-0.1,0H39.576v12.4a1.2,1.2,0,0,0,1.2,1.184h6.455Zm0.244-4.024H43.27a0.56,0.56,0,1,1,0-1.119h4.212A0.56,0.56,0,1,1,47.48,635.266Zm4.213-2.856H43.27a0.56,0.56,0,1,1,0-1.119h8.423A0.56,0.56,0,1,1,51.692,632.41Zm-8.423-4.152h8.423a0.56,0.56,0,1,1,0,1.119H43.27A0.56,0.56,0,1,1,43.27,628.258ZM40.1,625.04h3.308a1,1,0,0,0,1-.985V620.8a0.5,0.5,0,0,0-.51-0.5,0.5,0.5,0,0,0-.355.148l-3.8,3.74A0.5,0.5,0,0,0,40.1,625.04Z" transform="translate(-39.563 -620.281)"/>
</svg>
