<svg xmlns="http://www.w3.org/2000/svg" width="23.75" height="17" viewBox="0 0 23.75 17">
  <defs>
    <style>
      .cls-1 {
        fill: #8596ca;
        fill-rule: evenodd;
      }
    </style>
  </defs>
  <path class="cls-1" d="M62.381,339.113v7.112s-1.539.3-1.857,0.34a2.224,2.224,0,0,1-2.029-.328c-1.11-1.052-5.055-4.932-5.055-4.932a1.512,1.512,0,0,0-1.773-.089c-1,.522-2.489,1.288-3.109,1.586a1.429,1.429,0,0,1-2.146-1.109,1.445,1.445,0,0,1,.888-1.261c1.415-.848,4.4-2.5,5.641-3.157,0.755-.4,1.3-0.431,2.337.433,1.277,1.062,2.414,2.03,2.414,2.03a1.191,1.191,0,0,0,.962.183C60.1,339.617,62.381,339.113,62.381,339.113Zm-15.7,12.051a1.29,1.29,0,0,0-.239-1.4,1.336,1.336,0,0,0-1.268-.317,1.272,1.272,0,0,0-.274-1.266,1.337,1.337,0,0,0-1.268-.317,1.269,1.269,0,0,0-.274-1.263,1.443,1.443,0,0,0-2,.052,1.675,1.675,0,0,0-.438,2.156,1.346,1.346,0,0,0,1.579.128,1.284,1.284,0,0,0-.039,1.454,1.349,1.349,0,0,0,1.58.129,1.313,1.313,0,0,0-.041,1.45,1.5,1.5,0,0,0,1.694.1c-0.19.484-.6,1-0.074,1.589s1.729,0.316,2.318-.24a1.379,1.379,0,0,0,.127-1.965A1.35,1.35,0,0,0,46.678,351.164Zm10.756-3.7c-4.261-4.214-2.257-2.231-4.55-4.5a1.5,1.5,0,0,0-1.6-.285c-0.638.277-1.459,0.653-2.076,0.941a3.442,3.442,0,0,1-1.4.459,2.368,2.368,0,0,1-2.377-2.348,2.334,2.334,0,0,1,1.125-1.988c0.947-.648,3.126-1.794,3.126-1.794a2.748,2.748,0,0,0-2.118-.832c-1.454,0-4.492,1.968-4.492,1.968a2.4,2.4,0,0,1-2.09.054l-2.368-.816v8.139s0.676,0.194,1.284.439a2.671,2.671,0,0,1,.666-1.039,2.642,2.642,0,0,1,3.6-.026,2.239,2.239,0,0,1,.567,1,2.3,2.3,0,0,1,.973.586,2.235,2.235,0,0,1,.568,1,2.314,2.314,0,0,1,.973.588,2.291,2.291,0,0,1,.6,1.09,2.316,2.316,0,0,1,1.644,2.653,0,0,0,0,1,0,0c0.009,0.011.342,0.378,0.549,0.585a1.055,1.055,0,0,0,1.477,0,1.029,1.029,0,0,0,0-1.461,8.989,8.989,0,0,1-1.349-1.632,14.748,14.748,0,0,1,2,1.822,1.056,1.056,0,0,0,1.476,0,1.027,1.027,0,0,0,0-1.46c-0.02-.019-0.1-0.1-0.134-0.129a10.131,10.131,0,0,1-1.694-1.753,16.742,16.742,0,0,1,2.422,1.963,1.051,1.051,0,0,0,1.434-.028,1.017,1.017,0,0,0,.052-1.382,11.656,11.656,0,0,1-1.6-1.941,10.365,10.365,0,0,1,1.85,1.608,1.056,1.056,0,0,0,1.476,0,1.029,1.029,0,0,0,0-1.461Z" transform="translate(-38.625 -337)"/>
</svg>
