<svg xmlns="http://www.w3.org/2000/svg" width="19.813" height="20.938" viewBox="0 0 19.813 20.938">
  <defs>
    <style>
      .cls-1 {
        fill: #8596ca;
        fill-rule: evenodd;
      }
    </style>
  </defs>
  <path class="cls-1" d="M47.252,566.582a0.468,0.468,0,0,0-.46-0.475h-1.6a0.468,0.468,0,0,0-.459.475v1.657a0.467,0.467,0,0,0,.459.475h1.6a0.467,0.467,0,0,0,.46-0.475v-1.657h0Zm4.009,0a0.468,0.468,0,0,0-.459-0.475H49.2a0.468,0.468,0,0,0-.459.475v1.657a0.467,0.467,0,0,0,.459.475h1.6a0.467,0.467,0,0,0,.459-0.475v-1.657Zm4.01,0a0.468,0.468,0,0,0-.459-0.475h-1.6a0.468,0.468,0,0,0-.46.475v1.657a0.467,0.467,0,0,0,.46.475h1.6a0.467,0.467,0,0,0,.459-0.475v-1.657Zm-8.019,4.143a0.467,0.467,0,0,0-.46-0.475h-1.6a0.467,0.467,0,0,0-.459.475v1.657a0.468,0.468,0,0,0,.459.475h1.6a0.468,0.468,0,0,0,.46-0.475v-1.657h0Zm4.009,0a0.467,0.467,0,0,0-.459-0.475H49.2a0.467,0.467,0,0,0-.459.475v1.657a0.468,0.468,0,0,0,.459.475h1.6a0.468,0.468,0,0,0,.459-0.475v-1.657Zm4.01,0a0.467,0.467,0,0,0-.459-0.475h-1.6a0.467,0.467,0,0,0-.46.475v1.657a0.468,0.468,0,0,0,.46.475h1.6a0.468,0.468,0,0,0,.459-0.475v-1.657h0Zm2.868-13.359V559.9a2.035,2.035,0,0,1-2.005,2.066H54.869a2.045,2.045,0,0,1-2.018-2.066v-2.541h-5.7V559.9a2.045,2.045,0,0,1-2.017,2.066H43.866A2.035,2.035,0,0,1,41.86,559.9v-2.532a1.857,1.857,0,0,0-1.763,1.875v14.836a1.856,1.856,0,0,0,1.815,1.887H58.087a1.858,1.858,0,0,0,1.815-1.887V559.241A1.857,1.857,0,0,0,58.14,557.366Zm-0.587,15.787a0.8,0.8,0,0,1-.785.811H43.2a0.8,0.8,0,0,1-.785-0.811V565.49a0.8,0.8,0,0,1,.785-0.812H56.767a0.8,0.8,0,0,1,.785.812v7.663h0ZM43.861,560.607h1.251a0.7,0.7,0,0,0,.688-0.71v-4.151a0.7,0.7,0,0,0-.688-0.71H43.861a0.7,0.7,0,0,0-.688.71V559.9A0.7,0.7,0,0,0,43.861,560.607Zm10.991,0H56.1a0.7,0.7,0,0,0,.688-0.71v-4.151a0.7,0.7,0,0,0-.688-0.71H54.853a0.7,0.7,0,0,0-.688.71V559.9A0.7,0.7,0,0,0,54.853,560.607Z" transform="translate(-40.094 -555.031)"/>
</svg>
