<?xml version="1.0" encoding="utf-8"?>
<!-- Generator: Adobe Illustrator 16.0.0, SVG Export Plug-In . SVG Version: 6.00 Build 0)  -->
<!DOCTYPE svg PUBLIC "-//W3C//DTD SVG 1.1//EN" "http://www.w3.org/Graphics/SVG/1.1/DTD/svg11.dtd">
<svg version="1.1" id="Layer_1" xmlns="http://www.w3.org/2000/svg" xmlns:xlink="http://www.w3.org/1999/xlink" x="0px" y="0px"
	 width="22px" height="22px" viewBox="0 0 22 22" enable-background="new 0 0 22 22" xml:space="preserve">
<g id="Arrow_Left_Circle">
	<path fill="#FFFFFF" d="M11,21.875c6.006,0,10.875-4.869,10.875-10.875S17.006,0.125,11,0.125S0.125,4.994,0.125,11
		S4.994,21.875,11,21.875z M11,1.484c5.255,0,9.516,4.26,9.516,9.516s-4.26,9.516-9.516,9.516S1.484,16.256,1.484,11
		S5.744,1.484,11,1.484z"/>
	<path fill="#FFFFFF" d="M4.883,11.693H15.48l-3.535,3.584c-0.264,0.269-0.264,0.703,0,0.971c0.267,0.27,0.697,0.27,0.962,0
		l4.688-4.756c0.127-0.127,0.199-0.306,0.199-0.486c0-0.178-0.072-0.357-0.199-0.485l-4.688-4.757c-0.267-0.269-0.695-0.268-0.96,0
		c-0.266,0.269-0.266,0.703,0,0.971l3.533,3.586H4.883c-0.375,0-0.68,0.307-0.68,0.687C4.203,11.385,4.508,11.693,4.883,11.693z"/>
</g>
</svg>
