<?xml version="1.0" encoding="utf-8"?>
<!-- Generator: Adobe Illustrator 16.0.0, SVG Export Plug-In . SVG Version: 6.00 Build 0)  -->
<!DOCTYPE svg PUBLIC "-//W3C//DTD SVG 1.1//EN" "http://www.w3.org/Graphics/SVG/1.1/DTD/svg11.dtd">
<svg version="1.1" id="Layer_1" xmlns="http://www.w3.org/2000/svg" xmlns:xlink="http://www.w3.org/1999/xlink" x="0px" y="0px"
	 width="70px" height="60px" viewBox="0 0 70 60" enable-background="new 0 0 70 60" xml:space="preserve">
<path fill="#FFFFFF" d="M13.899,28.767c0,0,5.087,8.196,6.595,13.85c0,0,4.051,2.732,8.008,1.319c0,0,23.46-32.033,36.461-36.461
	c0,0,4.711-1.79-8.479-1.696c0,0-18.748,11.683-29.3,27.793c0,0-4.773-10.898-11.057-8.61c-0.083,0.03-0.166,0.062-0.249,0.097
	C15.877,25.058,12.392,27.447,13.899,28.767z"/>
<path fill="#FFFFFF" d="M38.865,14H8v37h36V30.18l4-4.145V50.53c0,0,0.381,3.47-3.011,4.47H7.209C7.209,55,4,54.582,4,50.719V13.787
	c0,0-0.563-3.486,3.112-3.674c3.674-0.188,36.227-0.176,36.227-0.176L38.865,14z"/>
</svg>
