<?xml version="1.0" encoding="utf-8"?>
<!-- Generator: Adobe Illustrator 16.0.0, SVG Export Plug-In . SVG Version: 6.00 Build 0)  -->
<!DOCTYPE svg PUBLIC "-//W3C//DTD SVG 1.1//EN" "http://www.w3.org/Graphics/SVG/1.1/DTD/svg11.dtd">
<svg version="1.1" id="Layer_1" xmlns="http://www.w3.org/2000/svg" xmlns:xlink="http://www.w3.org/1999/xlink" x="0px" y="0px"
	 width="17px" height="17px" viewBox="0 0 17 17" enable-background="new 0 0 17 17" xml:space="preserve">
<rect y="2" fill="#969696" width="1" height="15"/>
<rect x="8" y="2" fill="#969696" width="1" height="15"/>
<rect y="2" fill="#969696" width="9" height="1"/>
<rect x="2.219" y="5.219" fill="#969696" width="1.563" height="1.563"/>
<rect x="5.219" y="5.219" fill="#969696" width="1.563" height="1.563"/>
<rect x="2.219" y="8.219" fill="#969696" width="1.563" height="1.563"/>
<rect x="5.219" y="8.219" fill="#969696" width="1.563" height="1.563"/>
<rect x="2.219" y="11.219" fill="#969696" width="1.563" height="1.563"/>
<rect x="5.219" y="11.219" fill="#969696" width="1.563" height="1.563"/>
<rect x="2.219" y="14.219" fill="#969696" width="1.563" height="1.563"/>
<rect x="5.219" y="14.219" fill="#969696" width="1.563" height="1.563"/>
<rect x="11" y="5" fill="#969696" width="1" height="12"/>
<rect x="16" y="5" fill="#969696" width="1" height="12"/>
<rect x="11" y="5" fill="#969696" width="6" height="1"/>
<rect x="13.219" y="8.219" fill="#969696" width="1.563" height="1.563"/>
<rect x="13.219" y="11.219" fill="#969696" width="1.563" height="1.563"/>
<rect x="13.219" y="14.219" fill="#969696" width="1.563" height="1.563"/>
</svg>
