<?xml version="1.0" encoding="utf-8"?>
<!-- Generator: Adobe Illustrator 16.0.0, SVG Export Plug-In . SVG Version: 6.00 Build 0)  -->
<!DOCTYPE svg PUBLIC "-//W3C//DTD SVG 1.1//EN" "http://www.w3.org/Graphics/SVG/1.1/DTD/svg11.dtd">
<svg version="1.1" id="Layer_1" xmlns="http://www.w3.org/2000/svg" xmlns:xlink="http://www.w3.org/1999/xlink" x="0px" y="0px"
	 width="18px" height="18px" viewBox="0 0 18 18" enable-background="new 0 0 18 18" xml:space="preserve">
<rect x="0.5" y="0.5" fill="none" stroke="#969696" stroke-miterlimit="10" width="15" height="10"/>
<g>
	<path fill="#969696" d="M7.832,8.059V9H7.199V8.085C6.612,8.082,6.065,7.949,5.56,7.686V6.485c0.167,0.136,0.418,0.262,0.75,0.377
		c0.333,0.116,0.629,0.182,0.889,0.2V5.483C6.522,5.232,6.061,4.959,5.813,4.666C5.566,4.373,5.442,4.015,5.442,3.593
		c0-0.454,0.161-0.84,0.481-1.16s0.746-0.505,1.275-0.557V1.069h0.633v0.789c0.61,0.029,1.065,0.127,1.366,0.295v1.171
		c-0.405-0.246-0.86-0.396-1.366-0.451v1.644c0.633,0.229,1.087,0.489,1.361,0.783s0.412,0.648,0.412,1.064
		c0,0.48-0.153,0.866-0.46,1.16C8.839,7.817,8.401,7.996,7.832,8.059z M7.199,4.265V2.891C6.797,2.963,6.596,3.172,6.596,3.519
		C6.596,3.817,6.797,4.065,7.199,4.265z M7.832,5.73v1.314c0.413-0.063,0.62-0.271,0.62-0.62C8.452,6.141,8.245,5.91,7.832,5.73z"/>
</g>
<circle fill="#EFEFEF" stroke="#969696" stroke-miterlimit="10" cx="10.995" cy="11.492" r="6.036"/>
<rect x="10" y="7" fill="#474747" width="1" height="4"/>
<rect x="10" y="11" fill="#474747" width="4" height="1"/>
</svg>
