<?xml version="1.0" encoding="utf-8"?>
<!-- Generator: Adobe Illustrator 16.0.0, SVG Export Plug-In . SVG Version: 6.00 Build 0)  -->
<!DOCTYPE svg PUBLIC "-//W3C//DTD SVG 1.1//EN" "http://www.w3.org/Graphics/SVG/1.1/DTD/svg11.dtd">
<svg version="1.1" id="Layer_1" xmlns="http://www.w3.org/2000/svg" xmlns:xlink="http://www.w3.org/1999/xlink" x="0px" y="0px"
	 width="25px" height="25px" viewBox="0 0 25 25" enable-background="new 0 0 25 25" xml:space="preserve">
<g>
	<path fill="#020202" d="M9.703,16.299H4.536l-1.344,3.497H0.516l5.445-13.72h2.297l5.445,13.72h-2.656L9.703,16.299z M7.1,9.378
		c-0.48,1.435-0.908,2.635-1.284,3.598l-0.469,1.221h3.546l-0.469-1.221c-0.371-0.972-0.801-2.171-1.283-3.598H7.1z"/>
	<path fill="#020202" d="M21.188,18.74h-0.041c-0.137,0.143-0.301,0.29-0.492,0.44s-0.41,0.292-0.656,0.426
		c-0.246,0.133-0.52,0.24-0.82,0.322s-0.625,0.123-0.975,0.123c-0.471,0-0.912-0.073-1.322-0.22s-0.762-0.359-1.057-0.636
		c-0.293-0.277-0.523-0.612-0.691-1.005s-0.252-0.832-0.252-1.318c0-0.533,0.098-1.012,0.293-1.436s0.467-0.782,0.814-1.076
		c0.35-0.294,0.766-0.518,1.252-0.672c0.484-0.153,1.021-0.23,1.609-0.23c0.432,0,0.828,0.027,1.189,0.082
		c0.363,0.055,0.68,0.119,0.953,0.195v-0.4c0-0.232-0.039-0.456-0.117-0.672c-0.078-0.215-0.205-0.406-0.379-0.574
		c-0.174-0.167-0.402-0.3-0.682-0.399c-0.281-0.099-0.623-0.149-1.025-0.149c-0.492,0-0.984,0.055-1.477,0.164
		s-1.025,0.273-1.6,0.492v-1.897c0.498-0.219,1.027-0.386,1.588-0.502s1.148-0.178,1.764-0.185c0.725,0,1.359,0.089,1.902,0.267
		c0.545,0.178,0.998,0.422,1.365,0.733c0.365,0.312,0.639,0.679,0.82,1.103c0.18,0.424,0.271,0.885,0.271,1.384v3.743
		c0,0.656,0.006,1.22,0.02,1.692c0.014,0.471,0.027,0.892,0.041,1.261h-2.193L21.188,18.74z M20.992,15.561
		c-0.232-0.055-0.498-0.104-0.799-0.148c-0.301-0.044-0.605-0.066-0.912-0.066c-0.596,0-1.064,0.118-1.41,0.354
		c-0.346,0.236-0.518,0.597-0.518,1.082c0,0.226,0.039,0.422,0.117,0.59s0.186,0.306,0.318,0.415s0.289,0.191,0.467,0.246
		s0.365,0.082,0.563,0.082c0.246,0,0.479-0.032,0.697-0.098c0.219-0.064,0.422-0.146,0.605-0.246
		c0.186-0.099,0.352-0.21,0.498-0.333s0.271-0.242,0.373-0.359V15.561z"/>
</g>
</svg>
