<?xml version="1.0" encoding="utf-8"?>
<!-- Generator: Adobe Illustrator 16.0.0, SVG Export Plug-In . SVG Version: 6.00 Build 0)  -->
<!DOCTYPE svg PUBLIC "-//W3C//DTD SVG 1.1//EN" "http://www.w3.org/Graphics/SVG/1.1/DTD/svg11.dtd">
<svg version="1.1" id="Layer_1" xmlns="http://www.w3.org/2000/svg" xmlns:xlink="http://www.w3.org/1999/xlink" x="0px" y="0px"
	 width="18px" height="18px" viewBox="0 0 18 18" enable-background="new 0 0 18 18" xml:space="preserve">
<path fill-rule="evenodd" clip-rule="evenodd" fill="#FFFFFF" d="M9.126,0.229C14,0.239,17.985,4.25,17.961,9.121
	c-0.024,4.858-4.014,8.82-8.867,8.81c-4.874-0.01-8.858-4.019-8.834-8.89C0.284,4.184,4.272,0.22,9.126,0.229z M10.573,11.876
	c-0.044-0.021-0.087-0.042-0.133-0.063c-0.297,0.352-0.582,0.715-0.901,1.046c-0.106,0.11-0.3,0.138-0.454,0.203
	c-0.012-0.16-0.07-0.333-0.029-0.477c0.437-1.479,0.885-2.955,1.338-4.429c0.138-0.449,0.122-0.864-0.238-1.202
	C9.774,6.598,9.293,6.582,8.904,6.84C8.308,7.234,7.758,7.708,7.237,8.198C7.071,8.355,7.057,8.675,6.973,8.919
	c0.044,0.016,0.088,0.033,0.132,0.05c0.062-0.07,0.124-0.14,0.185-0.21c0.277-0.313,0.544-0.636,0.837-0.933
	C8.194,7.76,8.351,7.781,8.466,7.762C8.479,7.865,8.508,7.97,8.502,8.072C8.496,8.166,8.455,8.258,8.427,8.35
	c-0.438,1.461-0.882,2.922-1.314,4.385c-0.249,0.844,0.312,1.473,1.185,1.359c0.936-0.123,1.506-0.752,1.996-1.467
	C10.44,12.415,10.483,12.128,10.573,11.876z M11.314,4.941c-0.011-0.579-0.434-0.992-1.016-0.994
	c-0.583-0.001-1.048,0.466-1.032,1.04C9.282,5.534,9.75,5.99,10.296,5.991C10.883,5.991,11.326,5.534,11.314,4.941z"/>
</svg>
