<?xml version="1.0" encoding="utf-8"?>
<!-- Generator: Adobe Illustrator 16.0.0, SVG Export Plug-In . SVG Version: 6.00 Build 0)  -->
<!DOCTYPE svg PUBLIC "-//W3C//DTD SVG 1.1//EN" "http://www.w3.org/Graphics/SVG/1.1/DTD/svg11.dtd">
<svg version="1.1" id="Layer_1" xmlns="http://www.w3.org/2000/svg" xmlns:xlink="http://www.w3.org/1999/xlink" x="0px" y="0px"
	 width="23px" height="23px" viewBox="0 0 23 23" enable-background="new 0 0 23 23" xml:space="preserve">
<path fill="#73963D" d="M13.788,12.622H13.35c-0.358,0-0.66-0.308-0.66-0.675c0-0.185,0.078-0.354,0.217-0.479l0.283-0.277
	c0.281-0.277,0.281-0.731,0-1.009l-0.645-0.64c-0.127-0.126-0.314-0.202-0.506-0.202c-0.191,0-0.375,0.075-0.506,0.202l-0.271,0.272
	c-0.13,0.145-0.304,0.223-0.491,0.223c-0.371,0-0.68-0.301-0.68-0.656V8.94c0-0.39-0.315-0.726-0.708-0.726h-0.88
	c-0.393,0-0.705,0.332-0.705,0.726v0.439c0,0.355-0.31,0.656-0.679,0.656c-0.186,0-0.356-0.078-0.48-0.215l-0.28-0.277
	C6.23,9.414,6.043,9.342,5.852,9.342c-0.19,0-0.376,0.075-0.506,0.202L4.695,10.18c-0.277,0.277-0.277,0.731,0,1.005l0.272,0.273
	c0.145,0.13,0.226,0.303,0.226,0.488c0,0.371-0.301,0.675-0.659,0.675h-0.44c-0.396,0-0.729,0.311-0.729,0.703v0.439v0.438
	c0,0.392,0.333,0.704,0.729,0.704h0.44c0.358,0,0.659,0.309,0.659,0.676c0,0.185-0.081,0.358-0.226,0.489l-0.272,0.269
	c-0.277,0.278-0.277,0.731,0,1.005l0.645,0.643c0.127,0.131,0.315,0.203,0.506,0.203c0.191,0,0.376-0.075,0.506-0.203l0.28-0.276
	c0.121-0.136,0.294-0.214,0.48-0.214c0.37,0,0.679,0.302,0.679,0.656v0.438c0,0.392,0.313,0.726,0.708,0.726h0.879
	c0.393,0,0.705-0.332,0.705-0.726v-0.438c0-0.354,0.309-0.656,0.68-0.656c0.185,0,0.358,0.081,0.492,0.224l0.271,0.271
	c0.129,0.127,0.315,0.202,0.506,0.202c0.19,0,0.376-0.075,0.506-0.202l0.646-0.642c0.276-0.276,0.276-0.73,0-1.01L12.9,16.063
	c-0.139-0.123-0.217-0.295-0.217-0.479c0-0.369,0.301-0.674,0.658-0.674h0.439c0.394,0,0.674-0.311,0.674-0.704v-0.442v-0.438
	C14.461,12.934,14.182,12.622,13.788,12.622z M11.253,13.766L11.253,13.766c0,1.274-1.032,2.313-2.313,2.313
	c-1.281,0-2.313-1.037-2.313-2.313l0,0l0,0c0-1.274,1.032-2.313,2.313-2.313C10.221,11.452,11.253,12.49,11.253,13.766
	L11.253,13.766z"/>
<path fill="#73963D" d="M18.298,5.861H18.04c-0.209,0-0.386-0.18-0.386-0.396c0-0.108,0.046-0.206,0.125-0.279l0.168-0.162
	c0.164-0.163,0.164-0.428,0-0.591L17.568,4.06c-0.073-0.074-0.184-0.118-0.295-0.118s-0.219,0.044-0.297,0.118l-0.158,0.159
	c-0.076,0.085-0.178,0.13-0.289,0.13c-0.217,0-0.396-0.176-0.396-0.384V3.706c0-0.229-0.185-0.425-0.414-0.425h-0.515
	c-0.229,0-0.413,0.195-0.413,0.425v0.257c0,0.208-0.182,0.384-0.396,0.384c-0.108,0-0.209-0.046-0.281-0.125L13.948,4.06
	c-0.074-0.076-0.185-0.118-0.296-0.118s-0.221,0.044-0.297,0.118l-0.381,0.373c-0.162,0.163-0.162,0.428,0,0.589l0.159,0.159
	c0.084,0.076,0.132,0.177,0.132,0.286c0,0.217-0.177,0.396-0.386,0.396h-0.258c-0.231,0-0.427,0.182-0.427,0.412v0.258v0.256
	c0,0.229,0.195,0.412,0.427,0.412h0.258c0.209,0,0.386,0.181,0.386,0.396c0,0.108-0.048,0.209-0.132,0.286L12.975,8.04
	c-0.162,0.163-0.162,0.429,0,0.589l0.377,0.376c0.074,0.076,0.186,0.119,0.297,0.119s0.22-0.044,0.297-0.119l0.164-0.165
	c0.07-0.08,0.172-0.125,0.281-0.125c0.215,0,0.396,0.176,0.396,0.384v0.257c0,0.229,0.182,0.425,0.414,0.425h0.515
	c0.229,0,0.413-0.194,0.413-0.425V9.1c0-0.208,0.182-0.384,0.396-0.384c0.108,0,0.211,0.047,0.289,0.13l0.158,0.16
	c0.076,0.074,0.186,0.118,0.297,0.118c0.11,0,0.219-0.044,0.295-0.118l0.377-0.376c0.164-0.162,0.164-0.428,0-0.591l-0.164-0.162
	c-0.082-0.073-0.127-0.173-0.127-0.28c0-0.216,0.176-0.395,0.386-0.395h0.257c0.23,0,0.395-0.182,0.395-0.412V6.531V6.273
	C18.691,6.043,18.527,5.861,18.298,5.861z M16.813,6.531L16.813,6.531c0,0.746-0.603,1.354-1.353,1.354s-1.354-0.607-1.354-1.354
	l0,0l0,0c0-0.746,0.604-1.354,1.354-1.354S16.813,5.785,16.813,6.531L16.813,6.531z"/>
</svg>
