<?xml version="1.0" encoding="utf-8"?>
<!-- Generator: Adobe Illustrator 16.0.0, SVG Export Plug-In . SVG Version: 6.00 Build 0)  -->
<!DOCTYPE svg PUBLIC "-//W3C//DTD SVG 1.1//EN" "http://www.w3.org/Graphics/SVG/1.1/DTD/svg11.dtd">
<svg version="1.1" id="Layer_1" xmlns="http://www.w3.org/2000/svg" xmlns:xlink="http://www.w3.org/1999/xlink" x="0px" y="0px"
	 width="20px" height="20px" viewBox="0 0 20 20" enable-background="new 0 0 20 20" xml:space="preserve">
<path fill="#444444" d="M17,4.5C17,4.776,16.776,5,16.5,5h-13C3.224,5,3,4.776,3,4.5l0,0C3,4.224,3.224,4,3.5,4h13
	C16.776,4,17,4.224,17,4.5L17,4.5z"/>
<path fill="#444444" d="M17,9.5c0,0.276-0.224,0.5-0.5,0.5h-13C3.224,10,3,9.776,3,9.5l0,0C3,9.224,3.224,9,3.5,9h13
	C16.776,9,17,9.224,17,9.5L17,9.5z"/>
<path fill="#444444" d="M17,14.5c0,0.276-0.224,0.5-0.5,0.5h-13C3.224,15,3,14.776,3,14.5l0,0C3,14.224,3.224,14,3.5,14h13
	C16.776,14,17,14.224,17,14.5L17,14.5z"/>
<circle fill="#444444" cx="8.5" cy="4.5" r="1.844"/>
<circle fill="#444444" cx="12.5" cy="9.5" r="1.844"/>
<circle fill="#444444" cx="6.5" cy="14.5" r="1.844"/>
<circle fill="#FFF8F8" cx="8.5" cy="4.5" r="1.094"/>
<circle fill="#FFF8F8" cx="12.5" cy="9.5" r="1.094"/>
<circle fill="#FFF8F8" cx="6.5" cy="14.5" r="1.094"/>
</svg>
