<?xml version="1.0" encoding="utf-8"?>
<!-- Generator: Adobe Illustrator 16.0.0, SVG Export Plug-In . SVG Version: 6.00 Build 0)  -->
<!DOCTYPE svg PUBLIC "-//W3C//DTD SVG 1.1//EN" "http://www.w3.org/Graphics/SVG/1.1/DTD/svg11.dtd">
<svg version="1.1" id="Layer_1" xmlns="http://www.w3.org/2000/svg" xmlns:xlink="http://www.w3.org/1999/xlink" x="0px" y="0px"
	 width="18px" height="18px" viewBox="0 0 18 18" enable-background="new 0 0 18 18" xml:space="preserve">
<g>
	<path fill="#FFFFFF" d="M13.832,4.816v1.767c-0.815,0.49-1.344,1.196-1.587,2.114c1.484,0,2.226,0.792,2.226,2.378
		c0,1.631-0.821,2.448-2.462,2.448c-1.613,0-2.42-0.971-2.42-2.907C9.589,7.602,11.004,5.672,13.832,4.816z"/>
</g>
<g>
	<g>
		<path fill="#FFFFFF" d="M7.269,4.816v1.767c-0.815,0.49-1.345,1.196-1.586,2.114c1.483,0,2.225,0.792,2.225,2.378
			c0,1.631-0.82,2.448-2.462,2.448c-1.613,0-2.419-0.971-2.419-2.907C3.026,7.602,4.441,5.672,7.269,4.816z"/>
	</g>
</g>
</svg>
