<?xml version="1.0" encoding="utf-8"?>
<!-- Generator: Adobe Illustrator 16.0.0, SVG Export Plug-In . SVG Version: 6.00 Build 0)  -->
<!DOCTYPE svg PUBLIC "-//W3C//DTD SVG 1.1//EN" "http://www.w3.org/Graphics/SVG/1.1/DTD/svg11.dtd">
<svg version="1.1" id="Layer_1" xmlns="http://www.w3.org/2000/svg" xmlns:xlink="http://www.w3.org/1999/xlink" x="0px" y="0px"
	 width="18px" height="18px" viewBox="0 0 18 18" enable-background="new 0 0 18 18" xml:space="preserve">
<g>
	<path fill="#FFFFFF" d="M5.82,7.163V8.51H4.665v2.575c0,0.521,0.011,0.825,0.033,0.911s0.072,0.156,0.15,0.213
		s0.173,0.085,0.286,0.085c0.156,0,0.383-0.055,0.68-0.163l0.145,1.312c-0.393,0.169-0.838,0.253-1.335,0.253
		c-0.305,0-0.579-0.051-0.824-0.154c-0.245-0.101-0.424-0.233-0.538-0.396c-0.114-0.161-0.194-0.382-0.238-0.658
		c-0.036-0.196-0.054-0.594-0.054-1.191V8.51H2.193V7.163h0.776V5.894l1.696-0.987v2.256H5.82z"/>
	<path fill="#FFFFFF" d="M6.83,13.701l2.184-9.119h1.269l-2.208,9.119H6.83z"/>
	<path fill="#FFFFFF" d="M11.153,7.163h0.938V6.681c0-0.537,0.058-0.938,0.171-1.203c0.116-0.265,0.325-0.48,0.633-0.647
		c0.306-0.167,0.695-0.25,1.165-0.25c0.48,0,0.952,0.072,1.412,0.217l-0.229,1.179c-0.268-0.064-0.527-0.096-0.774-0.096
		c-0.246,0-0.422,0.057-0.527,0.171s-0.159,0.334-0.159,0.659v0.451h1.264v1.33h-1.264v5.059h-1.691V8.492h-0.938V7.163z"/>
</g>
</svg>
