<?xml version="1.0" encoding="utf-8"?>
<!-- Generator: Adobe Illustrator 16.0.0, SVG Export Plug-In . SVG Version: 6.00 Build 0)  -->
<!DOCTYPE svg PUBLIC "-//W3C//DTD SVG 1.1//EN" "http://www.w3.org/Graphics/SVG/1.1/DTD/svg11.dtd">
<svg version="1.1" id="Layer_1" xmlns="http://www.w3.org/2000/svg" xmlns:xlink="http://www.w3.org/1999/xlink" x="0px" y="0px"
	 width="18px" height="18px" viewBox="0 0 18 18" enable-background="new 0 0 18 18" xml:space="preserve">
<path fill="#B1B1B1" d="M1,1v16h16V1H1z M14.607,13.976c-0.178,0.023-0.28-0.035-0.377-0.212c-0.416-0.766-0.846-1.519-1.363-2.218
	c-0.842-1.143-1.964-1.73-3.249-2.01c-0.354-0.077-0.713-0.099-1.07-0.128C8.422,9.396,8.407,9.441,8.407,9.561
	c0.005,0.888,0.003,1.774,0.003,2.7c-0.198-0.144-0.373-0.271-0.548-0.398c-1.87-1.361-3.74-2.725-5.611-4.085
	c-0.096-0.069-0.14-0.1-0.009-0.194c2.021-1.468,4.04-2.94,6.059-4.412c0.027-0.018,0.056-0.035,0.084-0.056
	c0.048,0.044,0.023,0.101,0.023,0.148C8.41,4.109,8.413,4.956,8.406,5.802c0,0.129,0.026,0.165,0.148,0.173
	C9.508,6.039,10.45,6.2,11.323,6.644c1.808,0.917,2.924,2.433,3.278,4.594c0.144,0.876,0.075,1.758,0.097,2.638
	C14.7,13.956,14.673,13.968,14.607,13.976z"/>
</svg>
