<?xml version="1.0" encoding="utf-8"?>
<!-- Generator: Adobe Illustrator 16.0.3, SVG Export Plug-In . SVG Version: 6.00 Build 0)  -->
<!DOCTYPE svg PUBLIC "-//W3C//DTD SVG 1.1//EN" "http://www.w3.org/Graphics/SVG/1.1/DTD/svg11.dtd">
<svg version="1.1" id="Layer_1" xmlns="http://www.w3.org/2000/svg" xmlns:xlink="http://www.w3.org/1999/xlink" x="0px" y="0px"
	 width="20px" height="20px" viewBox="0 0 20 20" enable-background="new 0 0 20 20" xml:space="preserve">
<path fill="#555655" d="M19.751,15.496l-3.267-5.659l-0.983,0.982l3.078,5.333c0.016,0.05,0.025,0.102,0.03,0.155
	c-0.008,0.282-0.24,0.51-0.523,0.507H1.915c-0.284,0.003-0.517-0.225-0.524-0.507c0.003-0.054,0.014-0.105,0.03-0.155L9.806,1.627
	c0.062-0.107,0.199-0.144,0.306-0.082c0.034,0.02,0.062,0.048,0.082,0.082l3.107,5.382l0.983-0.983l-2.928-5.07
	c-0.433-0.75-1.391-1.005-2.14-0.573C8.979,0.521,8.781,0.719,8.644,0.956l-8.396,14.54c-0.391,0.678-0.21,2.422,0.351,3.395
	c0.471,0.815,1.089,0.937,1.417,0.937h15.969c0.328,0,0.946-0.121,1.416-0.937C19.963,17.918,20.142,16.174,19.751,15.496z
	 M18.187,18.305c-0.044,0.082-0.115,0.146-0.202,0.181H2.016c-0.086-0.034-0.158-0.099-0.201-0.181
	c-0.169-0.276-0.284-0.583-0.34-0.901c0.14,0.055,0.29,0.082,0.44,0.082h16.171c0.15,0,0.299-0.027,0.438-0.082
	C18.471,17.722,18.354,18.028,18.187,18.305z"/>
<path fill="#555655" d="M7.648,9.655C7.394,9.4,6.98,9.4,6.725,9.655l0,0l-1.133,1.134c-0.255,0.254-0.255,0.668,0,0.923l0,0
	l2.439,2.438l0,0l1.133,1.134c0.255,0.255,0.669,0.255,0.923,0l0,0l7.129-7.129c0.249-0.248,0.249-0.651,0-0.898l0,0l-1.155-1.156
	c-0.25-0.25-0.653-0.25-0.902,0l0,0l-5.532,5.532L7.648,9.655z"/>
</svg>
