<?xml version="1.0" encoding="utf-8"?>
<!-- Generator: Adobe Illustrator 16.0.3, SVG Export Plug-In . SVG Version: 6.00 Build 0)  -->
<!DOCTYPE svg PUBLIC "-//W3C//DTD SVG 1.1//EN" "http://www.w3.org/Graphics/SVG/1.1/DTD/svg11.dtd">
<svg version="1.1" id="Layer_1" xmlns="http://www.w3.org/2000/svg" xmlns:xlink="http://www.w3.org/1999/xlink" x="0px" y="0px"
	 width="18px" height="18px" viewBox="0 0 18 18" enable-background="new 0 0 18 18" xml:space="preserve">
<g id="layer1" transform="translate(0,-284.29998)">
	<g id="g12" transform="matrix(2.6666668,0,0,2.6666668,0,-495.00001)">
		<path id="path4491" fill="#292929" d="M2.149,292.244v0.613H0.311v6.129H6.44v-6.129H4.601v-0.613H3.988v0.613H2.762v-0.613H2.149
			z M0.924,293.47H2.15v0.613h0.613v-0.613h1.226v0.613h0.613v-0.613h1.226v4.903H0.924V293.47z M2.149,295.308v0.613h0.613v-0.613
			H2.149z M3.988,295.308v0.613h1.226v-0.613H3.988z M1.536,296.534v0.613h1.226v-0.613H1.536z M3.375,296.534v0.613h0.613v-0.613
			H3.375z"/>
		<path id="path4508" fill="#292929" fill-opacity="0.3765" d="M1.536,295.308v0.613h0.613v-0.613H1.536z M2.762,295.308v0.613
			h1.226v-0.613H2.762z M2.762,296.534v0.613h0.613v-0.613H2.762z M3.988,296.534v0.613h1.226v-0.613H3.988z"/>
	</g>
</g>
</svg>
