<?xml version="1.0" encoding="utf-8"?>
<!-- Generator: Adobe Illustrator 16.0.0, SVG Export Plug-In . SVG Version: 6.00 Build 0)  -->
<!DOCTYPE svg PUBLIC "-//W3C//DTD SVG 1.1//EN" "http://www.w3.org/Graphics/SVG/1.1/DTD/svg11.dtd">
<svg version="1.1" id="Layer_1" xmlns="http://www.w3.org/2000/svg" xmlns:xlink="http://www.w3.org/1999/xlink" x="0px" y="0px"
	 width="18px" height="18px" viewBox="0 0 18 18" enable-background="new 0 0 18 18" xml:space="preserve">
<path fill-rule="evenodd" clip-rule="evenodd" fill="#B1B1B1" d="M16.906,8.999c0,1.745-1.386,3.164-3.084,3.164H4.175
	c-1.7,0-3.081-1.419-3.081-3.164l0,0c0-1.745,1.381-3.162,3.081-3.162h9.647C15.521,5.837,16.906,7.254,16.906,8.999L16.906,8.999z"
	/>
<path fill="#FEFFFD" d="M16.381,8.999c0,1.472-1.169,2.664-2.598,2.664c-1.434,0-2.601-1.191-2.601-2.664
	c0-1.472,1.167-2.664,2.601-2.664C15.212,6.335,16.381,7.527,16.381,8.999z"/>
</svg>
