<?xml version="1.0" encoding="utf-8"?>
<!-- Generator: Adobe Illustrator 16.0.3, SVG Export Plug-In . SVG Version: 6.00 Build 0)  -->
<!DOCTYPE svg PUBLIC "-//W3C//DTD SVG 1.1//EN" "http://www.w3.org/Graphics/SVG/1.1/DTD/svg11.dtd">
<svg version="1.1" id="Layer_1" xmlns="http://www.w3.org/2000/svg" xmlns:xlink="http://www.w3.org/1999/xlink" x="0px" y="0px"
	 width="20px" height="20px" viewBox="0 0 20 20" enable-background="new 0 0 20 20" xml:space="preserve">
<g>
	<path fill="#555655" d="M15.232,2.472h-1.801c-0.251-0.582-0.75-1.026-1.387-1.164c-0.251-0.749-1.11-1.275-2.136-1.275
		c-1.025,0-1.857,0.526-2.134,1.275C7.138,1.446,6.639,1.89,6.39,2.472H4.366c-0.915,0-1.636,0.749-1.636,1.636v14.248
		c0,0.916,0.749,1.637,1.636,1.637h10.839c0.915,0,1.636-0.75,1.636-1.637V4.107C16.868,3.193,16.12,2.472,15.232,2.472z
		 M8.274,2.361c0.305,0,0.555-0.249,0.555-0.554s0.443-0.665,1.108-0.665c0.638,0,1.109,0.36,1.109,0.665s0.249,0.554,0.555,0.554
		c0.498,0,0.914,0.416,0.914,0.916V3.83H7.332V3.276C7.332,2.777,7.748,2.361,8.274,2.361z M15.76,18.355
		c0,0.307-0.251,0.527-0.527,0.527H4.366c-0.305,0-0.527-0.25-0.527-0.527V4.107c0-0.305,0.25-0.527,0.527-0.527h1.857v0.804
		c0,0.305,0.25,0.555,0.555,0.555h6.264c0.305,0,0.555-0.25,0.555-0.555V3.581h1.608c0.304,0,0.525,0.25,0.525,0.527v14.248H15.76z"
		/>
	<path fill="#555655" d="M13.889,11.563h-3.3c-0.305,0-0.554,0.248-0.554,0.553c0,0.307,0.249,0.555,0.554,0.555h3.3
		c0.305,0,0.555-0.248,0.555-0.555C14.443,11.811,14.193,11.563,13.889,11.563z"/>
	<path fill="#555655" d="M13.902,6.941h-3.3c-0.305,0-0.554,0.248-0.554,0.553c0,0.307,0.249,0.555,0.554,0.555h3.3
		c0.305,0,0.555-0.248,0.555-0.555C14.457,7.189,14.207,6.941,13.902,6.941z"/>
	<path fill="#555655" d="M8.51,10.48l-1.857,1.857l-0.582-0.582c-0.222-0.223-0.555-0.223-0.776,0c-0.222,0.223-0.222,0.555,0,0.775
		l0.998,0.998c0.111,0.111,0.25,0.166,0.388,0.166c0.138,0,0.277-0.055,0.388-0.166l2.246-2.245c0.221-0.221,0.221-0.554,0-0.776
		C9.092,10.259,8.732,10.259,8.51,10.48z"/>
	<path fill="#555655" d="M8.524,6.109L6.667,7.967L6.085,7.385c-0.222-0.223-0.555-0.223-0.776,0c-0.222,0.223-0.222,0.555,0,0.775
		l0.998,0.998c0.111,0.111,0.25,0.166,0.388,0.166c0.138,0,0.277-0.055,0.388-0.166l2.246-2.245c0.221-0.221,0.221-0.554,0-0.776
		C9.106,5.888,8.746,5.888,8.524,6.109z"/>
	<path fill="#555655" d="M13.889,15.53h-3.3c-0.305,0-0.554,0.25-0.554,0.555s0.249,0.555,0.554,0.555h3.3
		c0.305,0,0.555-0.25,0.555-0.555S14.193,15.53,13.889,15.53z"/>
	<path fill="#555655" d="M8.51,14.45l-1.857,1.855l-0.582-0.582c-0.222-0.221-0.555-0.221-0.776,0c-0.222,0.223-0.222,0.555,0,0.777
		l0.998,0.998c0.111,0.111,0.25,0.166,0.388,0.166c0.138,0,0.277-0.055,0.388-0.166l2.246-2.246c0.221-0.221,0.221-0.555,0-0.775
		C9.092,14.228,8.732,14.228,8.51,14.45z"/>
</g>
</svg>
