<?xml version="1.0" encoding="utf-8"?>
<!-- Generator: Adobe Illustrator 16.0.0, SVG Export Plug-In . SVG Version: 6.00 Build 0)  -->
<!DOCTYPE svg PUBLIC "-//W3C//DTD SVG 1.1//EN" "http://www.w3.org/Graphics/SVG/1.1/DTD/svg11.dtd">
<svg version="1.1" id="Layer_1" xmlns="http://www.w3.org/2000/svg" xmlns:xlink="http://www.w3.org/1999/xlink" x="0px" y="0px"
	 width="18px" height="18px" viewBox="0 0 18 18" enable-background="new 0 0 18 18" xml:space="preserve">
<rect x="0.33" y="17.071" fill="#666666" width="17.651" height="0.937"/>
<g>
	<path fill="#666666" d="M12.12,10.643H5.368l-0.792,1.799c-0.521,1.189-0.782,1.918-0.782,2.186c0,0.17,0.049,0.295,0.146,0.369
		s0.344,0.133,0.741,0.178l1.12,0.123V16c-0.747-0.053-1.587-0.08-2.521-0.08c-1.121,0-2.104,0.027-2.953,0.08v-0.703l0.35-0.012
		c0.545-0.016,0.897-0.068,1.057-0.162s0.329-0.322,0.508-0.686c0.552-1.072,1.116-2.229,1.692-3.471l3.209-6.95
		C8,2.172,8.584,0.833,8.896,0h0.794l5.906,13.131c0.396,0.893,0.661,1.432,0.794,1.613c0.132,0.182,0.283,0.313,0.455,0.389
		c0.171,0.08,0.556,0.135,1.155,0.164V16c-1.013-0.053-1.977-0.08-2.896-0.08c-0.855,0-1.995,0.027-3.419,0.08v-0.703l1.155-0.068
		c0.413-0.029,0.657-0.07,0.736-0.121c0.116-0.082,0.174-0.186,0.174-0.313c0-0.135-0.116-0.484-0.351-1.049L12.12,10.643z
		 M5.803,9.729h5.88L8.745,3.026L5.803,9.729z"/>
</g>
</svg>
