<?xml version="1.0" encoding="utf-8"?>
<!-- Generator: Adobe Illustrator 16.0.0, SVG Export Plug-In . SVG Version: 6.00 Build 0)  -->
<!DOCTYPE svg PUBLIC "-//W3C//DTD SVG 1.1//EN" "http://www.w3.org/Graphics/SVG/1.1/DTD/svg11.dtd">
<svg version="1.1" id="Layer_1" xmlns="http://www.w3.org/2000/svg" xmlns:xlink="http://www.w3.org/1999/xlink" x="0px" y="0px"
	 width="18px" height="18px" viewBox="0 0 18 18" enable-background="new 0 0 18 18" xml:space="preserve">
<path fill="none" stroke="#336699" stroke-miterlimit="10" d="M16.5,14.917c0,1.801-0.317,1.583-2.057,1.583H3.557
	c-1.74,0-2.057,0.218-2.057-1.583V3.647c0-1.8,0.317-2.147,2.057-2.147h10.887c1.739,0,2.057,0.348,2.057,2.147V14.917z"/>
<g>
	<path fill="#336699" d="M11.388,13.924l-1.182-1.74c-0.481-0.661-0.783-1.093-1.072-1.547H9.108
		c-0.262,0.454-0.522,0.874-1.003,1.563l-1.113,1.725H5.618l2.83-3.976L5.728,6.066h1.388l1.223,1.842
		c0.343,0.513,0.604,0.909,0.851,1.33h0.042c0.26-0.467,0.494-0.829,0.838-1.33l1.265-1.842h1.371L9.89,9.892l2.886,4.032H11.388z"
		/>
</g>
<rect x="5" y="4" fill="#336699" width="8" height="1"/>
</svg>
