<?xml version="1.0" encoding="utf-8"?>
<!-- Generator: Adobe Illustrator 16.0.0, SVG Export Plug-In . SVG Version: 6.00 Build 0)  -->
<!DOCTYPE svg PUBLIC "-//W3C//DTD SVG 1.1//EN" "http://www.w3.org/Graphics/SVG/1.1/DTD/svg11.dtd">
<svg version="1.1" id="Layer_1" xmlns="http://www.w3.org/2000/svg" xmlns:xlink="http://www.w3.org/1999/xlink" x="0px" y="0px"
	 width="18px" height="18px" viewBox="0 0 18 18" enable-background="new 0 0 18 18" xml:space="preserve">
<polygon fill="#666666" points="2.819,9.888 2.124,9.008 5.829,5.104 6.524,5.982 "/>
<polygon fill="#666666" points="2.124,9 2.868,8.212 6.469,12.741 5.725,13.529 "/>
<polygon fill="#666666" points="15.43,8.861 16.053,9.599 12.099,13.505 11.478,12.766 "/>
<polygon fill="#666666" points="16.053,9.606 15.313,10.34 11.471,5.811 12.21,5.078 "/>
<polygon fill="#666666" points="8.525,12.875 7.45,12.382 9.872,5.763 10.947,6.258 "/>
<path fill="none" stroke="#666666" stroke-miterlimit="10" d="M17.5,14.294c0,1.626-1.043,3.206-2.33,3.206H2.83
	c-1.287,0-2.33-1.58-2.33-3.206V2.48c0-1.629,1.043-1.98,2.33-1.98h12.34c1.287,0,2.33,0.352,2.33,1.98V14.294z"/>
</svg>
