<?xml version="1.0" encoding="utf-8"?>
<!-- Generator: Adobe Illustrator 16.0.3, SVG Export Plug-In . SVG Version: 6.00 Build 0)  -->
<!DOCTYPE svg PUBLIC "-//W3C//DTD SVG 1.1//EN" "http://www.w3.org/Graphics/SVG/1.1/DTD/svg11.dtd">
<svg version="1.1" id="Layer_1" xmlns="http://www.w3.org/2000/svg" xmlns:xlink="http://www.w3.org/1999/xlink" x="0px" y="0px"
	 width="18px" height="18px" viewBox="0 0 18 18" enable-background="new 0 0 18 18" xml:space="preserve">
<path fill="#414141" d="M16.404,2.809c-3.066,0-5.417-0.877-7.403-2.809C7.013,1.932,4.664,2.809,1.596,2.809
	c0,5.032-1.042,12.241,7.405,15.169C17.447,15.05,16.404,7.841,16.404,2.809z"/>
<g id="expression" transform="translate(13989.05 -17220.31)">
	<g id="Group_49" transform="translate(0 0)">
		<path id="Path_176" fill="#FFFFFF" d="M-13975.7,17226.648l-2.375-2.371c-0.078-0.074-0.199-0.074-0.276,0l-0.518,0.516
			c-0.075,0.074-0.075,0.199,0,0.275c0,0,0,0,0,0.002l1.721,1.717l-1.721,1.719c-0.075,0.076-0.075,0.201,0,0.277l0,0l0.518,0.518
			c0.076,0.076,0.2,0.076,0.276,0c0,0,0,0,0.002,0l2.373-2.371c0.076-0.076,0.078-0.201,0.002-0.279
			C-13975.698,17226.65-13975.7,17226.648-13975.7,17226.648z"/>
		<path id="Path_177" fill="#FFFFFF" d="M-13981.719,17228.506l-1.723-1.717l1.723-1.719c0.076-0.076,0.076-0.201,0-0.277
			c0,0,0,0,0,0l-0.518-0.516c-0.076-0.076-0.2-0.076-0.277,0l-2.375,2.371c-0.076,0.076-0.076,0.201,0,0.277l0,0l2.375,2.373
			c0.076,0.074,0.2,0.078,0.277,0l0,0l0.518-0.514C-13981.643,17228.707-13981.643,17228.584-13981.719,17228.506
			L-13981.719,17228.506z"/>
		<path id="Path_178" fill="#FFFFFF" d="M-13978.944,17223.48c-0.025-0.047-0.067-0.082-0.117-0.096l-0.416-0.123
			c-0.104-0.031-0.214,0.027-0.246,0.133l-1.937,6.549c-0.03,0.107,0.029,0.215,0.133,0.246l0.418,0.125
			c0.104,0.031,0.212-0.029,0.244-0.133l1.937-6.553C-13978.914,17223.58-13978.92,17223.525-13978.944,17223.48z"/>
	</g>
</g>
<g>
	<path fill="#FFFFFF" d="M9,11.069c-1.377,0-2.492,1.116-2.492,2.491c0,1.377,1.115,2.492,2.492,2.492
		c1.376,0,2.492-1.115,2.492-2.492C11.492,12.186,10.377,11.069,9,11.069z M8.626,15.047c-0.057,0.055-0.146,0.055-0.202,0
		L8.38,15.002l0,0l-0.048-0.049l-0.209-0.208L8.12,14.739l-0.957-0.963c-0.055-0.055-0.055-0.146,0-0.201l0.302-0.302
		c0.056-0.055,0.146-0.055,0.201,0l0.86,0.867l1.808-1.809c0.055-0.055,0.146-0.055,0.201,0l0.301,0.302
		c0.057,0.056,0.057,0.146,0,0.201L8.626,15.047z"/>
</g>
</svg>
