<svg xmlns="http://www.w3.org/2000/svg" width="16.993" height="21.44" viewBox="0 0 16.993 21.44">
  <g id="bell" transform="translate(-53.013)">
    <path id="Path_100" data-name="Path 100" d="M184.9,465.044a3.239,3.239,0,0,0,5.929,0Z" transform="translate(-126.358 -445.538)" fill="#fff"/>
    <path id="Path_101" data-name="Path 101" d="M198.764,2.048a7.285,7.285,0,0,1,2.488.436v-.1A2.391,2.391,0,0,0,198.863,0h-.2a2.391,2.391,0,0,0-2.388,2.388v.095A7.3,7.3,0,0,1,198.764,2.048Z" transform="translate(-137.254)" fill="#fff"/>
    <path id="Path_102" data-name="Path 102" d="M69.361,93.777h-15.7a.64.64,0,0,1-.631-.491.61.61,0,0,1,.336-.695,3.332,3.332,0,0,0,1.014-1.378,15.927,15.927,0,0,0,1.057-6.3,6.074,6.074,0,0,1,12.149-.024c0,.008,0,.016,0,.024a15.927,15.927,0,0,0,1.057,6.3,3.331,3.331,0,0,0,1.014,1.378.61.61,0,0,1,.336.695A.64.64,0,0,1,69.361,93.777Zm.3-1.181h0Z" transform="translate(0 -75.529)" fill="#fff"/>
  </g>
</svg>
