<?xml version="1.0" encoding="utf-8"?>
<!-- Generator: Adobe Illustrator 16.0.3, SVG Export Plug-In . SVG Version: 6.00 Build 0)  -->
<!DOCTYPE svg PUBLIC "-//W3C//DTD SVG 1.1//EN" "http://www.w3.org/Graphics/SVG/1.1/DTD/svg11.dtd">
<svg version="1.1" id="Layer_1" xmlns="http://www.w3.org/2000/svg" xmlns:xlink="http://www.w3.org/1999/xlink" x="0px" y="0px"
	 width="78px" height="78px" viewBox="0 0 78 78" enable-background="new 0 0 78 78" xml:space="preserve">
<path fill="#878787" d="M60.559,17.361H6.282C2.917,17.361,0,20.332,0,23.757V61.9c0,3.426,2.917,6.395,6.282,6.395h54.054
	c3.363,0,6.279-2.969,6.279-6.395V23.757C66.842,20.332,63.924,17.361,60.559,17.361z M63.477,62.131
	c0,1.596-1.348,2.969-2.918,2.969H6.282c-1.571,0-2.918-1.373-2.918-2.969V23.757c0-1.599,1.347-2.97,2.918-2.97h54.054
	c1.57,0,2.914,1.371,2.914,2.97v38.374H63.477z M52.486,30.152L33.644,48.197L14.805,30.152c-0.672-0.685-1.794-0.685-2.468,0
	c-0.674,0.686-0.674,1.828,0,2.513L23.551,43.4l-8.522,8.68c-0.673,0.684-0.673,1.826,0,2.512c0.225,0.229,0.672,0.457,1.121,0.457
	s0.898-0.229,1.122-0.457l8.748-8.908l0,0l6.503,6.168c0.226,0.229,0.675,0.455,1.121,0.455c0.449,0,0.897-0.227,1.122-0.455
	l6.506-6.396c0,0,0,0.229,0.223,0.229l8.748,8.908c0.225,0.229,0.674,0.457,1.123,0.457c0.447,0,0.896-0.229,1.121-0.457
	c0.672-0.686,0.672-1.828,0-2.512l-8.748-8.908c0,0,0,0-0.225,0l10.992-10.506c0.672-0.685,0.672-1.827,0-2.513
	C53.83,29.468,53.158,29.468,52.486,30.152z"/>
<ellipse fill="#FFFFFF" stroke="#878787" stroke-width="3" stroke-miterlimit="10" cx="60.098" cy="24.329" rx="16.125" ry="15.75"/>
<g>
	<path fill="#1C89B7" d="M58.338,17.933v-3.254h3.518v3.254H58.338z M58.338,33.03V19.735h3.518V33.03H58.338z"/>
</g>
</svg>
