<?xml version="1.0" encoding="utf-8"?>
<!-- Generator: Adobe Illustrator 16.0.3, SVG Export Plug-In . SVG Version: 6.00 Build 0)  -->
<!DOCTYPE svg PUBLIC "-//W3C//DTD SVG 1.1//EN" "http://www.w3.org/Graphics/SVG/1.1/DTD/svg11.dtd">
<svg version="1.1" xmlns="http://www.w3.org/2000/svg" xmlns:xlink="http://www.w3.org/1999/xlink" x="0px" y="0px" width="78px"
	 height="78px" viewBox="0 0 78 78" enable-background="new 0 0 78 78" xml:space="preserve">
<g id="Layer_1">
</g>
<g id="Layer_2">
	<path fill="#1C89B7" d="M56.907,72.771l1.356,5.208l5.208-1.357l11.364-19.367l-6.565-3.851L56.907,72.771z M77.803,52.197
		c0.4-0.683,0.17-1.564-0.511-1.966l-4.089-2.398c-0.682-0.399-1.563-0.169-1.963,0.513l-1.88,3.204l6.563,3.851L77.803,52.197z"/>
	<path fill="none" d="M46.625,48.102l33.657-7.298l7.296,33.657l-33.657,7.298L46.625,48.102z"/>
	<path fill="#868686" stroke="#868686" stroke-width="2" stroke-miterlimit="10" d="M57.294,31.587v-9.981
		c0-11.151-9.072-20.223-20.223-20.223c-11.149,0-20.221,9.072-20.221,20.223v9.981c0,11.151,9.072,20.221,20.221,20.221
		C48.222,51.809,57.294,42.738,57.294,31.587z M37.071,48.938c-9.568,0-17.352-7.784-17.352-17.351v-9.981
		c0-9.568,7.784-17.353,17.352-17.353c9.567,0,17.354,7.785,17.354,17.353v9.981C54.425,41.154,46.639,48.938,37.071,48.938z"/>
	<path fill="#868686" stroke="#868686" stroke-width="2" stroke-miterlimit="10" d="M64.756,49.958l-7.824-2.186
		c-0.765-0.219-1.554,0.231-1.769,0.994c-0.214,0.765,0.232,1.556,0.996,1.769l7.815,2.184c0.025,0.008,0.049,0.018,0.076,0.025
		l1.437-2.552C65.248,50.114,65.014,50.032,64.756,49.958z"/>
	<path fill="#868686" stroke="#868686" stroke-width="2" stroke-miterlimit="10" d="M9.477,70.261c-3.093,0-5.61-2.515-5.61-5.609
		v-6.267c0-0.969,0-3.915,5.993-5.662l8.191-2.266c0.764-0.212,1.212-1.002,1.001-1.767c-0.21-0.764-1-1.211-1.766-1.002
		l-8.21,2.273c-6.678,1.946-8.079,5.656-8.079,8.423v6.265c0,4.678,3.804,8.481,8.479,8.481h43.078l1.618-2.87H9.477z"/>
</g>
</svg>
