<?xml version="1.0" encoding="utf-8"?>
<!-- Generator: Adobe Illustrator 16.0.3, SVG Export Plug-In . SVG Version: 6.00 Build 0)  -->
<!DOCTYPE svg PUBLIC "-//W3C//DTD SVG 1.1//EN" "http://www.w3.org/Graphics/SVG/1.1/DTD/svg11.dtd">
<svg version="1.1" id="Layer_1" xmlns="http://www.w3.org/2000/svg" xmlns:xlink="http://www.w3.org/1999/xlink" x="0px" y="0px"
	 width="15px" height="15px" viewBox="1.5 1.5 15 15" enable-background="new 1.5 1.5 15 15" xml:space="preserve">
<g id="icons">
	<g id="exit2">
		<path fill="#30323E" d="M9,7.775c0.674,0,1.225-0.551,1.225-1.225V4.1c0-0.674-0.551-1.225-1.225-1.225S7.775,3.426,7.775,4.1
			v2.45C7.775,7.224,8.326,7.775,9,7.775z"/>
		<path fill="#30323E" d="M13.35,4.651L13.35,4.651c-0.185-0.184-0.368-0.245-0.675-0.245c-0.489,0-0.919,0.429-0.919,0.919
			c0,0.245,0.123,0.49,0.245,0.674l0,0l0,0l0,0C12.798,6.795,13.226,7.836,13.226,9c0,2.389-1.898,4.287-4.287,4.287
			S4.651,11.389,4.651,9c0-1.164,0.49-2.266,1.286-3.001l0,0C6.122,5.815,6.244,5.57,6.244,5.325c0-0.49-0.428-0.919-0.918-0.919
			c-0.245,0-0.49,0.122-0.674,0.245l0,0C3.549,5.753,2.875,7.285,2.875,9c0,3.369,2.756,6.125,6.125,6.125
			c3.369,0,6.125-2.756,6.125-6.125C15.125,7.285,14.451,5.753,13.35,4.651z"/>
	</g>
</g>
</svg>
