<svg xmlns="http://www.w3.org/2000/svg" width="16" height="20" viewBox="0 0 16 20">
  <defs>
    <style>
      .cls-1 {
        fill: #8596ca;
        fill-rule: evenodd;
      }
    </style>
  </defs>
  <path class="cls-1" d="M56.084,462.309H54.547a1.458,1.458,0,0,1,.027.279v1.224A1.667,1.667,0,0,1,52.84,465.4H47.169a1.667,1.667,0,0,1-1.735-1.585v-1.224a1.466,1.466,0,0,1,.027-0.279H43.924A1.848,1.848,0,0,0,42,464.066v15.166a1.847,1.847,0,0,0,1.923,1.756h12.16a1.848,1.848,0,0,0,1.923-1.756V464.066A1.848,1.848,0,0,0,56.084,462.309Zm-10.928,5.64a0.675,0.675,0,0,1,.877.209l0.3,0.471,1.433-1.892a0.68,0.68,0,0,1,.892-0.149,0.555,0.555,0,0,1,.163.815l-2.005,2.648a0.66,0.66,0,0,1-.527.253H46.266a0.65,0.65,0,0,1-.529-0.289l-0.81-1.264A0.558,0.558,0,0,1,45.156,467.949Zm3.667,3.779-2.005,2.649a0.662,0.662,0,0,1-.527.252H46.266a0.655,0.655,0,0,1-.529-0.289l-0.81-1.265a0.558,0.558,0,0,1,.229-0.8,0.676,0.676,0,0,1,.877.21l0.3,0.471,1.433-1.893a0.68,0.68,0,0,1,.892-0.148A0.554,0.554,0,0,1,48.823,471.728Zm5.748,2.37H50.228a0.588,0.588,0,1,1,0-1.171H54.57A0.588,0.588,0,1,1,54.57,474.1Zm0-2.189H50.228a0.588,0.588,0,1,1,0-1.171H54.57A0.588,0.588,0,1,1,54.57,471.909Zm0-2.136H50.228a0.588,0.588,0,1,1,0-1.171H54.57A0.588,0.588,0,1,1,54.57,469.773ZM52.84,461H47.169a0.435,0.435,0,0,0-.453.413v2.4h0a0.435,0.435,0,0,0,.453.414H52.84a0.435,0.435,0,0,0,.453-0.414v-2.4A0.435,0.435,0,0,0,52.84,461Z" transform="translate(-42 -461)"/>
</svg>
