<svg xmlns="http://www.w3.org/2000/svg" width="19.438" height="21.375" viewBox="0 0 19.438 21.375">
  <defs>
    <style>
      .cls-1 {
        fill: #8596ca;
        fill-rule: evenodd;
      }
    </style>
  </defs>
  <path class="cls-1" d="M51.5,305.69h2.379l-3.641-3.8v2.545A1.263,1.263,0,0,0,51.5,305.69Zm-3.947,9.589H43.329a0.386,0.386,0,1,1,0-.771h4.477a6.833,6.833,0,0,1,.986-1.686H43.329a0.386,0.386,0,1,1,0-.771h6.2a6.713,6.713,0,0,1,4.394-1.658c0.16,0,.291.014,0.486,0.029v-3.961H51.5a2.039,2.039,0,0,1-2.039-2.029V301.3H42.008a1.731,1.731,0,0,0-1.728,1.74v14.707a1.715,1.715,0,0,0,1.728,1.721h5.85A6.54,6.54,0,0,1,47.548,315.279Zm-4.219-5.638h4.918a0.386,0.386,0,1,1,0,.771H43.329A0.386,0.386,0,1,1,43.329,309.641Zm10.589,1.537a5.759,5.759,0,1,0,5.8,5.759A5.787,5.787,0,0,0,53.918,311.178Zm-0.01,5.345a2.1,2.1,0,0,1,.354,4.173v0.559a0.388,0.388,0,0,1-.777,0v-0.574a2.11,2.11,0,0,1-1.694-2.057,0.388,0.388,0,0,1,.777,0,1.34,1.34,0,1,0,1.34-1.33,2.1,2.1,0,0,1-.422-4.159v-0.41a0.388,0.388,0,0,1,.777,0v0.39a2.109,2.109,0,0,1,1.762,2.073,0.388,0.388,0,0,1-.777,0A1.34,1.34,0,0,0,54,313.858a0.375,0.375,0,0,1-.126.019,0.428,0.428,0,0,1-.112-0.015A1.334,1.334,0,0,0,53.908,316.523Z" transform="translate(-40.281 -301.313)"/>
</svg>
