<svg xmlns="http://www.w3.org/2000/svg" width="21.094" height="22.312" viewBox="0 0 21.094 22.312">
  <defs>
    <style>
      .cls-1 {
        fill: #8596ca;
        fill-rule: evenodd;
      }
    </style>
  </defs>
  <path class="cls-1" d="M52.306,610.879a1.266,1.266,0,0,1-.7.487l-1.4.381a1.254,1.254,0,0,1-1.586-1.095L48.5,609.213a1.231,1.231,0,0,1,.219-0.829l0.052-.074H43.789a0.732,0.732,0,0,1,0-1.463h6.035l1.349-1.92H43.789a0.732,0.732,0,0,1,0-1.464l8.422-.021,3.158-4.515v-3.343a0.977,0.977,0,0,0-.976-0.993H51.975V596.5a1.623,1.623,0,0,1-1.64,1.613H45.473a1.6,1.6,0,0,1-1.617-1.613v-1.907H41.412a0.994,0.994,0,0,0-1,.993v17.059a1.015,1.015,0,0,0,1,1.017H54.392a1,1,0,0,0,.976-1.017v-6.1Zm-8.517-10.8h8.228a0.732,0.732,0,0,1,0,1.463H43.789A0.732,0.732,0,0,1,43.789,600.079Zm1.7-2.927h4.858a0.667,0.667,0,0,0,.667-0.666V593.7a0.667,0.667,0,0,0-.667-0.666H49.612a1.71,1.71,0,0,0-3.419,0H45.486a0.666,0.666,0,0,0-.667.666v2.785A0.667,0.667,0,0,0,45.486,597.152Zm2.417-4.868a0.761,0.761,0,0,1,.762.752H47.139A0.762,0.762,0,0,1,47.9,592.284Zm13.611,3.54a0.473,0.473,0,0,0-.2-0.3l-1.216-.845a0.472,0.472,0,0,0-.657.116L50.829,607.11l1.99,1.384,8.617-12.318A0.474,0.474,0,0,0,61.514,595.824Zm-12.043,13.3,0.125,1.447a0.278,0.278,0,0,0,.118.206,0.288,0.288,0,0,0,.161.052,0.266,0.266,0,0,0,.074-0.011l1.405-.384a0.284,0.284,0,0,0,.157-0.109l0.527-.755-1.992-1.384-0.528.754A0.272,0.272,0,0,0,49.471,609.121Z" transform="translate(-40.406 -591.344)"/>
</svg>
