<?xml version="1.0" encoding="utf-8"?>
<!-- Generator: Adobe Illustrator 16.0.0, SVG Export Plug-In . SVG Version: 6.00 Build 0)  -->
<!DOCTYPE svg PUBLIC "-//W3C//DTD SVG 1.1//EN" "http://www.w3.org/Graphics/SVG/1.1/DTD/svg11.dtd">
<svg version="1.1" id="Layer_1" xmlns="http://www.w3.org/2000/svg" xmlns:xlink="http://www.w3.org/1999/xlink" x="0px" y="0px"
	 width="16px" height="16px" viewBox="0 0 16 16" enable-background="new 0 0 16 16" xml:space="preserve">
<path fill="none" d="M-2.469-2.469h20.938v20.938H-2.469V-2.469z"/>
<path fill="#FFFFFF" d="M13.695,0.025c0.154,0,0.287,0.056,0.4,0.169c0.113,0.113,0.169,0.246,0.169,0.4v14.81
	c0,0.154-0.056,0.287-0.169,0.398c-0.113,0.115-0.246,0.171-0.4,0.171H2.304c-0.154,0-0.288-0.056-0.4-0.171
	c-0.113-0.111-0.168-0.244-0.168-0.398V0.594c0-0.154,0.056-0.288,0.168-0.4c0.112-0.112,0.246-0.169,0.4-0.169H13.695z
	 M6.291,2.588v0.57c0,0.083,0.027,0.152,0.081,0.205c0.053,0.053,0.122,0.08,0.204,0.08h0.57c0.083,0,0.152-0.027,0.205-0.08
	c0.054-0.053,0.081-0.122,0.081-0.205v-0.57c0-0.082-0.027-0.15-0.081-0.204C7.296,2.331,7.228,2.303,7.145,2.303h-0.57
	c-0.083,0-0.151,0.027-0.204,0.081C6.317,2.438,6.291,2.505,6.291,2.588z M6.291,4.867v0.57c0,0.082,0.027,0.151,0.081,0.204
	c0.053,0.053,0.121,0.08,0.204,0.08h0.57c0.083,0,0.152-0.027,0.205-0.081c0.054-0.053,0.081-0.122,0.081-0.204v-0.57
	c0-0.083-0.027-0.152-0.081-0.205c-0.053-0.053-0.122-0.08-0.205-0.08h-0.57c-0.083,0-0.151,0.027-0.204,0.08
	C6.317,4.715,6.291,4.783,6.291,4.867z M6.291,7.146v0.57c0,0.083,0.027,0.151,0.081,0.205C6.425,7.974,6.494,8,6.576,8h0.57
	c0.083,0,0.152-0.027,0.205-0.08c0.054-0.053,0.081-0.122,0.081-0.205v-0.57c0-0.083-0.027-0.151-0.081-0.205
	C7.297,6.886,7.229,6.86,7.146,6.86h-0.57c-0.083,0-0.151,0.026-0.204,0.08C6.317,6.994,6.291,7.063,6.291,7.146z M6.291,9.424
	v0.568c0,0.083,0.027,0.151,0.081,0.204c0.053,0.054,0.122,0.081,0.204,0.081h0.57c0.083,0,0.152-0.027,0.205-0.081
	c0.054-0.053,0.081-0.121,0.081-0.204V9.424c0-0.084-0.027-0.151-0.081-0.205C7.296,9.166,7.228,9.14,7.145,9.14h-0.57
	c-0.083,0-0.151,0.024-0.204,0.079C6.317,9.272,6.291,9.34,6.291,9.424z M5.151,12.271v-0.569c0-0.083-0.026-0.151-0.08-0.204
	c-0.054-0.056-0.122-0.08-0.205-0.08h-0.57c-0.083,0-0.151,0.024-0.205,0.08c-0.053,0.053-0.08,0.121-0.08,0.204v0.569
	c0,0.083,0.027,0.15,0.08,0.205c0.054,0.054,0.122,0.079,0.205,0.079h0.57c0.083,0,0.151-0.025,0.205-0.079
	C5.125,12.422,5.151,12.354,5.151,12.271z M5.151,9.993V9.424c0-0.084-0.026-0.151-0.08-0.205C5.018,9.166,4.95,9.14,4.867,9.14
	h-0.57c-0.083,0-0.151,0.024-0.205,0.079C4.04,9.272,4.013,9.34,4.013,9.424v0.568c0,0.083,0.027,0.151,0.08,0.204
	c0.054,0.054,0.122,0.081,0.205,0.081h0.57c0.083,0,0.151-0.027,0.205-0.081C5.125,10.145,5.151,10.076,5.151,9.993z M5.151,7.714
	V7.146c0-0.083-0.026-0.151-0.08-0.205C5.018,6.886,4.95,6.86,4.867,6.86h-0.57c-0.083,0-0.151,0.026-0.205,0.08
	C4.04,6.994,4.013,7.063,4.013,7.146v0.57c0,0.083,0.027,0.151,0.08,0.205C4.146,7.974,4.214,8,4.297,8h0.57
	c0.083,0,0.151-0.027,0.205-0.08C5.125,7.866,5.151,7.797,5.151,7.714z M5.151,5.438v-0.57c0-0.083-0.026-0.152-0.08-0.205
	c-0.054-0.053-0.122-0.08-0.205-0.08h-0.57c-0.083,0-0.151,0.027-0.205,0.08C4.04,4.715,4.013,4.783,4.013,4.867v0.57
	c0,0.082,0.027,0.151,0.08,0.204c0.054,0.054,0.122,0.081,0.205,0.081h0.57c0.083,0,0.151-0.027,0.205-0.081
	C5.125,5.588,5.151,5.52,5.151,5.438z M5.151,3.157v-0.57c0-0.082-0.026-0.15-0.08-0.204c-0.054-0.053-0.122-0.08-0.205-0.08h-0.57
	c-0.083,0-0.151,0.027-0.205,0.081C4.04,2.438,4.013,2.505,4.013,2.588v0.57c0,0.083,0.027,0.152,0.08,0.205
	c0.054,0.053,0.122,0.08,0.205,0.08h0.57c0.083,0,0.151-0.027,0.205-0.08C5.125,3.31,5.151,3.241,5.151,3.157z M9.709,14.549v-1.707
	c0-0.084-0.027-0.152-0.082-0.205c-0.053-0.055-0.121-0.081-0.203-0.081H6.576c-0.083,0-0.151,0.026-0.204,0.081
	c-0.054,0.053-0.081,0.121-0.081,0.205v1.707c0,0.084,0.027,0.151,0.081,0.205c0.053,0.053,0.122,0.08,0.204,0.08h2.849
	c0.083,0,0.149-0.027,0.204-0.08C9.682,14.701,9.709,14.633,9.709,14.549z M9.709,9.993V9.424c0-0.084-0.027-0.151-0.082-0.205
	C9.574,9.164,9.506,9.14,9.424,9.14H8.854c-0.084,0-0.153,0.024-0.206,0.079c-0.053,0.054-0.08,0.121-0.08,0.205v0.568
	c0,0.083,0.027,0.151,0.08,0.204c0.053,0.054,0.122,0.081,0.206,0.081h0.569c0.082,0,0.15-0.027,0.203-0.081
	C9.682,10.145,9.709,10.076,9.709,9.993z M9.709,7.714V7.146c0-0.083-0.027-0.151-0.082-0.205C9.574,6.886,9.506,6.86,9.424,6.86
	H8.854c-0.084,0-0.153,0.026-0.206,0.08c-0.053,0.054-0.08,0.122-0.08,0.205v0.57c0,0.083,0.027,0.151,0.08,0.205S8.771,8,8.854,8
	h0.569c0.082,0,0.15-0.027,0.203-0.08C9.682,7.867,9.709,7.797,9.709,7.714z M9.709,5.438v-0.57c0-0.083-0.027-0.152-0.082-0.205
	c-0.053-0.053-0.121-0.08-0.203-0.08H8.854c-0.084,0-0.153,0.027-0.206,0.08c-0.053,0.053-0.08,0.122-0.08,0.205v0.57
	c0,0.082,0.027,0.151,0.08,0.204c0.053,0.054,0.122,0.081,0.206,0.081h0.569c0.082,0,0.15-0.027,0.203-0.081
	C9.682,5.588,9.709,5.52,9.709,5.438z M9.709,3.157v-0.57c0-0.082-0.027-0.15-0.082-0.204c-0.053-0.053-0.121-0.08-0.203-0.08H8.854
	c-0.084,0-0.153,0.027-0.206,0.081c-0.053,0.053-0.08,0.122-0.08,0.204v0.57c0,0.083,0.027,0.152,0.08,0.205
	c0.053,0.053,0.122,0.08,0.206,0.08h0.569c0.082,0,0.15-0.027,0.203-0.08C9.682,3.311,9.709,3.241,9.709,3.157z M11.986,12.271
	v-0.569c0-0.083-0.025-0.151-0.078-0.204c-0.055-0.056-0.123-0.08-0.205-0.08h-0.57c-0.082,0-0.15,0.024-0.204,0.08
	c-0.054,0.053-0.079,0.121-0.079,0.204v0.569c0,0.083,0.025,0.15,0.079,0.205c0.054,0.054,0.122,0.079,0.204,0.079h0.57
	c0.082,0,0.15-0.025,0.205-0.079C11.959,12.422,11.986,12.354,11.986,12.271z M11.986,9.993V9.424c0-0.084-0.025-0.151-0.078-0.205
	c-0.055-0.055-0.123-0.079-0.205-0.079h-0.57c-0.082,0-0.15,0.024-0.204,0.079C10.875,9.272,10.85,9.34,10.85,9.424v0.568
	c0,0.083,0.025,0.151,0.079,0.204c0.054,0.054,0.122,0.081,0.204,0.081h0.57c0.082,0,0.15-0.027,0.205-0.081
	C11.959,10.145,11.986,10.076,11.986,9.993z M11.986,7.714V7.146c0-0.083-0.025-0.151-0.078-0.205
	c-0.055-0.054-0.123-0.08-0.205-0.08h-0.57c-0.082,0-0.15,0.026-0.204,0.08c-0.054,0.054-0.079,0.122-0.079,0.205v0.57
	c0,0.083,0.025,0.151,0.079,0.205S11.051,8,11.133,8h0.57c0.082,0,0.15-0.027,0.205-0.08C11.959,7.866,11.986,7.797,11.986,7.714z
	 M11.986,5.438v-0.57c0-0.083-0.025-0.152-0.078-0.205c-0.055-0.053-0.123-0.08-0.205-0.08h-0.57c-0.082,0-0.15,0.027-0.204,0.08
	c-0.054,0.053-0.079,0.122-0.079,0.205v0.57c0,0.082,0.025,0.151,0.079,0.204c0.054,0.054,0.122,0.081,0.204,0.081h0.57
	c0.082,0,0.15-0.027,0.205-0.081C11.959,5.588,11.986,5.52,11.986,5.438z M11.986,3.157v-0.57c0-0.082-0.025-0.15-0.078-0.204
	c-0.055-0.054-0.123-0.081-0.205-0.081h-0.57c-0.082,0-0.15,0.027-0.204,0.081c-0.054,0.053-0.079,0.122-0.079,0.204v0.57
	c0,0.083,0.025,0.152,0.079,0.205c0.054,0.053,0.122,0.08,0.204,0.08h0.57c0.082,0,0.15-0.027,0.205-0.08
	C11.959,3.31,11.986,3.241,11.986,3.157z"/>
</svg>
