<?xml version="1.0" encoding="utf-8"?>
<!-- Generator: Adobe Illustrator 16.0.3, SVG Export Plug-In . SVG Version: 6.00 Build 0)  -->
<!DOCTYPE svg PUBLIC "-//W3C//DTD SVG 1.1//EN" "http://www.w3.org/Graphics/SVG/1.1/DTD/svg11.dtd">
<svg version="1.1" id="Layer_1" xmlns="http://www.w3.org/2000/svg" xmlns:xlink="http://www.w3.org/1999/xlink" x="0px" y="0px"
	 width="16px" height="16px" viewBox="0 0 16 16" enable-background="new 0 0 16 16" xml:space="preserve">
<g id="Icons_18_" transform="translate(-1287.194 1813.01)">
	<g id="Group_193" transform="translate(0 0)">
		<path fill="#697081" d="M1302.012-1811.649h-4.219c-0.65,0.003-1.181,0.531-1.181,1.183v4.219c0,0.151,0.029,0.301,0.086,0.44
			c0.183,0.445,0.611,0.736,1.095,0.736h4.219c0.649-0.001,1.178-0.526,1.182-1.177v-4.219
			C1303.192-1811.118,1302.665-1811.647,1302.012-1811.649z M1300.372-1806.963h-0.365v-2.44h-0.012l-0.482,0.264l-0.073-0.289
			l0.61-0.327l0.322-0.002V-1806.963L1300.372-1806.963z"/>
		<path id="Path_38" fill="#697081" d="M1295.965-1809.122v3.001l-1.945,1.363l-6.323-4.361L1295.965-1809.122z"/>
		<path fill="#697081" d="M1297.79-1804.424c-0.686,0.003-1.311-0.383-1.619-0.994l-2.147,1.504l-6.827-4.713v10.256l1.607-1.516
			h12.046v-4.537H1297.79z"/>
	</g>
</g>
</svg>
