<?xml version="1.0" encoding="utf-8"?>
<!-- Generator: Adobe Illustrator 16.0.3, SVG Export Plug-In . SVG Version: 6.00 Build 0)  -->
<!DOCTYPE svg PUBLIC "-//W3C//DTD SVG 1.1//EN" "http://www.w3.org/Graphics/SVG/1.1/DTD/svg11.dtd">
<svg version="1.1" id="Layer_1" xmlns="http://www.w3.org/2000/svg" xmlns:xlink="http://www.w3.org/1999/xlink" x="0px" y="0px"
	 width="78px" height="78px" viewBox="0 0 78 78" enable-background="new 0 0 78 78" xml:space="preserve">
<g id="miu">
	<g id="Artboard-1" transform="translate(-719.000000, -227.000000)">
		<g id="slice" transform="translate(215.000000, 119.000000)">
		</g>
		<path fill="#878787" d="M778.7,234.262h-6.297v3.436h6.297c0,0,4.356,0.41,4.356,4.256v55.383c0,4.244-4.356,4.347-4.356,4.347
			h-41.105c0,0-4.313-0.5-4.313-4.347v-55.383c0-3.846,4.313-4.256,4.313-4.256h6.298v-3.436h-6.298c0,0-7.755,0-7.755,7.692
			c0,22.267,0,55.383,0,55.383c0,7.692,7.755,7.692,7.755,7.692H778.7c0,0,7.753,0,7.753-7.692v-55.383
			C786.453,234.262,778.7,234.262,778.7,234.262z"/>
		<path fill="#878787" d="M765.224,234.29c0,0,0.132-7.104-7.077-7.104c-7.207,0-7.077,7.104-7.077,7.104s-3.538,0.154-3.538,3.601
			c0,3.448,3.538,3.448,3.538,3.448h14.154c0,0,3.538,0.25,3.538-3.448C768.762,234.193,765.224,234.29,765.224,234.29z
			 M758.146,237.8c-1.955,0-3.539-1.584-3.539-3.538s1.584-3.538,3.539-3.538c1.956,0,3.537,1.584,3.537,3.538
			S760.103,237.8,758.146,237.8z"/>
	</g>
</g>
<path fill="#1C89B7" d="M26.1,42.847c0.437,0,0.875-0.175,1.224-0.525l6.822-6.821l3.499,3.499c0.7,0.7,1.749,0.7,2.449,0
	l9.971-9.971v3.148c0,0.963,0.787,1.75,1.748,1.75c0.963,0,1.751-0.788,1.751-1.75V24.83c0-0.962-0.788-1.749-1.751-1.749h-7.346
	c-0.963,0-1.749,0.787-1.749,1.749c0,0.963,0.786,1.75,1.749,1.75h3.148l-8.746,8.746l-3.499-3.498c-0.7-0.699-1.749-0.699-2.449,0
	l-8.046,8.046c-0.7,0.699-0.7,1.75,0,2.448C25.138,42.759,25.663,42.847,26.1,42.847z"/>
<path fill="#1C89B7" d="M52.426,52.206H25.488c-0.962,0-1.749,0.785-1.749,1.748s0.787,1.749,1.749,1.749h27.025
	c0.963,0,1.749-0.786,1.749-1.749S53.388,52.206,52.426,52.206z"/>
<path fill="#1C89B7" d="M52.426,61.826H25.488c-0.962,0-1.749,0.787-1.749,1.75c0,0.961,0.787,1.748,1.749,1.748h27.025
	c0.963,0,1.749-0.787,1.749-1.748C54.262,62.613,53.388,61.826,52.426,61.826z"/>
</svg>
