<?xml version="1.0" encoding="utf-8"?>
<!-- Generator: Adobe Illustrator 16.0.3, SVG Export Plug-In . SVG Version: 6.00 Build 0)  -->
<!DOCTYPE svg PUBLIC "-//W3C//DTD SVG 1.1//EN" "http://www.w3.org/Graphics/SVG/1.1/DTD/svg11.dtd">
<svg version="1.1" id="Layer_1" xmlns="http://www.w3.org/2000/svg" xmlns:xlink="http://www.w3.org/1999/xlink" x="0px" y="0px"
	 width="15px" height="15px" viewBox="1.5 1.5 15 15" enable-background="new 1.5 1.5 15 15" xml:space="preserve">
<g id="Layer_25">
	<g>
		<path fill="#30323E" d="M10.271,8.52C10.025,8.394,9.767,8.413,9.692,8.56l0.886,0.449C10.652,8.862,10.514,8.644,10.271,8.52z"/>
		<path fill="#30323E" d="M10.402,9.333c-0.289-0.147-0.578-0.293-0.867-0.44C9.391,8.827,8.936,9.036,8.523,9.355
			c-0.279,0.231-0.559,0.461-0.837,0.692c0.689,0.521,1.704,1.142,2.878,1.397c0.02-0.34,0.039-0.681,0.06-1.021
			C10.64,9.901,10.54,9.412,10.402,9.333z"/>
		<path fill="#30323E" d="M7.245,10.412c-0.917,0.757-1.834,1.515-2.751,2.271c-0.413,0.318-0.339,1.135,0.277,1.694
			c1.131,1.024,2.516,1.728,4.011,2.038c0.815,0.168,1.519-0.255,1.531-0.775c0.072-1.212,0.146-2.424,0.218-3.636
			c-0.652-0.131-1.257-0.363-1.792-0.635C8.146,11.068,7.639,10.719,7.245,10.412z"/>
	</g>
</g>
<rect x="11.812" y="1.303" transform="matrix(0.877 0.4805 -0.4805 0.877 3.8481 -5.2769)" fill="#30323E" width="0.836" height="7.147"/>
</svg>
