<?xml version="1.0" encoding="utf-8"?>
<!-- Generator: Adobe Illustrator 16.0.3, SVG Export Plug-In . SVG Version: 6.00 Build 0)  -->
<!DOCTYPE svg PUBLIC "-//W3C//DTD SVG 1.1//EN" "http://www.w3.org/Graphics/SVG/1.1/DTD/svg11.dtd">
<svg version="1.1" id="Layer_1" xmlns="http://www.w3.org/2000/svg" xmlns:xlink="http://www.w3.org/1999/xlink" x="0px" y="0px"
	 width="15px" height="15px" viewBox="1.5 1.5 15 15" enable-background="new 1.5 1.5 15 15" xml:space="preserve">
<g id="delete" transform="translate(5512.7 1303.929)">
	<g id="Group_200" transform="translate(2.4)">
		<path id="Path_57" fill="#30323E" stroke="#30323E" stroke-width="0.7" stroke-miterlimit="10" d="M-5506.241-1289.522
			c-0.187,0.01-0.344-0.134-0.355-0.32c-0.001-0.01-0.001-0.021,0-0.034v-5.97c0-0.197,0.159-0.356,0.358-0.356
			c0.195,0,0.355,0.159,0.355,0.356v5.963C-5505.895-1289.689-5506.049-1289.533-5506.241-1289.522z"/>
		<path id="Path_53" fill="#30323E" stroke="#30323E" stroke-width="0.7" stroke-miterlimit="10" d="M-5503.346-1287.773h-5.785
			c-1.164-0.002-2.106-0.943-2.108-2.106v-6.468c0-0.197,0.159-0.356,0.357-0.356c0.196,0,0.356,0.16,0.356,0.356v6.463
			c-0.002,0.771,0.622,1.397,1.392,1.398h0.001h5.785c0.77,0,1.393-0.624,1.393-1.393v-6.469c0-0.196,0.162-0.356,0.356-0.356
			c0.198,0,0.358,0.16,0.358,0.356v6.463C-5501.251-1288.724-5502.19-1287.788-5503.346-1287.773z"/>
		<path id="Path_54" fill="#30323E" stroke="#30323E" stroke-width="0.7" stroke-miterlimit="10" d="M-5501.455-1300.308h-2.713
			c-0.191-1.144-1.275-1.915-2.418-1.724c-0.884,0.148-1.576,0.84-1.725,1.724h-2.714c-0.799-0.01-1.455,0.632-1.465,1.432
			c0,0.011,0,0.021,0,0.033c-0.008,0.782,0.621,1.422,1.402,1.43c0.021,0,0.042,0,0.062-0.001h9.606
			c0.798,0.004,1.45-0.639,1.455-1.437c0.005-0.8-0.64-1.453-1.438-1.458C-5501.418-1300.309-5501.436-1300.309-5501.455-1300.308z
			 M-5506.238-1301.342c0.627-0.006,1.174,0.422,1.32,1.034h-2.68C-5507.425-1300.917-5506.874-1301.339-5506.238-1301.342z
			 M-5501.455-1298.13h-9.569c-0.415,0-0.75-0.335-0.75-0.75c0-0.414,0.336-0.75,0.75-0.75h9.605
			c0.414,0.003,0.747,0.337,0.752,0.75C-5500.685-1298.459-5501.032-1298.13-5501.455-1298.13z"/>
		<path id="Path_55" fill="#30323E" stroke="#30323E" stroke-width="0.7" stroke-miterlimit="10" d="M-5508.742-1289.522
			c-0.186,0.01-0.344-0.134-0.355-0.32c0-0.01,0-0.021,0-0.034v-5.97c0-0.197,0.16-0.356,0.356-0.356
			c0.198,0,0.357,0.159,0.357,0.356v5.963C-5508.393-1289.689-5508.548-1289.533-5508.742-1289.522z"/>
		<path id="Path_56" fill="#30323E" stroke="#30323E" stroke-width="0.7" stroke-miterlimit="10" d="M-5503.742-1289.522
			c-0.185,0.01-0.345-0.134-0.354-0.32c-0.001-0.01-0.001-0.021,0-0.034v-5.97c0-0.197,0.16-0.356,0.356-0.356
			c0.197,0,0.357,0.159,0.357,0.356v5.963C-5503.393-1289.689-5503.549-1289.533-5503.742-1289.522z"/>
	</g>
</g>
</svg>
