<?xml version="1.0" encoding="utf-8"?>
<!-- Generator: Adobe Illustrator 16.0.3, SVG Export Plug-In . SVG Version: 6.00 Build 0)  -->
<!DOCTYPE svg PUBLIC "-//W3C//DTD SVG 1.1//EN" "http://www.w3.org/Graphics/SVG/1.1/DTD/svg11.dtd">
<svg version="1.1" id="Layer_1" xmlns="http://www.w3.org/2000/svg" xmlns:xlink="http://www.w3.org/1999/xlink" x="0px" y="0px"
	 width="18px" height="18px" viewBox="0 0 18 18" enable-background="new 0 0 18 18" xml:space="preserve">
<path id="back" fill="#FFFFFF" d="M16.875,6.75H9V3.375C9,2.754,8.496,2.25,7.875,2.25l0,0c-0.519,0-0.782,0.323-1.125,0.607
	L0.703,7.875C0.271,8.227,0,8.5,0,9s0.271,0.774,0.703,1.125l6.047,5.018c0.344,0.284,0.606,0.607,1.125,0.607
	C8.496,15.75,9,15.246,9,14.625l0,0V11.25h7.875c0.621,0,1.125-0.504,1.125-1.125l0,0v-2.25C18,7.254,17.496,6.75,16.875,6.75
	L16.875,6.75z"/>
</svg>
