<svg xmlns="http://www.w3.org/2000/svg" width="17" height="20" viewBox="0 0 17 20">
  <defs>
    <style>
      .cls-1 {
        fill: #8596ca;
        fill-rule: evenodd;
      }
    </style>
  </defs>
  <path id="Shape_108_copy" data-name="Shape 108 copy" class="cls-1" d="M55.843,630.265H55.237V644.63a1.767,1.767,0,0,1-1.8,1.731H42.413v0.532A1.126,1.126,0,0,0,43.558,648H55.841a1.126,1.126,0,0,0,1.146-1.105V631.37A1.124,1.124,0,0,0,55.843,630.265ZM47.3,645.734H53.44a1.125,1.125,0,0,0,1.145-1.1V629.107A1.126,1.126,0,0,0,53.44,628H45.256v0.365a1.053,1.053,0,0,1,.006.117v3.026a1.587,1.587,0,0,1-1.613,1.556H40.511c-0.032,0-.067,0-0.1,0h-0.4V644.63a1.125,1.125,0,0,0,1.145,1.1H47.3Zm0.232-3.754h-4a0.522,0.522,0,1,1,0-1.044h4.006A0.522,0.522,0,1,1,47.53,641.98Zm4.006-2.664h-8.01a0.523,0.523,0,1,1,0-1.045h8.01A0.523,0.523,0,1,1,51.536,639.316Zm-8.01-3.874h8.01a0.522,0.522,0,1,1,0,1.044h-8.01A0.522,0.522,0,1,1,43.526,635.442Zm-3.014-3h3.146a0.944,0.944,0,0,0,.953-0.919v-3.036a0.485,0.485,0,0,0-.823-0.328l-3.619,3.49A0.463,0.463,0,0,0,40.511,632.439Z" transform="translate(-40 -628)"/>
</svg>
