<svg xmlns="http://www.w3.org/2000/svg" width="14.438" height="18.907" viewBox="0 0 14.438 18.907">
  <defs>
    <style>
      .cls-1 {
        fill: #8596ca;
        fill-rule: evenodd;
      }
    </style>
  </defs>
  <path class="cls-1" d="M51.8,340.205a0.609,0.609,0,0,1-.6-0.616v-5.551H43.393a0.609,0.609,0,0,0-.6.617v17.679a0.609,0.609,0,0,0,.6.617H56.6a0.609,0.609,0,0,0,.6-0.617V340.205H51.8Zm-6,9.046a0.617,0.617,0,1,1,.6-0.617A0.609,0.609,0,0,1,45.795,349.251Zm0-2.467a0.617,0.617,0,1,1,.6-0.617A0.609,0.609,0,0,1,45.795,346.784Zm0-2.467a0.617,0.617,0,1,1,.6-0.617A0.609,0.609,0,0,1,45.795,344.317Zm8.407,4.934h-6a0.617,0.617,0,0,1,0-1.234h6A0.617,0.617,0,0,1,54.2,349.251Zm0-2.467h-6a0.617,0.617,0,0,1,0-1.234h6A0.617,0.617,0,0,1,54.2,346.784Zm0-2.467h-6a0.617,0.617,0,0,1,0-1.234h6A0.617,0.617,0,0,1,54.2,344.317ZM52.4,334.4v4.573h4.452Z" transform="translate(-42.781 -334.031)"/>
</svg>
