<svg xmlns="http://www.w3.org/2000/svg" width="18.813" height="15.688" viewBox="0 0 18.813 15.688">
  <defs>
    <style>
      .cls-1 {
        fill: #8596ca;
        fill-rule: evenodd;
      }
    </style>
  </defs>
  <path class="cls-1" d="M45.491,666.8a0.178,0.178,0,0,0-.171.133l-3.591,9.155v0.321c0,0.235-.015.32,0.177,0.32H55.938a0.8,0.8,0,0,0,.768-0.581l3.206-9.028V666.8H45.491Zm-0.4-.641H58.031v-2.007a0.867,0.867,0,0,0-.856-0.875h-7.76l-1.567-2.243H41.958a0.867,0.867,0,0,0-.856.876V675.3l3.224-8.558A0.8,0.8,0,0,1,45.093,666.161Z" transform="translate(-41.094 -661.031)"/>
</svg>
