<svg xmlns="http://www.w3.org/2000/svg" width="17" height="20" viewBox="0 0 17 20">
  <defs>
    <style>
      .cls-1 {
        fill: #8596ca;
        fill-rule: evenodd;
      }
    </style>
  </defs>
  <path class="cls-1" d="M57.844,496.265H57.237V510.63a1.767,1.767,0,0,1-1.8,1.731H44.413v0.532A1.126,1.126,0,0,0,45.558,514H57.841a1.126,1.126,0,0,0,1.146-1.105V497.37A1.124,1.124,0,0,0,57.844,496.265ZM49.3,511.734H55.44a1.125,1.125,0,0,0,1.146-1.1V495.107A1.126,1.126,0,0,0,55.44,494H47.256v0.365a1.053,1.053,0,0,1,.007.117v3.026a1.587,1.587,0,0,1-1.613,1.556H42.511c-0.032,0-.067,0-0.1,0h-0.4V510.63a1.125,1.125,0,0,0,1.145,1.1H49.3Zm0.232-3.754h-4a0.522,0.522,0,1,1,0-1.044h4.006A0.522,0.522,0,1,1,49.53,507.98Zm4.006-2.665h-8.01a0.522,0.522,0,1,1,0-1.044h8.01A0.522,0.522,0,1,1,53.536,505.315Zm-8.01-3.873h8.01a0.522,0.522,0,1,1,0,1.044h-8.01A0.522,0.522,0,1,1,45.526,501.442Zm-3.014-3h3.147a0.944,0.944,0,0,0,.953-0.919v-3.036a0.485,0.485,0,0,0-.823-0.328l-3.619,3.49A0.463,0.463,0,0,0,42.511,498.439Z" transform="translate(-42 -494)"/>
</svg>
