<svg xmlns="http://www.w3.org/2000/svg" width="18.063" height="17.281" viewBox="0 0 18.063 17.281">
  <defs>
    <style>
      .cls-1 {
        fill: #8596ca;
        fill-rule: evenodd;
      }
    </style>
  </defs>
  <path class="cls-1" d="M59.284,211.791a0.848,0.848,0,0,0-.071-1.22l-8.055-6.989a1.011,1.011,0,0,0-1.31.015l-8.083,7.347a0.843,0.843,0,0,0-.039,1.218l0.2,0.209a0.889,0.889,0,0,0,1.213.092l0.6-.536v7.853a0.876,0.876,0,0,0,.879.872h3.151a0.876,0.876,0,0,0,.879-0.872v-5.494h4.019v5.494a0.827,0.827,0,0,0,.826.871h3.339a0.875,0.875,0,0,0,.879-0.872v-7.742l0.373,0.325a0.8,0.8,0,0,0,.964-0.321Z" transform="translate(-41.469 -203.375)"/>
</svg>
