<svg xmlns="http://www.w3.org/2000/svg" width="20" height="15.062" viewBox="0 0 20 15.062">
  <defs>
    <style>
      .cls-1 {
        fill: #fff;
        fill-rule: evenodd;
      }
    </style>
  </defs>
  <path class="cls-1" d="M39.284,402.755H25.909a1,1,0,1,1,0-1.994H39.283A1,1,0,1,1,39.284,402.755Zm0-6.258H25.909a1,1,0,1,1,0-1.994H39.283A1,1,0,1,1,39.284,396.5Zm0-6.259H25.909a1,1,0,1,1,0-1.994H39.283A1,1,0,1,1,39.284,390.238Zm-17.662-2.259a1.339,1.339,0,1,1-1.34,1.339A1.34,1.34,0,0,1,21.621,387.979Zm0,6.182a1.339,1.339,0,1,1-1.34,1.339A1.339,1.339,0,0,1,21.621,394.161Zm0,6.181a1.339,1.339,0,1,1-1.34,1.339A1.339,1.339,0,0,1,21.621,400.342Z" transform="translate(-20.281 -387.969)"/>
</svg>
