<?xml version="1.0" encoding="utf-8"?>
<!-- Generator: Adobe Illustrator 16.0.0, SVG Export Plug-In . SVG Version: 6.00 Build 0)  -->
<!DOCTYPE svg PUBLIC "-//W3C//DTD SVG 1.1//EN" "http://www.w3.org/Graphics/SVG/1.1/DTD/svg11.dtd">
<svg version="1.1" id="Layer_1" xmlns="http://www.w3.org/2000/svg" xmlns:xlink="http://www.w3.org/1999/xlink" x="0px" y="0px"
	 width="16px" height="16px" viewBox="0 0 16 16" enable-background="new 0 0 16 16" xml:space="preserve">
<g id="Layer_1_1_">
</g>
<g id="Layer_2">
	<g id="Page-1">
		<g id="icon-136-document-edit">
			<path fill="#FFFFFF" d="M7.669,3.48c0,0.322,0.262,0.583,0.575,0.583h2.908L7.669,0V3.48z"/>
			<path fill="#FFFFFF" d="M15.557,2.664L14.872,1.98c-0.453-0.453-1.183-0.455-1.644,0.005L11.15,4.063l-0.58,0.581H8.253
				c-0.643,0-1.164-0.515-1.164-1.16V0H1.29C0.646,0,0.124,0.522,0.124,1.165v13.34c0,0.646,0.517,1.166,1.159,1.166h8.708
				c0.642,0,1.159-0.519,1.159-1.16V8.706l4.399-4.4C16.006,3.852,16.007,3.114,15.557,2.664z M4.92,12.607l0.372-1.807l1.448,1.447
				L4.92,12.607z M7.107,11.868l-1.512-1.513l6.553-6.554l1.509,1.509L7.107,11.868z M15.145,3.896L14.141,4.9l-1.509-1.509
				l1.003-1.002c0.227-0.227,0.594-0.225,0.822,0.002l0.686,0.683C15.369,3.301,15.371,3.669,15.145,3.896z"/>
		</g>
	</g>
	<path id="dollar" fill="#333333" d="M3.842,1.135C3.705,1.137,3.595,1.25,3.597,1.388v0.27C3.115,1.763,2.724,2.112,2.724,2.603
		c0.027,0.575,0.503,1.025,1.079,1.021c0.015,0.003,0.029,0.004,0.044,0.005c0.316-0.027,0.596,0.208,0.622,0.525
		c0,0,0,0.001,0,0.002C4.442,4.472,4.165,4.708,3.848,4.682c-0.001,0-0.001,0-0.002,0C3.529,4.709,3.25,4.475,3.223,4.158V4.157
		C3.221,4.018,3.108,3.907,2.97,3.909C2.837,3.91,2.729,4.016,2.723,4.149v0.006c0.018,0.498,0.382,0.914,0.873,0.997v0.222
		C3.598,5.511,3.71,5.622,3.849,5.621C3.981,5.619,4.09,5.514,4.095,5.38V5.152c0.49-0.083,0.854-0.499,0.872-0.996
		c0-0.518-0.434-0.88-0.95-0.962C3.97,3.151,3.909,3.128,3.846,3.129C3.529,3.156,3.25,2.921,3.224,2.604V2.603
		c0.026-0.31,0.294-0.542,0.605-0.522c0.012,0,0.024,0,0.037,0c0.31-0.02,0.579,0.212,0.604,0.522
		C4.471,2.74,4.583,2.851,4.721,2.849c0.134-0.001,0.242-0.107,0.247-0.24V2.603C4.95,2.105,4.586,1.689,4.095,1.606V1.388
		C4.097,1.25,3.987,1.137,3.849,1.135H3.842z"/>
	<rect x="1.361" y="6.875" fill="#333333" width="4.969" height="0.469"/>
	<rect x="1.361" y="8.156" fill="#333333" width="2.732" height="0.469"/>
	<rect x="1.357" y="9.781" fill="#333333" width="1.861" height="0.469"/>
	<rect x="1.357" y="11.438" fill="#333333" width="1.174" height="0.47"/>
</g>
</svg>
