<?xml version="1.0" encoding="utf-8"?>
<!-- Generator: Adobe Illustrator 16.0.3, SVG Export Plug-In . SVG Version: 6.00 Build 0)  -->
<!DOCTYPE svg PUBLIC "-//W3C//DTD SVG 1.1//EN" "http://www.w3.org/Graphics/SVG/1.1/DTD/svg11.dtd">
<svg version="1.1" id="Layer_2" xmlns="http://www.w3.org/2000/svg" xmlns:xlink="http://www.w3.org/1999/xlink" x="0px" y="0px"
	 width="78px" height="78px" viewBox="0 0 78 78" enable-background="new 0 0 78 78" xml:space="preserve">
<path fill="none" d="M46.625,48.102l33.657-7.298l7.296,33.657l-33.657,7.298L46.625,48.102z"/>
<path fill="#868686" stroke="#868686" stroke-width="2" stroke-miterlimit="10" d="M33.395,51.952
	c-9.924,0-17.998-8.073-17.998-17.998V25.07c0-9.925,8.074-17.999,17.998-17.999s17.998,8.074,17.998,17.999v8.885
	C51.393,43.879,43.318,51.952,33.395,51.952z M33.395,9.625c-8.517,0-15.443,6.928-15.443,15.444v8.885
	c0,8.514,6.927,15.443,15.443,15.443c8.516,0,15.443-6.929,15.443-15.443V25.07C48.838,16.554,41.91,9.625,33.395,9.625z"/>
<path fill="#868686" stroke="#868686" stroke-width="2" stroke-miterlimit="10" d="M57.693,70.929H8.834
	c-4.162,0-7.547-3.385-7.547-7.547v-5.576c0-2.465,1.247-5.766,7.191-7.497l7.308-2.023c0.681-0.187,1.383,0.211,1.571,0.891
	c0.188,0.681-0.211,1.385-0.892,1.572l-7.29,2.019c-5.333,1.553-5.333,4.177-5.333,5.039v5.576c0,2.755,2.239,4.994,4.992,4.994
	h48.86c2.752,0,4.992-2.241,4.992-4.994v-5.576c0-2.327-1.799-4.024-5.348-5.043l-6.955-1.944c-0.678-0.189-1.074-0.894-0.887-1.575
	c0.191-0.679,0.893-1.078,1.574-0.885l6.965,1.946c5.955,1.713,7.203,5.024,7.203,7.501v5.576
	C65.24,67.544,61.855,70.929,57.693,70.929z"/>
<line fill="none" stroke="#1C89B7" stroke-width="4" stroke-linecap="round" stroke-linejoin="round" x1="68.25" y1="25.304" x2="68.25" y2="40.804"/>
<line fill="none" stroke="#1C89B7" stroke-width="4" stroke-linecap="round" stroke-linejoin="round" x1="76" y1="33.054" x2="60.5" y2="33.054"/>
</svg>
