<?xml version="1.0" encoding="utf-8"?>
<!-- Generator: Adobe Illustrator 23.0.3, SVG Export Plug-In . SVG Version: 6.00 Build 0)  -->
<svg version="1.1" id="Layer_1" xmlns="http://www.w3.org/2000/svg" xmlns:xlink="http://www.w3.org/1999/xlink" x="0px" y="0px"
	 width="100px" height="100px" viewBox="0 0 100 100" style="enable-background:new 0 0 100 100;" xml:space="preserve">
<style type="text/css">
	.Drop_x0020_Shadow{fill:none;}
	.Outer_x0020_Glow_x0020_5_x0020_pt{fill:none;}
	.Blue_x0020_Neon{fill:none;stroke:#8AACDA;stroke-width:7;stroke-linecap:round;stroke-linejoin:round;}
	.Chrome_x0020_Highlight{fill:url(#SVGID_1_);stroke:#FFFFFF;stroke-width:0.3629;stroke-miterlimit:1;}
	.Jive_GS{fill:#FEDD00;}
	.Alyssa_GS{fill:#A7D0E3;}
	.st0{fill:#566181;}
	.st1{fill:#8797CA;}
	.st2{fill:#F7911E;}
	.st3{fill:#FEDC0E;}
</style>
<linearGradient id="SVGID_1_" gradientUnits="userSpaceOnUse" x1="0" y1="0" x2="6.123234e-17" y2="-1">
	<stop  offset="0" style="stop-color:#656666"/>
	<stop  offset="0.618" style="stop-color:#1A1A1A"/>
	<stop  offset="0.6292" style="stop-color:#545554"/>
	<stop  offset="0.9831" style="stop-color:#3E3E3E"/>
</linearGradient>
<g>
	<path class="st0" d="M21.3,0l-15,16.7V90H73V0H21.3z"/>
	<path class="st1" d="M21.3,6.7v10H13H6.3L21.3,0V6.7z"/>
	<path class="st1" d="M66.3,6.7v16.7H13v-6.7h8.3v-10H66.3z"/>
	<path class="st1" d="M13,63.3h20v20H13V63.3z"/>
	<path class="st1" d="M61.3,63.3l0.2,0.3C56.4,67.2,53,73.2,53,80c0,1.1,0.1,2.2,0.3,3.3L53,83.3H33v-20H61.3z"/>
	<path class="st2" d="M73,60c11.1,0,20,8.9,20,20s-8.9,20-20,20c-7.6,0-14.2-4.2-17.6-10.5c-1-1.9-1.8-4-2.2-6.3
		C53.1,82.2,53,81.1,53,80c0-6.8,3.4-12.8,8.5-16.4c1.6-1.1,3.3-2,5.2-2.6C68.7,60.3,70.8,60,73,60z"/>
	<path class="st1" d="M66.3,60l0.3,1c-1.9,0.6-3.6,1.5-5.2,2.6l-0.2-0.3H33v-6.7h33.3V60z"/>
	<path class="st1" d="M13,56.7h20v6.7H13V56.7z"/>
	<path class="st3" d="M71.3,65v3.6c-2.9,0.7-5,3.3-5,6.4c0,3.7,3,6.7,6.7,6.7c1.8,0,3.3,1.5,3.3,3.3s-1.5,3.3-3.3,3.3
		s-3.3-1.5-3.3-3.3h-3.3c0,3.1,2.1,5.7,5,6.4V95h3.3v-3.6c2.9-0.7,5-3.3,5-6.4c0-3.7-3-6.7-6.7-6.7c-1.8,0-3.3-1.5-3.3-3.3
		s1.5-3.3,3.3-3.3s3.3,1.5,3.3,3.3h3.3c0-3.1-2.1-5.7-5-6.4V65H71.3z"/>
	<path class="st0" d="M10.1,15l9.6-10.7V15H10.1z M51.4,81.7H34.7V65h22.7c-3.7,3.9-6.1,9.2-6.1,15C51.3,80.6,51.4,81.1,51.4,81.7z
		 M14.7,65h16.7v16.7H14.7V65z M61.2,45"/>
	<path class="st1" d="M19.7,68.3h6.7v3.3h-6.7V68.3z"/>
	<path class="st1" d="M19.7,75h6.7v3.3h-6.7V75z"/>
	<path class="st1" d="M39.7,68.3h6.7v3.3h-6.7V68.3z"/>
	<path class="st1" d="M39.7,75h6.7v3.3h-6.7V75z"/>
	<path class="st1" d="M11.3,30.4h56.4v3.3H11.3V30.4z"/>
	<path class="st1" d="M11.3,39.2h56.4v3.3H11.3V39.2z"/>
	<path class="st1" d="M62.2,48.3h3.3v3.3h-3.3V48.3z"/>
	<path class="st1" d="M11.3,48.3h47.5v3.3H11.3V48.3z"/>
	<path class="st0" d="M64.7,60c-1.2,0.5-2.3,1.1-3.3,1.8v-0.1H34.7v-3.3h30L64.7,60L64.7,60z"/>
	<rect x="14.7" y="58.3" class="st0" width="16.7" height="3.3"/>
</g>
</svg>
