<svg xmlns="http://www.w3.org/2000/svg" width="17.97" height="17.969" viewBox="0 0 17.97 17.969">
  <defs>
    <style>
      .cls-1 {
        fill: #fff;
        fill-rule: evenodd;
      }
    </style>
  </defs>
  <path id="Shape_102_copy" data-name="Shape 102 copy" class="cls-1" d="M1804.58,65.235l-2.78-2.785a1.443,1.443,0,0,0-2.04.038l-1.4,1.4c-0.09-.049-0.18-0.1-0.27-0.154a13.761,13.761,0,0,1-3.37-2.441,13.916,13.916,0,0,1-2.44-3.381c-0.05-.094-0.1-0.184-0.15-0.27l0.94-.94,0.46-.464a1.459,1.459,0,0,0,.04-2.047l-2.78-2.785a1.454,1.454,0,0,0-2.05.039l-0.78.789,0.02,0.021a4.507,4.507,0,0,0-.64,1.141,4.646,4.646,0,0,0-.29,1.157c-0.37,3.048,1.02,5.835,4.8,9.615,5.21,5.226,9.41,4.831,9.59,4.812a4.6,4.6,0,0,0,1.16-.291,4.515,4.515,0,0,0,1.14-.644l0.01,0.015,0.8-.779A1.45,1.45,0,0,0,1804.58,65.235Z" transform="translate(-1787 -51)"/>
</svg>
