<?xml version="1.0" encoding="utf-8"?>
<!-- Generator: Adobe Illustrator 16.0.0, SVG Export Plug-In . SVG Version: 6.00 Build 0)  -->
<!DOCTYPE svg PUBLIC "-//W3C//DTD SVG 1.1//EN" "http://www.w3.org/Graphics/SVG/1.1/DTD/svg11.dtd">
<svg version="1.1" id="Layer_1" xmlns="http://www.w3.org/2000/svg" xmlns:xlink="http://www.w3.org/1999/xlink" x="0px" y="0px"
	 width="18px" height="18px" viewBox="0 0 18 18" enable-background="new 0 0 18 18" xml:space="preserve">
<path fill-rule="evenodd" clip-rule="evenodd" fill="#FFFFFF" d="M0.586,8.96c0.911-1.069,1.911-2.044,2.859-3.074
	c0.264-0.286,0.533-0.566,0.8-0.848C4.671,4.588,4.963,4.522,5.244,4.81c0.283,0.289,0.224,0.618-0.191,1.059
	C4.128,6.85,3.214,7.841,2.271,8.801C1.989,9.089,2.008,9.245,2.279,9.522c0.958,0.981,1.891,1.991,2.834,2.989
	c0.125,0.134,0.248,0.267,0.292,0.457c0.096,0.423-0.284,0.813-0.677,0.685c-0.105-0.033-0.212-0.098-0.289-0.179
	C3.151,12.106,1.87,10.732,0.586,9.36C0.586,9.227,0.586,9.093,0.586,8.96z"/>
<path fill-rule="evenodd" clip-rule="evenodd" fill="#FFFFFF" d="M17.573,9.36c-1.245,1.412-2.563,2.745-3.851,4.112
	c-0.263,0.28-0.576,0.272-0.807,0.035c-0.25-0.258-0.238-0.594,0.061-0.914c0.973-1.041,1.945-2.083,2.937-3.104
	c0.25-0.258,0.245-0.408-0.002-0.663c-0.938-0.965-1.854-1.953-2.777-2.933c-0.081-0.085-0.164-0.167-0.234-0.26
	c-0.215-0.283-0.21-0.604,0.021-0.824c0.239-0.229,0.497-0.23,0.75-0.018c0.078,0.066,0.148,0.144,0.22,0.219
	c1.103,1.167,2.206,2.334,3.306,3.504c0.133,0.141,0.252,0.296,0.377,0.445C17.573,9.093,17.573,9.227,17.573,9.36z"/>
<path fill-rule="evenodd" clip-rule="evenodd" fill="#FFFFFF" d="M11.256,4.234c0.043,0.146-0.012,0.285-0.06,0.421
	c-1.019,2.905-2.039,5.811-3.06,8.715c-0.144,0.411-0.28,0.823-0.441,1.232c-0.099,0.254-0.342,0.376-0.607,0.338
	c-0.272-0.037-0.393-0.199-0.336-0.46c0.021-0.091,0.053-0.183,0.084-0.275c0.29-0.821,0.58-1.644,0.869-2.466
	c0.84-2.393,1.679-4.787,2.521-7.181c0.037-0.108,0.073-0.221,0.139-0.323c0.104-0.16,0.271-0.245,0.486-0.236
	C11.056,4.008,11.199,4.083,11.256,4.234z"/>
</svg>
