<?xml version="1.0" encoding="utf-8"?>
<!-- Generator: Adobe Illustrator 16.0.0, SVG Export Plug-In . SVG Version: 6.00 Build 0)  -->
<!DOCTYPE svg PUBLIC "-//W3C//DTD SVG 1.1//EN" "http://www.w3.org/Graphics/SVG/1.1/DTD/svg11.dtd">
<svg version="1.1" id="Layer_1" xmlns="http://www.w3.org/2000/svg" xmlns:xlink="http://www.w3.org/1999/xlink" x="0px" y="0px"
	 width="20px" height="20px" viewBox="886 886 20 20" enable-background="new 886 886 20 20" xml:space="preserve">
<path fill="#FFFFFF" d="M904.922,887.498c0.146,0.35,0.087,0.649-0.177,0.895l-6.293,6.303v9.487c0,0.357-0.167,0.609-0.498,0.754
	c-0.111,0.042-0.218,0.063-0.32,0.063c-0.23,0-0.421-0.08-0.574-0.243l-3.268-3.272c-0.161-0.162-0.242-0.354-0.242-0.575v-6.213
	l-6.293-6.303c-0.264-0.246-0.323-0.545-0.179-0.895c0.145-0.333,0.396-0.498,0.754-0.498h16.339
	C904.528,887,904.779,887.166,904.922,887.498z"/>
</svg>
