<?xml version="1.0" encoding="utf-8"?>
<!-- Generator: Adobe Illustrator 16.0.0, SVG Export Plug-In . SVG Version: 6.00 Build 0)  -->
<!DOCTYPE svg PUBLIC "-//W3C//DTD SVG 1.1//EN" "http://www.w3.org/Graphics/SVG/1.1/DTD/svg11.dtd">
<svg version="1.1" id="Layer_1" xmlns="http://www.w3.org/2000/svg" xmlns:xlink="http://www.w3.org/1999/xlink" x="0px" y="0px"
	 width="25px" height="25px" viewBox="0 0 25 25" enable-background="new 0 0 25 25" xml:space="preserve">
<path fill="none" stroke="#FFFFFF" stroke-miterlimit="10" d="M1,6v16c0,1.104,0.896,2,2,2h19c1.104,0,2-0.896,2-2V6H1z"/>
<path fill="#FFFFFF" d="M24.5,6.5v-3c0-1.104-0.896-2-2-2h-20c-1.104,0-2,0.896-2,2v3H24.5z"/>
<g>
	<path fill="#FFFFFF" d="M3.125,17.125l2.201-3.361l-1.994-3.081h1.52l1.293,2.069l1.266-2.069h1.507l-2.004,3.129l2.202,3.313
		H7.546l-1.429-2.229l-1.432,2.229H3.125z"/>
	<path fill="#FFFFFF" d="M9.765,17.125v-6.442h1.947l1.169,4.395l1.155-4.395h1.951v6.442h-1.208v-5.071l-1.278,5.071h-1.253
		l-1.274-5.071v5.071H9.765z"/>
	<path fill="#FFFFFF" d="M17.314,17.125v-6.39h1.301v5.304h3.234v1.086H17.314z"/>
</g>
</svg>
