<?xml version="1.0" encoding="utf-8"?>
<!-- Generator: Adobe Illustrator 16.0.3, SVG Export Plug-In . SVG Version: 6.00 Build 0)  -->
<!DOCTYPE svg PUBLIC "-//W3C//DTD SVG 1.1//EN" "http://www.w3.org/Graphics/SVG/1.1/DTD/svg11.dtd">
<svg version="1.1" id="Layer_1" xmlns="http://www.w3.org/2000/svg" xmlns:xlink="http://www.w3.org/1999/xlink" x="0px" y="0px"
	 width="17px" height="17px" viewBox="0 0 17 17" enable-background="new 0 0 17 17" xml:space="preserve">
<g>
	<g>
		<polygon fill="#969696" points="10.94,0 10.94,4.234 15.178,4.234 		"/>
	</g>
</g>
<g>
	<g>
		<path fill="#969696" d="M10.94,5.294c-0.581,0-1.057-0.476-1.057-1.061V0H3.529c-0.584,0-1.06,0.476-1.06,1.057v14.829
			c0,0.585,0.476,1.057,1.06,1.057h10.588c0.585,0,1.061-0.472,1.061-1.057V5.294H10.94z M6.175,3.241V2.646
			c0-0.292,0.24-0.528,0.532-0.528c0.292,0,0.528,0.236,0.528,0.528v0.596C7.564,3.32,7.875,3.458,8.13,3.665
			C8.359,3.848,8.393,4.182,8.205,4.41C8.021,4.639,7.688,4.672,7.463,4.485C7.261,4.324,6.995,4.234,6.707,4.234
			c-0.577,0-1.06,0.364-1.06,0.794s0.483,0.794,1.06,0.794c1.165,0,2.117,0.832,2.117,1.854c0,0.862-0.678,1.581-1.588,1.787v0.596
			c0,0.293-0.236,0.528-0.528,0.528c-0.292,0-0.532-0.235-0.532-0.528V9.464C5.845,9.39,5.534,9.247,5.279,9.041
			C5.051,8.857,5.017,8.524,5.204,8.295C5.388,8.067,5.721,8.037,5.95,8.22c0.199,0.161,0.468,0.251,0.757,0.251
			c0.573,0,1.057-0.364,1.057-0.794c0-0.431-0.483-0.794-1.057-0.794c-1.169,0-2.121-0.832-2.121-1.854
			C4.586,4.17,5.264,3.451,6.175,3.241z M12.528,14.825h-7.41c-0.292,0-0.532-0.235-0.532-0.528c0-0.292,0.24-0.531,0.532-0.531
			h7.41c0.293,0,0.532,0.239,0.532,0.531C13.061,14.59,12.821,14.825,12.528,14.825z M12.528,12.709h-7.41
			c-0.292,0-0.532-0.24-0.532-0.532s0.24-0.528,0.532-0.528h7.41c0.293,0,0.532,0.236,0.532,0.528S12.821,12.709,12.528,12.709z
			 M12.528,10.588h-2.116c-0.292,0-0.528-0.235-0.528-0.528c0-0.292,0.236-0.528,0.528-0.528h2.116c0.293,0,0.532,0.236,0.532,0.528
			C13.061,10.353,12.821,10.588,12.528,10.588z M12.528,8.472h-2.116c-0.292,0-0.528-0.236-0.528-0.528
			c0-0.292,0.236-0.532,0.528-0.532h2.116c0.293,0,0.532,0.236,0.532,0.532C13.061,8.235,12.821,8.472,12.528,8.472z"/>
	</g>
</g>
</svg>
