<svg xmlns="http://www.w3.org/2000/svg" width="23" height="23" viewBox="0 0 23 23">
  <g id="Group_30" data-name="Group 30" transform="translate(-1115 -214)">
    <rect id="Rectangle_6" data-name="Rectangle 6" width="23" height="23" transform="translate(1115 214)" fill="#fff"/>
    <g id="Group_21" data-name="Group 21" transform="translate(188.519 -144)">
      <path id="Subtraction_3" data-name="Subtraction 3" d="M13.7,16.723H6.676v-.754q0-.2.013-.4A6.33,6.33,0,0,1,13.01,9.635H13.4a6.34,6.34,0,0,1,1.834.267A4.664,4.664,0,0,0,13.7,16.717ZM5.665,12.771H.481V10.9A4.437,4.437,0,0,1,5.623,7.3l.243.043A4.428,4.428,0,0,1,8.6,8.989a5.815,5.815,0,0,0-.64.388,5.706,5.706,0,0,0-2.292,3.4Zm7.541-4.443A4.057,4.057,0,0,1,9.275,4.163,4.057,4.057,0,0,1,13.206,0a4.058,4.058,0,0,1,3.931,4.165A4.058,4.058,0,0,1,13.206,8.328ZM5.285,6.637h-.02a2.457,2.457,0,0,1-1.8-.814,2.756,2.756,0,0,1-.717-1.892A2.625,2.625,0,0,1,5.289,1.266h.02a2.454,2.454,0,0,1,1.8.814,2.8,2.8,0,0,1-.031,3.776A2.455,2.455,0,0,1,5.285,6.637Z" transform="translate(927 361)" fill="#8596ca"/>
      <path id="Subtraction_4" data-name="Subtraction 4" d="M4,8A4,4,0,1,1,8,4,4,4,0,0,1,4,8ZM2.744,4.633a.412.412,0,0,0-.412.412A1.38,1.38,0,0,0,3.569,6.311v.045a.412.412,0,0,0,.825,0V6.314A1.38,1.38,0,0,0,5.631,5.048c0-.866-.661-1.228-1.237-1.448V2.308c.247.09.412.258.412.418a.412.412,0,0,0,.824,0A1.38,1.38,0,0,0,4.393,1.456V1.412a.412.412,0,0,0-.825,0v.045A1.38,1.38,0,0,0,2.332,2.726c0,.866.661,1.227,1.237,1.448v1.29c-.247-.09-.412-.258-.412-.417a.413.413,0,0,0-.413-.414Zm1.649.831h0V4.5c.345.179.412.333.412.544,0,.159-.165.327-.412.417ZM3.569,3.27h0c-.344-.179-.411-.333-.411-.544,0-.16.165-.328.412-.418V3.27Z" transform="translate(940.486 370.994)" fill="#8596ca"/>
    </g>
  </g>
</svg>
