<svg xmlns="http://www.w3.org/2000/svg" width="45.517" height="60" viewBox="0 0 45.517 60">
  <g id="Group_25" data-name="Group 25" transform="translate(-719 -436)">
    <path id="Path_73" data-name="Path 73" d="M95.931,60H63.862a2.069,2.069,0,0,1-2.069-2.069V2.069A2.069,2.069,0,0,1,63.862,0h41.379a2.069,2.069,0,0,1,2.069,2.069V48.621Z" transform="translate(657.207 436)" fill="#8596ca"/>
    <g id="Group_23" data-name="Group 23" transform="translate(724.172 475.461)">
      <g id="Group_7" data-name="Group 7">
        <g id="Group_3" data-name="Group 3" transform="translate(0 0)">
          <path id="Path_28" data-name="Path 28" d="M109.034,211.861h-2.069a1.035,1.035,0,0,0,0,2.069h2.069a1.035,1.035,0,1,0,0-2.069Z" transform="translate(-105.931 -203.585)" fill="#fff"/>
          <path id="Path_29" data-name="Path 29" d="M109.034,247.172h-2.069a1.035,1.035,0,1,0,0,2.069h2.069a1.035,1.035,0,1,0,0-2.069Z" transform="translate(-105.931 -243.034)" fill="#fff"/>
          <path id="Path_30" data-name="Path 30" d="M109.034,282.482h-2.069a1.035,1.035,0,0,0,0,2.069h2.069a1.035,1.035,0,0,0,0-2.069Z" transform="translate(-105.931 -282.482)" fill="#fff"/>
        </g>
        <g id="Group_4" data-name="Group 4" transform="translate(6.207 0)">
          <path id="Path_34" data-name="Path 34" d="M172.344,211.861H159.931a1.035,1.035,0,1,0,0,2.069h12.414a1.035,1.035,0,1,0,0-2.069Z" transform="translate(-158.896 -203.585)" fill="#fff"/>
          <path id="Path_35" data-name="Path 35" d="M178.174,247.172H159.931a1.035,1.035,0,1,0,0,2.069h18.244a1.035,1.035,0,0,0,0-2.069Z" transform="translate(-158.896 -243.034)" fill="#fff"/>
          <path id="Path_36" data-name="Path 36" d="M186.3,282.482H159.931a1.035,1.035,0,1,0,0,2.069H186.3a1.035,1.035,0,1,0,0-2.069Z" transform="translate(-158.896 -282.482)" fill="#fff"/>
        </g>
      </g>
    </g>
    <path id="Path_74" data-name="Path 74" d="M353.1,426.276v-9.31a2.069,2.069,0,0,1,2.069-2.069h9.31Z" transform="translate(400.035 69.724)" fill="#d5dced"/>
    <g id="stats" transform="translate(723.721 440.606)">
      <g id="Group_24" data-name="Group 24" transform="translate(0 0)">
        <path id="Path_75" data-name="Path 75" d="M39.847,294.861a2.95,2.95,0,0,1-.922.627v4.877a1.311,1.311,0,0,0,1.311,1.311H43.19a1.311,1.311,0,0,0,1.311-1.311v-9.956a1.52,1.52,0,0,0-.014-.187Z" transform="translate(-36.121 -272.054)" fill="#fff"/>
        <path id="Path_76" data-name="Path 76" d="M34.313,90.722H34.22L28.248,91c-.31.014-.612.029-.785.4s.022.576.238.792c.612.612,1.217,1.232,1.837,1.83l-.677.677-5.511,5.511-.49.49-1.2,1.2-4.74,4.74-.274-.274-5.669-5.669-1.2-1.2-.324-.324a1.3,1.3,0,0,0-.929-.382,1.327,1.327,0,0,0-.929.382l-.324.324-6.88,6.88a1.317,1.317,0,0,0,0,1.859l.324.324a1.3,1.3,0,0,0,.929.382,1.327,1.327,0,0,0,.929-.382l5.95-5.95.274.274,5.669,5.669,1.2,1.2.324.324a1.3,1.3,0,0,0,.929.382,1.327,1.327,0,0,0,.929-.382l.324-.324,5.669-5.669,1.2-1.2.49-.49,5.511-5.511.67-.67L33.514,98a.859.859,0,0,0,.569.346.645.645,0,0,0,.3-.086.908.908,0,0,0,.454-.864c.086-1.945.18-3.883.274-5.828C35.127,90.989,34.882,90.722,34.313,90.722Z" transform="translate(0 -86.926)" fill="#fff"/>
        <path id="Path_77" data-name="Path 77" d="M184.592,50.211a6.256,6.256,0,0,0,1.787.511c.483.079.5.1.5.6,0,.231.007.454.007.684a.406.406,0,0,0,.432.461c.339.007.67.007,1.008,0a.387.387,0,0,0,.418-.432c0-.31.014-.62,0-.936a.5.5,0,0,1,.425-.562,3.443,3.443,0,0,0,1.758-1.124,3.172,3.172,0,0,0-1.023-4.819,16.159,16.159,0,0,0-1.765-.8,3.757,3.757,0,0,1-.965-.547.84.84,0,0,1,.209-1.5,1.842,1.842,0,0,1,.6-.122,4.533,4.533,0,0,1,2.233.439c.353.173.468.115.591-.252.122-.389.231-.778.346-1.174a.408.408,0,0,0-.267-.547,5.428,5.428,0,0,0-1.4-.418c-.641-.1-.641-.1-.641-.742-.007-.908-.007-.908-.908-.908h-.4c-.425.014-.5.086-.5.511-.007.194,0,.382,0,.576,0,.569-.007.562-.547.756a3.023,3.023,0,0,0-2.212,2.8,2.865,2.865,0,0,0,1.621,2.745,17.647,17.647,0,0,0,2.031.908,3.175,3.175,0,0,1,.742.432,1.014,1.014,0,0,1-.245,1.779,2.516,2.516,0,0,1-1.3.173,5.722,5.722,0,0,1-1.988-.6c-.367-.194-.475-.144-.6.259-.108.346-.2.692-.3,1.037C184.1,49.879,184.146,49.995,184.592,50.211Z" transform="translate(-170.903 -38.022)" fill="#fff"/>
        <path id="Path_78" data-name="Path 78" d="M149.8,322.518l-1.2-1.2-2.593-2.593a1.305,1.305,0,0,0-.18.663v7.434a1.311,1.311,0,0,0,1.311,1.311h2.954a1.311,1.311,0,0,0,1.311-1.311V323.6a2.967,2.967,0,0,1-1.275-.756Z" transform="translate(-135.32 -298.501)" fill="#fff"/>
        <path id="Path_79" data-name="Path 79" d="M253.863,319.178l-.324.324a2.932,2.932,0,0,1-.814.576v3.4a1.311,1.311,0,0,0,1.311,1.311h2.954a1.311,1.311,0,0,0,1.311-1.311v-7.434a1.3,1.3,0,0,0-.382-.922Z" transform="translate(-234.519 -295.16)" fill="#fff"/>
        <path id="Path_80" data-name="Path 80" d="M360.332,207.876l-.49.49-.317.317v10.849a1.311,1.311,0,0,0,1.311,1.311h2.954a1.311,1.311,0,0,0,1.311-1.311V203.295a1.4,1.4,0,0,0-.014-.173Z" transform="translate(-333.626 -191.229)" fill="#fff"/>
      </g>
    </g>
  </g>
</svg>
