<svg xmlns="http://www.w3.org/2000/svg" width="22.139" height="21.145" viewBox="0 0 22.139 21.145">
  <g id="purse" transform="translate(0 -11.496)">
    <g id="Group_34" data-name="Group 34" transform="translate(0 18.011)">
      <g id="Group_33" data-name="Group 33" transform="translate(0 0)">
        <path id="Path_81" data-name="Path 81" d="M18.81,166.412h3.33v-3.892H1.3A2.565,2.565,0,0,1,0,162.16v11.387a3.247,3.247,0,0,0,3.243,3.243h18.9V172.9H18.81a3.243,3.243,0,0,1,0-6.486Zm-7.783,2.594a1.941,1.941,0,0,1,.649,3.772V174.2h-1.3v-1.417a1.943,1.943,0,0,1-1.3-1.826h1.3a.649.649,0,1,0,.649-.649,1.941,1.941,0,0,1-.649-3.772v-1.417h1.3v1.417a1.943,1.943,0,0,1,1.3,1.826h-1.3a.649.649,0,1,0-.649.649Z" transform="translate(0 -162.16)" fill="#8596ca"/>
      </g>
    </g>
    <g id="Group_36" data-name="Group 36" transform="translate(16.864 23.56)">
      <g id="Group_35" data-name="Group 35">
        <path id="Path_82" data-name="Path 82" d="M391.946,290.5a1.946,1.946,0,1,0,0,3.892h3.33V290.5Zm.649,2.594h-1.3v-1.3h1.3Z" transform="translate(-390 -290.504)" fill="#8596ca"/>
      </g>
    </g>
    <g id="Group_38" data-name="Group 38" transform="translate(3.97 11.496)">
      <g id="Group_37" data-name="Group 37" transform="translate(0 0)">
        <path id="Path_83" data-name="Path 83" d="M96.266,11.5,91.8,17.074h8.924Z" transform="translate(-91.804 -11.496)" fill="#8596ca"/>
      </g>
    </g>
    <g id="Group_40" data-name="Group 40" transform="translate(11.857 11.496)">
      <g id="Group_39" data-name="Group 39" transform="translate(0 0)">
        <path id="Path_84" data-name="Path 84" d="M275.977,11.5l-1.764,2.2,2.7,3.373h3.527Z" transform="translate(-274.213 -11.496)" fill="#8596ca"/>
      </g>
    </g>
    <g id="Group_42" data-name="Group 42" transform="translate(17.669 14.48)">
      <g id="Group_41" data-name="Group 41" transform="translate(0 0)">
        <path id="Path_85" data-name="Path 85" d="M408.625,80.5,410.7,83.1h1.011V80.5Z" transform="translate(-408.625 -80.504)" fill="#8596ca"/>
      </g>
    </g>
    <g id="Group_44" data-name="Group 44" transform="translate(0 14.48)">
      <g id="Group_43" data-name="Group 43" transform="translate(0 0)">
        <path id="Path_86" data-name="Path 86" d="M1.3,80.5a1.3,1.3,0,1,0,0,2.594H2.308L4.384,80.5Z" transform="translate(0 -80.504)" fill="#8596ca"/>
      </g>
    </g>
  </g>
</svg>
