<?xml version="1.0" encoding="utf-8"?>
<!-- Generator: Adobe Illustrator 16.0.3, SVG Export Plug-In . SVG Version: 6.00 Build 0)  -->
<!DOCTYPE svg PUBLIC "-//W3C//DTD SVG 1.1//EN" "http://www.w3.org/Graphics/SVG/1.1/DTD/svg11.dtd">
<svg version="1.1" id="Layer_1" xmlns="http://www.w3.org/2000/svg" xmlns:xlink="http://www.w3.org/1999/xlink" x="0px" y="0px"
	 width="15px" height="15px" viewBox="1.5 1.5 15 15" enable-background="new 1.5 1.5 15 15" xml:space="preserve">
<g id="Expanded">
	<g>
		<g>
			<path fill="#30323E" d="M8.998,5.874c-1.206,0-2.187-0.981-2.187-2.187S7.792,1.5,8.998,1.5s2.187,0.981,2.187,2.187
				S10.204,5.874,8.998,5.874z"/>
		</g>
		<g>
			<path fill="#30323E" d="M9.936,13.372H8.061c-0.172,0-0.313-0.139-0.313-0.313v-2.488C6.369,9.849,5.874,7.952,5.874,6.499
				c0-0.173,0.14-0.313,0.313-0.313h5.625c0.172,0,0.312,0.14,0.312,0.313c0,1.453-0.495,3.35-1.875,4.072v2.488
				C10.247,13.233,10.109,13.372,9.936,13.372z"/>
		</g>
		<g>
			<path fill="#30323E" d="M8.998,14.935c-1.74,0-4.687-0.296-4.687-1.405c0-0.553,0.716-0.957,2.129-1.206
				c0.172-0.027,0.332,0.085,0.361,0.255c0.03,0.17-0.084,0.332-0.253,0.361c-1.254,0.219-1.591,0.527-1.613,0.596
				C5.02,13.798,6.49,14.31,8.998,14.31c2.509,0,3.979-0.512,4.062-0.788c-0.02-0.055-0.354-0.361-1.604-0.58
				c-0.17-0.029-0.282-0.191-0.252-0.361c0.029-0.17,0.189-0.282,0.36-0.255c1.407,0.247,2.122,0.653,2.122,1.204
				C13.686,14.639,10.739,14.935,8.998,14.935z"/>
		</g>
		<g>
			<path fill="#30323E" d="M8.998,16.498c-4.87,0-7.499-1.448-7.499-2.813c0-1.484,2.562-2.345,4.959-2.654
				c0.169-0.021,0.327,0.099,0.35,0.271c0.022,0.169-0.099,0.327-0.27,0.349c-2.898,0.375-4.414,1.307-4.414,2.035
				c0,1.034,2.823,2.187,6.874,2.187c4.052,0,6.874-1.152,6.874-2.187c0-0.729-1.516-1.66-4.413-2.035
				c-0.172-0.021-0.292-0.178-0.269-0.349c0.022-0.172,0.178-0.291,0.35-0.271c2.396,0.31,4.958,1.17,4.958,2.654
				C16.498,15.05,13.869,16.498,8.998,16.498z"/>
		</g>
	</g>
</g>
</svg>
