<?xml version="1.0" encoding="utf-8"?>
<!-- Generator: Adobe Illustrator 16.0.3, SVG Export Plug-In . SVG Version: 6.00 Build 0)  -->
<!DOCTYPE svg PUBLIC "-//W3C//DTD SVG 1.1//EN" "http://www.w3.org/Graphics/SVG/1.1/DTD/svg11.dtd">
<svg version="1.1" id="Layer_1" xmlns="http://www.w3.org/2000/svg" xmlns:xlink="http://www.w3.org/1999/xlink" x="0px" y="0px"
	 width="18px" height="18px" viewBox="0 0 18 18" enable-background="new 0 0 18 18" xml:space="preserve">
<path fill="#FFFFFF" d="M8.656,11.119C7.106,9.845,6.071,8.271,5.527,7.376L5.121,6.611C5.263,6.459,6.345,5.3,6.814,4.671
	c0.589-0.79-0.265-1.502-0.265-1.502S4.144,0.763,3.596,0.286C3.048-0.191,2.418,0.074,2.418,0.074C1.266,0.818,0.072,1.465,0,4.577
	c-0.003,2.914,2.209,5.918,4.601,8.245c2.395,2.628,5.684,5.261,8.863,5.258c3.112-0.07,3.76-1.265,4.504-2.417
	c0,0,0.265-0.63-0.213-1.179s-2.882-2.953-2.882-2.953s-0.713-0.855-1.503-0.266c-0.588,0.44-1.645,1.419-1.899,1.656
	C11.471,12.922,9.702,11.979,8.656,11.119z"/>
</svg>
