<?xml version="1.0" encoding="utf-8"?>
<!-- Generator: Adobe Illustrator 16.0.0, SVG Export Plug-In . SVG Version: 6.00 Build 0)  -->
<!DOCTYPE svg PUBLIC "-//W3C//DTD SVG 1.1//EN" "http://www.w3.org/Graphics/SVG/1.1/DTD/svg11.dtd">
<svg version="1.1" id="Layer_1" xmlns="http://www.w3.org/2000/svg" xmlns:xlink="http://www.w3.org/1999/xlink" x="0px" y="0px"
	 width="15px" height="15px" viewBox="0 0 15 15" enable-background="new 0 0 15 15" xml:space="preserve">
<rect x="0.5" y="3.5" fill="none" stroke="#969696" stroke-miterlimit="10" width="14" height="10"/>
<g>
	<path fill="#B2B2B2" d="M7.95,11.001v0.713H7.411v-0.688c-0.501-0.005-0.968-0.105-1.4-0.305v-0.91
		c0.144,0.104,0.357,0.199,0.642,0.288c0.282,0.085,0.536,0.137,0.758,0.147V9.054C6.833,8.864,6.439,8.655,6.229,8.438
		C6.018,8.215,5.912,7.943,5.912,7.621c0-0.341,0.137-0.633,0.41-0.875c0.275-0.241,0.636-0.382,1.089-0.422V5.715H7.95v0.598
		c0.521,0.021,0.909,0.095,1.165,0.222v0.886c-0.344-0.186-0.733-0.3-1.165-0.342v1.243c0.541,0.173,0.929,0.37,1.163,0.593
		c0.233,0.22,0.351,0.489,0.351,0.805c0,0.365-0.131,0.654-0.392,0.876C8.81,10.818,8.437,10.954,7.95,11.001z M7.411,8.131V7.094
		C7.068,7.147,6.896,7.305,6.896,7.567C6.896,7.793,7.068,7.982,7.411,8.131z M7.95,9.243v0.992c0.354-0.049,0.531-0.206,0.531-0.47
		C8.481,9.553,8.304,9.375,7.95,9.243z"/>
</g>
</svg>
