<svg xmlns="http://www.w3.org/2000/svg" width="22.844" height="17.156" viewBox="0 0 22.844 17.156">
  <defs>
    <style>
      .cls-1 {
        fill: #556080;
        fill-rule: evenodd;
      }
    </style>
  </defs>
  <path class="cls-1" d="M852.733,497.441H835.108a2.623,2.623,0,0,0-2.621,2.62V511.97a2.622,2.622,0,0,0,2.621,2.62h17.625a2.621,2.621,0,0,0,2.62-2.62V500.061A2.622,2.622,0,0,0,852.733,497.441Zm-13.1,3.811a2.382,2.382,0,1,1-2.382,2.382A2.385,2.385,0,0,1,839.633,501.252Zm4.287,8.813a0.714,0.714,0,0,1-.714.714H836.06a0.714,0.714,0,0,1-.714-0.714v-0.477a2.622,2.622,0,0,1,2.62-2.62H841.3a2.622,2.622,0,0,1,2.62,2.62v0.477Zm7.861,0.714h-5.24a0.715,0.715,0,1,1,0-1.429h5.24A0.715,0.715,0,0,1,851.781,510.779Zm0-3.811h-5.24a0.715,0.715,0,1,1,0-1.429h5.24A0.715,0.715,0,0,1,851.781,506.968Zm0-3.811h-5.24a0.715,0.715,0,1,1,0-1.429h5.24A0.715,0.715,0,0,1,851.781,503.157Z" transform="translate(-832.5 -497.438)"/>
</svg>
