<?xml version="1.0" encoding="utf-8"?>
<!-- Generator: Adobe Illustrator 23.0.3, SVG Export Plug-In . SVG Version: 6.00 Build 0)  -->
<svg version="1.1" xmlns="http://www.w3.org/2000/svg" xmlns:xlink="http://www.w3.org/1999/xlink" x="0px" y="0px" width="100px"
	 height="100px" viewBox="0 0 100 100" style="enable-background:new 0 0 100 100;" xml:space="preserve">
<style type="text/css">
	.st0{display:none;}
	.st1{display:inline;}
	.st2{fill:#8797CA;}
	.st3{fill:#F7911E;}
	.st4{fill:#566181;}
	.st5{fill:#FEDC0E;}
</style>
<g id="Layer_1" class="st0">
	<g class="st1">
		<path class="st2" d="M89.3,10.6v10H71.7v-10c0-4.8,3.9-8.8,8.8-8.8h0C85.4,1.8,89.3,5.7,89.3,10.6L89.3,10.6z"/>
		<path class="st3" d="M55.7,67.5c3.6-5.3,9.6-8.4,16-8.5c0.1,0,0.1,0,0.2,0c10.8,0,19.6,8.8,19.6,19.6c0,10.8-8.8,19.6-19.6,19.6
			c-10.8,0-19.6-8.8-19.6-19.6C52.3,74.6,53.5,70.7,55.7,67.5L55.7,67.5z"/>
		<path class="st4" d="M55.7,67.5c-4.1,5.9-4.6,13.6-1.4,20c-18.7,0-45.9,0-45.9,0l0.4-77.3c0-4.6,3.8-8.3,8.4-8.3h63.2
			c-4.8,0-8.8,3.9-8.8,8.8V59C65.3,59,59.4,62.2,55.7,67.5L55.7,67.5z"/>
		<path class="st2" d="M39.9,13.4c7.9,0,14.2,6.4,14.2,14.2c0,7.9-6.4,14.2-14.2,14.2s-14.2-6.4-14.2-14.2c0,0,0,0,0,0
			C25.7,19.7,32.1,13.4,39.9,13.4z"/>
		<path class="st4" d="M39.9,26.8c-1.4,0-2.5-1.1-2.5-2.5c0-1.4,1.1-2.5,2.5-2.5c1.4,0,2.5,1.1,2.5,2.5v0c0,0.7,0.5,1.2,1.2,1.2
			c0.7,0,1.2-0.5,1.2-1.2c0-2.3-1.7-4.4-4-4.8v-0.9c0-0.7-0.5-1.2-1.2-1.2c-0.7,0-1.2,0.5-1.2,1.2v1c-2.6,0.8-4,3.6-3.1,6.1
			c0.7,2,2.5,3.4,4.6,3.4c1.4,0,2.5,1.1,2.5,2.5c0,1.4-1.1,2.5-2.5,2.5c-1.4,0-2.5-1.1-2.5-2.5c0-0.7-0.5-1.2-1.2-1.2
			c-0.7,0-1.2,0.5-1.2,1.2c0,2.3,1.6,4.2,3.8,4.8v1.2c0,0.7,0.5,1.2,1.2,1.2s1.2-0.5,1.2-1.2v-1.2c2.6-0.7,4.1-3.4,3.4-6
			C44.1,28.3,42.1,26.8,39.9,26.8L39.9,26.8z"/>
		<g>
			<path class="st2" d="M63.8,52.7H16.5c-0.7,0-1.2-0.5-1.2-1.2c0-0.7,0.5-1.2,1.2-1.2h47.3c0.7,0,1.2,0.5,1.2,1.2
				C65,52.2,64.4,52.7,63.8,52.7z"/>
			<path class="st2" d="M63.8,60.7H16.5c-0.7,0-1.2-0.5-1.2-1.2c0-0.7,0.5-1.2,1.2-1.2h47.3c0.7,0,1.2,0.5,1.2,1.2
				C65,60.1,64.4,60.7,63.8,60.7z"/>
			<path class="st2" d="M55.8,68.7H16.5c-0.7,0-1.2-0.5-1.2-1.2c0-0.7,0.5-1.2,1.2-1.2h39.3c0.7,0,1.2,0.5,1.2,1.2
				C57,68.1,56.4,68.7,55.8,68.7z"/>
			<path class="st2" d="M52.5,76.6h-36c-0.7,0-1.2-0.5-1.2-1.2c0-0.7,0.5-1.2,1.2-1.2h36c0.7,0,1.2,0.5,1.2,1.2
				C53.7,76.1,53.1,76.6,52.5,76.6z"/>
		</g>
		<path class="st5" d="M69.2,86.5L69.2,86.5c-0.5,0-0.9-0.2-1.2-0.5l-7-7.1c-0.7-0.7-0.6-1.8,0-2.4c0.7-0.7,1.7-0.6,2.4,0l5.8,5.8
			l11.3-11.3c0.7-0.7,1.7-0.7,2.4,0c0.7,0.7,0.7,1.7,0,2.4l0,0L70.4,86C70,86.3,69.6,86.5,69.2,86.5L69.2,86.5z"/>
	</g>
</g>
<g id="Layer_2" class="st0">
	<g class="st1">
		<path class="st4" d="M94.9,38.9l0.4-0.5l0.7,0.5v53.9c0,1.7-1.4,3.2-3.2,3.2H7.2C5.4,96,4,94.6,4,92.8V38.9l0.7-0.5l0.4,0.5H94.9z
			"/>
		<path class="st2" d="M95.3,38.4l-0.4,0.5L51.6,72.2h-3.2L5.1,38.9l-0.4-0.5l15.2-11.8l20.9-16.2l7.3-5.7c1.1-0.9,2.7-0.9,3.8,0
			l7.3,5.7l20.9,16.2L95.3,38.4z"/>
		<path class="st3" d="M80.1,13.5v36.8L51.6,72.2h-3.2L19.9,50.3V13.5c0-1.7,1.4-3.2,3.2-3.2H77C78.7,10.4,80.1,11.8,80.1,13.5z"/>
		<g>
			<path class="st5" d="M34.1,23h31.7c0.9,0,1.6-0.7,1.6-1.6c0-0.9-0.7-1.6-1.6-1.6H34.1c-0.9,0-1.6,0.7-1.6,1.6
				C32.6,22.3,33.3,23,34.1,23z"/>
			<path class="st5" d="M65.9,29.4H34.1c-0.9,0-1.6,0.7-1.6,1.6s0.7,1.6,1.6,1.6h31.7c0.9,0,1.6-0.7,1.6-1.6S66.7,29.4,65.9,29.4z"
				/>
			<path class="st5" d="M65.9,38.9H51.6c-0.9,0-1.6,0.7-1.6,1.6s0.7,1.6,1.6,1.6h14.3c0.9,0,1.6-0.7,1.6-1.6S66.7,38.9,65.9,38.9z"
				/>
		</g>
		<path class="st2" d="M95.4,94.7c-0.6,0.8-1.5,1.3-2.6,1.3H7.2c-1,0-2-0.5-2.6-1.3L41,66.5l7.1-5.5c1.1-0.9,2.7-0.9,3.8,0l7.1,5.5
			L95.4,94.7z"/>
	</g>
</g>
<g id="Layer_3" class="st0">
	<g class="st1">
		<path class="st4" d="M8.1,20.5h83.8c1.7,0,3.1,1.4,3.1,3.1v52.8c0,1.7-1.4,3.1-3.1,3.1H8.1c-1.7,0-3.1-1.4-3.1-3.1V23.6
			C5,21.9,6.4,20.5,8.1,20.5z"/>
		<g>
			<path class="st3" d="M26.7,31.4h3.1c3.4,0,6.2,2.8,6.2,6.2v6.2c0,3.4-2.8,6.2-6.2,6.2h-3.1c-3.4,0-6.2-2.8-6.2-6.2v-6.2
				C20.5,34.2,23.3,31.4,26.7,31.4z"/>
			<path class="st3" d="M33.4,70.2h7.3v-7.8c0.1-3.3-2.5-6.1-5.8-6.2H21.7c-3.3,0.1-5.9,2.9-5.8,6.2v7.8H33.4z"/>
		</g>
		<rect x="48.4" y="20.5" class="st2" width="3.1" height="59"/>
		<g>
			<path class="st5" d="M57.8,34.5h27.9c0.9,0,1.6-0.7,1.6-1.6c0-0.9-0.7-1.6-1.6-1.6H57.8c-0.9,0-1.6,0.7-1.6,1.6
				C56.2,33.8,56.9,34.5,57.8,34.5z"/>
			<path class="st5" d="M85.7,40.7H57.8c-0.9,0-1.6,0.7-1.6,1.6c0,0.9,0.7,1.6,1.6,1.6h27.9c0.9,0,1.6-0.7,1.6-1.6
				C87.2,41.4,86.5,40.7,85.7,40.7z"/>
			<path class="st5" d="M85.7,50H57.8c-0.9,0-1.6,0.7-1.6,1.6c0,0.9,0.7,1.6,1.6,1.6h27.9c0.9,0,1.6-0.7,1.6-1.6
				C87.2,50.7,86.5,50,85.7,50z"/>
			<path class="st5" d="M85.7,59.3h-14c-0.9,0-1.6,0.7-1.6,1.6c0,0.9,0.7,1.6,1.6,1.6h14c0.9,0,1.6-0.7,1.6-1.6
				C87.2,60,86.5,59.3,85.7,59.3z"/>
		</g>
	</g>
</g>
<g id="Layer_4" class="st0">
	<g class="st1">
		<path class="st4" d="M55.2,75.1c0-11,8.9-19.9,19.9-19.9c0.1,0,0.2,0,0.2,0V5H13.4v80.1h44.5C56.2,82.2,55.2,78.8,55.2,75.1z"/>
		<circle class="st3" cx="75.1" cy="75.1" r="19.9"/>
		<path class="st5" d="M82,82.2H71.3c-1.5,0-2.8-1.2-2.8-2.8V67.8c0-1.5,1.2-2.8,2.8-2.8s2.8,1.2,2.8,2.8v8.9H82
			c1.5,0,2.8,1.2,2.8,2.8C84.7,81,83.5,82.2,82,82.2z"/>
		<rect x="5" y="5" class="st2" width="8.4" height="80.1"/>
		<path class="st2" d="M61.9,18.7H43.4c-1,0-1.8-0.8-1.8-1.8s0.8-1.8,1.8-1.8h18.5c1,0,1.8,0.8,1.8,1.8S62.9,18.7,61.9,18.7z"/>
		<path class="st2" d="M68.5,26.2H50c-1,0-1.8-0.8-1.8-1.8s0.8-1.8,1.8-1.8h18.5c1,0,1.8,0.8,1.8,1.8C70.3,25.4,69.5,26.2,68.5,26.2
			z"/>
		<circle class="st2" cx="28" cy="20.7" r="8.1"/>
		<path class="st4" d="M27.6,24.1c-0.2,0-0.5,0-0.7-0.1l-2.3-1c-0.9-0.4-1.4-1.5-1-2.4c0.4-0.9,1.5-1.4,2.4-1l1.2,0.5l2.3-2.3
			c0.7-0.7,1.9-0.7,2.6,0c0.7,0.7,0.7,1.9,0,2.6l-3.2,3.2C28.6,23.9,28.1,24.1,27.6,24.1z"/>
		<path class="st2" d="M61.9,43.1H43.4c-1,0-1.8-0.8-1.8-1.8s0.8-1.8,1.8-1.8h18.5c1,0,1.8,0.8,1.8,1.8S62.9,43.1,61.9,43.1z"/>
		<path class="st2" d="M68.5,50.7H50c-1,0-1.8-0.8-1.8-1.8S49,47,50,47h18.5c1,0,1.8,0.8,1.8,1.8S69.5,50.7,68.5,50.7z"/>
		<circle class="st2" cx="28" cy="45.1" r="8.1"/>
		<path class="st4" d="M27.6,48.5c-0.2,0-0.5,0-0.7-0.1l-2.3-1c-0.9-0.4-1.4-1.5-1-2.4c0.4-0.9,1.5-1.4,2.4-1l1.2,0.5l2.3-2.3
			c0.7-0.7,1.9-0.7,2.6,0c0.7,0.7,0.7,1.9,0,2.6l-3.2,3.2C28.6,48.3,28.1,48.5,27.6,48.5z"/>
		<circle class="st2" cx="28" cy="69.5" r="8.1"/>
		<path class="st4" d="M27.6,72.9c-0.2,0-0.5,0-0.7-0.1l-2.2-0.9c-0.8-0.3-1.4-1.2-1.2-2.1c0.3-1.1,1.5-1.7,2.5-1.3l1.2,0.5l2.2-2.2
			c0.6-0.6,1.7-0.8,2.4-0.3c0.9,0.7,1,2,0.2,2.8l-3.2,3.2C28.6,72.7,28.1,72.9,27.6,72.9z"/>
	</g>
</g>
<g id="Layer_5">
	<g>
		<g>
			<polygon class="st2" points="94.4,24.6 79.1,38.7 55.9,38.7 55.9,38.1 70.9,24.1 71.4,24.6 			"/>
			<polygon class="st2" points="41.5,24.6 41.9,24.9 27.6,38.1 27.6,38.7 5.6,38.7 20.9,24.6 			"/>
		</g>
		<g>
			<path class="st4" d="M27,52.9H5.6c-1.1,0-2.1-0.9-2.1-2.1s0.9-2.1,2.1-2.1H27c1.1,0,2.1,0.9,2.1,2.1C29,52,28.1,52.9,27,52.9z"/>
			<path class="st4" d="M79.1,52.9H56.2c-1.1,0-2.1-0.9-2.1-2.1s0.9-2.1,2.1-2.1h22.1l14.8-11.7c0.9-0.7,2.2-0.5,2.9,0.4
				c0.7,0.9,0.5,2.2-0.4,2.9L80.3,52.5C79.9,52.7,79.5,52.9,79.1,52.9z"/>
			<path class="st4" d="M27,65.1H5.6c-1.1,0-2.1-0.9-2.1-2.1s0.9-2.1,2.1-2.1H27c1.1,0,2.1,0.9,2.1,2.1S28.1,65.1,27,65.1z"/>
			<path class="st4" d="M79.1,65.1H56.5c-1.1,0-2.1-0.9-2.1-2.1s0.9-2.1,2.1-2.1h22l14.7-10.6c0.9-0.7,2.2-0.5,2.9,0.4
				c0.7,0.9,0.5,2.2-0.4,2.9l0,0l-15.3,11C80,65,79.5,65.1,79.1,65.1z"/>
			<path class="st4" d="M79.1,77.2H5.6c-1.1,0-2.1-0.9-2.1-2.1S4.4,73,5.6,73h72.9l14.8-9.7c0.9-0.6,2.3-0.3,2.9,0.6
				c0.6,0.9,0.3,2.3-0.6,2.9l0,0l-15.3,10C79.9,77.1,79.5,77.2,79.1,77.2z"/>
		</g>
		<polygon class="st3" points="73.4,22.8 72,24.1 57,38.1 57,38.7 57,74.1 57,77.2 26.5,77.2 26.5,74.1 26.5,38.7 26.5,38.1 
			40.8,24.9 43,22.8 		"/>
		<path class="st5" d="M41.7,53.1c-1.8,0-3.2-1.5-3.2-3.2c0-1.8,1.5-3.2,3.2-3.2c1.8,0,3.2,1.5,3.2,3.2l0,0c0,1.1,0.9,2.1,2.1,2.1
			s2.1-0.9,2.1-2.1c0-3.2-2.2-6.1-5.3-7v-1.3c0-1.1-0.9-2.1-2.1-2.1c-1.1,0-2.1,0.9-2.1,2.1v1.3c-3.1,0.8-5.3,3.8-5.3,7
			c0,4.1,3.3,7.4,7.4,7.4c1.8,0,3.2,1.5,3.2,3.2s-1.5,3.2-3.2,3.2c-1.8,0-3.2-1.5-3.2-3.2l0,0c0-1.1-0.9-2.1-2.1-2.1
			c-1.1,0-2.1,0.9-2.1,2.1c0,3.2,2.2,6.1,5.3,7v1.3c0,1.1,0.9,2.1,2.1,2.1c1.1,0,2.1-0.9,2.1-2.1v-1.3c3.1-0.8,5.3-3.8,5.3-7
			C49.1,56.5,45.7,53.1,41.7,53.1L41.7,53.1z"/>
	</g>
</g>
</svg>
