<svg xmlns="http://www.w3.org/2000/svg" width="19.85" height="20.906" viewBox="0 0 19.85 20.906">
  <defs>
    <style>
      .cls-1 {
        fill: #556080;
        fill-rule: evenodd;
      }
    </style>
  </defs>
  <path class="cls-1" d="M1792.88,68.87c-1.9,0-3.81-.019-5.71.009a0.884,0.884,0,0,1-1.09-1.022,24.07,24.07,0,0,1,.16-2.692,5.346,5.346,0,0,1,4.51-4.422,17.614,17.614,0,0,1,3.72-.087,5.491,5.491,0,0,1,5.22,5.471c0.12,3.3.2,2.7-2.55,2.74C1795.72,68.886,1794.3,68.87,1792.88,68.87Zm7.36,0.01c-1.54,0-3.08-.02-4.62.009a0.754,0.754,0,0,1-.93-0.892,20.315,20.315,0,0,1,.14-2.213,4.387,4.387,0,0,1,3.66-3.584,14.38,14.38,0,0,1,3.15-.076,4.533,4.533,0,0,1,4.25,4.543c0.08,2.63.16,2.184-2.06,2.21C1802.63,68.892,1801.43,68.88,1800.24,68.88Zm-7.39-8.936a3.87,3.87,0,0,1,.05-7.739A3.87,3.87,0,1,1,1792.85,59.945Zm7.44,1.6a3.185,3.185,0,1,1,3.21-3.186A3.194,3.194,0,0,1,1800.29,61.541Zm1.24-12.18c0.05-.714.27-1.256,1.01-1.19a1.015,1.015,0,0,1,.83,1.236c0.03,0.665.1,1.328,0.13,1.993a0.984,0.984,0,0,1-1.09,1.23c-0.74.068-1.49,0.1-2.24,0.158a0.886,0.886,0,0,1-1.13-.8,0.873,0.873,0,0,1,.99-0.969c0.13-.008.25-0.037,0.6-0.09a5.862,5.862,0,0,0-5.43-.8,1.433,1.433,0,0,1-.62.208,1.6,1.6,0,0,1-.99-0.485,1.134,1.134,0,0,1,.32-1.035,5.566,5.566,0,0,1,1.78-.652A7.514,7.514,0,0,1,1801.53,49.36Z" transform="translate(-1786.09 -48)"/>
</svg>
