<?xml version="1.0" encoding="utf-8"?>
<!-- Generator: Adobe Illustrator 16.0.0, SVG Export Plug-In . SVG Version: 6.00 Build 0)  -->
<!DOCTYPE svg PUBLIC "-//W3C//DTD SVG 1.1//EN" "http://www.w3.org/Graphics/SVG/1.1/DTD/svg11.dtd">
<svg version="1.1" id="Layer_1" xmlns="http://www.w3.org/2000/svg" xmlns:xlink="http://www.w3.org/1999/xlink" x="0px" y="0px"
	 width="17px" height="17px" viewBox="0 0 17 17" enable-background="new 0 0 17 17" xml:space="preserve">
<g>
	<g id="Layer_1_78_">
		<g>
			<path fill="#969696" d="M16.061,15.33H0.873c-0.42,0-0.759,0.342-0.759,0.762s0.339,0.759,0.759,0.759h15.185
				c0.421,0,0.761-0.339,0.761-0.759S16.479,15.33,16.061,15.33z"/>
			<path fill="#969696" d="M1.822,13.356c-0.42,0-0.76,0.34-0.76,0.761c0,0.419,0.34,0.761,0.76,0.761h13.288
				c0.422,0,0.762-0.342,0.762-0.761c0-0.421-0.34-0.761-0.762-0.761h-0.188V6.522h0.188c0.212,0,0.381-0.169,0.381-0.379
				c0-0.209-0.169-0.379-0.381-0.379H1.822c-0.209,0-0.379,0.17-0.379,0.379c0,0.21,0.17,0.379,0.379,0.379h0.19v6.834H1.822
				L1.822,13.356z M13.401,6.522v6.834h-2.277V6.522H13.401z M9.605,6.522v6.834H7.327V6.522H9.605z M3.53,6.522h2.278v6.834H3.53
				V6.522z"/>
			<path fill="#969696" d="M0.873,5.082h15.185c0.006,0,0.009,0,0.012,0c0.418,0,0.757-0.34,0.757-0.761
				c0-0.332-0.215-0.616-0.513-0.718L8.779,0.212c-0.198-0.089-0.425-0.089-0.624,0L0.561,3.629C0.233,3.776,0.055,4.131,0.13,4.48
				C0.205,4.831,0.515,5.082,0.873,5.082z"/>
		</g>
	</g>
</g>
</svg>
