<?xml version="1.0" encoding="utf-8"?>
<!-- Generator: Adobe Illustrator 23.0.3, SVG Export Plug-In . SVG Version: 6.00 Build 0)  -->
<svg version="1.1" xmlns="http://www.w3.org/2000/svg" xmlns:xlink="http://www.w3.org/1999/xlink" x="0px" y="0px" width="19.6px"
	 height="21.6px" viewBox="0 0 19.6 21.6" style="enable-background:new 0 0 19.6 21.6;" xml:space="preserve">
<style type="text/css">
	.st0{display:none;}
	.st1{display:inline;}
	.st2{fill:#8596CA;}
</style>
<g id="Layer_1" class="st0">
	<g class="st1">
		<g>
			<path class="st2" d="M2.1,21.6h15.4V0H7.7v5.1H2.1V21.6z M9.8,6.9l4.6,4.6h-1.9v5.1H7.1v-5.1H5.2L9.8,6.9z"/>
			<polygon class="st2" points="7.1,4.4 7.1,0.3 2.5,4.4 			"/>
		</g>
	</g>
</g>
<g id="Layer_2">
	<g>
		<g id="Layer_5_58_">
			<g>
				<g>
					<path class="st2" d="M14.6,7.1c-0.6-0.2-0.7-0.4-0.7-0.6C13.9,6.2,14,6,14.5,6c0.4,0,0.7,0.2,0.7,0.2c0,0,0.1,0,0.1,0
						c0.1,0,0.2-0.1,0.2-0.1l0.1-0.3c0-0.1,0-0.2-0.1-0.2c-0.2-0.1-0.7-0.2-0.7-0.2c0,0,0,0,0,0l0-0.4c0-0.1-0.1-0.2-0.2-0.2h-0.2
						c-0.1,0-0.2,0.1-0.2,0.2l0,0.4c0,0,0,0,0,0c-0.6,0.1-1,0.6-1,1.1c0,0.7,0.6,1,1.2,1.2c0.5,0.2,0.7,0.4,0.7,0.7
						c0,0.3-0.3,0.5-0.7,0.5c-0.3,0-0.8-0.2-0.8-0.2c0,0-0.1,0-0.1,0c-0.1,0-0.2,0.1-0.2,0.1l-0.1,0.3c0,0.1,0,0.2,0.1,0.2
						C13.4,9.4,14,9.5,14,9.5c0,0,0,0,0,0V10c0,0.1,0.1,0.2,0.2,0.2h0.2c0.1,0,0.2-0.1,0.2-0.2V9.5c0,0,0,0,0,0c0.6-0.1,1-0.6,1-1.2
						C15.7,7.7,15.4,7.4,14.6,7.1z"/>
					<path class="st2" d="M14.4,2.3c-2.8,0-5.1,2.3-5.1,5.1c0,2.8,2.3,5.1,5.1,5.1c2.8,0,5.1-2.3,5.1-5.1
						C19.5,4.6,17.2,2.3,14.4,2.3z M14.4,11.4c-2.2,0-4-1.8-4-4s1.8-4,4-4c2.2,0,4,1.8,4,4S16.6,11.4,14.4,11.4z"/>
				</g>
				<g>
					<path class="st2" d="M18.5,15.1c-1.1,0.6-2.6,1.2-4.1,1.4c-1.3,0.2-3.8-0.3-3.8-0.9c0-0.2,2.2,0.6,3.5,0.2
						c1-0.3,0.9-1.2,0.3-1.4c-0.6-0.1-3.8-1.3-5.2-1.4c-0.7,0-2.3,0.2-3,0.4c-0.3,0-0.4,0-0.5,0.3c-0.1,1.2-0.2,3.6-0.3,4.9
						c0,0,0,0.4,0.3,0.1c0.3-0.3,0.8-0.6,1.2-0.5c0.7,0.2,6.4,1.2,7.2,1c1.1-0.3,4.3-2.2,4.9-2.7C20,15.6,19.3,14.7,18.5,15.1z"/>
					<path class="st2" d="M4.2,13.4l-3-0.1c-0.2,0-0.5,0.2-0.5,0.4l-0.5,5C0,18.8,0.2,19,0.4,19l3.3,0c0.2,0,0.4-0.2,0.5-0.4
						l0.4-4.8C4.6,13.6,4.4,13.4,4.2,13.4z M2.4,18.4c-0.5,0-0.8-0.4-0.8-0.8c0-0.5,0.4-0.8,0.8-0.8s0.8,0.4,0.8,0.8
						C3.2,18,2.9,18.4,2.4,18.4z"/>
				</g>
			</g>
		</g>
	</g>
</g>
</svg>
