<svg xmlns="http://www.w3.org/2000/svg" width="21.294" height="21.222" viewBox="0 0 21.294 21.222">
  <g id="retirement-plan" transform="translate(-3 -3.072)">
    <path id="Path_87" data-name="Path 87" d="M9.241,57H8.874v.734H8.14V57H7.406v.734H6.671V57H5.937v.734H5.2V57H4.469v.734H3.734V57H3.367A.367.367,0,0,0,3,57.367V58.1a.367.367,0,0,0,.367.367H9.241a.367.367,0,0,0,.367-.367v-.734A.367.367,0,0,0,9.241,57Z" transform="translate(0 -34.175)" fill="#8596ca"/>
    <path id="Path_88" data-name="Path 88" d="M18.014,15H10.759a3.238,3.238,0,0,0-2.694,1.39A5.928,5.928,0,0,0,7,19.773a3.058,3.058,0,0,0,1.469,2.276V17.2H9.2V28.951a.734.734,0,1,0,1.469,0V21.608h.863l1.8,1.439a.73.73,0,0,1,.275.573v3.128a.734.734,0,1,0,1.469,0V22.789a1.1,1.1,0,0,0-.518-.934l-1.318-.824V16.469h4.773a.734.734,0,0,0,0-1.469Z" transform="translate(-2.531 -7.594)" fill="#8596ca"/>
    <circle id="Ellipse_13" data-name="Ellipse 13" cx="1.5" cy="1.5" r="1.5" transform="translate(7 3.072)" fill="#8596ca"/>
    <path id="Path_89" data-name="Path 89" d="M46.3,31.608A3.3,3.3,0,1,0,43,28.3,3.308,3.308,0,0,0,46.3,31.608Zm.367-2.937h-.734a1.1,1.1,0,0,1-1.1-1.1v-1.1h1.1v-.734h.734v.734a1.1,1.1,0,0,1,1.1,1.1h-.734a.367.367,0,0,0-.367-.367h-1.1v.367a.367.367,0,0,0,.367.367h.734a1.1,1.1,0,0,1,1.1,1.1v1.1h-1.1v.734h-.734V30.14a1.1,1.1,0,0,1-1.1-1.1h.734a.367.367,0,0,0,.367.367h1.1v-.367A.367.367,0,0,0,46.671,28.671Z" transform="translate(-25.315 -13.923)" fill="#8596ca"/>
    <path id="Path_90" data-name="Path 90" d="M49.241,45h-.367v.734H48.14V45h-.734v.734h-.734V45h-.734v.734H45.2V45h-.734v.734h-.734V45h-.367a.367.367,0,0,0-.367.367V46.1a.367.367,0,0,0,.367.367h5.874a.367.367,0,0,0,.367-.367v-.734A.367.367,0,0,0,49.241,45Z" transform="translate(-25.315 -26.581)" fill="#8596ca"/>
    <path id="Path_91" data-name="Path 91" d="M49.241,57h-.367v.734H48.14V57h-.734v.734h-.734V57h-.734v.734H45.2V57h-.734v.734h-.734V57h-.367a.367.367,0,0,0-.367.367V58.1a.367.367,0,0,0,.367.367h5.874a.367.367,0,0,0,.367-.367v-.734A.367.367,0,0,0,49.241,57Z" transform="translate(-25.315 -34.175)" fill="#8596ca"/>
    <path id="Path_92" data-name="Path 92" d="M49.241,51h-.367v.734H48.14V51h-.734v.734h-.734V51h-.734v.734H45.2V51h-.734v.734h-.734V51h-.367a.367.367,0,0,0-.367.367V52.1a.367.367,0,0,0,.367.367h5.874a.367.367,0,0,0,.367-.367v-.734A.367.367,0,0,0,49.241,51Z" transform="translate(-25.315 -30.378)" fill="#8596ca"/>
    <path id="Path_93" data-name="Path 93" d="M29.241,57h-.367v.734H28.14V57h-.734v.734h-.734V57h-.734v.734H25.2V57h-.734v.734h-.734V57h-.367a.367.367,0,0,0-.367.367V58.1a.367.367,0,0,0,.367.367h5.874a.367.367,0,0,0,.367-.367v-.734A.367.367,0,0,0,29.241,57Z" transform="translate(-12.657 -34.175)" fill="#8596ca"/>
    <path id="Path_94" data-name="Path 94" d="M29.241,51h-.367v.734H28.14V51h-.734v.734h-.734V51h-.734v.734H25.2V51h-.734v.734h-.734V51h-.367a.367.367,0,0,0-.367.367V52.1a.367.367,0,0,0,.367.367h5.874a.367.367,0,0,0,.367-.367v-.734A.367.367,0,0,0,29.241,51Z" transform="translate(-12.657 -30.378)" fill="#8596ca"/>
    <path id="Path_95" data-name="Path 95" d="M34.034,20.917l.355,10.28h.734l.354-10.328a1.444,1.444,0,0,1-.354.048Z" transform="translate(-19.64 -11.309)" fill="#8596ca"/>
  </g>
</svg>
