<svg xmlns="http://www.w3.org/2000/svg" width="23.063" height="20.875" viewBox="0 0 23.063 20.875">
  <defs>
    <style>
      .cls-1 {
        fill: #8596ca;
        fill-rule: evenodd;
      }
    </style>
  </defs>
  <path class="cls-1" d="M58.934,590.1H56.271v-0.04H54.939v0.04H53.608v-0.04H52.276v0.04H50.945v-0.04H49.613v0.04H48.282v-0.04H46.95v0.04H45.619v-0.04H44.287v0.04H42.956v-0.04H41.624v0.04H38.961v3.059H58.934V590.1Zm-8.807,14.42h-8.5v-7.108H56.271v0.966c0.085,0,.171-0.006.257-0.006a5.992,5.992,0,0,1,2.406.5V594.6H38.961v12.381h11.3a7.5,7.5,0,0,1-.179-1.633A7.6,7.6,0,0,1,50.127,604.524ZM42.7,598.088H45.26v2.424H42.7v-2.424Zm3.745,0h2.562v2.424H46.444v-2.424Zm3.45,0h2.562v2.424H49.894v-2.424Zm-7.2,3.25H45.26v2.424H42.7v-2.424Zm3.745,0h2.562v2.424H46.444v-2.424ZM40.913,590.1h-1.5m4.505,0h-1.5m4.505,0h-1.5m4.505,0h-1.5m4.505,0h-1.5m4.5,0h-1.5m1.791,9.665a5.588,5.588,0,1,0,5.819,5.583A5.711,5.711,0,0,0,56.22,599.769ZM55.6,607.416l-1.955-1.876,1.062-1.019,0.893,0.857,2.135-2.048,1.062,1.019Z" transform="translate(-38.969 -590.063)"/>
</svg>
