<svg xmlns="http://www.w3.org/2000/svg" width="22.75" height="17.125" viewBox="0 0 22.75 17.125">
  <defs>
    <style>
      .cls-1 {
        fill: #fff;
        fill-rule: evenodd;
      }
    </style>
  </defs>
  <path id="Shape_86_copy_2" data-name="Shape 86 copy 2" class="cls-1" d="M1836.76,60.01c2.11,0,3.83-2.027,3.83-4.528,0-3.468-1.72-4.528-3.83-4.528s-3.83,1.06-3.83,4.528C1832.93,57.982,1834.64,60.01,1836.76,60.01Zm8.46,6.665-1.93-4.4a1,1,0,0,0-.44-0.47l-3-1.577a0.2,0.2,0,0,0-.21.018,4.7,4.7,0,0,1-5.77,0,0.183,0.183,0,0,0-.2-0.018l-3,1.577a0.958,0.958,0,0,0-.44.47l-1.93,4.4a0.972,0.972,0,0,0,.88,1.372h15.16a0.973,0.973,0,0,0,.81-0.444A0.987,0.987,0,0,0,1845.22,66.675Zm-0.26-8.618a2.956,2.956,0,0,0,2.68-3.17c0-2.428-1.2-3.17-2.68-3.17s-2.68.742-2.68,3.17A2.956,2.956,0,0,0,1844.96,58.057Zm5.92,4.666-1.35-3.078a0.662,0.662,0,0,0-.31-0.329l-2.1-1.1a0.128,0.128,0,0,0-.14.012,3.289,3.289,0,0,1-4.04,0,0.144,0.144,0,0,0-.15-0.012l-2.1,1.1a0.687,0.687,0,0,0-.3.329l-1.36,3.078a0.684,0.684,0,0,0,.06.65,0.654,0.654,0,0,0,.56.311h10.61A0.682,0.682,0,0,0,1850.88,62.723Z" transform="translate(-1828.19 -50.938)"/>
</svg>
