<?xml version="1.0" encoding="utf-8"?>
<!-- Generator: Adobe Illustrator 23.0.3, SVG Export Plug-In . SVG Version: 6.00 Build 0)  -->
<svg version="1.1" id="Layer_1" xmlns="http://www.w3.org/2000/svg" xmlns:xlink="http://www.w3.org/1999/xlink" x="0px" y="0px"
	 width="20px" height="20px" viewBox="0 0 20 20" style="enable-background:new 0 0 20 20;" xml:space="preserve">
<style type="text/css">
	.st0{fill:#FFFFFF;}
</style>
<g>
	<g>
		<g>
			<path class="st0" d="M15.5,12.2c-0.4-0.8-1.7-1.9-3-2.9c-0.7-0.6-1.4-1.1-1.8-1.6c-0.1-0.1-0.3-0.1-0.4-0.1
				C10,7.7,9.8,7.8,9.7,7.9C9.5,8,9.4,8,9.2,8C9.1,8,8.9,8.1,8.9,8.2C8.3,9,7.7,9,7.4,8.8c-0.1,0-0.1-0.1-0.2-0.1
				C7.1,8.3,7.5,7.5,8.1,7c1.3-1.3,1.9-1.6,3.4-1c1.6,0.7,3.2,1.3,3.2,1.3c0.2,0.1,0.4,0,0.5-0.2c0.1-0.2,0-0.4-0.2-0.5
				c0,0-1.6-0.6-3.1-1.2C9.9,4.5,8.9,5,7.5,6.4C7,7,6.2,8.1,6.4,8.9c0.1,0.3,0.3,0.6,0.7,0.7c0.9,0.3,1.7,0,2.3-0.8
				c0.3,0,0.4-0.1,0.6-0.2c0.1,0,0.2-0.1,0.3-0.1c0.5,0.4,1.1,0.9,1.7,1.4c1.2,0.9,2.5,2,2.8,2.6c0.1,0.3,0,0.5-0.1,0.6
				c-0.2,0.1-0.4,0.2-0.5,0.1c-0.1-0.1-0.3-0.1-0.4,0c-0.1,0.1-0.2,0.2-0.2,0.4c0,0.3-0.2,0.4-0.3,0.4c-0.3,0.1-0.5,0.1-0.6,0
				c-0.1-0.1-0.3-0.1-0.4-0.1C12.1,14,12,14.2,12,14.3c0,0.3-0.2,0.5-0.5,0.6c-0.1,0-0.3,0.1-0.5-0.1c-0.1-0.1-0.2-0.1-0.4-0.1
				c-0.1,0-0.2,0.1-0.3,0.2c0,0,0,0.1-0.4,0.1c-0.3,0-0.7-0.2-1-0.3c-0.3-0.2-2-1.5-3.5-2.7c-0.2-0.2-0.6-0.6-0.9-0.9
				c-0.3-0.3-0.5-0.6-0.7-0.7c-0.2-0.1-0.4-0.1-0.6,0c-0.1,0.2-0.1,0.4,0,0.6c0.1,0.1,0.4,0.4,0.6,0.6c0.4,0.4,0.7,0.8,1,1
				c1.5,1.2,3.2,2.6,3.6,2.8c0.3,0.2,0.9,0.5,1.4,0.5c0.4,0,0.7-0.1,0.9-0.3c0.3,0.1,0.6,0.1,0.9,0c0.4-0.1,0.7-0.4,0.8-0.8
				c0.3,0.1,0.7,0,1-0.1c0.3-0.2,0.5-0.4,0.7-0.7c0.3,0,0.6-0.1,0.9-0.3C15.6,13.4,15.8,12.8,15.5,12.2z"/>
		</g>
	</g>
	<g>
		<g>
			<path class="st0" d="M8.4,5.6H4.9C4.6,5.6,4.5,5.8,4.5,6s0.2,0.4,0.4,0.4h3.6c0.2,0,0.4-0.2,0.4-0.4S8.6,5.6,8.4,5.6z"/>
		</g>
	</g>
	<g>
		<g>
			<path class="st0" d="M16.7,11.4c-0.1-0.2-0.4-0.2-0.5-0.1L15,12c-0.2,0.1-0.2,0.4-0.1,0.5c0.1,0.1,0.2,0.2,0.3,0.2
				c0.1,0,0.2,0,0.2-0.1l1.2-0.8C16.7,11.8,16.8,11.5,16.7,11.4z"/>
		</g>
	</g>
	<g>
		<g>
			<path class="st0" d="M14.2,13.3c-0.3-0.2-1.6-1.5-2.3-2.3c-0.2-0.2-0.4-0.2-0.6,0c-0.2,0.2-0.2,0.4,0,0.6c0.2,0.2,2,2.1,2.4,2.4
				c0.1,0.1,0.2,0.1,0.2,0.1c0.1,0,0.2-0.1,0.3-0.2C14.4,13.6,14.4,13.4,14.2,13.3z"/>
		</g>
	</g>
	<g>
		<g>
			<path class="st0" d="M12.6,14c-0.5-0.4-1.7-1.6-1.9-1.9c-0.1-0.2-0.4-0.2-0.6,0c-0.2,0.1-0.2,0.4,0,0.6c0,0,1.4,1.6,2,2
				c0.1,0.1,0.2,0.1,0.2,0.1c0.1,0,0.2-0.1,0.3-0.1C12.8,14.4,12.8,14.2,12.6,14z"/>
		</g>
	</g>
	<g>
		<g>
			<path class="st0" d="M11,14.8c-0.6-0.5-1.7-1.7-1.9-1.9c-0.1-0.2-0.4-0.2-0.6,0c-0.2,0.1-0.2,0.4,0,0.6c0.3,0.3,1.4,1.5,2,2
				c0.1,0.1,0.2,0.1,0.3,0.1c0.1,0,0.2,0,0.3-0.1C11.2,15.2,11.2,15,11,14.8z"/>
		</g>
	</g>
	<g>
		<g>
			<path class="st0" d="M5.1,5C4.4,4.3,1.7,4.1,0.9,4.1c-0.1,0-0.2,0-0.3,0.1C0.5,4.2,0.5,4.3,0.5,4.5v7.1c0,0.2,0.2,0.4,0.4,0.4
				h2.4c0.2,0,0.3-0.1,0.4-0.3c0.1-0.2,1.4-4.4,1.6-6.4C5.3,5.2,5.2,5,5.1,5z M3,11.2H1.3V4.9C2.6,5,3.9,5.2,4.4,5.4
				C4.2,7.2,3.3,10.3,3,11.2z"/>
		</g>
	</g>
	<g>
		<g>
			<path class="st0" d="M19.1,4.9c-3.1,0-4.8,0.8-4.9,0.8c-0.1,0-0.2,0.1-0.2,0.2s0,0.2,0,0.3c0.5,0.8,2,5.2,2.3,6.2
				c0,0.2,0.2,0.3,0.4,0.3h2.4c0.2,0,0.4-0.2,0.4-0.4V5.2C19.5,5,19.3,4.9,19.1,4.9z M18.7,12H17c-0.4-1.2-1.5-4.4-2.1-5.7
				c0.6-0.2,1.9-0.6,3.8-0.6V12z"/>
		</g>
	</g>
</g>
</svg>
