<?xml version="1.0" encoding="utf-8"?>
<!-- Generator: Adobe Illustrator 16.0.0, SVG Export Plug-In . SVG Version: 6.00 Build 0)  -->
<!DOCTYPE svg PUBLIC "-//W3C//DTD SVG 1.1//EN" "http://www.w3.org/Graphics/SVG/1.1/DTD/svg11.dtd">
<svg version="1.1" id="Layer_1" xmlns="http://www.w3.org/2000/svg" xmlns:xlink="http://www.w3.org/1999/xlink" x="0px" y="0px"
	 width="16px" height="16px" viewBox="0 0 16 16" enable-background="new 0 0 16 16" xml:space="preserve">
<path fill="#8E8E8E" d="M14.238,2.413c0,0,0.887,0.587,0.366,2.587H11l-0.396-2.578L14.238,2.413z"/>
<path fill="#333333" d="M14.313,2.54c0,0-3.188,1.842-2.344,4.479c0.844,2.636,0.625,5.432-0.156,6.512l-9.47-0.342
	c0,0,2.325-3.523,1.741-6.933C3.5,2.847,6,2.127,6.333,2l8.271,0.254L14.313,2.54z"/>
<path fill="#8E8E8E" d="M1.844,10.5l9.063,0.242c0,0-0.531,2.749,0.906,2.789l-9.688-0.444C2.125,13.087,0.938,12.925,1.844,10.5z"
	/>
</svg>
