<?xml version="1.0" encoding="utf-8"?>
<!-- Generator: Adobe Illustrator 16.0.3, SVG Export Plug-In . SVG Version: 6.00 Build 0)  -->
<!DOCTYPE svg PUBLIC "-//W3C//DTD SVG 1.1//EN" "http://www.w3.org/Graphics/SVG/1.1/DTD/svg11.dtd">
<svg version="1.1" id="Layer_1" xmlns="http://www.w3.org/2000/svg" xmlns:xlink="http://www.w3.org/1999/xlink" x="0px" y="0px"
	 width="20px" height="20px" viewBox="0 0 20 20" enable-background="new 0 0 20 20" xml:space="preserve">
<g id="Layer_21">
	<g>
		<path fill="#FFFFFF" d="M4.132,17.187c0-0.041-0.003-0.08-0.009-0.116c0.005-0.025,0.009-0.049,0.009-0.076v-0.94
			c0-0.133-0.094-0.243-0.211-0.243c-0.116,0-0.21,0.11-0.21,0.243v0.94c0,0.027,0.004,0.051,0.01,0.076
			c-0.005,0.036-0.01,0.075-0.01,0.116l1.021,1.393l0,0l0.543,0.169L5.081,18.48L4.132,17.187z"/>
		<path fill="#FFFFFF" d="M5.949,18.581l-1.021-1.393c0-0.042-0.003-0.081-0.008-0.117c0.005-0.023,0.008-0.049,0.008-0.075v-0.94
			c0-0.134-0.094-0.245-0.21-0.245c-0.116,0-0.21,0.111-0.21,0.245v0.94c0,0.026,0.003,0.052,0.01,0.075
			c-0.005,0.036-0.01,0.075-0.01,0.117l1.018,1.39l-0.003,0.003l0.543,0.168l-0.124-0.168H5.949L5.949,18.581z"/>
		<path fill="#FFFFFF" d="M7.542,18.581l-1.021-1.393c0-0.042-0.003-0.081-0.01-0.117c0.006-0.023,0.01-0.049,0.01-0.075v-0.94
			c0-0.134-0.093-0.245-0.21-0.245c-0.115,0-0.21,0.111-0.21,0.245v0.94c0,0.026,0.003,0.052,0.01,0.075
			c-0.005,0.036-0.01,0.075-0.01,0.117l1.019,1.393l0,0l0.544,0.168L7.542,18.581L7.542,18.581z"/>
		<path fill="#FFFFFF" d="M8.339,18.581l-1.021-1.393c0-0.042-0.003-0.081-0.01-0.117c0.006-0.023,0.01-0.049,0.01-0.075v-0.94
			c0-0.134-0.094-0.245-0.21-0.245s-0.21,0.111-0.21,0.245v0.94c0,0.026,0.004,0.052,0.01,0.075c-0.005,0.036-0.01,0.075-0.01,0.117
			l1.02,1.393H7.914l0.545,0.168l-0.123-0.168H8.339L8.339,18.581z"/>
		<path fill="#FFFFFF" d="M9.933,18.581l-1.021-1.393c0-0.042-0.003-0.081-0.01-0.117c0.006-0.023,0.01-0.049,0.01-0.075v-0.94
			c0-0.134-0.094-0.245-0.211-0.245c-0.116,0-0.209,0.111-0.209,0.245v0.94c0,0.026,0.003,0.052,0.01,0.075
			c-0.006,0.036-0.01,0.075-0.01,0.117l1.017,1.39l-0.003,0.003l0.543,0.168l-0.123-0.168H9.933z"/>
		<path fill="#FFFFFF" d="M11.527,18.581l-1.022-1.393c0-0.042-0.005-0.081-0.01-0.117c0.005-0.023,0.01-0.049,0.01-0.075v-0.94
			c0-0.134-0.094-0.245-0.21-0.245s-0.211,0.111-0.211,0.245v0.94c0,0.026,0.003,0.052,0.009,0.075
			c-0.006,0.036-0.009,0.075-0.009,0.117l1.019,1.393l0,0l0.545,0.168l-0.121-0.168H11.527L11.527,18.581z"/>
		<path fill="#FFFFFF" d="M12.322,18.581l-1.02-1.393c0-0.042-0.002-0.081-0.009-0.117c0.007-0.023,0.009-0.049,0.009-0.075v-0.94
			c0-0.134-0.094-0.245-0.215-0.245c-0.114,0-0.206,0.111-0.206,0.245v0.94c0,0.026,0.002,0.052,0.009,0.075
			c-0.007,0.036-0.009,0.075-0.009,0.117l1.021,1.393h-0.002l0.544,0.168L12.322,18.581L12.322,18.581z"/>
		<path fill="#FFFFFF" d="M13.915,18.581l-1.019-1.393c0-0.042-0.004-0.081-0.009-0.117c0.005-0.023,0.009-0.049,0.009-0.075v-0.94
			c0-0.134-0.092-0.245-0.212-0.245c-0.113,0-0.207,0.111-0.207,0.245v0.94c0,0.026,0,0.052,0.01,0.075
			c-0.01,0.036-0.01,0.075-0.01,0.117l1.021,1.393l0,0l0.542,0.168L13.915,18.581L13.915,18.581L13.915,18.581z"/>
		<path fill="#FFFFFF" d="M14.712,18.581l-1.019-1.393c0-0.042-0.006-0.081-0.012-0.117c0.006-0.023,0.012-0.049,0.012-0.075v-0.94
			c0-0.134-0.095-0.245-0.212-0.245c-0.115,0-0.209,0.111-0.209,0.245v0.94c0,0.026,0.002,0.052,0.009,0.075
			c-0.007,0.036-0.009,0.075-0.009,0.117l1.019,1.393l0,0l0.545,0.168L14.712,18.581L14.712,18.581z"/>
		<path fill="#FFFFFF" d="M9.073,7.41c0.341,0,0.617-0.202,0.617-0.453V1.703c0-0.25-0.277-0.453-0.617-0.453
			c-0.34,0-0.617,0.203-0.617,0.453v5.254C8.456,7.208,8.731,7.41,9.073,7.41z"/>
		<path fill="#FFFFFF" d="M14.307,13.885L9.689,7.208v0.093c0,0.341-0.275,0.617-0.617,0.617S8.456,7.643,8.456,7.302V7.208
			L3.85,13.869l-0.162,1.771h10.77L14.307,13.885z"/>
		<path fill="#FFFFFF" d="M6.744,18.581L6.744,18.581l-1.02-1.393c0-0.042-0.003-0.081-0.01-0.117
			c0.005-0.023,0.01-0.049,0.01-0.075v-0.94c0-0.134-0.094-0.245-0.21-0.245s-0.21,0.111-0.21,0.245v0.94
			c0,0.026,0.003,0.052,0.01,0.075c-0.006,0.036-0.01,0.075-0.01,0.117l1.011,1.381H6.314l0.002,0.002l0.007,0.01h0.027l0.507,0.154
			L6.744,18.581z"/>
		<path fill="#FFFFFF" d="M9.13,18.581h0.005l-1.02-1.393c0-0.042-0.003-0.081-0.01-0.117c0.005-0.023,0.01-0.049,0.01-0.075v-0.94
			c0-0.134-0.093-0.245-0.21-0.245c-0.116,0-0.21,0.111-0.21,0.245v0.94c0,0.026,0.003,0.052,0.01,0.075
			c-0.006,0.036-0.01,0.075-0.01,0.117l1.008,1.377l-0.002,0.004h0.005l0.007,0.012h0.026l0.503,0.154L9.13,18.581z"/>
		<path fill="#FFFFFF" d="M10.625,18.438l-0.917-1.252c0-0.041-0.003-0.08-0.01-0.116c0.007-0.025,0.01-0.049,0.01-0.076v-0.94
			c0-0.133-0.094-0.243-0.21-0.243c-0.116,0-0.21,0.109-0.21,0.242v0.941c0,0.026,0.004,0.051,0.009,0.075
			c-0.005,0.036-0.009,0.075-0.009,0.117l1.02,1.392h0.007l0.543,0.169l-0.228-0.313L10.625,18.438z"/>
		<path fill="#FFFFFF" d="M13.016,18.438L12.1,17.187c0-0.041-0.004-0.08-0.009-0.116c0.005-0.025,0.009-0.049,0.009-0.076v-0.94
			c0-0.133-0.094-0.243-0.208-0.243c-0.118,0-0.212,0.11-0.212,0.243v0.94c0,0.027,0.002,0.051,0.01,0.076
			c-0.008,0.036-0.01,0.075-0.01,0.116l1.021,1.393h0.015l0.525,0.162L13.016,18.438z"/>
		<path fill="#FFFFFF" d="M15.483,18.545l-0.995-1.356c0-0.042-0.003-0.081-0.009-0.117c0.006-0.023,0.009-0.049,0.009-0.075v-0.94
			c0-0.134-0.092-0.245-0.21-0.245c-0.115,0-0.209,0.111-0.209,0.245v0.94c0,0.026,0.002,0.052,0.01,0.075
			c-0.008,0.036-0.01,0.075-0.01,0.117l1.018,1.393h0.005l0.542,0.168L15.483,18.545z"/>
	</g>
</g>
</svg>
