<?xml version="1.0" encoding="utf-8"?>
<!-- Generator: Adobe Illustrator 16.0.3, SVG Export Plug-In . SVG Version: 6.00 Build 0)  -->
<!DOCTYPE svg PUBLIC "-//W3C//DTD SVG 1.1//EN" "http://www.w3.org/Graphics/SVG/1.1/DTD/svg11.dtd">
<svg version="1.1" id="Layer_1" xmlns="http://www.w3.org/2000/svg" xmlns:xlink="http://www.w3.org/1999/xlink" x="0px" y="0px"
	 width="20px" height="20px" viewBox="0 0 20 20" enable-background="new 0 0 20 20" xml:space="preserve">
<g id="Group" transform="translate(-240.000000, -144.000000)">
	<path id="Oval_188" fill="#FFFFFF" d="M249.844,159.516c2.762,0,5.193-2.322,5.193-5.084c0-1.636-0.979-3.379-2.193-4.291v-2.229
		c2.365,1.123,4,3.533,4,6.326c0,3.866-3.134,7-7,7s-7-3.134-7-7c0-2.793,1.635-5.203,4-6.326v2.182
		c-1.215,0.912-2.125,2.536-2.125,4.172C244.719,157.027,247.082,159.516,249.844,159.516z M249.844,154.238
		c-0.557,0-1-0.446-1-0.997v-6.006c0-0.544,0.447-0.997,1-0.997c0.557,0,1,0.446,1,0.997v6.006
		C250.844,153.785,250.396,154.238,249.844,154.238z"/>
</g>
</svg>
