<?xml version="1.0" encoding="utf-8"?>
<!-- Generator: Adobe Illustrator 16.0.3, SVG Export Plug-In . SVG Version: 6.00 Build 0)  -->
<!DOCTYPE svg PUBLIC "-//W3C//DTD SVG 1.1//EN" "http://www.w3.org/Graphics/SVG/1.1/DTD/svg11.dtd">
<svg version="1.1" id="Layer_1" xmlns="http://www.w3.org/2000/svg" xmlns:xlink="http://www.w3.org/1999/xlink" x="0px" y="0px"
	 width="20px" height="20px" viewBox="0 0 20 20" enable-background="new 0 0 20 20" xml:space="preserve">
<path fill="#FFFFFF" d="M17.612,6.956H2.388c-0.847,0-0.847,0.854-0.847,0.854v4.443c0,0.854,0.847,0.854,0.847,0.854H3.85v-0.768
	H2.312V7.725h15.38v4.614h-1.538v0.769h1.46c0,0,0.848,0,0.848-0.854V7.81C18.459,7.81,18.459,6.956,17.612,6.956z"/>
<path fill="#FFFFFF" d="M15.761,9.263H4.24c0,0-0.39,0-0.39,0.384c0,0.385,0.39,0.385,0.39,0.385h11.521c0,0,0.391,0,0.391-0.385
	C16.151,9.263,15.761,9.263,15.761,9.263z"/>
<rect x="4.619" y="12.339" fill="none" stroke="#FFFFFF" stroke-width="0.6" stroke-miterlimit="10" width="10.764" height="6.151"/>
<rect x="6.155" y="13.875" fill="#FFFFFF" width="7.689" height="0.769"/>
<rect x="6.155" y="15.848" fill="#FFFFFF" width="7.689" height="0.768"/>
<polygon fill="#FFFFFF" points="5.386,2.341 14.615,2.341 14.615,6.188 15.383,6.188 15.383,1.573 4.619,1.573 4.619,6.188 
	5.386,6.188 "/>
</svg>
