<?xml version="1.0" encoding="utf-8"?>
<!-- Generator: Adobe Illustrator 23.0.3, SVG Export Plug-In . SVG Version: 6.00 Build 0)  -->
<svg version="1.1" id="Layer_1" xmlns="http://www.w3.org/2000/svg" xmlns:xlink="http://www.w3.org/1999/xlink" x="0px" y="0px"
	 viewBox="0 0 20 20" style="enable-background:new 0 0 20 20;" xml:space="preserve">
<style type="text/css">
	.st0{fill:#056161;}
</style>
<path id="previous" class="st0" d="M16.6,8.6h-6.3V5.9C10.3,5.4,9.9,5,9.4,5C9,5,8.8,5.2,8.5,5.4l-4.9,4C3.3,9.8,3.1,10,3.1,10.4
	c0,0.4,0.2,0.6,0.6,0.9l4.9,4c0.3,0.2,0.5,0.5,0.9,0.5c0.5,0,0.9-0.4,0.9-0.9v-2.7h6.3c0.5,0,0.9-0.4,0.9-0.9V9.5
	C17.5,9,17.1,8.6,16.6,8.6z"/>
</svg>
