<?xml version="1.0" encoding="utf-8"?>
<!-- Generator: Adobe Illustrator 16.0.0, SVG Export Plug-In . SVG Version: 6.00 Build 0)  -->
<!DOCTYPE svg PUBLIC "-//W3C//DTD SVG 1.1//EN" "http://www.w3.org/Graphics/SVG/1.1/DTD/svg11.dtd">
<svg version="1.1" id="Capa_1" xmlns="http://www.w3.org/2000/svg" xmlns:xlink="http://www.w3.org/1999/xlink" x="0px" y="0px"
	 width="20px" height="20px" viewBox="0 0 20 20" enable-background="new 0 0 20 20" xml:space="preserve">
<g>
	<g>
		<path fill="#282828" d="M10.001,0.5C7.453,0.5,5.39,2.391,5.39,4.722c0,2.333,2.063,4.222,4.611,4.222
			c2.545,0,4.608-1.889,4.61-4.222C14.611,2.391,12.55,0.5,10.001,0.5z M10.001,7.539c-1.699,0-3.075-1.261-3.075-2.816
			c0-1.556,1.376-2.815,3.075-2.815c1.696,0,3.073,1.26,3.073,2.815C13.076,6.278,11.7,7.539,10.001,7.539z"/>
	</g>
</g>
<g>
	<g>
		<path fill="#282828" d="M13.076,9.649h-0.182l-0.162,0.074c-1.719,0.782-3.744,0.782-5.463,0L7.107,9.649H6.926
			c-2.12,0.001-3.841,1.578-3.844,3.521v4.221c0,1.166,1.034,2.109,2.309,2.109h9.222c1.271,0,2.306-0.943,2.306-2.109V13.17
			C16.918,11.227,15.198,9.65,13.076,9.649z M15.382,17.391c0,0.392-0.344,0.703-0.771,0.703H5.39c-0.423,0-0.769-0.313-0.769-0.703
			V13.17c0-1.111,0.936-2.031,2.142-2.107c2.053,0.869,4.422,0.869,6.475,0c1.209,0.076,2.144,0.996,2.144,2.107V17.391z"/>
	</g>
</g>
</svg>
