<?xml version="1.0" encoding="utf-8"?>
<!-- Generator: Adobe Illustrator 16.0.3, SVG Export Plug-In . SVG Version: 6.00 Build 0)  -->
<!DOCTYPE svg PUBLIC "-//W3C//DTD SVG 1.1//EN" "http://www.w3.org/Graphics/SVG/1.1/DTD/svg11.dtd">
<svg version="1.1" id="Layer_1" xmlns="http://www.w3.org/2000/svg" xmlns:xlink="http://www.w3.org/1999/xlink" x="0px" y="0px"
	 width="16px" height="10px" viewBox="0 0 16 10" enable-background="new 0 0 16 10" xml:space="preserve">
<g>
	<path d="M3.643,9.75l0.771-1.604C4.629,8.27,4.875,8.33,5.149,8.33c0.888,0,2-0.799,3.336-2.398l0.525-0.639L7.82,2.49
		c-0.298-0.706-0.59-1.06-0.875-1.06c-0.351,0-0.882,0.476-1.594,1.427l0.228-1.147C6.431,0.59,7.16,0.03,7.767,0.03
		c0.566,0,1.098,0.566,1.594,1.699l0.998,2.286l0.569-0.727c1.704-2.171,3.103-3.257,4.194-3.257c0.292,0,0.592,0.096,0.901,0.289
		l-0.901,1.593c-0.239-0.146-0.47-0.219-0.692-0.219c-0.969,0-2.107,0.8-3.415,2.399l-0.42,0.508l1.313,3.056
		c0.304,0.73,0.607,1.096,0.911,1.096c0.414,0,0.992-0.436,1.733-1.305l-0.21,1.051c-0.894,0.98-1.685,1.471-2.373,1.471
		c-0.66,0-1.194-0.482-1.603-1.445l-1.13-2.68L8.529,6.746C6.842,8.895,5.522,9.969,4.571,9.969C4.332,9.969,4.022,9.895,3.643,9.75
		z"/>
</g>
<g>
	<path d="M1.814,5.75l0.303,0.354C1.673,6.38,1.351,6.65,1.149,6.915C0.947,7.181,0.813,7.512,0.746,7.908
		c0.181-0.04,0.322-0.062,0.423-0.062c0.309,0,0.558,0.1,0.746,0.296c0.188,0.198,0.282,0.458,0.282,0.778
		c0,0.328-0.099,0.598-0.296,0.809s-0.45,0.315-0.757,0.315c-0.348,0-0.626-0.144-0.833-0.433C0.104,9.324,0,8.939,0,8.457
		c0-0.598,0.142-1.107,0.426-1.53C0.71,6.505,1.173,6.113,1.814,5.75z"/>
</g>
</svg>
