<?xml version="1.0" encoding="utf-8"?>
<!-- Generator: Adobe Illustrator 16.0.3, SVG Export Plug-In . SVG Version: 6.00 Build 0)  -->
<!DOCTYPE svg PUBLIC "-//W3C//DTD SVG 1.1//EN" "http://www.w3.org/Graphics/SVG/1.1/DTD/svg11.dtd">
<svg version="1.1" id="Layer_1" xmlns="http://www.w3.org/2000/svg" xmlns:xlink="http://www.w3.org/1999/xlink" x="0px" y="0px"
	 width="11px" height="7px" viewBox="0 0 11 7" enable-background="new 0 0 11 7" xml:space="preserve">
<path d="M9.042,0.484c0,0.25-0.168,0.453-0.375,0.453H2.334c-0.207,0-0.375-0.203-0.375-0.453l0,0c0-0.25,0.168-0.453,0.375-0.453
	h6.333C8.874,0.031,9.042,0.234,9.042,0.484L9.042,0.484z"/>
<path d="M9.042,2.453c0,0.25-0.168,0.453-0.375,0.453H2.334c-0.207,0-0.375-0.203-0.375-0.453l0,0C1.959,2.203,2.127,2,2.334,2
	h6.333C8.874,2,9.042,2.203,9.042,2.453L9.042,2.453z"/>
<path d="M9.042,4.547C9.042,4.797,8.874,5,8.667,5H2.334C2.127,5,1.959,4.797,1.959,4.547l0,0c0-0.25,0.168-0.453,0.375-0.453h6.333
	C8.874,4.094,9.042,4.297,9.042,4.547L9.042,4.547z"/>
<path d="M9.042,6.516c0,0.25-0.168,0.453-0.375,0.453H2.334c-0.207,0-0.375-0.203-0.375-0.453l0,0c0-0.25,0.168-0.453,0.375-0.453
	h6.333C8.874,6.063,9.042,6.266,9.042,6.516L9.042,6.516z"/>
</svg>
