<?xml version="1.0" encoding="utf-8"?>
<!-- Generator: Adobe Illustrator 16.0.3, SVG Export Plug-In . SVG Version: 6.00 Build 0)  -->
<!DOCTYPE svg PUBLIC "-//W3C//DTD SVG 1.1//EN" "http://www.w3.org/Graphics/SVG/1.1/DTD/svg11.dtd">
<svg version="1.1" id="Layer_1" xmlns="http://www.w3.org/2000/svg" xmlns:xlink="http://www.w3.org/1999/xlink" x="0px" y="0px"
	 width="11px" height="7px" viewBox="0 0 11 7" enable-background="new 0 0 11 7" xml:space="preserve">
<g>
	<path d="M2.823,6.824l0.508-1.122c0.142,0.087,0.304,0.13,0.484,0.13c0.587,0,1.322-0.561,2.204-1.68l0.348-0.447l-0.787-1.96
		C5.385,1.25,5.19,1.002,5.003,1.002c-0.232,0-0.583,0.333-1.053,0.999l0.15-0.802c0.563-0.785,1.044-1.177,1.445-1.177
		c0.375,0,0.727,0.396,1.055,1.189l0.66,1.6l0.375-0.509c1.126-1.52,2.05-2.28,2.771-2.28c0.191,0,0.39,0.067,0.595,0.202
		l-0.595,1.115c-0.158-0.102-0.312-0.153-0.459-0.153c-0.639,0-1.392,0.56-2.255,1.679L7.414,3.222L8.28,5.359
		C8.482,5.87,8.685,6.126,8.884,6.126c0.273,0,0.654-0.306,1.146-0.913L9.892,5.948c-0.593,0.687-1.114,1.03-1.569,1.03
		c-0.436,0-0.786-0.338-1.057-1.013l-0.75-1.874L6.049,4.723C4.935,6.227,4.063,6.979,3.435,6.979
		C3.276,6.979,3.073,6.927,2.823,6.824z"/>
</g>
<circle cx="0.576" cy="6.424" r="0.576"/>
<circle cx="2.033" cy="6.424" r="0.576"/>
</svg>
