<?xml version="1.0" encoding="utf-8"?>
<!-- Generator: Adobe Illustrator 16.0.0, SVG Export Plug-In . SVG Version: 6.00 Build 0)  -->
<!DOCTYPE svg PUBLIC "-//W3C//DTD SVG 1.1//EN" "http://www.w3.org/Graphics/SVG/1.1/DTD/svg11.dtd">
<svg version="1.1" id="Layer_1" xmlns="http://www.w3.org/2000/svg" xmlns:xlink="http://www.w3.org/1999/xlink" x="0px" y="0px"
	 width="18px" height="18px" viewBox="0 0 18 18" enable-background="new 0 0 18 18" xml:space="preserve">
<polyline fill="none" stroke="#3C784A" stroke-width="2" stroke-miterlimit="10" points="10,15 8.603,15 7.554,15 5,15 5,1 7.434,1 
	8.444,1 10,1 "/>
<polyline fill="none" stroke="#3C784A" stroke-width="2" stroke-miterlimit="10" points="13,15 14.793,15 15.797,15 17,15 17,1 
	15.911,1 14.942,1 13,1 "/>
<rect x="16" y="-1" fill="none" width="2" height="16"/>
<path fill="#FFFFFF" d="M12.768,12.248c0,3.175-2.577,5.755-5.756,5.755c-3.18,0-5.755-2.58-5.755-5.755
	c0-3.181,2.575-5.757,5.755-5.757C10.19,6.491,12.768,9.067,12.768,12.248z"/>
<g>
	<path fill="#3C784A" d="M11.539,7.311l3.068-3.771H13.35l-1.756,2.124c-0.266,0.316-0.495,0.62-0.691,0.911
		c-0.135-0.229-0.371-0.556-0.699-0.982L8.62,3.539H7.245l2.976,3.83L8.757,9.178c0.26,0.233,0.508,0.483,0.757,0.73l0.91-1.157
		c0.083-0.108,0.222-0.309,0.416-0.6c0.131,0.193,0.259,0.372,0.381,0.535l2.197,2.854h1.428L11.539,7.311z"/>
</g>
<path d="M6.778,7.821c-2.535,0-4.59,2.055-4.59,4.59c0,2.531,2.055,4.584,4.59,4.584c2.534,0,4.59-2.053,4.59-4.584
	C11.368,9.876,9.313,7.821,6.778,7.821z M7.276,14.941L7.254,13H3v-1h4.241L7.217,9.966l3.254,2.411L7.276,14.941z"/>
<path fill="#3C784A" d="M9.76,8.527"/>
</svg>
