<?xml version="1.0" encoding="utf-8"?>
<!-- Generator: Adobe Illustrator 16.0.3, SVG Export Plug-In . SVG Version: 6.00 Build 0)  -->
<!DOCTYPE svg PUBLIC "-//W3C//DTD SVG 1.1//EN" "http://www.w3.org/Graphics/SVG/1.1/DTD/svg11.dtd">
<svg version="1.1" id="Layer_1" xmlns="http://www.w3.org/2000/svg" xmlns:xlink="http://www.w3.org/1999/xlink" x="0px" y="0px"
	 width="11px" height="7px" viewBox="0 0 11 7" enable-background="new 0 0 11 7" xml:space="preserve">
<g>
	<path d="M0,6.824l0.508-1.122c0.142,0.087,0.304,0.13,0.485,0.13c0.587,0,1.322-0.561,2.204-1.68l0.348-0.447l-0.787-1.96
		C2.562,1.25,2.367,1.002,2.18,1.002c-0.232,0-0.583,0.333-1.053,0.999l0.15-0.802C1.84,0.414,2.322,0.022,2.723,0.022
		c0.375,0,0.727,0.396,1.055,1.189l0.66,1.6l0.375-0.509c1.126-1.52,2.05-2.28,2.771-2.28c0.191,0,0.391,0.067,0.596,0.202
		L7.584,1.339c-0.159-0.102-0.313-0.153-0.46-0.153c-0.638,0-1.391,0.56-2.254,1.679L4.591,3.222l0.867,2.137
		C5.66,5.87,5.862,6.126,6.063,6.126c0.272,0,0.653-0.306,1.146-0.913L7.068,5.948C6.477,6.635,5.955,6.979,5.5,6.979
		c-0.436,0-0.786-0.338-1.057-1.013l-0.75-1.874L3.226,4.723C2.111,6.227,1.241,6.979,0.612,6.979C0.453,6.979,0.25,6.927,0,6.824z"
		/>
</g>
<g enable-background="new    ">
	<path d="M9.71,4.105v-0.82H8.042V2.602l1.769-2.588h0.656v2.585h0.506v0.687h-0.506v0.82H9.71z M9.71,2.599V1.206L8.773,2.599H9.71
		z"/>
</g>
</svg>
