<?xml version="1.0" encoding="utf-8"?>
<!-- Generator: Adobe Illustrator 16.0.3, SVG Export Plug-In . SVG Version: 6.00 Build 0)  -->
<!DOCTYPE svg PUBLIC "-//W3C//DTD SVG 1.1//EN" "http://www.w3.org/Graphics/SVG/1.1/DTD/svg11.dtd">
<svg version="1.1" id="Layer_1" xmlns="http://www.w3.org/2000/svg" xmlns:xlink="http://www.w3.org/1999/xlink" x="0px" y="0px"
	 width="11px" height="7px" viewBox="0 0 11 7" enable-background="new 0 0 11 7" xml:space="preserve">
<g>
	<path d="M2.531,6.824l0.526-1.122c0.147,0.087,0.315,0.13,0.502,0.13c0.608,0,1.369-0.56,2.283-1.679l0.36-0.448l-0.815-1.96
		C5.184,1.25,4.983,1.002,4.789,1.002c-0.24,0-0.604,0.333-1.091,0.999l0.156-0.802c0.583-0.785,1.082-1.177,1.497-1.177
		c0.388,0,0.753,0.396,1.092,1.189l0.684,1.6l0.389-0.509c1.165-1.52,2.122-2.28,2.869-2.28c0.198,0,0.404,0.067,0.616,0.202
		l-0.616,1.115c-0.164-0.102-0.322-0.153-0.476-0.153c-0.661,0-1.44,0.56-2.335,1.679L7.286,3.222l0.897,2.138
		C8.393,5.87,8.601,6.126,8.808,6.126c0.284,0,0.679-0.305,1.187-0.913L9.851,5.948C9.238,6.635,8.698,6.978,8.226,6.978
		c-0.451,0-0.814-0.337-1.094-1.012L6.356,4.092l-0.484,0.63C4.718,6.227,3.816,6.978,3.165,6.978C3,6.978,2.79,6.927,2.531,6.824z"
		/>
</g>
<g>
	<path d="M1.254,4.012L1.46,4.26C1.157,4.453,0.936,4.643,0.799,4.827c-0.138,0.187-0.23,0.418-0.275,0.694
		c0.124-0.027,0.22-0.042,0.289-0.042c0.211,0,0.381,0.069,0.51,0.206c0.129,0.14,0.192,0.321,0.192,0.546
		c0,0.229-0.067,0.418-0.202,0.564C1.178,6.944,1.005,7.018,0.795,7.018c-0.238,0-0.428-0.102-0.57-0.304
		c-0.142-0.2-0.212-0.469-0.212-0.808c0-0.419,0.096-0.775,0.291-1.07C0.498,4.539,0.815,4.267,1.254,4.012z"/>
</g>
</svg>
