<?xml version="1.0" encoding="utf-8"?>
<!-- Generator: Adobe Illustrator 16.0.3, SVG Export Plug-In . SVG Version: 6.00 Build 0)  -->
<!DOCTYPE svg PUBLIC "-//W3C//DTD SVG 1.1//EN" "http://www.w3.org/Graphics/SVG/1.1/DTD/svg11.dtd">
<svg version="1.1" id="Слой_1" xmlns="http://www.w3.org/2000/svg" xmlns:xlink="http://www.w3.org/1999/xlink" x="0px" y="0px"
	 width="18px" height="18px" viewBox="0 0 18 18" enable-background="new 0 0 18 18" xml:space="preserve">
<g id="Cancel">
	<path fill="#FFFFFF" d="M11.753,8.641c-2.696,0-4.883,2.068-4.883,4.619s2.188,4.617,4.883,4.617c2.698,0,4.886-2.066,4.886-4.617
		C16.639,10.707,14.451,8.641,11.753,8.641z M11.753,17.029c-2.201,0-3.986-1.688-3.986-3.77c0-2.08,1.785-3.769,3.986-3.769
		c2.202,0,3.987,1.689,3.987,3.769C15.74,15.342,13.955,17.029,11.753,17.029z"/>
</g>
<rect x="11.197" y="1.717" fill="#FFFFFF" width="1.111" height="7.592"/>
<rect x="11.197" y="1.717" fill="#FFFFFF" width="3.656" height="0.985"/>
<path fill="#FFFFFF" d="M14.742,3.985V0.123l3.063,1.931L14.742,3.985z"/>
<path fill="#FFFFFF" d="M10.921,6.061H0.209l5.355-5.938L10.921,6.061z"/>
<path fill="#FFFFFF" d="M0.208,6.061H10.92L5.567,12L0.208,6.061z"/>
<rect x="11.197" y="13.604" fill="#FFFFFF" width="1.293" height="3.529"/>
<rect x="11.197" y="11.385" fill="#FFFFFF" width="1.293" height="0.938"/>
<rect x="8.533" y="5.586" fill="#FFFFFF" width="2.667" height="0.95"/>
</svg>
