<?xml version="1.0" encoding="utf-8"?>
<!-- Generator: Adobe Illustrator 16.0.0, SVG Export Plug-In . SVG Version: 6.00 Build 0)  -->
<!DOCTYPE svg PUBLIC "-//W3C//DTD SVG 1.1//EN" "http://www.w3.org/Graphics/SVG/1.1/DTD/svg11.dtd">
<svg version="1.1" id="Layer_1" xmlns="http://www.w3.org/2000/svg" xmlns:xlink="http://www.w3.org/1999/xlink" x="0px" y="0px"
	 width="30px" height="30px" viewBox="0 0 30 30" enable-background="new 0 0 30 30" xml:space="preserve">
<g id="Layer_1_1_">
</g>
<g id="Layer_2">
	<path fill="#FFFFFF" d="M10.985,6.456c0.169,0.219,0.129,0.532-0.089,0.701L6.94,10.216c-0.219,0.169-0.533,0.129-0.702-0.09l0,0
		c-0.169-0.218-0.129-0.532,0.09-0.701l3.956-3.059C10.502,6.197,10.816,6.237,10.985,6.456L10.985,6.456z"/>
	<path fill="#FFFFFF" d="M7.093,9.597c0.134,0.173,0.102,0.422-0.071,0.556L6.857,10.28c-0.173,0.134-0.421,0.102-0.555-0.071
		L4.951,8.462C4.817,8.289,4.85,8.04,5.022,7.906l0.165-0.127C5.36,7.645,5.609,7.677,5.743,7.85L7.093,9.597z"/>
	<path fill="#FFFFFF" d="M10.985,12.456c0.169,0.219,0.129,0.532-0.089,0.701L6.94,16.216c-0.219,0.169-0.533,0.13-0.702-0.09l0,0
		c-0.169-0.218-0.129-0.532,0.09-0.701l3.956-3.059C10.502,12.197,10.816,12.237,10.985,12.456L10.985,12.456z"/>
	<path fill="#FFFFFF" d="M7.093,15.598c0.134,0.172,0.102,0.422-0.071,0.555l-0.165,0.127c-0.173,0.135-0.421,0.103-0.555-0.069
		l-1.351-1.747c-0.134-0.173-0.102-0.422,0.071-0.556l0.165-0.127c0.173-0.134,0.422-0.102,0.556,0.071L7.093,15.598z"/>
	<path fill="#FFFFFF" d="M5.932,23.275c-0.11,0.109-0.289,0.109-0.399,0l-0.308-0.309c-0.11-0.109-0.11-0.289,0-0.398l3.844-3.844
		c0.11-0.109,0.289-0.109,0.399,0l0.308,0.309c0.11,0.109,0.11,0.289,0,0.398L5.932,23.275z"/>
	<path fill="#FFFFFF" d="M5.223,19.432c-0.11-0.108-0.11-0.289,0-0.397l0.308-0.31c0.11-0.108,0.289-0.108,0.399,0l3.844,3.844
		c0.11,0.111,0.11,0.289,0,0.399l-0.308,0.308c-0.11,0.11-0.289,0.11-0.399,0L5.223,19.432z"/>
	<path fill="#FFFFFF" d="M20,7.5C20,7.776,19.775,8,19.5,8h-7C12.224,8,12,7.776,12,7.5l0,0C12,7.224,12.224,7,12.5,7h7
		C19.775,7,20,7.224,20,7.5L20,7.5z"/>
	<path fill="#FFFFFF" d="M20,9.5c0,0.276-0.225,0.5-0.5,0.5h-7C12.224,10,12,9.776,12,9.5l0,0C12,9.224,12.224,9,12.5,9h7
		C19.775,9,20,9.224,20,9.5L20,9.5z"/>
	<path fill="#FFFFFF" d="M20,13.5c0,0.276-0.225,0.5-0.5,0.5h-7c-0.276,0-0.5-0.224-0.5-0.5l0,0c0-0.276,0.224-0.5,0.5-0.5h7
		C19.775,13,20,13.224,20,13.5L20,13.5z"/>
	<path fill="#FFFFFF" d="M20,15.5c0,0.275-0.225,0.5-0.5,0.5h-7c-0.276,0-0.5-0.225-0.5-0.5l0,0c0-0.276,0.224-0.5,0.5-0.5h7
		C19.775,15,20,15.224,20,15.5L20,15.5z"/>
	<rect x="2" y="3" fill="#FFFFFF" width="1" height="24"/>
	<rect x="22" y="3" fill="#FFFFFF" width="1" height="12"/>
	<rect x="2" y="3" fill="#FFFFFF" width="21" height="1"/>
	<rect x="2" y="26" fill="#FFFFFF" width="21" height="1"/>
	<rect x="22" y="23" fill="#FFFFFF" width="1" height="4"/>
	<path fill="#FFFFFF" d="M17,20.5c0,0.275-0.225,0.5-0.5,0.5h-4c-0.276,0-0.5-0.225-0.5-0.5l0,0c0-0.275,0.224-0.5,0.5-0.5h4
		C16.775,20,17,20.225,17,20.5L17,20.5z"/>
	<path fill="#FFFFFF" d="M17,22.5c0,0.275-0.225,0.5-0.5,0.5h-4c-0.276,0-0.5-0.225-0.5-0.5l0,0c0-0.275,0.224-0.5,0.5-0.5h4
		C16.775,22,17,22.225,17,22.5L17,22.5z"/>
	<path fill="#FFFFFF" d="M28.805,13.416l-0.701-0.713c-0.389-0.394-1.021-0.399-1.414-0.012l-0.715,0.701l2.104,2.14l0.713-0.701
		C29.186,14.443,29.191,13.81,28.805,13.416z"/>
	
		<rect x="21.996" y="14.002" transform="matrix(-0.7073 -0.7069 0.7069 -0.7073 27.3874 47.3454)" fill="#FFFFFF" width="3" height="8.001"/>
	<polygon fill="#FFFFFF" points="21.021,22.6 18.548,22.952 18.9,20.479 	"/>
</g>
</svg>
