<?xml version="1.0" encoding="utf-8"?>
<!-- Generator: Adobe Illustrator 16.0.0, SVG Export Plug-In . SVG Version: 6.00 Build 0)  -->
<!DOCTYPE svg PUBLIC "-//W3C//DTD SVG 1.1//EN" "http://www.w3.org/Graphics/SVG/1.1/DTD/svg11.dtd">
<svg version="1.1" id="Layer_1" xmlns="http://www.w3.org/2000/svg" xmlns:xlink="http://www.w3.org/1999/xlink" x="0px" y="0px"
	 width="20px" height="20px" viewBox="0 0 20 20" enable-background="new 0 0 20 20" xml:space="preserve">
<path fill="#FFFFFF" d="M13.456,1H3.752C2.273,1,1,2.273,1,3.752v12.496C1,17.729,2.273,19,3.752,19h12.496
	C17.729,19,19,17.729,19,16.248V6.475L13.456,1z M10.446,16.881c-1.232,0-2.231-1-2.231-2.23c0-1.231,0.999-2.231,2.231-2.231
	c1.231,0,2.231,1,2.231,2.231C12.677,15.881,11.678,16.881,10.446,16.881z M13,8H4V4h9V8z"/>
</svg>
