<?xml version="1.0" encoding="utf-8"?>
<!-- Generator: Adobe Illustrator 16.0.3, SVG Export Plug-In . SVG Version: 6.00 Build 0)  -->
<!DOCTYPE svg PUBLIC "-//W3C//DTD SVG 1.1//EN" "http://www.w3.org/Graphics/SVG/1.1/DTD/svg11.dtd">
<svg version="1.1" id="Layer_1" xmlns="http://www.w3.org/2000/svg" xmlns:xlink="http://www.w3.org/1999/xlink" x="0px" y="0px"
	 width="25px" height="25px" viewBox="0.5 -2 25 25" enable-background="new 0.5 -2 25 25" xml:space="preserve">
<g id="Symbol_1_1" transform="translate(-845.427 -209.371)">
	<path id="search" fill="#FFFFFF" d="M869.146,229.278l-5.451-5.669c3.28-3.909,2.771-9.739-1.14-13.02
		c-3.91-3.28-9.739-2.77-13.02,1.14c-3.28,3.91-2.77,9.74,1.14,13.02c1.666,1.397,3.771,2.163,5.944,2.162
		c1.896,0.005,3.748-0.58,5.297-1.673l5.486,5.711c0.462,0.48,1.225,0.495,1.705,0.033c0.479-0.462,0.495-1.225,0.032-1.705l0,0
		L869.146,229.278z M856.619,210.832c3.774,0.001,6.833,3.061,6.832,6.834c-0.001,3.774-3.061,6.833-6.834,6.833
		c-3.773-0.001-6.832-3.06-6.832-6.833C849.788,213.893,852.846,210.836,856.619,210.832z"/>
</g>
</svg>
