<?xml version="1.0" encoding="utf-8"?>
<!-- Generator: Adobe Illustrator 16.0.0, SVG Export Plug-In . SVG Version: 6.00 Build 0)  -->
<!DOCTYPE svg PUBLIC "-//W3C//DTD SVG 1.1//EN" "http://www.w3.org/Graphics/SVG/1.1/DTD/svg11.dtd">
<svg version="1.1" id="Layer_1" xmlns="http://www.w3.org/2000/svg" xmlns:xlink="http://www.w3.org/1999/xlink" x="0px" y="0px"
	 width="15px" height="15px" viewBox="0 0 15 15" enable-background="new 0 0 15 15" xml:space="preserve">
<rect x="2.5" y="1.5" fill="none" stroke="#FFFFFF" stroke-miterlimit="10" width="10" height="12"/>
<g>
	<path fill="#FFFFFF" d="M8.143,9.47H6.773C6.77,9.273,6.768,9.152,6.768,9.109c0-0.443,0.074-0.809,0.221-1.096
		c0.146-0.286,0.44-0.608,0.881-0.966s0.703-0.593,0.789-0.704c0.133-0.175,0.199-0.369,0.199-0.58c0-0.293-0.117-0.545-0.352-0.755
		C8.271,4.8,7.955,4.695,7.558,4.695c-0.383,0-0.704,0.109-0.961,0.328C6.338,5.241,6.161,5.574,6.064,6.021L4.679,5.85
		c0.04-0.641,0.313-1.185,0.819-1.633c0.506-0.448,1.171-0.671,1.995-0.671c0.866,0,1.556,0.227,2.067,0.679
		c0.513,0.453,0.769,0.98,0.769,1.582c0,0.333-0.094,0.648-0.282,0.945c-0.188,0.297-0.59,0.702-1.205,1.214
		C8.522,8.23,8.325,8.443,8.248,8.605C8.171,8.766,8.136,9.055,8.143,9.47z M6.773,11.5V9.99h1.51v1.51H6.773z"/>
</g>
</svg>
