<?xml version="1.0" encoding="utf-8"?>
<!-- Generator: Adobe Illustrator 16.0.3, SVG Export Plug-In . SVG Version: 6.00 Build 0)  -->
<!DOCTYPE svg PUBLIC "-//W3C//DTD SVG 1.1//EN" "http://www.w3.org/Graphics/SVG/1.1/DTD/svg11.dtd">
<svg version="1.1" id="Layer_1" xmlns="http://www.w3.org/2000/svg" xmlns:xlink="http://www.w3.org/1999/xlink" x="0px" y="0px"
	 width="18px" height="18px" viewBox="0 0 18 18" enable-background="new 0 0 18 18" xml:space="preserve">
<g>
	<path fill="#727272" d="M12.232,6.527h-1.722V4.29C10.512,1.585,9.238,0,6.69,0C4.141,0,2.868,1.585,2.868,4.29v0.372H4.78V3.917
		c0-1.348,0.76-2.053,1.91-2.053s1.911,0.705,1.911,2.053v2.61H0.958C0.429,6.527,0,7.129,0,7.646v7.269
		c0,0.517,0.412,1.063,0.912,1.221l1.142,0.361c0.5,0.153,1.34,0.286,1.865,0.286h5.543c0.524,0,1.364-0.133,1.865-0.286
		l1.141-0.361c0.5-0.155,0.911-0.704,0.911-1.221V7.646C13.379,7.129,12.764,6.527,12.232,6.527z"/>
</g>
<path fill="#FFFFFF" stroke="#383838" stroke-width="0.8" stroke-miterlimit="10" d="M17.563,15.827c0,1.04-1.032,1.88-2.307,1.88
	h-4.804c-1.273,0-2.307-0.84-2.307-1.88v-4.582c0-1.039,1.033-1.88,2.307-1.88h4.804c1.274,0,2.307,0.841,2.307,1.88V15.827z"/>
<path fill="#454545" d="M15.638,12.997h-2.232v-2.179c0-0.285-0.247-0.514-0.552-0.514c-0.306,0-0.553,0.229-0.553,0.514v2.179
	h-2.232c-0.291,0-0.525,0.242-0.525,0.54c0,0.295,0.234,0.537,0.525,0.537h2.232v2.18c0,0.285,0.247,0.513,0.553,0.513
	c0.305,0,0.552-0.229,0.552-0.513v-2.18h2.232c0.291,0,0.527-0.242,0.527-0.537C16.165,13.239,15.929,12.997,15.638,12.997z"/>
</svg>
