<?xml version="1.0" encoding="utf-8"?>
<!-- Generator: Adobe Illustrator 16.0.0, SVG Export Plug-In . SVG Version: 6.00 Build 0)  -->
<!DOCTYPE svg PUBLIC "-//W3C//DTD SVG 1.1//EN" "http://www.w3.org/Graphics/SVG/1.1/DTD/svg11.dtd" [
	<!ENTITY ns_extend "http://ns.adobe.com/Extensibility/1.0/">
	<!ENTITY ns_ai "http://ns.adobe.com/AdobeIllustrator/10.0/">
	<!ENTITY ns_graphs "http://ns.adobe.com/Graphs/1.0/">
	<!ENTITY ns_vars "http://ns.adobe.com/Variables/1.0/">
	<!ENTITY ns_imrep "http://ns.adobe.com/ImageReplacement/1.0/">
	<!ENTITY ns_sfw "http://ns.adobe.com/SaveForWeb/1.0/">
	<!ENTITY ns_custom "http://ns.adobe.com/GenericCustomNamespace/1.0/">
	<!ENTITY ns_adobe_xpath "http://ns.adobe.com/XPath/1.0/">
]>
<svg version="1.1" xmlns:x="&ns_extend;" xmlns:i="&ns_ai;" xmlns:graph="&ns_graphs;"
	 xmlns="http://www.w3.org/2000/svg" xmlns:xlink="http://www.w3.org/1999/xlink" x="0px" y="0px" width="20px" height="20px"
	 viewBox="0 0 20 20" enable-background="new 0 0 20 20" xml:space="preserve">
<switch>
	<g i:extraneous="self">
		<g id="add_x5F_group">
			<g>
				<g>
					<path fill="#707070" d="M18.037,13.252h-7.316v-1.496c0-0.827,0.238-1.534,0.715-2.119c0.477-0.584,1.051-0.877,1.724-0.877
						h2.438c0.676,0,1.25,0.293,1.726,0.877c0.478,0.585,0.714,1.292,0.714,2.119V13.252z"/>
					<path fill="#707070" d="M16.104,3.902c0.477,0.476,0.713,1.051,0.713,1.724c0,0.674-0.236,1.248-0.713,1.724
						c-0.475,0.477-1.05,0.714-1.725,0.714c-0.673,0-1.247-0.238-1.725-0.714c-0.477-0.476-0.715-1.05-0.715-1.724
						c0-0.673,0.238-1.248,0.715-1.724c0.478-0.477,1.052-0.714,1.725-0.714C15.054,3.188,15.629,3.425,16.104,3.902z"/>
				</g>
				<g>
					<path fill="#707070" d="M9.279,13.252H1.963v-1.496c0-0.827,0.238-1.534,0.714-2.119c0.477-0.584,1.052-0.877,1.725-0.877H6.84
						c0.675,0,1.249,0.293,1.726,0.877c0.477,0.585,0.714,1.292,0.714,2.119V13.252z"/>
					<path fill="#707070" d="M7.346,3.902c0.477,0.476,0.713,1.051,0.713,1.724c0,0.674-0.236,1.248-0.713,1.724
						C6.87,7.827,6.296,8.064,5.62,8.064c-0.672,0-1.246-0.238-1.724-0.714C3.42,6.874,3.182,6.3,3.182,5.626
						c0-0.673,0.238-1.248,0.715-1.724C4.374,3.425,4.948,3.188,5.62,3.188C6.296,3.188,6.87,3.425,7.346,3.902z"/>
				</g>
				<g>
					<path fill="#707070" stroke="#FFFFFF" stroke-width="0.75" stroke-miterlimit="10" d="M14.153,15.427H5.962v-1.676
						c0-0.925,0.267-1.717,0.8-2.372c0.533-0.654,1.177-0.982,1.93-0.982h2.73c0.756,0,1.398,0.328,1.932,0.982
						c0.534,0.655,0.8,1.447,0.8,2.372V15.427z"/>
					<path fill="#707070" stroke="#FFFFFF" stroke-width="0.75" stroke-miterlimit="10" d="M11.988,4.958
						c0.533,0.533,0.798,1.177,0.798,1.931c0,0.754-0.265,1.397-0.798,1.93c-0.532,0.534-1.176,0.8-1.932,0.8
						c-0.753,0-1.396-0.266-1.93-0.8c-0.533-0.533-0.8-1.176-0.8-1.93c0-0.753,0.267-1.397,0.8-1.931
						c0.534-0.534,1.177-0.8,1.93-0.8C10.813,4.158,11.456,4.424,11.988,4.958z"/>
				</g>
			</g>
			<g>
				<path stroke="#FFFFFF" stroke-width="0.5" stroke-miterlimit="10" d="M3.866,18.166v-2.5H1.341v-2.291h2.525v-2.5h2.237v2.5
					h2.534v2.291H6.104v2.5H3.866z"/>
			</g>
		</g>
		<g id="add_x5F_expression" display="none">
			<g display="inline">
				<path d="M17.692,5.429H7.52V3.132h10.173V5.429z M17.69,9.596H7.521V7.3H17.69V9.596z M17.692,13.76H7.52v-2.296h10.173V13.76z
					 M5.92,5.428H3.624V3.133H5.92V5.428z M5.92,9.596H3.624V7.3H5.92V9.596z M5.92,13.76H3.624v-2.296H5.92V13.76z"/>
			</g>
			<g display="inline">
				<g>
					<polygon points="3.644,17.91 3.644,15.446 1.156,15.446 1.156,12.915 3.644,12.915 3.644,10.456 6.125,10.456 6.125,12.915 
						8.621,12.915 8.621,15.446 6.125,15.446 6.125,17.91 					"/>
					<path fill="#FFFFFF" d="M5.75,10.831v2.459h2.496v1.781H5.75v2.464h-1.73v-2.464H1.531V13.29h2.488v-2.459H5.75 M6.5,10.081
						H5.75h-1.73h-0.75v0.75v1.709H1.531h-0.75v0.75v1.781v0.75h0.75h1.738v1.714v0.75h0.75h1.73H6.5v-0.75v-1.714h1.746h0.75v-0.75
						V13.29v-0.75h-0.75H6.5v-1.709V10.081L6.5,10.081z"/>
				</g>
			</g>
		</g>
	</g>
</switch>
</svg>
