<?xml version="1.0" encoding="utf-8"?>
<!-- Generator: Adobe Illustrator 16.0.0, SVG Export Plug-In . SVG Version: 6.00 Build 0)  -->
<!DOCTYPE svg PUBLIC "-//W3C//DTD SVG 1.1//EN" "http://www.w3.org/Graphics/SVG/1.1/DTD/svg11.dtd">
<svg version="1.1" id="Layer_1" xmlns="http://www.w3.org/2000/svg" xmlns:xlink="http://www.w3.org/1999/xlink" x="0px" y="0px"
	 width="30px" height="30px" viewBox="0 0 30 30" enable-background="new 0 0 30 30" xml:space="preserve">
<rect x="8.125" y="14.613" fill="#FFFFFF" width="12" height="2"/>
<path fill="#FFFFFF" stroke="#333333" stroke-width="2" stroke-miterlimit="10" d="M22.625,21.771"/>
<path fill="#FFFFFF" d="M21.377,12.613c-4.273,0-7.742,3.467-7.742,7.741c0,4.274,3.469,7.742,7.742,7.742
	c4.275,0,7.742-3.468,7.742-7.742C29.119,16.08,25.652,12.613,21.377,12.613z M21.553,22.771l-0.49,0.438l-0.42,0.41l-0.021-0.016
	l-0.491,0.442l-2.84-3.157l1.424-1.283l1.598,1.781l3.891-3.785l1.273,1.313l-3.941,3.836L21.553,22.771z"/>
<rect x="3.25" y="4.638" fill="#FFFFFF" width="1.958" height="16.833"/>
<rect x="3.25" y="21.471" fill="#FFFFFF" width="7.333" height="2"/>
<rect x="3.25" y="4.638" fill="#FFFFFF" width="21.75" height="2"/>
<rect x="23.042" y="4.638" fill="#FFFFFF" width="1.958" height="6.833"/>
<rect x="8.125" y="9.638" fill="#FFFFFF" width="12" height="2"/>
</svg>
