<?xml version="1.0" encoding="utf-8"?>
<!-- Generator: Adobe Illustrator 16.0.0, SVG Export Plug-In . SVG Version: 6.00 Build 0)  -->
<!DOCTYPE svg PUBLIC "-//W3C//DTD SVG 1.1//EN" "http://www.w3.org/Graphics/SVG/1.1/DTD/svg11.dtd">
<svg version="1.1" id="Layer_1" xmlns="http://www.w3.org/2000/svg" xmlns:xlink="http://www.w3.org/1999/xlink" x="0px" y="0px"
	 width="30px" height="30px" viewBox="-2.5 -2.5 30 30" enable-background="new -2.5 -2.5 30 30" xml:space="preserve">
<path fill="#FFFFFF" d="M11.038,22.083c-0.203,0.654-0.416,1.3-0.605,1.958c-0.138,0.486-0.424,0.638-0.897,0.48
	c-0.214-0.078-0.434-0.154-0.652-0.197c-0.823-0.145-0.985-0.578-0.713-1.338c0.417-1.185,0.772-2.386,1.121-3.588
	c0.181-0.623,0.492-0.868,1.12-0.589c0.182,0.078,0.375,0.147,0.57,0.184c0.743,0.132,0.92,0.521,0.649,1.217
	c-0.235,0.611-0.397,1.249-0.59,1.873C11.039,22.083,11.039,22.083,11.038,22.083z"/>
<path fill="#FFFFFF" d="M2.758,19.903c0.18-0.188,0.333-0.354,0.491-0.517c0.993-1.015,2.141-1.852,3.211-2.774
	c0.365-0.311,0.64-0.282,0.932,0.064c0.206,0.231,0.411,0.472,0.636,0.687c0.351,0.33,0.299,0.613-0.044,0.921
	c-1.07,0.969-2.138,1.95-3.187,2.942c-0.422,0.397-0.78,0.421-1.131-0.054C3.357,20.767,2.834,20.491,2.758,19.903z"/>
<path fill="#FFFFFF" d="M2.662,10.506c-0.769-0.239-1.535-0.494-2.308-0.717c-0.559-0.151-0.643-0.861-0.122-2.384
	c0.243-0.703,0.462-1.426,0.669-2.138c0.393-1.355,0.799-1.994,1.345-1.813c1.556,0.533,3.127,1.02,4.704,1.473
	c0.707,0.207,0.382,1.458-0.079,2.782c-0.484,1.39-0.784,3.578-1.789,3.467c-0.843-0.092-1.611-0.459-2.411-0.708
	C2.67,10.482,2.667,10.491,2.662,10.506z"/>
<path fill="#FFFFFF" d="M5.479,12.836c0.444,0.518,0.424,1.168,0.54,1.763c0.088,0.455-0.348,0.449-0.63,0.513
	c-1.36,0.317-2.725,0.601-4.082,0.93c-0.52,0.128-0.827,0.046-0.892-0.539C0.39,15.28,0.327,15.059,0.258,14.84
	c-0.188-0.579-0.037-0.889,0.606-1.015c1.37-0.268,2.723-0.61,4.084-0.916C5.112,12.873,5.282,12.864,5.479,12.836z"/>
<path fill="#FFFFFF" d="M15.244,19.118c0.315,0.108,0.346,0.35,0.397,0.562c0.309,1.33,0.593,2.664,0.91,3.988
	c0.131,0.527-0.021,0.813-0.569,0.889c-0.248,0.037-0.502,0.103-0.742,0.176c-0.507,0.155-0.789,0.026-0.903-0.537
	c-0.27-1.339-0.56-2.665-0.896-3.993c-0.161-0.645,0.044-0.89,0.676-0.919C14.51,19.259,14.901,19.172,15.244,19.118z"/>
<path fill="#FFFFFF" d="M18.958,17.338c0.105,0.098,0.286,0.236,0.44,0.403c0.792,0.852,1.558,1.73,2.378,2.559
	c0.433,0.442,0.49,0.789-0.028,1.179c-0.227,0.175-0.43,0.374-0.63,0.573c-0.273,0.26-0.521,0.303-0.804,0.01
	c-0.997-1.05-2.015-2.086-3.01-3.132c-0.107-0.121-0.229-0.287-0.238-0.435C17.056,18.181,18.583,17.199,18.958,17.338z"/>
<path fill="#FFFFFF" d="M23.186,14.515c0.381,0.123,0.756,0.277,1.145,0.352c0.854,0.152,0.943,0.617,0.679,1.351
	c-0.358,1.016-0.425,1.097-1.369,0.816c-0.985-0.295-1.957-0.626-2.944-0.91c-0.577-0.168-0.686-0.454-0.423-0.999
	c0.619-1.318,0.597-1.326,2.013-0.889C22.592,14.329,22.888,14.421,23.186,14.515z"/>
<path fill="#FFFFFF" d="M21.119,9.745c0.057-0.296,0.29-0.28,0.47-0.325c0.913-0.216,1.832-0.412,2.741-0.631
	c0.447-0.114,0.685,0.008,0.781,0.485c0.405,1.944,0.508,1.501-1.157,1.919c-0.66,0.165-1.329,0.284-1.996,0.439
	c-0.433,0.101-0.66-0.029-0.632-0.497C21.347,10.646,21.263,10.173,21.119,9.745z"/>
<path fill="#FFFFFF" d="M21.347,3.307c0.477,0.402,0.954,0.799,1.202,1.33c0.224,0.464-0.326,0.65-0.582,0.917
	c-0.37,0.391-0.791,0.734-1.179,1.107c-0.324,0.313-0.583,0.396-0.864-0.067c-0.966-1.538-1.246-1.054,0.219-2.397
	C20.506,3.863,20.792,3.406,21.347,3.307z"/>
<path fill="#FFFFFF" d="M17.21,2.231c-0.31,0.332,0.038,1.372-1.031,1.078c-1.499-0.412-1.669-0.688-1.277-1.949
	c0.393-1.262,0.396-1.268,1.565-0.903C17.645,0.828,17.645,0.828,17.21,2.231z"/>
</svg>
