<?xml version="1.0" encoding="utf-8"?>
<!-- Generator: Adobe Illustrator 16.0.3, SVG Export Plug-In . SVG Version: 6.00 Build 0)  -->
<!DOCTYPE svg PUBLIC "-//W3C//DTD SVG 1.1//EN" "http://www.w3.org/Graphics/SVG/1.1/DTD/svg11.dtd">
<svg version="1.1" id="Layer_1" xmlns="http://www.w3.org/2000/svg" xmlns:xlink="http://www.w3.org/1999/xlink" x="0px" y="0px"
	 width="64px" height="64px" viewBox="0 0 64 64" enable-background="new 0 0 64 64" xml:space="preserve">
<g id="Layer_1_1_">
	<g>
		<circle fill="#219BE8" cx="32" cy="32" r="32"/>
	</g>
	<g>
		<g>
			<g opacity="0.2">
				<path fill="#231F20" d="M36,23v-9H19c-1.657,0-3,1.343-3,3v34c0,1.657,1.343,3,3,3h26c1.657,0,3-1.343,3-3V26h-9
					C37.343,26,36,24.657,36,23z"/>
			</g>
			<g>
				<path fill="#E0E0D1" d="M36,21v-9H19c-1.657,0-3,1.343-3,3v34c0,1.657,1.343,3,3,3h26c1.657,0,3-1.343,3-3V24h-9
					C37.343,24,36,22.657,36,21z"/>
			</g>
			<g opacity="0.2">
				<polygon fill="#231F20" points="37.016,23.294 48,33 48,24 				"/>
			</g>
			<g>
				<path fill="#FFFFFF" d="M36,12v9c0,1.657,1.343,3,3,3h9L36,12z"/>
			</g>
		</g>
		<g opacity="0.2">
			<rect x="22" y="17.156" fill="#231F20" width="9.625" height="2"/>
		</g>
		<g opacity="0.2">
			<rect x="22" y="27" fill="#231F20" width="20" height="2"/>
		</g>
	</g>
</g>
<g id="Layer_2">
</g>
<g opacity="0.2">
	<rect x="22" y="22" fill="#231F20" width="9.625" height="2"/>
</g>
<text transform="matrix(1 0 0 1 21.25 40.083)" fill="#231F20" font-family="'MyriadPro-Bold'" font-size="12">SQL</text>
<g opacity="0.2">
	<g>
		<path fill="#231F20" d="M54.311,31.384c-0.39,0-0.777-0.151-1.076-0.447l-7.313-7.313c-0.596-0.596-0.596-1.559,0-2.154
			c0.596-0.595,1.561-0.595,2.154,0l7.313,7.313c0.596,0.596,0.596,1.559,0,2.154C55.091,31.233,54.703,31.384,54.311,31.384z"/>
	</g>
</g>
<g>
	<path fill="#FFFFFF" d="M54.311,30.163c-0.39,0-0.777-0.148-1.076-0.447l-7.313-7.313c-0.596-0.595-0.596-1.559,0-2.153
		c0.596-0.596,1.561-0.596,2.154,0l7.313,7.313c0.596,0.595,0.596,1.56,0,2.153C55.091,30.015,54.703,30.163,54.311,30.163z"/>
</g>
<g>
	<ellipse fill="#77B3D4" cx="42.357" cy="16.687" rx="6.439" ry="6.439"/>
</g>
<g opacity="0.2">
	<g>
		<path fill="#231F20" d="M42.357,11.465c1.648,0,3.297,0.63,4.554,1.887c2.516,2.515,2.516,6.592,0,9.106
			c-1.257,1.258-2.904,1.887-4.554,1.887c-1.646,0-3.297-0.629-4.553-1.887c-2.517-2.515-2.517-6.592,0-9.106
			C39.063,12.095,40.711,11.465,42.357,11.465z M42.357,9.028c-2.369,0-4.601,0.924-6.277,2.6c-3.46,3.462-3.46,9.093,0,12.555
			c1.678,1.676,3.908,2.6,6.277,2.6c2.373,0,4.602-0.922,6.276-2.6c3.464-3.462,3.464-9.093,0-12.555
			C46.959,9.952,44.73,9.028,42.357,9.028L42.357,9.028z"/>
	</g>
</g>
<g>
	<path fill="#FFFFFF" d="M42.357,10.248c1.648,0,3.297,0.63,4.554,1.885c2.516,2.516,2.516,6.592,0,9.108
		c-1.257,1.257-2.904,1.885-4.554,1.885c-1.646,0-3.297-0.628-4.553-1.885c-2.517-2.516-2.517-6.592,0-9.108
		C39.063,10.877,40.711,10.248,42.357,10.248 M42.357,7.808c-2.369,0-4.601,0.924-6.277,2.602c-3.46,3.46-3.46,9.093,0,12.555
		c1.678,1.677,3.908,2.601,6.277,2.601c2.373,0,4.602-0.924,6.276-2.601c3.464-3.462,3.464-9.095,0-12.555
		C46.959,8.732,44.73,7.808,42.357,7.808L42.357,7.808z"/>
</g>
<g opacity="0.2">
	<rect x="22" y="44.167" fill="#231F20" width="20" height="2"/>
</g>
</svg>
