<?xml version="1.0" encoding="utf-8"?>
<!-- Generator: Adobe Illustrator 16.0.3, SVG Export Plug-In . SVG Version: 6.00 Build 0)  -->
<!DOCTYPE svg PUBLIC "-//W3C//DTD SVG 1.1//EN" "http://www.w3.org/Graphics/SVG/1.1/DTD/svg11.dtd">
<svg version="1.1" id="Layer_1" xmlns="http://www.w3.org/2000/svg" xmlns:xlink="http://www.w3.org/1999/xlink" x="0px" y="0px"
	 width="25px" height="20px" viewBox="0 0 25 20" enable-background="new 0 0 25 20" xml:space="preserve">
<path fill="#FFFFFF" d="M16.471,1.76c-0.414-0.417-1.09-0.42-1.51-0.004c-0.111,0.111-0.189,0.243-0.242,0.379
	c-0.887,1.853-1.864,2.898-3.097,3.515c-1.384,0.683-2.974,1.157-5.536,1.157c-0.139,0-0.277,0.026-0.408,0.082
	C5.417,6.999,5.208,7.207,5.1,7.468c-0.107,0.26-0.107,0.555,0,0.816c0.054,0.131,0.132,0.25,0.231,0.349l3.462,3.463l-4.844,6.459
	l6.458-4.846l3.46,3.462c0.098,0.101,0.217,0.177,0.348,0.229c0.131,0.056,0.27,0.084,0.408,0.084s0.275-0.028,0.408-0.084
	c0.262-0.106,0.469-0.313,0.576-0.576c0.055-0.129,0.082-0.27,0.082-0.404c0-2.564,0.473-4.152,1.154-5.518
	c0.617-1.233,1.662-2.211,3.518-3.099c0.139-0.053,0.27-0.129,0.377-0.24c0.418-0.419,0.414-1.094-0.004-1.51L16.471,1.76z"/>
</svg>
