<?xml version="1.0" encoding="utf-8"?>
<!-- Generator: Adobe Illustrator 16.0.0, SVG Export Plug-In . SVG Version: 6.00 Build 0)  -->
<!DOCTYPE svg PUBLIC "-//W3C//DTD SVG 1.1//EN" "http://www.w3.org/Graphics/SVG/1.1/DTD/svg11.dtd">
<svg version="1.1" id="Layer_1" xmlns="http://www.w3.org/2000/svg" xmlns:xlink="http://www.w3.org/1999/xlink" x="0px" y="0px"
	 width="25px" height="25px" viewBox="0 0 25 25" enable-background="new 0 0 25 25" xml:space="preserve">
<path fill="#333333" d="M5.048,10.229c0,0,0.968-1.982,2.195-2.053h2.265c0,0,0.118,7.668-1.109,8.259
	c-1.227,0.59-4.459,4.485-0.448,5.451c3.714,0.894,3.564-4.257,3.522-5.025c-0.003-0.063-0.006-0.096-0.006-0.096l0.019-8.4V8.177
	h2.93v9.509c0,0-0.33,4.46,3.257,3.775c3.587-0.684,3.256-5.309,3.256-5.309s-1.015,2.36-2.501,2.596s-1.675-1.888-1.675-1.888
	L16.8,8.177h3.374V5.133H8.824C8.824,5.133,5.119,5.133,5.048,10.229z"/>
</svg>
