<?xml version="1.0" encoding="utf-8"?>
<!-- Generator: Adobe Illustrator 16.0.0, SVG Export Plug-In . SVG Version: 6.00 Build 0)  -->
<!DOCTYPE svg PUBLIC "-//W3C//DTD SVG 1.1//EN" "http://www.w3.org/Graphics/SVG/1.1/DTD/svg11.dtd">
<svg version="1.1" id="Layer_1" xmlns="http://www.w3.org/2000/svg" xmlns:xlink="http://www.w3.org/1999/xlink" x="0px" y="0px"
	 width="204px" height="33px" viewBox="0 0 204 33" enable-background="new 0 0 204 33" xml:space="preserve">
<g>
	<path fill="#72953D" d="M29.793,1.874v29.731h-5.649L9.321,13.554v18.051H2.526V1.874h5.691l14.781,18.052V1.874H29.793z"/>
	<path fill="#72953D" d="M59.865,26.084v5.521H36.844V1.874h22.468v5.521h-15.63v6.456h13.804v5.352H43.682v6.881H59.865z"/>
	<path fill="#72953D" d="M71.311,30.119c-2.478-1.331-4.417-3.164-5.819-5.501c-1.401-2.336-2.103-4.962-2.103-7.878
		c0-2.916,0.701-5.542,2.103-7.879c1.402-2.336,3.341-4.169,5.819-5.5c2.478-1.331,5.259-1.997,8.346-1.997
		c3.086,0,5.861,0.666,8.325,1.997c2.463,1.331,4.403,3.164,5.819,5.5c1.416,2.336,2.124,4.963,2.124,7.879
		c0,2.917-0.708,5.542-2.124,7.878c-1.416,2.337-3.355,4.17-5.819,5.501s-5.239,1.996-8.325,1.996
		C76.57,32.115,73.788,31.45,71.311,30.119z M84.414,25.043c1.416-0.807,2.527-1.933,3.334-3.376c0.807-1.444,1.21-3.087,1.21-4.927
		s-0.404-3.483-1.21-4.927c-0.807-1.444-1.919-2.57-3.334-3.376c-1.416-0.807-3.001-1.211-4.757-1.211
		c-1.756,0-3.341,0.404-4.757,1.211c-1.416,0.807-2.527,1.932-3.334,3.376c-0.807,1.444-1.21,3.086-1.21,4.927
		s0.403,3.483,1.21,4.927c0.807,1.443,1.918,2.569,3.334,3.376c1.416,0.808,3.001,1.211,4.757,1.211
		C81.412,26.254,82.998,25.851,84.414,25.043z"/>
	<path fill="#003F4E" d="M104.058,31.159c-2.194-0.637-3.957-1.465-5.288-2.484l2.336-5.182c1.274,0.935,2.789,1.685,4.544,2.251
		s3.511,0.85,5.267,0.85c1.954,0,3.397-0.29,4.333-0.871c0.934-0.58,1.4-1.352,1.4-2.314c0-0.708-0.275-1.296-0.828-1.763
		c-0.551-0.467-1.26-0.842-2.123-1.126c-0.863-0.282-2.031-0.594-3.504-0.934c-2.266-0.538-4.12-1.076-5.564-1.614
		c-1.443-0.538-2.683-1.402-3.716-2.591c-1.034-1.189-1.55-2.775-1.55-4.757c0-1.727,0.467-3.292,1.402-4.693
		c0.935-1.401,2.343-2.512,4.226-3.334c1.883-0.821,4.184-1.232,6.902-1.232c1.896,0,3.752,0.227,5.564,0.68
		c1.811,0.454,3.396,1.104,4.756,1.954l-2.123,5.224c-2.748-1.557-5.494-2.336-8.24-2.336c-1.926,0-3.349,0.312-4.269,0.934
		c-0.921,0.623-1.38,1.444-1.38,2.463c0,1.02,0.53,1.777,1.592,2.272c1.063,0.496,2.684,0.984,4.863,1.465
		c2.266,0.538,4.121,1.077,5.564,1.614c1.443,0.538,2.682,1.388,3.717,2.548c1.033,1.162,1.551,2.733,1.551,4.715
		c0,1.699-0.475,3.249-1.424,4.65c-0.949,1.402-2.371,2.514-4.268,3.335c-1.898,0.82-4.205,1.231-6.924,1.231
		C108.523,32.115,106.252,31.797,104.058,31.159z"/>
	<path fill="#003F4E" d="M147.932,3.191c1.939,0.878,3.434,2.124,4.481,3.738c1.047,1.614,1.571,3.525,1.571,5.734
		c0,2.181-0.524,4.084-1.571,5.712c-1.048,1.629-2.542,2.874-4.481,3.737c-1.939,0.864-4.226,1.296-6.859,1.296h-5.988v8.197h-6.881
		V1.874h12.869C143.706,1.874,145.992,2.313,147.932,3.191z M145.404,16.464c1.076-0.892,1.614-2.159,1.614-3.801
		c0-1.67-0.538-2.952-1.614-3.844c-1.076-0.892-2.647-1.338-4.714-1.338h-5.606v10.321h5.606
		C142.757,17.802,144.328,17.355,145.404,16.464z"/>
	<path fill="#003F4E" d="M158.869,1.874h6.881v29.731h-6.881V1.874z"/>
	<path fill="#003F4E" d="M200.067,1.874v29.731h-5.648l-14.823-18.051v18.051H172.8V1.874h5.691l14.78,18.052V1.874H200.067z"/>
</g>
</svg>
