<?xml version="1.0" encoding="utf-8"?>
<!-- Generator: Adobe Illustrator 16.0.0, SVG Export Plug-In . SVG Version: 6.00 Build 0)  -->
<!DOCTYPE svg PUBLIC "-//W3C//DTD SVG 1.1//EN" "http://www.w3.org/Graphics/SVG/1.1/DTD/svg11.dtd">
<svg version="1.1" id="Capa_1" xmlns="http://www.w3.org/2000/svg" xmlns:xlink="http://www.w3.org/1999/xlink" x="0px" y="0px"
	 width="20px" height="20px" viewBox="0 0 20 20" enable-background="new 0 0 20 20" xml:space="preserve">
<g>
	<path fill="#282828" stroke="#282828" stroke-width="0.5" stroke-miterlimit="10" d="M19.086,2.654H0.914
		c-0.213,0-0.387,0.173-0.387,0.386v13.92c0,0.213,0.174,0.386,0.387,0.386h18.172c0.215,0,0.387-0.173,0.387-0.386V3.04
		C19.473,2.827,19.301,2.654,19.086,2.654z M18.7,3.426v1.86H1.303v-1.86H18.7z M1.302,16.573V6.059H18.7v10.515L1.302,16.573
		L1.302,16.573z"/>
	<path fill="#282828" d="M13.383,10.509c-0.087-0.613-0.549-1.124-1.152-1.271c-0.162-0.04-0.328,0.061-0.367,0.224
		c-0.041,0.164,0.06,0.33,0.223,0.369c0.362,0.087,0.643,0.395,0.693,0.763c0.021,0.152,0.15,0.262,0.303,0.262
		c0.014,0,0.027,0,0.041,0C13.289,10.828,13.407,10.674,13.383,10.509z"/>
	<path fill="#282828" stroke="#282828" stroke-width="0.5" stroke-miterlimit="10" d="M14.023,12.424
		c0.369-0.469,0.59-1.06,0.59-1.701c0-1.513-1.23-2.744-2.744-2.744c-1.512,0-2.745,1.231-2.745,2.744
		c0,1.514,1.232,2.746,2.745,2.746c0.654,0,1.253-0.229,1.725-0.611l2.545,2.369c0.057,0.055,0.133,0.082,0.207,0.082
		c0.082,0,0.163-0.033,0.223-0.099c0.115-0.121,0.108-0.313-0.017-0.431L14.023,12.424z M9.732,10.723
		c0-1.178,0.959-2.135,2.135-2.135c1.18,0,2.136,0.958,2.136,2.135c0,1.178-0.956,2.137-2.136,2.137
		C10.691,12.857,9.732,11.9,9.732,10.723z"/>
</g>
</svg>
