<?xml version="1.0" encoding="utf-8"?>
<!-- Generator: Adobe Illustrator 16.0.0, SVG Export Plug-In . SVG Version: 6.00 Build 0)  -->
<!DOCTYPE svg PUBLIC "-//W3C//DTD SVG 1.1//EN" "http://www.w3.org/Graphics/SVG/1.1/DTD/svg11.dtd">
<svg version="1.1" id="Capa_1" xmlns="http://www.w3.org/2000/svg" xmlns:xlink="http://www.w3.org/1999/xlink" x="0px" y="0px"
	 width="20px" height="20px" viewBox="0 0 20 20" enable-background="new 0 0 20 20" xml:space="preserve">
<g>
	<g>
		<g>
			<path fill="#282828" stroke="#282828" stroke-width="0.5" stroke-miterlimit="10" d="M15.219,3.112h-1.611V2.356
				C13.605,2.111,13.354,2,13.12,2h-1.253c-0.297-0.889-1.039-1.332-1.888-1.332C9.141,0.635,8.377,1.175,8.091,2H6.862
				C6.629,2,6.396,2.112,6.396,2.356v0.755H4.783C3.828,3.122,3.046,3.911,3,4.912v12.73c0,0.979,0.849,1.69,1.783,1.69h10.438
				c0.934,0,1.779-0.711,1.779-1.69V4.912C16.957,3.912,16.175,3.122,15.219,3.112z M7.244,2.89H8.41
				c0.204-0.026,0.368-0.188,0.403-0.4C8.939,1.917,9.418,1.505,9.98,1.491c0.556,0.018,1.03,0.43,1.147,0.999
				c0.037,0.219,0.212,0.383,0.424,0.4h1.211v1.776H7.244V2.89L7.244,2.89z M16.152,17.643c0,0.491-0.467,0.803-0.935,0.803H4.783
				c-0.467,0-0.934-0.312-0.934-0.803V4.912C3.891,4.402,4.295,4.01,4.783,4h1.611v1.134c0.021,0.25,0.228,0.437,0.467,0.423h6.259
				c0.241,0.013,0.454-0.171,0.485-0.423V4h1.612c0.488,0.01,0.892,0.403,0.935,0.912V17.643L16.152,17.643z"/>
			<path fill="#282828" stroke="#282828" stroke-width="0.5" stroke-miterlimit="10" d="M8.366,10.6
				c-0.158-0.175-0.422-0.186-0.594-0.021l-1.356,1.354l-0.574-0.621c-0.159-0.177-0.422-0.187-0.595-0.021
				c-0.164,0.182-0.164,0.464,0,0.643l0.872,0.936C6.194,12.955,6.303,13.003,6.416,13c0.111-0.002,0.217-0.048,0.296-0.133
				l1.654-1.645c0.164-0.16,0.175-0.425,0.024-0.598C8.385,10.617,8.376,10.607,8.366,10.6z"/>
			<path fill="#282828" stroke="#282828" stroke-width="0.5" stroke-miterlimit="10" d="M14.455,11.555H9.577
				c-0.235,0-0.425,0.197-0.425,0.443s0.19,0.445,0.425,0.445h4.878c0.234,0,0.424-0.199,0.424-0.445S14.689,11.555,14.455,11.555z"
				/>
			<path fill="#282828" stroke="#282828" stroke-width="0.5" stroke-miterlimit="10" d="M8.366,7.045
				C8.208,6.868,7.944,6.858,7.772,7.023L6.416,8.377L5.842,7.756C5.684,7.58,5.42,7.571,5.248,7.734
				c-0.164,0.181-0.164,0.464,0,0.643L6.119,9.31C6.194,9.4,6.303,9.449,6.416,9.445C6.527,9.443,6.633,9.396,6.712,9.31
				l1.654-1.644C8.53,7.51,8.541,7.24,8.391,7.071C8.385,7.061,8.376,7.052,8.366,7.045z"/>
			<path fill="#282828" stroke="#282828" stroke-width="0.5" stroke-miterlimit="10" d="M14.455,8H9.577
				C9.342,8,9.152,8.199,9.152,8.444c0,0.245,0.19,0.446,0.425,0.446h4.878c0.234,0,0.424-0.2,0.424-0.445
				C14.879,8.2,14.689,8,14.455,8z"/>
			<path fill="#282828" stroke="#282828" stroke-width="0.5" stroke-miterlimit="10" d="M8.366,14.155
				c-0.158-0.177-0.422-0.188-0.594-0.021l-1.356,1.354l-0.574-0.621c-0.159-0.178-0.422-0.188-0.595-0.023
				c-0.164,0.182-0.164,0.467,0,0.646l0.872,0.936c0.075,0.087,0.184,0.138,0.297,0.132c0.111,0,0.217-0.049,0.296-0.132
				l1.654-1.646c0.164-0.156,0.175-0.424,0.024-0.596C8.385,14.172,8.376,14.162,8.366,14.155z"/>
			<path fill="#282828" stroke="#282828" stroke-width="0.5" stroke-miterlimit="10" d="M14.455,15.111H9.577
				c-0.235,0-0.425,0.197-0.425,0.443c0,0.245,0.19,0.443,0.425,0.443h4.878c0.234,0,0.424-0.198,0.424-0.443
				C14.879,15.311,14.689,15.111,14.455,15.111z"/>
		</g>
	</g>
</g>
</svg>
