<?xml version="1.0" encoding="utf-8"?>
<!-- Generator: Adobe Illustrator 16.0.3, SVG Export Plug-In . SVG Version: 6.00 Build 0)  -->
<!DOCTYPE svg PUBLIC "-//W3C//DTD SVG 1.1//EN" "http://www.w3.org/Graphics/SVG/1.1/DTD/svg11.dtd">
<svg version="1.1" id="Layer_1" xmlns="http://www.w3.org/2000/svg" xmlns:xlink="http://www.w3.org/1999/xlink" x="0px" y="0px"
	 width="18px" height="18px" viewBox="0 0 18 18" enable-background="new 0 0 18 18" xml:space="preserve">
<g>
	<path fill="#555555" stroke="#555555" stroke-width="0.5" stroke-miterlimit="10" d="M9.016,16.384l-2.962-3.355H1.512
		c-0.672,0-1.185-0.514-1.185-1.186V3.153c0-0.672,0.513-1.185,1.185-1.185h15.01c0.671,0,1.185,0.513,1.185,1.185v8.689
		c0,0.672-0.514,1.186-1.185,1.186h-4.544L9.016,16.384z M1.512,2.758c-0.238,0-0.395,0.157-0.395,0.395v8.689
		c0,0.236,0.157,0.395,0.395,0.395h4.937L9.016,15.2l2.566-2.963h4.939c0.235,0,0.394-0.158,0.394-0.395V3.153
		c0-0.238-0.158-0.395-0.394-0.395H1.512z"/>
</g>
<g>
	<path fill="#555555" d="M9.54,4.992c0,0.388-0.284,0.692-0.735,0.692c-0.43,0-0.713-0.304-0.713-0.692
		c0-0.399,0.294-0.703,0.724-0.703C9.256,4.289,9.529,4.593,9.54,4.992z M8.165,11.528v-5.11h1.301v5.11H8.165z"/>
</g>
</svg>
