<?xml version="1.0" encoding="utf-8"?>
<!-- Generator: Adobe Illustrator 16.0.0, SVG Export Plug-In . SVG Version: 6.00 Build 0)  -->
<!DOCTYPE svg PUBLIC "-//W3C//DTD SVG 1.1//EN" "http://www.w3.org/Graphics/SVG/1.1/DTD/svg11.dtd">
<svg version="1.1" id="Layer_1" xmlns="http://www.w3.org/2000/svg" xmlns:xlink="http://www.w3.org/1999/xlink" x="0px" y="0px"
	 width="18px" height="18px" viewBox="0 0 18 18" enable-background="new 0 0 18 18" xml:space="preserve">
<path fill="#336699" d="M9.135,3.257c-3.146,0-5.697,2.551-5.697,5.697c0,3.146,2.551,5.695,5.697,5.695
	c3.146,0,5.698-2.549,5.698-5.695C14.833,5.808,12.281,3.257,9.135,3.257z M10,13H8V8.917L6.255,8.883l2.86-4.369l2.643,4.479
	L10,8.961V13z"/>
<path fill="none" stroke="#336699" stroke-miterlimit="10" d="M16.5,13.778c0,1.503-1.219,2.722-2.722,2.722H4.222
	c-1.503,0-2.722-1.219-2.722-2.722V4.222C1.5,2.719,2.719,1.5,4.222,1.5h9.557c1.503,0,2.722,1.219,2.722,2.722V13.778z"/>
</svg>
