<?xml version="1.0" encoding="utf-8"?>
<!-- Generator: Adobe Illustrator 16.0.0, SVG Export Plug-In . SVG Version: 6.00 Build 0)  -->
<!DOCTYPE svg PUBLIC "-//W3C//DTD SVG 1.1//EN" "http://www.w3.org/Graphics/SVG/1.1/DTD/svg11.dtd">
<svg version="1.1" id="Layer_1" xmlns="http://www.w3.org/2000/svg" xmlns:xlink="http://www.w3.org/1999/xlink" x="0px" y="0px"
	 width="18px" height="18px" viewBox="0 0 18 18" enable-background="new 0 0 18 18" xml:space="preserve">
<path fill="none" stroke="#666666" stroke-miterlimit="10" d="M17.5,15.604c0,1.042-0.877,1.886-1.963,1.886H2.462
	c-1.083,0-1.962-0.844-1.962-1.886V2.388C0.5,1.345,1.379,0.5,2.462,0.5h13.075c1.086,0,1.963,0.845,1.963,1.888V15.604z"/>
<g>
	<path fill="#666666" d="M2.588,4.972h1.456v2.366c0.287-0.382,0.655-0.573,1.102-0.573c0.49,0,0.897,0.221,1.223,0.663
		c0.326,0.441,0.488,1.119,0.488,2.035c0,0.881-0.159,1.567-0.478,2.06s-0.784,0.738-1.396,0.738c-0.602,0-1.015-0.268-1.238-0.805
		C3.643,11.638,3.55,11.87,3.466,12.15H2.588V4.972z M4.044,9.944c0,0.486,0.045,0.823,0.136,1.008
		c0.091,0.185,0.251,0.278,0.482,0.278c0.255,0,0.429-0.132,0.523-0.396s0.141-0.71,0.141-1.338c0-0.605-0.045-1.048-0.136-1.328
		c-0.091-0.28-0.259-0.42-0.503-0.42c-0.43,0-0.644,0.324-0.644,0.971V9.944z"/>
	<path fill="#666666" d="M7.945,5.208l1.441-0.047v1.677h0.977v1.167H9.386v1.953c0,0.36,0.008,0.594,0.023,0.701
		s0.068,0.197,0.158,0.268c0.089,0.073,0.238,0.109,0.45,0.109c0.111,0,0.252-0.004,0.42-0.011v1.125
		c-0.33,0.073-0.631,0.11-0.905,0.11c-0.449,0-0.792-0.086-1.03-0.258c-0.238-0.172-0.39-0.387-0.457-0.646
		c-0.066-0.259-0.101-0.671-0.101-1.235V8.005H7.356V6.838h0.589V5.208z"/>
	<path fill="#666666" d="M11.025,6.838h1.404v0.725c0.246-0.554,0.689-0.83,1.33-0.83c0.348,0,0.635,0.078,0.861,0.233
		c0.225,0.156,0.369,0.355,0.432,0.597c0.064,0.242,0.096,0.61,0.096,1.104v3.483h-1.482V8.667c0-0.357-0.045-0.578-0.137-0.662
		s-0.213-0.126-0.369-0.126c-0.264,0-0.439,0.081-0.525,0.244c-0.082,0.163-0.125,0.467-0.125,0.913v3.114h-1.484V6.838z"/>
</g>
</svg>
