<?xml version="1.0" encoding="utf-8"?>
<!-- Generator: Adobe Illustrator 16.0.0, SVG Export Plug-In . SVG Version: 6.00 Build 0)  -->
<!DOCTYPE svg PUBLIC "-//W3C//DTD SVG 1.1//EN" "http://www.w3.org/Graphics/SVG/1.1/DTD/svg11.dtd">
<svg version="1.1" id="Layer_1" xmlns="http://www.w3.org/2000/svg" xmlns:xlink="http://www.w3.org/1999/xlink" x="0px" y="0px"
	 width="18px" height="18px" viewBox="0 0 18 18" enable-background="new 0 0 18 18" xml:space="preserve">
<path fill="none" stroke="#003366" stroke-miterlimit="10" d="M17.5,15.287c0,1.239-0.826,2.242-1.846,2.242H2.343
	c-1.018,0-1.843-1.003-1.843-2.242V2.771c0-1.237,0.826-2.242,1.843-2.242h13.312c1.02,0,1.846,1.005,1.846,2.242V15.287z"/>
<polygon fill="#003366" points="1.045,13.549 0.397,12.722 6.608,5.981 7.256,6.809 "/>
<polygon fill="#003366" points="5.938,6.814 6.633,6.023 11.664,12.167 10.967,12.959 "/>
<polygon fill="#003366" points="13.762,7.932 14.504,8.799 11.238,12.678 10.498,11.812 "/>
<polygon fill="#003366" points="13.242,8.918 13.898,8.08 18,12.521 17.346,13.358 "/>
<circle fill="#003366" cx="11.48" cy="4.875" r="1.759"/>
</svg>
