<?xml version="1.0" encoding="utf-8"?>
<!-- Generator: Adobe Illustrator 16.0.3, SVG Export Plug-In . SVG Version: 6.00 Build 0)  -->
<!DOCTYPE svg PUBLIC "-//W3C//DTD SVG 1.1//EN" "http://www.w3.org/Graphics/SVG/1.1/DTD/svg11.dtd">
<svg version="1.1" id="Location" xmlns="http://www.w3.org/2000/svg" xmlns:xlink="http://www.w3.org/1999/xlink" x="0px" y="0px"
	 width="25px" height="20px" viewBox="0 0 25 20" enable-background="new 0 0 25 20" xml:space="preserve">
<path fill="#FFFFFF" d="M22.833,14.06v3.69c0,0.306-0.107,0.569-0.323,0.783c-0.215,0.214-0.477,0.324-0.784,0.324h-3.688
	c-0.308,0-0.569-0.108-0.783-0.324c-0.216-0.215-0.324-0.478-0.324-0.783v-3.69c0-0.308,0.108-0.57,0.324-0.784
	c0.215-0.215,0.479-0.322,0.783-0.322h1.105v-2.215h-5.903v2.215h1.108c0.306,0,0.569,0.107,0.783,0.322
	c0.215,0.216,0.325,0.478,0.325,0.784v3.69c0,0.306-0.109,0.569-0.325,0.783c-0.215,0.214-0.478,0.324-0.783,0.324h-3.691
	c-0.307,0-0.569-0.108-0.785-0.324c-0.215-0.215-0.323-0.478-0.323-0.783v-3.69c0-0.308,0.107-0.57,0.323-0.784
	c0.216-0.214,0.477-0.322,0.785-0.322h1.108v-2.215H5.857v2.215h1.107c0.308,0,0.568,0.107,0.784,0.322
	c0.215,0.216,0.322,0.478,0.322,0.784v3.69c0,0.306-0.107,0.569-0.322,0.783c-0.216,0.216-0.477,0.324-0.784,0.324H3.273
	c-0.307,0-0.568-0.108-0.784-0.324c-0.216-0.215-0.324-0.478-0.324-0.783v-3.69c0-0.308,0.107-0.57,0.324-0.784
	c0.216-0.215,0.477-0.322,0.784-0.322h1.107v-2.215c0-0.4,0.147-0.746,0.438-1.04C5.11,9.408,5.457,9.262,5.857,9.262h5.905V7.048
	h-1.108c-0.307,0-0.569-0.108-0.785-0.324C9.654,6.509,9.547,6.248,9.547,5.94V2.25c0-0.307,0.107-0.568,0.323-0.784
	c0.216-0.216,0.477-0.323,0.785-0.323h3.691c0.306,0,0.569,0.107,0.783,0.323c0.216,0.215,0.324,0.477,0.324,0.784v3.691
	c0,0.307-0.108,0.569-0.324,0.784c-0.215,0.215-0.478,0.324-0.783,0.324h-1.109v2.214h5.904c0.401,0,0.747,0.146,1.039,0.437
	c0.292,0.293,0.438,0.639,0.438,1.039v2.215h1.105c0.309,0,0.57,0.107,0.784,0.323C22.723,13.491,22.833,13.752,22.833,14.06z"/>
</svg>
