<?xml version="1.0" encoding="utf-8"?>
<!-- Generator: Adobe Illustrator 16.0.3, SVG Export Plug-In . SVG Version: 6.00 Build 0)  -->
<!DOCTYPE svg PUBLIC "-//W3C//DTD SVG 1.1//EN" "http://www.w3.org/Graphics/SVG/1.1/DTD/svg11.dtd">
<svg version="1.1" id="Layer_1" xmlns="http://www.w3.org/2000/svg" xmlns:xlink="http://www.w3.org/1999/xlink" x="0px" y="0px"
	 width="18px" height="18px" viewBox="0 0 18 18" enable-background="new 0 0 18 18" xml:space="preserve">
<path fill="#B0AFB0" d="M18,15.925C18,17.07,17.104,18,16,18H2c-1.104,0-2-0.93-2-2.075V2.076C0,0.929,0.896,0,2,0h14
	c1.104,0,2,0.929,2,2.076V15.925z"/>
<g display="none">
	<path display="inline" fill="#FFFFFF" d="M16.433,10.857V3.969c0-0.986-0.801-1.787-1.787-1.787H3.488
		c-0.986,0-1.787,0.801-1.787,1.787v6.889c0,0.987,0.8,1.787,1.787,1.787h3.418l0.943,1.472l0.62,1.699h4.678l0.927-3.171h0.57
		C15.632,12.645,16.433,11.845,16.433,10.857z M2.916,9.408V3.969c0-0.316,0.257-0.573,0.573-0.573h11.157
		c0.316,0,0.573,0.257,0.573,0.573v5.439c0,0.316-0.257,0.574-0.573,0.574h-0.316V9.639c0.001-0.1-0.003-0.803-0.423-1.233
		c-0.204-0.209-0.477-0.319-0.786-0.319c-0.104,0-0.206,0.013-0.301,0.037c-0.053-0.1-0.12-0.197-0.204-0.282
		c-0.204-0.209-0.477-0.319-0.785-0.319c-0.086,0-0.17,0.008-0.251,0.025c-0.06-0.135-0.142-0.267-0.252-0.379
		c-0.204-0.209-0.477-0.32-0.786-0.32c-0.121,0-0.238,0.018-0.346,0.051V5.91c0.002-0.082-0.001-0.596-0.254-1.014l0.003-0.01
		L9.839,4.748C9.647,4.496,9.348,4.357,8.998,4.357c0,0,0,0,0,0h-0.01c-0.427,0-0.769,0.32-0.807,0.356L8.157,4.738
		c-0.36,0.426-0.331,1.049-0.319,1.184v3.327c-0.131-0.12-0.29-0.236-0.469-0.319L7.367,8.921L7.204,8.862
		C6.865,8.739,6.493,8.79,6.154,9.007L6.145,9.013C5.734,9.275,5.601,9.799,5.587,9.857L5.581,9.891
		C5.576,9.922,5.574,9.951,5.572,9.982H3.488C3.172,9.982,2.916,9.725,2.916,9.408z M12.637,15.134h-3.69l-0.482-1.321l-1.884-2.94
		l-0.021-0.03c-0.091-0.113-0.339-0.51-0.305-0.844c0.023-0.082,0.109-0.313,0.251-0.407L6.52,9.582
		C6.523,9.58,6.527,9.578,6.53,9.575c0.127-0.079,0.25-0.111,0.364-0.093l0.094,0.029c0.244,0.075,0.467,0.299,0.604,0.471l0,0
		c0.052,0.063,0.092,0.12,0.115,0.158l0.812,1.233l0,0h0V5.906L8.518,5.873C8.506,5.75,8.511,5.394,8.666,5.193
		C8.73,5.137,8.87,5.043,8.98,5.039h0.012c0.004,0,0.008,0,0.012,0c0.107,0,0.193,0.027,0.254,0.08l0.049,0.059
		C9.483,5.386,9.517,5.77,9.515,5.899v3.899h0.681V7.617l0.045,0.035c0.063-0.082,0.164-0.123,0.301-0.123
		c0.127,0,0.222,0.036,0.299,0.113c0.068,0.07,0.116,0.166,0.151,0.268c-0.001,0-0.001,0.001-0.003,0.002l0.005,0.004
		C11.055,8.1,11.07,8.3,11.069,8.389v1.594l0,0v0.507l0,0l0,0h0.681V8.4c0.001-0.026,0.001-0.096-0.008-0.191
		c0.028-0.004,0.057-0.006,0.088-0.006c0.126,0,0.221,0.035,0.298,0.113c0.194,0.197,0.231,0.606,0.229,0.746v0.92l0,0v1.181l0,0
		l0,0h0.681V9.074c0.001-0.036,0.001-0.148-0.018-0.299c0.031-0.006,0.064-0.008,0.1-0.008c0.127,0,0.222,0.035,0.298,0.113
		c0.195,0.197,0.231,0.606,0.23,0.746v0.355l0,0v1.696l-0.283,0.966h0.001L12.637,15.134z"/>
</g>
<g id="Expanded">
	<g>
		<g>
			<path fill="#FFFFFF" d="M14.703,14.695H3.297c-0.629,0-1.141-0.512-1.141-1.141V6.141C2.156,5.512,2.668,5,3.297,5h11.406
				c0.629,0,1.141,0.512,1.141,1.141v7.414C15.844,14.184,15.332,14.695,14.703,14.695z M3.297,5.57c-0.314,0-0.57,0.256-0.57,0.57
				v7.414c0,0.314,0.256,0.57,0.57,0.57h11.406c0.314,0,0.57-0.256,0.57-0.57V6.141c0-0.314-0.256-0.57-0.57-0.57H3.297z"/>
		</g>
		<g>
			<path fill="#FFFFFF" d="M11.281,4.145h-0.57v-0.57c0-0.157-0.128-0.285-0.285-0.285H7.574c-0.157,0-0.285,0.128-0.285,0.285v0.57
				h-0.57v-0.57c0-0.472,0.384-0.855,0.855-0.855h2.852c0.473,0,0.855,0.384,0.855,0.855V4.145z"/>
		</g>
		<g>
			<path fill="#FFFFFF" d="M13.563,7.852h-9.41c-0.157,0-0.285-0.127-0.285-0.285s0.128-0.285,0.285-0.285h9.41
				c0.157,0,0.285,0.127,0.285,0.285S13.72,7.852,13.563,7.852z"/>
		</g>
		<g>
			<path fill="#FFFFFF" d="M13.563,10.133h-9.41c-0.157,0-0.285-0.127-0.285-0.285s0.128-0.285,0.285-0.285h9.41
				c0.157,0,0.285,0.127,0.285,0.285S13.72,10.133,13.563,10.133z"/>
		</g>
		<g>
			<path fill="#FFFFFF" d="M13.563,12.414h-9.41c-0.157,0-0.285-0.128-0.285-0.285s0.128-0.285,0.285-0.285h9.41
				c0.157,0,0.285,0.128,0.285,0.285S13.72,12.414,13.563,12.414z"/>
		</g>
		<g>
			<rect x="6.719" y="4.145" fill="#FFFFFF" width="0.57" height="1.141"/>
		</g>
		<g>
			<rect x="10.711" y="4.145" fill="#FFFFFF" width="0.57" height="1.141"/>
		</g>
		<g>
			<rect x="7.004" y="3.859" fill="#FFFFFF" width="3.992" height="0.57"/>
		</g>
	</g>
</g>
</svg>
