<?xml version="1.0" encoding="utf-8"?>
<!-- Generator: Adobe Illustrator 16.0.0, SVG Export Plug-In . SVG Version: 6.00 Build 0)  -->
<!DOCTYPE svg PUBLIC "-//W3C//DTD SVG 1.1//EN" "http://www.w3.org/Graphics/SVG/1.1/DTD/svg11.dtd">
<svg version="1.1" id="Layer_1" xmlns="http://www.w3.org/2000/svg" xmlns:xlink="http://www.w3.org/1999/xlink" x="0px" y="0px"
	 width="15px" height="15px" viewBox="888.5 888.5 15 15" enable-background="new 888.5 888.5 15 15" xml:space="preserve">
<path fill="#2A2A2A" d="M897.975,895.077c0-0.89-0.316-1.651-0.948-2.283s-1.393-0.948-2.282-0.948
	c-0.891,0-1.651,0.316-2.283,0.948c-0.632,0.632-0.948,1.393-0.948,2.283c0,0.89,0.316,1.65,0.948,2.282
	c0.632,0.632,1.393,0.948,2.283,0.948c0.889,0,1.65-0.316,2.282-0.948S897.975,895.967,897.975,895.077z M901.667,901.077
	c0,0.249-0.091,0.466-0.276,0.648c-0.181,0.184-0.398,0.274-0.646,0.274c-0.26,0-0.479-0.091-0.649-0.274l-2.474-2.466
	c-0.859,0.596-1.819,0.895-2.876,0.895c-0.688,0-1.346-0.134-1.973-0.4c-0.627-0.268-1.168-0.628-1.623-1.082
	s-0.815-0.995-1.081-1.623c-0.268-0.627-0.401-1.285-0.401-1.972c0-0.688,0.133-1.345,0.401-1.973
	c0.266-0.627,0.627-1.168,1.081-1.623c0.454-0.454,0.995-0.815,1.623-1.082c0.627-0.267,1.285-0.4,1.973-0.4
	c0.687,0,1.344,0.133,1.972,0.4c0.627,0.267,1.168,0.627,1.622,1.082c0.454,0.455,0.815,0.995,1.083,1.623
	c0.266,0.627,0.398,1.285,0.398,1.973c0,1.057-0.298,2.017-0.894,2.877l2.474,2.474
	C901.578,900.605,901.667,900.822,901.667,901.077z"/>
</svg>
