<?xml version="1.0" encoding="utf-8"?>
<!-- Generator: Adobe Illustrator 16.0.0, SVG Export Plug-In . SVG Version: 6.00 Build 0)  -->
<!DOCTYPE svg PUBLIC "-//W3C//DTD SVG 1.1//EN" "http://www.w3.org/Graphics/SVG/1.1/DTD/svg11.dtd" [
	<!ENTITY ns_extend "http://ns.adobe.com/Extensibility/1.0/">
	<!ENTITY ns_ai "http://ns.adobe.com/AdobeIllustrator/10.0/">
	<!ENTITY ns_graphs "http://ns.adobe.com/Graphs/1.0/">
	<!ENTITY ns_vars "http://ns.adobe.com/Variables/1.0/">
	<!ENTITY ns_imrep "http://ns.adobe.com/ImageReplacement/1.0/">
	<!ENTITY ns_sfw "http://ns.adobe.com/SaveForWeb/1.0/">
	<!ENTITY ns_custom "http://ns.adobe.com/GenericCustomNamespace/1.0/">
	<!ENTITY ns_adobe_xpath "http://ns.adobe.com/XPath/1.0/">
]>
<svg version="1.1" id="get_x5F_parameter" xmlns:x="&ns_extend;" xmlns:i="&ns_ai;" xmlns:graph="&ns_graphs;"
	 xmlns="http://www.w3.org/2000/svg" xmlns:xlink="http://www.w3.org/1999/xlink" x="0px" y="0px" width="20px" height="20px"
	 viewBox="0 0 20 20" enable-background="new 0 0 20 20" xml:space="preserve">
<switch>
	<g i:extraneous="self">
		<rect x="4" y="5" fill="#202020" width="8" height="2"/>
		<rect x="4" y="8" fill="#202020" width="8" height="2"/>
		<rect x="4" y="11" fill="#202020" width="6" height="2"/>
		<rect x="4" y="14" fill="#202020" width="6" height="2"/>
		<path fill="#28FFFF" d="M16.959,10.188l-2.271-1.99l-0.021,1.261c-1.417,0-3.36,1.042-3.209,3.458
			c0.118,1.891,1.33,2.896,2.709,2.896c1.791,0,2.375-1.563,2.083-2.729c-0.625,2.166-3.375,1.875-3.458,0.083
			c-0.044-0.949,0.541-2.166,1.875-2.125l0.041,1.417L16.959,10.188z"/>
	</g>
</switch>
</svg>
