<?xml version="1.0" encoding="utf-8"?>
<!-- Generator: Adobe Illustrator 16.0.0, SVG Export Plug-In . SVG Version: 6.00 Build 0)  -->
<!DOCTYPE svg PUBLIC "-//W3C//DTD SVG 1.1//EN" "http://www.w3.org/Graphics/SVG/1.1/DTD/svg11.dtd">
<svg version="1.1" id="Layer_1" xmlns="http://www.w3.org/2000/svg" xmlns:xlink="http://www.w3.org/1999/xlink" x="0px" y="0px"
	 width="18px" height="18px" viewBox="0 0 18 18" enable-background="new 0 0 18 18" xml:space="preserve">
<path fill-rule="evenodd" clip-rule="evenodd" fill="#333333" d="M11.494,2.03c-0.477,1.056-0.956,2.112-1.43,3.169
	C9.933,5.494,9.812,5.791,9.66,6.15c1.559-0.327,3.036-0.637,4.603-0.965C11.986,9.175,9.742,13.103,7.5,17.03
	c-0.031-0.007-0.061-0.014-0.091-0.022c0.807-2.854,1.615-5.708,2.442-8.634C8.303,8.711,6.822,9.034,5.263,9.375
	c0.168-0.566,0.319-1.069,0.466-1.572c0.553-1.892,1.105-3.784,1.658-5.675c0.01-0.033,0.027-0.064,0.04-0.097
	C8.783,2.03,10.139,2.03,11.494,2.03z"/>
</svg>
