<?xml version="1.0" encoding="utf-8"?>
<!-- Generator: Adobe Illustrator 16.0.3, SVG Export Plug-In . SVG Version: 6.00 Build 0)  -->
<!DOCTYPE svg PUBLIC "-//W3C//DTD SVG 1.1//EN" "http://www.w3.org/Graphics/SVG/1.1/DTD/svg11.dtd">
<svg version="1.1" id="Layer_1" xmlns="http://www.w3.org/2000/svg" xmlns:xlink="http://www.w3.org/1999/xlink" x="0px" y="0px"
	 width="18px" height="18px" viewBox="0 0 18 18" enable-background="new 0 0 18 18" xml:space="preserve">
<path fill="#3F403F" d="M7.927,11.802c-3.423,0-6.325-0.078-7.405-0.657H0.066v1.7v0.893h0.013
	c-0.006,0.015-0.013,0.029-0.013,0.043c0,0.822,3.523,1.652,7.861,1.652c0.422,0,0.836-0.008,1.237-0.022
	c-0.772-0.979-1.237-2.208-1.237-3.552V11.802z"/>
<path fill="#3F403F" d="M7.927,10.759h0.107c0.222-1.116,0.765-2.117,1.53-2.902c-0.53,0.028-1.072,0.042-1.638,0.042
	c-3.423,0-6.325-0.464-7.405-1.043H0.066v1.7v0.894h0.013C0.073,9.465,0.066,9.478,0.066,9.493
	C0.066,10.314,3.589,10.759,7.927,10.759z"/>
<path fill="#3F403F" d="M7.927,6.799c1.223,0,2.374-0.065,3.409-0.165c0.709-0.313,1.486-0.494,2.31-0.494
	c0.156,0,0.307,0.015,0.465,0.023c1.05-0.272,1.679-0.609,1.679-0.958c0-0.014-0.007-0.028-0.015-0.05h0.015V4.712V3.997V3.554
	h-0.022c0.008-0.022,0.022-0.037,0.022-0.049c0-0.823-3.524-1.651-7.862-1.651c-4.337,0-7.861,0.828-7.861,1.651
	c0,0.013,0.013,0.027,0.022,0.049H0.066v1.601h0.013C0.073,5.176,0.066,5.19,0.066,5.205C0.066,6.026,3.589,6.799,7.927,6.799z"/>
<path fill="#185691" d="M13.646,7.571c-2.365,0-4.289,1.922-4.289,4.288c0,2.366,1.923,4.288,4.289,4.288
	c2.364,0,4.288-1.922,4.288-4.288C17.934,9.493,16.01,7.571,13.646,7.571z M13.646,14.003v-1.431h-2.145v-1.428h2.145V9.714
	l2.858,2.145L13.646,14.003z"/>
<polygon display="none" fill="#333333" points="17.399,10.888 13.637,10.888 13.637,13.394 17.399,13.394 17.399,15.903 
	22.415,12.141 17.399,8.378 "/>
</svg>
