<svg id="Group_27" data-name="Group 27" xmlns="http://www.w3.org/2000/svg" width="48.703" height="60" viewBox="0 0 48.703 60">
  <path id="Path_63" data-name="Path 63" d="M0,4.016H4.016V0H0Z" transform="translate(11.047 11.047)" fill="#8596ca"/>
  <path id="Path_64" data-name="Path 64" d="M2.949,0H14.033L0,14.033V2.949A2.953,2.953,0,0,1,2.949,0Z" transform="translate(33.641 44.938)" fill="#8596ca"/>
  <path id="Path_65" data-name="Path 65" d="M0,4.016H4.016V0H0Z" transform="translate(11.047 26.109)" fill="#8596ca"/>
  <path id="Path_66" data-name="Path 66" d="M36.59,41.422a6.472,6.472,0,0,0-6.465,6.465V60H6.465A6.472,6.472,0,0,1,0,53.535V6.465A6.472,6.472,0,0,1,6.465,0H42.238A6.472,6.472,0,0,1,48.7,6.465V41.422Zm-4.707-7.781a1.758,1.758,0,1,0,0-3.516H24.352a1.758,1.758,0,1,0,0,3.516ZM9.289,50.586H18.7a1.758,1.758,0,1,0,0-3.516H9.289a1.758,1.758,0,1,0,0,3.516Zm0-7.531H24.352a1.758,1.758,0,1,0,0-3.516H9.289a1.758,1.758,0,1,0,0,3.516ZM18.578,9.289A1.758,1.758,0,0,0,16.82,7.531H9.289A1.758,1.758,0,0,0,7.531,9.289V16.82a1.758,1.758,0,0,0,1.758,1.758H16.82a1.758,1.758,0,0,0,1.758-1.758Zm0,15.062a1.758,1.758,0,0,0-1.758-1.758H9.289a1.758,1.758,0,0,0-1.758,1.758v7.531a1.758,1.758,0,0,0,1.758,1.758H16.82a1.758,1.758,0,0,0,1.758-1.758ZM39.414,7.531H24.352a1.758,1.758,0,1,0,0,3.516H39.414a1.758,1.758,0,0,0,0-3.516ZM22.594,16.82a1.758,1.758,0,0,0,1.758,1.758h7.531a1.758,1.758,0,1,0,0-3.516H24.352A1.758,1.758,0,0,0,22.594,16.82Zm16.82,5.773H24.352a1.758,1.758,0,1,0,0,3.516H39.414a1.758,1.758,0,0,0,0-3.516Z" transform="translate(0 0)" fill="#8596ca"/>
</svg>
