<svg xmlns="http://www.w3.org/2000/svg" width="19.625" height="21.625" viewBox="0 0 19.625 21.625">
  <defs>
    <style>
      .cls-1 {
        fill: #8596ca;
        fill-rule: evenodd;
      }
    </style>
  </defs>
  <path class="cls-1" d="M52.51,403.626h2.4l-3.678-3.841v2.57A1.276,1.276,0,0,0,52.51,403.626Zm-3.987,9.686H44.261a0.389,0.389,0,1,1,0-.778h4.522a6.887,6.887,0,0,1,1-1.7H44.261a0.39,0.39,0,1,1,0-.779h6.263a6.782,6.782,0,0,1,4.438-1.674c0.162,0,.294.014,0.49,0.029v-4H52.51a2.059,2.059,0,0,1-2.06-2.05V399.2H42.928a1.749,1.749,0,0,0-1.746,1.757v14.856a1.732,1.732,0,0,0,1.746,1.738h5.909A6.6,6.6,0,0,1,48.523,413.312Zm-4.262-5.695H49.23a0.39,0.39,0,1,1,0,.779H44.261A0.39,0.39,0,1,1,44.261,407.617Zm10.7,1.553a5.817,5.817,0,1,0,5.86,5.817A5.845,5.845,0,0,0,54.958,409.17Zm-0.01,5.4a2.122,2.122,0,0,1,.358,4.216v0.564a0.392,0.392,0,0,1-.785,0v-0.579a2.133,2.133,0,0,1-1.711-2.079,0.392,0.392,0,0,1,.785,0,1.354,1.354,0,1,0,1.354-1.343,2.12,2.12,0,0,1-.427-4.2v-0.413a0.392,0.392,0,0,1,.785,0v0.394a2.128,2.128,0,0,1,1.78,2.093,0.392,0.392,0,0,1-.785,0,1.355,1.355,0,0,0-1.265-1.344,0.359,0.359,0,0,1-.128.02,0.437,0.437,0,0,1-.113-0.015A1.347,1.347,0,0,0,54.948,414.568Z" transform="translate(-41.188 -399.188)"/>
</svg>
