<svg xmlns="http://www.w3.org/2000/svg" width="18.688" height="18.688" viewBox="0 0 18.688 18.688">
  <defs>
    <style>
      .cls-1 {
        fill: #8596ca;
        fill-rule: evenodd;
      }
    </style>
  </defs>
  <path class="cls-1" d="M58.6,372.806a9.308,9.308,0,0,0-3.4-3.4,9.412,9.412,0,0,0-9.388,0,9.306,9.306,0,0,0-3.4,3.4,9.411,9.411,0,0,0,0,9.388,9.315,9.315,0,0,0,3.4,3.4,9.412,9.412,0,0,0,9.388,0,9.316,9.316,0,0,0,3.4-3.4A9.414,9.414,0,0,0,58.6,372.806Zm-2.034,3.269-6.611,6.612a0.763,0.763,0,0,1-.56.231,0.75,0.75,0,0,1-.548-0.231l-4.408-4.408a0.742,0.742,0,0,1-.219-0.548,0.758,0.758,0,0,1,.219-0.56l1.108-1.1a0.766,0.766,0,0,1,1.1,0l2.752,2.752,4.968-4.955a0.763,0.763,0,0,1,1.1,0l1.108,1.095a0.757,0.757,0,0,1,.219.56A0.74,0.74,0,0,1,56.564,376.075Z" transform="translate(-41.156 -368.156)"/>
</svg>
