<svg xmlns="http://www.w3.org/2000/svg" width="31.519" height="27" viewBox="0 0 31.519 27">
  <g id="Group_21" data-name="Group 21" transform="translate(-927.481 -361)">
    <path id="Subtraction_3" data-name="Subtraction 3" d="M20.323,25.1H9.779V23.968c0-.2.006-.4.019-.6a9.5,9.5,0,0,1,9.488-8.907h.589a9.515,9.515,0,0,1,2.752.4,7,7,0,0,0-2.3,10.229ZM8.261,19.168H.481V16.356a6.66,6.66,0,0,1,7.718-5.4l.364.065a6.646,6.646,0,0,1,4.1,2.471,8.728,8.728,0,0,0-.96.583,8.564,8.564,0,0,0-3.44,5.1ZM19.58,12.5a6.089,6.089,0,0,1-5.9-6.252A6.089,6.089,0,0,1,19.58,0a6.09,6.09,0,0,1,5.9,6.252A6.09,6.09,0,0,1,19.58,12.5ZM7.692,9.961H7.662A3.688,3.688,0,0,1,4.96,8.74,4.136,4.136,0,0,1,3.884,5.9a3.94,3.94,0,0,1,3.814-4h.03a3.683,3.683,0,0,1,2.7,1.221,4.2,4.2,0,0,1-.047,5.668A3.684,3.684,0,0,1,7.692,9.961Z" transform="translate(927 361)" fill="#8596ca"/>
    <path id="Subtraction_4" data-name="Subtraction 4" d="M6,12a6,6,0,1,1,6-6A6.007,6.007,0,0,1,6,12ZM4.118,6.953a.619.619,0,0,0-.618.619,2.071,2.071,0,0,0,1.856,1.9v.068a.619.619,0,0,0,1.238,0V9.476a2.071,2.071,0,0,0,1.857-1.9c0-1.3-.992-1.843-1.857-2.174V3.464c.371.135.619.387.619.627a.619.619,0,0,0,1.237,0A2.071,2.071,0,0,0,6.593,2.186V2.119a.619.619,0,0,0-1.238,0v.067A2.071,2.071,0,0,0,3.5,4.091c0,1.3.992,1.842,1.856,2.173V8.2c-.37-.135-.618-.387-.618-.626A.62.62,0,0,0,4.118,6.953ZM6.593,8.2h0V6.755c.518.268.619.5.619.817,0,.239-.248.491-.618.626ZM5.356,4.908h0c-.516-.268-.617-.5-.617-.816,0-.24.248-.492.618-.627V4.908Z" transform="translate(947 376)" fill="#8596ca"/>
  </g>
</svg>
