<?xml version="1.0" encoding="utf-8"?>
<!-- Generator: Adobe Illustrator 16.0.0, SVG Export Plug-In . SVG Version: 6.00 Build 0)  -->
<!DOCTYPE svg PUBLIC "-//W3C//DTD SVG 1.1//EN" "http://www.w3.org/Graphics/SVG/1.1/DTD/svg11.dtd">
<svg version="1.1"
	 id="svg2" xmlns:rdf="http://www.w3.org/1999/02/22-rdf-syntax-ns#" xmlns:svg="http://www.w3.org/2000/svg" xmlns:inkscape="http://www.inkscape.org/namespaces/inkscape" xmlns:dc="http://purl.org/dc/elements/1.1/" xmlns:cc="http://creativecommons.org/ns#" xmlns:sodipodi="http://sodipodi.sourceforge.net/DTD/sodipodi-0.dtd"
	 xmlns="http://www.w3.org/2000/svg" xmlns:xlink="http://www.w3.org/1999/xlink" x="0px" y="0px" width="28px" height="28px"
	 viewBox="0 0 28 28" enable-background="new 0 0 28 28" xml:space="preserve">
<path id="Rectangle-40" fill="#9A5656" d="M3.177,24.816h0.007C3.182,24.818,3.18,24.816,3.177,24.816z M24.824,24.816
	c-0.004,0-0.006,0-0.006,0H24.824z M24.818,24.816c-0.002,0-0.002-6.18-0.002-18.539c0-0.001-7.211-0.002-21.633-0.003
	c0,0,0.001,6.18,0.001,18.542C3.184,24.814,10.395,24.814,24.818,24.816z M0.094,6.278c0-1.708,1.379-3.094,3.083-3.094h21.647
	c1.701,0,3.082,1.382,3.082,3.093v18.537c0,1.707-1.381,3.093-3.082,3.093H3.177c-1.703,0-3.083-1.381-3.083-3.092V6.278z
	 M21.726,3.184v3.09h3.091v-3.09H21.726z M9.365,3.184v3.09h3.09v-3.09H9.365z"/>
<rect id="Rectangle-35" x="6.274" y="18.636" fill="#9A5656" width="3.091" height="3.09"/>
<rect id="Rectangle-35_1_" x="12.455" y="18.636" fill="#9A5656" width="3.09" height="3.09"/>
<rect id="Rectangle-35_2_" x="12.455" y="12.455" fill="#9A5656" width="3.09" height="3.09"/>
<rect id="Rectangle-35_3_" x="6.274" y="12.455" fill="#9A5656" width="3.091" height="3.09"/>
<rect id="Rectangle-35_4_" x="18.636" y="12.455" fill="#9A5656" width="3.09" height="3.09"/>
<rect id="Rectangle-43" x="6.274" y="0.094" fill="#9A5656" width="3.091" height="7.726"/>
<rect id="Rectangle-43_1_" x="18.636" y="0.094" fill="#9A5656" width="3.09" height="7.726"/>
</svg>
