<?xml version="1.0" encoding="utf-8"?>
<!-- Generator: Adobe Illustrator 16.0.3, SVG Export Plug-In . SVG Version: 6.00 Build 0)  -->
<!DOCTYPE svg PUBLIC "-//W3C//DTD SVG 1.1//EN" "http://www.w3.org/Graphics/SVG/1.1/DTD/svg11.dtd">
<svg version="1.1" id="Layer_1" xmlns="http://www.w3.org/2000/svg" xmlns:xlink="http://www.w3.org/1999/xlink" x="0px" y="0px"
	 width="18px" height="18px" viewBox="0 0 18 18" enable-background="new 0 0 18 18" xml:space="preserve">
<path id="home" fill="#FFFFFF" d="M8.113,12.635V18H2.7c-0.993-0.002-1.799-0.807-1.8-1.799V8.079
	C0.932,7.26,1.271,6.484,1.854,5.907l5.871-5.415c0.723-0.656,1.826-0.656,2.549,0l5.872,5.415c0.581,0.577,0.923,1.354,0.954,2.172
	v8.123C17.098,17.195,16.291,18,15.297,18l0,0H9.904v-5.365H8.113z M6.314,16.199v-5.363h5.391v5.363h3.592c0,0,0-2.707,0-8.121
	c-0.029-0.315-0.16-0.612-0.371-0.849L9.054,1.815c-0.032-0.021-0.075-0.021-0.108,0L3.074,7.23
	c-0.211,0.236-0.34,0.533-0.371,0.849v8.123L6.314,16.199z"/>
</svg>
