<svg xmlns="http://www.w3.org/2000/svg" width="17.688" height="13.906" viewBox="0 0 17.688 13.906">
  <defs>
    <style>
      .cls-1 {
        fill: #8596ca;
        fill-rule: evenodd;
      }
    </style>
  </defs>
  <path class="cls-1" d="M21.98,127.283q0.336,0.235,2.024,1.406t2.587,1.8q0.1,0.069.42,0.3t0.533,0.375q0.212,0.142.514,0.32a2.942,2.942,0,0,0,.568.266,1.549,1.549,0,0,0,.494.089h0.02a1.549,1.549,0,0,0,.494-0.089,3,3,0,0,0,.568-0.266q0.3-.177.514-0.32t0.533-.375q0.321-.233.42-0.3l4.621-3.208a4.69,4.69,0,0,0,1.2-1.213,2.607,2.607,0,0,0,.484-1.49A1.593,1.593,0,0,0,36.4,123H21.861a1.411,1.411,0,0,0-1.17.513,1.991,1.991,0,0,0-.41,1.283,2.306,2.306,0,0,0,.543,1.347A4.924,4.924,0,0,0,21.98,127.283Zm15.009,1.055q-3.239,2.192-4.917,3.405-0.563.414-.913,0.646a5.6,5.6,0,0,1-.933.474,2.847,2.847,0,0,1-1.086.241h-0.02a2.849,2.849,0,0,1-1.086-.241,5.6,5.6,0,0,1-.933-0.474q-0.351-.231-0.913-0.646-1.333-.976-4.908-3.405a5.211,5.211,0,0,1-1-.858v7.835a1.584,1.584,0,0,0,1.58,1.579H36.4a1.584,1.584,0,0,0,1.58-1.579V127.48A5.409,5.409,0,0,1,36.989,128.338Z" transform="translate(-20.281 -123)"/>
</svg>
