<?xml version="1.0" encoding="utf-8"?>
<!-- Generator: Adobe Illustrator 16.0.3, SVG Export Plug-In . SVG Version: 6.00 Build 0)  -->
<!DOCTYPE svg PUBLIC "-//W3C//DTD SVG 1.1//EN" "http://www.w3.org/Graphics/SVG/1.1/DTD/svg11.dtd">
<svg version="1.1" id="Capa_1" xmlns="http://www.w3.org/2000/svg" xmlns:xlink="http://www.w3.org/1999/xlink" x="0px" y="0px"
	 width="19px" height="19px" viewBox="-1 -1 19 19" enable-background="new -1 -1 19 19" xml:space="preserve">
<g>
	<g>
		<g>
			<path fill="#FFFFFF" d="M16.565,0.816H3.571c-0.78,0-1.404,0.642-1.404,1.403v8.074c0,0.781,0.642,1.404,1.404,1.404h8.958
				l2.026,2.045c0.088,0.087,0.192,0.139,0.312,0.139c0.244,0,0.45-0.19,0.45-0.45v-1.733h1.248c0.777,0,1.403-0.641,1.403-1.404
				V2.219C17.969,1.44,17.327,0.816,16.565,0.816z M5.564,7.764c-0.71,0-1.301-0.589-1.301-1.3c0-0.71,0.59-1.3,1.301-1.3
				c0.71,0,1.3,0.589,1.3,1.3C6.864,7.174,6.291,7.764,5.564,7.764z M10.121,7.764c-0.712,0-1.3-0.589-1.3-1.3
				c0-0.71,0.588-1.3,1.3-1.3c0.709,0,1.299,0.589,1.299,1.3C11.42,7.174,10.83,7.764,10.121,7.764z M14.659,7.764
				c-0.711,0-1.299-0.589-1.299-1.3c0-0.71,0.588-1.3,1.299-1.3s1.299,0.589,1.299,1.3C15.958,7.174,15.37,7.764,14.659,7.764z"/>
			<path fill="#FFFFFF" d="M1.371,10.327V7.573h-1.42c-0.503,0-0.919,0.416-0.919,0.918v5.303c-0.018,0.535,0.399,0.952,0.918,0.952
				h0.814v1.142c0,0.157,0.139,0.297,0.295,0.297c0.087,0,0.156-0.035,0.208-0.087l1.334-1.334h5.891
				c0.502,0,0.917-0.416,0.917-0.918v-1.317H3.571C2.358,12.528,1.371,11.539,1.371,10.327z"/>
		</g>
	</g>
</g>
</svg>
