<?xml version="1.0" encoding="utf-8"?>
<!-- Generator: Adobe Illustrator 23.0.3, SVG Export Plug-In . SVG Version: 6.00 Build 0)  -->
<svg version="1.1" xmlns="http://www.w3.org/2000/svg" xmlns:xlink="http://www.w3.org/1999/xlink" x="0px" y="0px" width="100px"
	 height="100px" viewBox="0 0 100 100" style="enable-background:new 0 0 100 100;" xml:space="preserve">
<style type="text/css">
	.st0{display:none;}
	.st1{display:inline;}
	.st2{fill:#8797CA;}
	.st3{fill:#F7911E;}
	.st4{fill:#566181;}
	.st5{fill:#FEDC0E;}
</style>
<g id="Layer_1" class="st0">
	<g class="st1">
		<path class="st2" d="M89.3,10.6v10H71.7v-10c0-4.8,3.9-8.8,8.8-8.8h0C85.4,1.8,89.3,5.7,89.3,10.6L89.3,10.6z"/>
		<path class="st3" d="M55.7,67.5c3.6-5.3,9.6-8.4,16-8.5c0.1,0,0.1,0,0.2,0c10.8,0,19.6,8.8,19.6,19.6c0,10.8-8.8,19.6-19.6,19.6
			c-10.8,0-19.6-8.8-19.6-19.6C52.3,74.6,53.5,70.7,55.7,67.5L55.7,67.5z"/>
		<path class="st4" d="M55.7,67.5c-4.1,5.9-4.6,13.6-1.4,20c-18.7,0-45.9,0-45.9,0l0.4-77.3c0-4.6,3.8-8.3,8.4-8.3h63.2
			c-4.8,0-8.8,3.9-8.8,8.8V59C65.3,59,59.4,62.2,55.7,67.5L55.7,67.5z"/>
		<path class="st2" d="M39.9,13.4c7.9,0,14.2,6.4,14.2,14.2c0,7.9-6.4,14.2-14.2,14.2s-14.2-6.4-14.2-14.2c0,0,0,0,0,0
			C25.7,19.7,32.1,13.4,39.9,13.4z"/>
		<path class="st4" d="M39.9,26.8c-1.4,0-2.5-1.1-2.5-2.5c0-1.4,1.1-2.5,2.5-2.5c1.4,0,2.5,1.1,2.5,2.5v0c0,0.7,0.5,1.2,1.2,1.2
			c0.7,0,1.2-0.5,1.2-1.2c0-2.3-1.7-4.4-4-4.8v-0.9c0-0.7-0.5-1.2-1.2-1.2c-0.7,0-1.2,0.5-1.2,1.2v1c-2.6,0.8-4,3.6-3.1,6.1
			c0.7,2,2.5,3.4,4.6,3.4c1.4,0,2.5,1.1,2.5,2.5c0,1.4-1.1,2.5-2.5,2.5c-1.4,0-2.5-1.1-2.5-2.5c0-0.7-0.5-1.2-1.2-1.2
			c-0.7,0-1.2,0.5-1.2,1.2c0,2.3,1.6,4.2,3.8,4.8v1.2c0,0.7,0.5,1.2,1.2,1.2s1.2-0.5,1.2-1.2v-1.2c2.6-0.7,4.1-3.4,3.4-6
			C44.1,28.3,42.1,26.8,39.9,26.8L39.9,26.8z"/>
		<g>
			<path class="st2" d="M63.8,52.7H16.5c-0.7,0-1.2-0.5-1.2-1.2c0-0.7,0.5-1.2,1.2-1.2h47.3c0.7,0,1.2,0.5,1.2,1.2
				C65,52.2,64.4,52.7,63.8,52.7z"/>
			<path class="st2" d="M63.8,60.7H16.5c-0.7,0-1.2-0.5-1.2-1.2c0-0.7,0.5-1.2,1.2-1.2h47.3c0.7,0,1.2,0.5,1.2,1.2
				C65,60.1,64.4,60.7,63.8,60.7z"/>
			<path class="st2" d="M55.8,68.7H16.5c-0.7,0-1.2-0.5-1.2-1.2c0-0.7,0.5-1.2,1.2-1.2h39.3c0.7,0,1.2,0.5,1.2,1.2
				C57,68.1,56.4,68.7,55.8,68.7z"/>
			<path class="st2" d="M52.5,76.6h-36c-0.7,0-1.2-0.5-1.2-1.2c0-0.7,0.5-1.2,1.2-1.2h36c0.7,0,1.2,0.5,1.2,1.2
				C53.7,76.1,53.1,76.6,52.5,76.6z"/>
		</g>
		<path class="st5" d="M69.2,86.5L69.2,86.5c-0.5,0-0.9-0.2-1.2-0.5l-7-7.1c-0.7-0.7-0.6-1.8,0-2.4c0.7-0.7,1.7-0.6,2.4,0l5.8,5.8
			l11.3-11.3c0.7-0.7,1.7-0.7,2.4,0c0.7,0.7,0.7,1.7,0,2.4l0,0L70.4,86C70,86.3,69.6,86.5,69.2,86.5L69.2,86.5z"/>
	</g>
</g>
<g id="Layer_2">
	<g>
		<path class="st4" d="M94.9,38.9l0.4-0.5l0.7,0.5v53.9c0,1.7-1.4,3.2-3.2,3.2H7.2C5.4,96,4,94.6,4,92.8V38.9l0.7-0.5l0.4,0.5H94.9z
			"/>
		<path class="st2" d="M95.3,38.4l-0.4,0.5L51.6,72.2h-3.2L5.1,38.9l-0.4-0.5l15.2-11.8l20.9-16.2l7.3-5.7c1.1-0.9,2.7-0.9,3.8,0
			l7.3,5.7l20.9,16.2L95.3,38.4z"/>
		<path class="st3" d="M80.1,13.5v36.8L51.6,72.2h-3.2L19.9,50.3V13.5c0-1.7,1.4-3.2,3.2-3.2H77C78.7,10.4,80.1,11.8,80.1,13.5z"/>
		<g>
			<path class="st5" d="M34.1,23h31.7c0.9,0,1.6-0.7,1.6-1.6c0-0.9-0.7-1.6-1.6-1.6H34.1c-0.9,0-1.6,0.7-1.6,1.6
				C32.6,22.3,33.3,23,34.1,23z"/>
			<path class="st5" d="M65.9,29.4H34.1c-0.9,0-1.6,0.7-1.6,1.6s0.7,1.6,1.6,1.6h31.7c0.9,0,1.6-0.7,1.6-1.6S66.7,29.4,65.9,29.4z"
				/>
			<path class="st5" d="M65.9,38.9H51.6c-0.9,0-1.6,0.7-1.6,1.6s0.7,1.6,1.6,1.6h14.3c0.9,0,1.6-0.7,1.6-1.6S66.7,38.9,65.9,38.9z"
				/>
		</g>
		<path class="st2" d="M95.4,94.7c-0.6,0.8-1.5,1.3-2.6,1.3H7.2c-1,0-2-0.5-2.6-1.3L41,66.5l7.1-5.5c1.1-0.9,2.7-0.9,3.8,0l7.1,5.5
			L95.4,94.7z"/>
	</g>
</g>
</svg>
