<svg xmlns="http://www.w3.org/2000/svg" width="22" height="27" viewBox="0 0 22 27">
  <defs>
    <style>
      .cls-1 {
        fill: #8596ca;
        fill-rule: evenodd;
      }
    </style>
  </defs>
  <path class="cls-1" d="M51.086,234.426H50.492a0.575,0.575,0,0,1-.575-0.575v-0.019a1.334,1.334,0,0,0-1.335-1.335H48.552a1.334,1.334,0,0,0-1.335,1.335v0.019a0.575,0.575,0,0,1-.575.575H46.048a1.146,1.146,0,0,0-1.146,1.146V235.6a1.146,1.146,0,0,0,1.146,1.146h5.038a1.146,1.146,0,0,0,1.145-1.146v-0.023A1.146,1.146,0,0,0,51.086,234.426Zm-2.519,0a0.579,0.579,0,1,1,.579-0.579A0.579,0.579,0,0,1,48.567,234.426ZM51.143,256.8H41.431a1.542,1.542,0,0,1-1.543-1.543V236.741a1.541,1.541,0,0,1,1.157-1.544h3.126a2,2,0,0,0-.04.4,1.919,1.919,0,0,0,1.917,1.917h5.037a1.935,1.935,0,0,0,1.879-2.315h2.352a1.667,1.667,0,0,1,1.929,1.544v11.593c-0.128-.008-0.256-0.019-0.386-0.019a6.138,6.138,0,0,0-1.543.2v-9.077h-13.5v15.432h8.891A6.116,6.116,0,0,0,51.143,256.8Zm5.717-7.33a5.016,5.016,0,1,0,5.014,5.016A5.015,5.015,0,0,0,56.86,249.472Zm3.276,3.985-3.086,3.472a0.771,0.771,0,0,1-1.058.09l-1.929-1.543a0.772,0.772,0,1,1,.964-1.205l1.357,1.085,2.6-2.924A0.771,0.771,0,0,1,60.137,253.457ZM53.389,246H47.217a0.386,0.386,0,0,1-.386-0.386v-0.386a0.385,0.385,0,0,1,.386-0.385h6.172a0.385,0.385,0,0,1,.386.385v0.386A0.386,0.386,0,0,1,53.389,246Zm0-3.472H47.217a0.386,0.386,0,0,1-.386-0.386v-0.386a0.386,0.386,0,0,1,.386-0.386h6.172a0.386,0.386,0,0,1,.386.386v0.386A0.386,0.386,0,0,1,53.389,242.528Zm-1.929,6.558H47.217a0.385,0.385,0,0,1-.386-0.385v-0.386a0.386,0.386,0,0,1,.386-0.386H51.46a0.386,0.386,0,0,1,.386.386V248.7A0.385,0.385,0,0,1,51.46,249.086Zm-0.771,3.473H47.217a0.386,0.386,0,0,1-.386-0.386v-0.386a0.386,0.386,0,0,1,.386-0.386h3.471a0.386,0.386,0,0,1,.386.386v0.386A0.386,0.386,0,0,1,50.688,252.559Zm-4.6-11.458-1.421,1.6a0.354,0.354,0,0,1-.487.042L43.3,242.03a0.355,0.355,0,1,1,.444-0.554l0.624,0.5,1.2-1.346A0.355,0.355,0,1,1,46.093,241.1Zm0,3.432-1.421,1.6a0.355,0.355,0,0,1-.487.041l-0.888-.71a0.355,0.355,0,0,1,.444-0.555l0.624,0.5,1.2-1.347A0.355,0.355,0,0,1,46.093,244.533Zm0,3.283-1.421,1.6a0.355,0.355,0,0,1-.487.041l-0.888-.711a0.355,0.355,0,1,1,.444-0.554l0.624,0.5,1.2-1.346A0.355,0.355,0,1,1,46.093,247.816Zm0,3.306-1.421,1.6a0.357,0.357,0,0,1-.487.042l-0.888-.711a0.355,0.355,0,0,1,.444-0.555l0.624,0.5,1.2-1.346A0.355,0.355,0,1,1,46.093,251.122Z" transform="translate(-39.875 -232.5)"/>
</svg>
