<svg xmlns="http://www.w3.org/2000/svg" width="18" height="12.75" viewBox="0 0 18 12.75">
  <g id="Group_11" data-name="Group 11" transform="translate(0 -3)">
    <g id="new" transform="translate(0 -71.667)">
      <g id="Group_2" data-name="Group 2" transform="translate(3.118 78.941)">
        <g id="Group_1" data-name="Group 1" transform="translate(0 0)">
          <path id="Path_1" data-name="Path 1" d="M109.607,202.665a.42.42,0,0,0-.42.42v2.1l-1.765-2.353a.42.42,0,0,0-.756.252v3.361a.42.42,0,1,0,.84,0v-2.1l1.765,2.353a.421.421,0,0,0,.336.168.4.4,0,0,0,.133-.022.42.42,0,0,0,.287-.4v-3.361A.42.42,0,0,0,109.607,202.665Z" transform="translate(-106.666 -202.665)" fill="#d10101"/>
        </g>
      </g>
      <g id="Group_4" data-name="Group 4" transform="translate(7.319 78.941)">
        <g id="Group_3" data-name="Group 3">
          <path id="Path_2" data-name="Path 2" d="M215.434,206.027h-1.261v-2.521h1.261a.42.42,0,1,0,0-.84h-1.681a.42.42,0,0,0-.42.42v3.361a.42.42,0,0,0,.42.42h1.681a.42.42,0,1,0,0-.84Z" transform="translate(-213.333 -202.666)" fill="#d10101"/>
        </g>
      </g>
      <g id="Group_6" data-name="Group 6" transform="translate(7.5 80.667)">
        <g id="Group_5" data-name="Group 5" transform="translate(0 0)">
          <path id="Path_3" data-name="Path 3" d="M215.208,245.333h-1.5a.375.375,0,1,0,0,.75h1.5a.375.375,0,1,0,0-.75Z" transform="translate(-213.333 -245.333)" fill="#d10101"/>
        </g>
      </g>
      <g id="Group_8" data-name="Group 8" transform="translate(10.681 78.941)">
        <g id="Group_7" data-name="Group 7" transform="translate(0 0)">
          <path id="Path_4" data-name="Path 4" d="M302.557,202.671a.418.418,0,0,0-.509.306l-.49,1.961-.384-1.152a.438.438,0,0,0-.8,0l-.384,1.152-.49-1.961a.42.42,0,0,0-.815.2l.84,3.361a.42.42,0,0,0,.392.318.4.4,0,0,0,.415-.287l.441-1.325.441,1.325a.421.421,0,0,0,.4.287h.015a.419.419,0,0,0,.392-.318l.84-3.361A.419.419,0,0,0,302.557,202.671Z" transform="translate(-298.675 -202.658)" fill="#d10101"/>
        </g>
      </g>
      <g id="Group_10" data-name="Group 10" transform="translate(0 74.667)">
        <g id="Group_9" data-name="Group 9" transform="translate(0 0)">
          <path id="Path_5" data-name="Path 5" d="M15.375,74.667H2.625A2.628,2.628,0,0,0,0,77.292v7.5a2.628,2.628,0,0,0,2.625,2.625h12.75A2.628,2.628,0,0,0,18,84.792v-7.5A2.628,2.628,0,0,0,15.375,74.667ZM17.25,84.792a1.877,1.877,0,0,1-1.875,1.875H2.625A1.877,1.877,0,0,1,.75,84.792v-7.5a1.877,1.877,0,0,1,1.875-1.875h12.75a1.877,1.877,0,0,1,1.875,1.875Z" transform="translate(0 -74.667)" fill="#d10101"/>
        </g>
      </g>
    </g>
  </g>
</svg>
