<?xml version="1.0" encoding="utf-8"?>
<!-- Generator: Adobe Illustrator 16.0.3, SVG Export Plug-In . SVG Version: 6.00 Build 0)  -->
<!DOCTYPE svg PUBLIC "-//W3C//DTD SVG 1.1//EN" "http://www.w3.org/Graphics/SVG/1.1/DTD/svg11.dtd">
<svg version="1.1" id="Layer_1" xmlns="http://www.w3.org/2000/svg" xmlns:xlink="http://www.w3.org/1999/xlink" x="0px" y="0px"
	 width="17px" height="17px" viewBox="0 0 17 17" enable-background="new 0 0 17 17" xml:space="preserve">
<g>
	<path fill="#969696" d="M8.513,6.66c1.836,0,3.329-1.493,3.329-3.331C11.842,1.494,10.35,0,8.513,0c-1.836,0-3.33,1.494-3.33,3.329
		C5.183,5.167,6.677,6.66,8.513,6.66z M6.902,2.974c0.196-0.197,0.515-0.197,0.711,0l0.48,0.482l1.318-1.318
		c0.196-0.195,0.515-0.195,0.71,0c0.198,0.197,0.198,0.515,0,0.712L8.45,4.523C8.352,4.62,8.223,4.669,8.094,4.669
		S7.836,4.62,7.738,4.523L6.902,3.686C6.706,3.489,6.706,3.17,6.902,2.974z"/>
	<path fill="#969696" d="M1.958,4.864c1.08,0,1.958-0.878,1.958-1.958c0-1.08-0.878-1.958-1.958-1.958S0,1.826,0,2.906
		C0,3.986,0.878,4.864,1.958,4.864z"/>
	<path fill="#969696" d="M0.193,7.668v4.066c0,0.937,0.757,1.693,1.692,1.693h2.205v3.005c0,0.229,0.186,0.413,0.414,0.413h1.954
		c0.229,0,0.415-0.185,0.415-0.413v-4.334c0-0.79-0.639-1.428-1.428-1.428H3.724V7.668c0-0.974-0.791-1.765-1.766-1.765
		C0.983,5.903,0.193,6.694,0.193,7.668z"/>
	<path fill="#969696" d="M15.067,4.864c1.08,0,1.957-0.878,1.957-1.958c0-1.08-0.877-1.958-1.957-1.958
		c-1.081,0-1.959,0.878-1.959,1.958C13.108,3.986,13.986,4.864,15.067,4.864z"/>
	<path fill="#969696" d="M13.302,7.668v3.003h-1.719c-0.789,0-1.428,0.638-1.428,1.428v4.334c0,0.229,0.185,0.413,0.413,0.413h1.954
		c0.229,0,0.413-0.185,0.413-0.413v-3.005h2.205c0.937,0,1.693-0.757,1.693-1.693V7.668c0-0.974-0.791-1.765-1.767-1.765
		S13.302,6.694,13.302,7.668L13.302,7.668z"/>
	<path fill="#969696" d="M11.443,8.701c0.277,0,0.504-0.224,0.504-0.503c0-0.277-0.227-0.503-0.504-0.503H5.582
		c-0.277,0-0.503,0.226-0.503,0.503c0,0.279,0.226,0.503,0.503,0.503h2.427v7.82c0,0.278,0.226,0.503,0.504,0.503
		c0.277,0,0.502-0.226,0.502-0.503v-7.82H11.443z"/>
</g>
</svg>
