<svg xmlns="http://www.w3.org/2000/svg" width="18.688" height="24.344" viewBox="0 0 18.688 24.344">
  <defs>
    <style>
      .cls-1 {
        fill: #556080;
        fill-rule: evenodd;
      }
    </style>
  </defs>
  <path class="cls-1" d="M693.025,609.674h-0.474v-2.219a7.565,7.565,0,0,0-7.329-7.607c-0.111,0-.333,0-0.445,0a7.566,7.566,0,0,0-7.329,7.607v2.219h-0.474a1.541,1.541,0,0,0-1.327,1.686v11.132a1.546,1.546,0,0,0,1.327,1.691h16.051a1.546,1.546,0,0,0,1.327-1.691V611.36A1.541,1.541,0,0,0,693.025,609.674Zm-6.521,7.24v3.364a0.718,0.718,0,0,1-.708.711H684.2a0.718,0.718,0,0,1-.708-0.711v-3.364a2.037,2.037,0,0,1,1.281-3.465c0.112,0,.334,0,0.445,0A2.037,2.037,0,0,1,686.5,616.914Zm2.922-7.24h-8.852v-2.219a4.426,4.426,0,1,1,8.852,0v2.219h0Z" transform="translate(-675.656 -599.844)"/>
</svg>
