<svg xmlns="http://www.w3.org/2000/svg" width="19.813" height="19.781" viewBox="0 0 19.813 19.781">
  <defs>
    <style>
      .cls-1 {
        fill: #8596ca;
        fill-rule: evenodd;
      }
    </style>
  </defs>
  <path class="cls-1" d="M60.444,536.76L57.387,533.7a1.592,1.592,0,0,0-2.247.042l-1.54,1.543c-0.1-.053-0.2-0.11-0.3-0.169a14.45,14.45,0,0,1-6.388-6.4c-0.057-.1-0.112-0.2-0.166-0.3l1.033-1.034,0.508-.51a1.6,1.6,0,0,0,.041-2.253l-3.057-3.064a1.59,1.59,0,0,0-2.247.043l-0.861.868,0.024,0.024a4.992,4.992,0,0,0-.71,1.254,5.229,5.229,0,0,0-.316,1.273c-0.4,3.354,1.125,6.418,5.275,10.577,5.736,5.748,10.359,5.314,10.558,5.293a5.139,5.139,0,0,0,1.273-.321,4.961,4.961,0,0,0,1.248-.708l0.019,0.017,0.873-.857A1.6,1.6,0,0,0,60.444,536.76Z" transform="translate(-41.094 -521.094)"/>
</svg>
