<?xml version="1.0" encoding="utf-8"?>
<!-- Generator: Adobe Illustrator 16.0.3, SVG Export Plug-In . SVG Version: 6.00 Build 0)  -->
<!DOCTYPE svg PUBLIC "-//W3C//DTD SVG 1.1//EN" "http://www.w3.org/Graphics/SVG/1.1/DTD/svg11.dtd">
<svg version="1.1" id="Layer_1" xmlns="http://www.w3.org/2000/svg" xmlns:xlink="http://www.w3.org/1999/xlink" x="0px" y="0px"
	 width="15px" height="15px" viewBox="0 0 15 15" enable-background="new 0 0 15 15" xml:space="preserve">
<rect x="0.031" display="none" fill="#FFFFFF" width="13.104" height="5.222"/>
<rect x="0.031" y="6.563" display="none" fill="#FFFFFF" width="4.391" height="6.563"/>
<rect x="5.945" y="6.563" display="none" fill="#FFFFFF" width="7.188" height="6.563"/>
<rect x="0.514" y="0.516" display="none" fill="none" stroke="#FFFFFF" stroke-miterlimit="10" width="13.472" height="12.882"/>
<rect x="3.128" y="1.885" display="none" fill="#FFFFFF" width="8.242" height="0.786"/>
<rect x="3.128" y="3.511" display="none" fill="#FFFFFF" width="8.242" height="0.787"/>
<polygon display="none" fill="#FFFFFF" points="7.25,4.716 8.457,7.229 11.157,7.633 9.204,9.588 9.665,12.348 7.25,11.043 
	4.834,12.348 5.294,9.588 3.34,7.633 6.042,7.229 "/>
<rect x="4.616" width="9.259" height="3.316"/>
<rect y="0.001" width="3.137" height="13.164"/>
<rect x="4.616" y="6" width="7.8" height="7.166"/>
<circle fill="#3F3F3F" cx="8.93" cy="8.961" r="6.039"/>
<path fill="#FFFFFF" d="M6.361,5.037c0.668-0.098,1.543-0.18,2.655-0.18c1.37,0,2.369,0.279,3.008,0.78
	c0.592,0.445,0.938,1.126,0.938,1.962c0,0.849-0.285,1.518-0.826,2.006c-0.731,0.68-1.924,1.025-3.276,1.025
	c-0.411,0-0.795-0.014-1.111-0.082v3.76H6.361V5.037z M7.745,9.559C8.047,9.631,8.43,9.659,8.891,9.659
	c1.67,0,2.688-0.71,2.688-2.004c0-1.239-1.003-1.836-2.528-1.836c-0.604,0-1.064,0.041-1.304,0.098L7.745,9.559L7.745,9.559z"/>
</svg>
