<?xml version="1.0" encoding="utf-8"?>
<!-- Generator: Adobe Illustrator 16.0.3, SVG Export Plug-In . SVG Version: 6.00 Build 0)  -->
<!DOCTYPE svg PUBLIC "-//W3C//DTD SVG 1.1//EN" "http://www.w3.org/Graphics/SVG/1.1/DTD/svg11.dtd">
<svg version="1.1" id="Layer_1" xmlns="http://www.w3.org/2000/svg" xmlns:xlink="http://www.w3.org/1999/xlink" x="0px" y="0px"
	 width="15px" height="15px" viewBox="0 0 16 17" enable-background="new 0 0 16 17" xml:space="preserve">
<rect x="5.779" y="6.549" width="3.538" height="1.599"/>
<rect x="8.838" y="1.716" width="1.35" height="11.673"/>
<rect x="9.12" y="1.716" width="3.991" height="1.599"/>
<g id="Icons_with_numbers_2_">
	<g id="Group_2_" transform="translate(-288.000000, -336.000000)">
		<path id="Triangle_185_2_" d="M303.083,338.514l-2.621,2.516V336L303.083,338.514z"/>
	</g>
</g>
<rect x="9.509" y="11.791" fill="#D7D7D6" width="3.552" height="1.6"/>
<g id="Icons_with_numbers_3_">
	<g id="Group_3_" transform="translate(-288.000000, -336.000000)">
		<path id="Triangle_185_3_" fill="#FFFFFF" d="M303.083,348.59l-2.621,2.516v-5.027L303.083,348.59z"/>
	</g>
</g>
<path d="M0.031,7.348h8.061l-4.031,5.164L0.031,7.348z"/>
<path d="M8.092,7.391H0.03l4.029-5.122L8.092,7.391z"/>
<ellipse fill="#3F3F3F" cx="10.686" cy="11.81" rx="5.285" ry="5.19"/>
<g enable-background="new    ">
	<path fill="#FFFFFF" d="M13.488,9.223c-0.043,0.055-0.09,0.094-0.139,0.121c-0.051,0.028-0.109,0.043-0.182,0.043
		c-0.082,0-0.175-0.031-0.285-0.093c-0.107-0.062-0.244-0.131-0.408-0.205c-0.162-0.073-0.358-0.142-0.588-0.203
		c-0.229-0.062-0.51-0.093-0.836-0.093c-0.31,0-0.578,0.032-0.813,0.096c-0.233,0.063-0.432,0.147-0.59,0.257
		C9.49,9.254,9.371,9.382,9.291,9.527c-0.081,0.148-0.12,0.31-0.12,0.479c0,0.219,0.068,0.398,0.209,0.541
		c0.142,0.145,0.323,0.266,0.556,0.368c0.229,0.103,0.489,0.188,0.78,0.263c0.291,0.075,0.589,0.151,0.896,0.232
		s0.604,0.169,0.896,0.27c0.291,0.103,0.551,0.229,0.779,0.381c0.23,0.149,0.416,0.34,0.557,0.561
		c0.139,0.221,0.209,0.493,0.209,0.813c0,0.342-0.076,0.664-0.229,0.963c-0.151,0.299-0.373,0.561-0.663,0.779
		c-0.293,0.221-0.65,0.396-1.074,0.522c-0.423,0.126-0.903,0.19-1.442,0.19c-0.664,0-1.267-0.093-1.807-0.274
		c-0.541-0.183-1-0.431-1.385-0.743l0.398-0.499c0.038-0.042,0.084-0.074,0.138-0.101c0.054-0.029,0.114-0.043,0.181-0.043
		c0.061,0,0.131,0.021,0.209,0.058c0.078,0.038,0.167,0.087,0.268,0.144c0.1,0.06,0.213,0.122,0.34,0.191
		c0.129,0.068,0.273,0.133,0.438,0.189c0.166,0.058,0.353,0.106,0.56,0.145c0.207,0.04,0.442,0.059,0.703,0.059
		c0.326,0,0.617-0.033,0.875-0.104c0.254-0.067,0.472-0.166,0.647-0.293c0.179-0.123,0.313-0.271,0.408-0.447
		c0.094-0.175,0.143-0.367,0.143-0.584c0-0.234-0.069-0.429-0.211-0.577c-0.138-0.151-0.321-0.276-0.551-0.379
		c-0.228-0.103-0.485-0.188-0.781-0.26c-0.293-0.07-0.59-0.144-0.894-0.218c-0.305-0.075-0.602-0.16-0.896-0.258
		c-0.295-0.101-0.553-0.228-0.779-0.381c-0.229-0.158-0.412-0.354-0.55-0.587c-0.141-0.231-0.21-0.521-0.21-0.868
		c0-0.275,0.069-0.541,0.21-0.801C8.238,9,8.442,8.773,8.709,8.572c0.268-0.198,0.598-0.359,0.986-0.479
		c0.392-0.119,0.84-0.179,1.347-0.179c0.569,0,1.086,0.069,1.551,0.207c0.468,0.139,0.88,0.338,1.232,0.6L13.488,9.223z"/>
</g>
</svg>
