<?xml version="1.0" encoding="utf-8"?>
<!-- Generator: Adobe Illustrator 16.0.0, SVG Export Plug-In . SVG Version: 6.00 Build 0)  -->
<!DOCTYPE svg PUBLIC "-//W3C//DTD SVG 1.1//EN" "http://www.w3.org/Graphics/SVG/1.1/DTD/svg11.dtd">
<svg version="1.1" id="Layer_1" xmlns="http://www.w3.org/2000/svg" xmlns:xlink="http://www.w3.org/1999/xlink" x="0px" y="0px"
	 width="18px" height="18px" viewBox="0 0 18 18" enable-background="new 0 0 18 18" xml:space="preserve">
<circle fill="#666666" cx="8.08" cy="2.818" r="2.817"/>
<path fill="#666666" d="M8.081,12.898c0-2.146,1.741-3.888,3.887-3.888c0.643,0,1.24,0.17,1.773,0.446V8.146
	c0-0.695-0.677-1.257-1.511-1.257H3.929c-0.833,0-1.509,0.562-1.509,1.257v3.534v0.234v2.303h5.906
	C8.175,13.803,8.081,13.363,8.081,12.898z"/>
<path fill="#666666" d="M12.857,9.973c-2.064,0-3.741,1.675-3.741,3.74s1.676,3.738,3.741,3.738c2.063,0,3.739-1.674,3.739-3.738
	S14.921,9.973,12.857,9.973z M15.468,14.438l-1.79-0.021l0.027,1.791l-1.271,0.02l-0.029-1.828l-1.828-0.021l0.014-1.273
	l1.796,0.023l-0.03-1.795l1.271-0.02l0.029,1.83l1.829,0.021L15.468,14.438z"/>
</svg>
