<?xml version="1.0" encoding="utf-8"?>
<!-- Generator: Adobe Illustrator 16.0.0, SVG Export Plug-In . SVG Version: 6.00 Build 0)  -->
<!DOCTYPE svg PUBLIC "-//W3C//DTD SVG 1.1//EN" "http://www.w3.org/Graphics/SVG/1.1/DTD/svg11.dtd">
<svg version="1.1" id="Layer_1" xmlns="http://www.w3.org/2000/svg" xmlns:xlink="http://www.w3.org/1999/xlink" x="0px" y="0px"
	 width="20px" height="20px" viewBox="0 0 20 20" enable-background="new 0 0 20 20" xml:space="preserve">
<rect x="3.5" y="2.5" fill="#FFFFFF" stroke="#444444" stroke-miterlimit="10" width="10" height="12"/>
<rect x="3" y="6" fill="#444444" width="11" height="1"/>
<rect x="3" y="10" fill="#444444" width="11" height="1"/>
<ellipse fill="#444444" cx="14.136" cy="14.063" rx="4.302" ry="4.479"/>
<g>
	<path fill="#FFFFFF" d="M13.78,15.486c-0.003-0.094-0.004-0.164-0.004-0.211c0-0.276,0.039-0.515,0.117-0.715
		c0.058-0.151,0.149-0.304,0.277-0.457c0.094-0.112,0.263-0.275,0.506-0.49s0.401-0.386,0.475-0.514s0.109-0.267,0.109-0.418
		c0-0.273-0.106-0.514-0.32-0.721s-0.476-0.311-0.785-0.311c-0.3,0-0.55,0.094-0.75,0.281s-0.332,0.48-0.395,0.879l-0.723-0.086
		c0.065-0.533,0.259-0.943,0.58-1.227s0.747-0.426,1.275-0.426c0.56,0,1.007,0.152,1.34,0.457s0.5,0.674,0.5,1.105
		c0,0.25-0.059,0.48-0.176,0.691s-0.347,0.468-0.688,0.77c-0.229,0.203-0.379,0.353-0.449,0.449s-0.122,0.207-0.156,0.332
		s-0.054,0.328-0.059,0.609H13.78z M13.737,16.896v-0.801h0.801v0.801H13.737z"/>
</g>
</svg>
