<?xml version="1.0" encoding="utf-8"?>
<!-- Generator: Adobe Illustrator 16.0.0, SVG Export Plug-In . SVG Version: 6.00 Build 0)  -->
<!DOCTYPE svg PUBLIC "-//W3C//DTD SVG 1.1//EN" "http://www.w3.org/Graphics/SVG/1.1/DTD/svg11.dtd">
<svg version="1.1" id="Layer_1" xmlns="http://www.w3.org/2000/svg" xmlns:xlink="http://www.w3.org/1999/xlink" x="0px" y="0px"
	 width="25px" height="25px" viewBox="-3.5 -3.5 25 25" enable-background="new -3.5 -3.5 25 25" xml:space="preserve">
<path fill="#FFFFFF" d="M9.103,18c-4.913,0.001-8.88-3.947-8.886-8.845C0.211,4.23,4.225,0.216,9.135,0.238
	c4.883,0.022,8.857,4.024,8.85,8.91C17.977,14.049,14.014,17.999,9.103,18z M7.855,9.195c-0.937,0.897-1.781,1.774-2.7,2.563
	c-0.671,0.575-0.262,0.879,0.13,1.319c0.44,0.493,0.745,0.489,1.197,0.002c0.835-0.901,1.734-1.744,2.648-2.654
	c0.917,0.931,1.794,1.771,2.606,2.673c0.474,0.524,0.779,0.418,1.195-0.047c0.369-0.41,0.775-0.701,0.146-1.26
	c-0.926-0.816-1.783-1.709-2.715-2.613c0.97-0.969,1.847-1.837,2.711-2.718c0.16-0.162,0.422-0.483,0.378-0.544
	c-0.287-0.397-0.614-0.783-1.001-1.077c-0.094-0.07-0.504,0.172-0.692,0.351C10.866,6.033,10,6.905,8.992,7.897
	c-0.851-0.915-1.65-1.722-2.386-2.583C6.09,4.711,5.745,4.719,5.157,5.288C4.5,5.924,4.862,6.229,5.315,6.663
	C6.132,7.445,6.919,8.258,7.855,9.195z"/>
</svg>
