<?xml version="1.0" encoding="utf-8"?>
<!-- Generator: Adobe Illustrator 16.0.0, SVG Export Plug-In . SVG Version: 6.00 Build 0)  -->
<!DOCTYPE svg PUBLIC "-//W3C//DTD SVG 1.1//EN" "http://www.w3.org/Graphics/SVG/1.1/DTD/svg11.dtd">
<svg version="1.1" id="Layer_1" xmlns="http://www.w3.org/2000/svg" xmlns:xlink="http://www.w3.org/1999/xlink" x="0px" y="0px"
	 width="30px" height="30px" viewBox="0 0 30 30" enable-background="new 0 0 30 30" xml:space="preserve">
<circle fill="#FFFFFF" cx="12.146" cy="4.609" r="2.297"/>
<circle fill="#FFFFFF" cx="3.266" cy="23.859" r="3.266"/>
<path fill="#FFFFFF" d="M5.824,16.854c-0.195-0.195-0.512-0.195-0.707,0l-1.768,1.768l-1.768-1.768
	c-0.195-0.195-0.512-0.195-0.707,0c-0.196,0.195-0.196,0.512,0,0.707l2.121,2.121c0.098,0.098,0.226,0.146,0.354,0.146
	s0.256-0.049,0.354-0.146l2.121-2.121C6.02,17.365,6.02,17.049,5.824,16.854z"/>
<path fill="#FFFFFF" d="M25.35,25.979c0,0.553-0.447,1-1,1h-6c-0.553,0-1-0.447-1-1v-4c0-0.553,0.447-1,1-1h6c0.553,0,1,0.447,1,1
	V25.979z"/>
<path fill="#FFFFFF" d="M3.813,19.328c0,0.277-0.224,0.5-0.5,0.5l0,0c-0.276,0-0.5-0.223-0.5-0.5v-7.999c0-0.276,0.224-0.5,0.5-0.5
	l0,0c0.276,0,0.5,0.224,0.5,0.5V19.328z"/>
<path fill="#FFFFFF" d="M5.813,11.329c0,0.276-0.224,0.5-0.5,0.5h-2c-0.276,0-0.5-0.224-0.5-0.5l0,0c0-0.276,0.224-0.5,0.5-0.5h2
	C5.589,10.829,5.813,11.053,5.813,11.329L5.813,11.329z"/>
<path fill="#FFFFFF" d="M18.707,16.854c0.195-0.195,0.512-0.195,0.707,0l1.768,1.768l1.768-1.768c0.195-0.195,0.512-0.195,0.707,0
	c0.197,0.195,0.197,0.512,0,0.707l-2.121,2.121c-0.098,0.098-0.225,0.146-0.354,0.146c-0.127,0-0.256-0.049-0.354-0.146
	l-2.121-2.121C18.512,17.365,18.512,17.049,18.707,16.854z"/>
<path fill="#FFFFFF" d="M20.682,19.328c0,0.277,0.225,0.5,0.5,0.5l0,0c0.277,0,0.5-0.223,0.5-0.5v-7.999c0-0.276-0.223-0.5-0.5-0.5
	l0,0c-0.275,0-0.5,0.224-0.5,0.5V19.328z"/>
<path fill="#FFFFFF" d="M18.682,11.329c0,0.276,0.225,0.5,0.5,0.5h2c0.277,0,0.5-0.224,0.5-0.5l0,0c0-0.276-0.223-0.5-0.5-0.5h-2
	C18.906,10.829,18.682,11.053,18.682,11.329L18.682,11.329z"/>
<path fill="#FFFFFF" d="M16.646,13.25V8.611c0-0.552-0.447-1-1-1H8.646c-0.552,0-1,0.448-1,1v4.639H16.646z"/>
</svg>
