<?xml version="1.0" encoding="utf-8"?>
<!-- Generator: Adobe Illustrator 16.0.0, SVG Export Plug-In . SVG Version: 6.00 Build 0)  -->
<!DOCTYPE svg PUBLIC "-//W3C//DTD SVG 1.1//EN" "http://www.w3.org/Graphics/SVG/1.1/DTD/svg11.dtd">
<svg version="1.1" id="Layer_1" xmlns="http://www.w3.org/2000/svg" xmlns:xlink="http://www.w3.org/1999/xlink" x="0px" y="0px"
	 width="18px" height="14px" viewBox="0 0 18 14" enable-background="new 0 0 18 14" xml:space="preserve">
<path fill="#D4FD59" stroke="#353530" stroke-miterlimit="10" d="M17.5,11.5c0,1.104-0.896,2-2,2h-13c-1.104,0-2-0.896-2-2v-9
	c0-1.104,0.896-2,2-2h13c1.104,0,2,0.896,2,2V11.5z"/>
<path fill-rule="evenodd" clip-rule="evenodd" fill="#353530" d="M8.903,11.99c-1.285,0-2.569,0.027-3.854-0.005
	c-1.509-0.031-2.421-0.828-2.552-2.309C2.413,8.732,2.446,7.775,2.491,6.829C2.53,6.062,2.906,5.415,3.531,4.97
	C4.903,3.993,6.3,3.049,7.697,2.104c0.22-0.149,0.504-0.452,0.766-0.135c0.227,0.275-0.02,0.544-0.216,0.768
	C8.126,2.876,7.982,2.993,7.872,3.135C7.559,3.548,6.832,3.82,7.127,4.459c0.255,0.553,0.914,0.338,1.406,0.344
	c1.687,0.019,3.376,0.003,5.063,0.012c0.432,0.003,0.99-0.062,1.011,0.56c0.017,0.706-0.581,0.619-1.054,0.624
	c-1.099,0.01-2.2,0-3.299,0.016c-0.28,0.002-0.673-0.052-0.701,0.347C9.519,6.853,9.961,6.8,10.271,6.805
	c1.428,0.019,2.861-0.012,4.291,0.033c0.552,0.019,1.43-0.322,1.463,0.652c0.03,0.999-0.854,0.686-1.41,0.702
	c-1.43,0.04-2.86,0.006-4.291,0.023C9.98,8.221,9.49,8.148,9.524,8.701c0.026,0.436,0.46,0.419,0.774,0.425
	c1.284,0.02,2.569,0.006,3.855,0.027c0.417,0.006,0.996-0.075,0.959,0.583c-0.026,0.573-0.562,0.473-0.945,0.479
	c-1.282,0.019-2.567,0.004-3.851,0.021c-0.322,0.006-0.753-0.019-0.79,0.411c-0.042,0.536,0.442,0.497,0.792,0.506
	c0.916,0.026,1.832,0.012,2.75,0.026c0.288,0.004,0.656-0.01,0.667,0.393c0.007,0.407-0.367,0.409-0.651,0.412
	c-1.393,0.007-2.787,0.002-4.183,0.002C8.903,11.987,8.903,11.99,8.903,11.99z"/>
<rect x="2" y="6" fill-rule="evenodd" clip-rule="evenodd" fill="#353530" width="1" height="5"/>
</svg>
