<?xml version="1.0" encoding="utf-8"?>
<!-- Generator: Adobe Illustrator 16.0.0, SVG Export Plug-In . SVG Version: 6.00 Build 0)  -->
<!DOCTYPE svg PUBLIC "-//W3C//DTD SVG 1.1//EN" "http://www.w3.org/Graphics/SVG/1.1/DTD/svg11.dtd">
<svg version="1.1" id="Layer_1" xmlns="http://www.w3.org/2000/svg" xmlns:xlink="http://www.w3.org/1999/xlink" x="0px" y="0px"
	 width="18px" height="18px" viewBox="0 0 18 18" enable-background="new 0 0 18 18" xml:space="preserve">
<path fill-rule="evenodd" clip-rule="evenodd" fill="#666666" d="M8.824,15.322c-2.386,0-4.773,0.004-7.16,0
	c-0.713,0-0.958-0.255-0.959-1.043C0.7,10.961,0.702,7.644,0.704,4.327c0-0.131-0.045-0.314,0.083-0.372
	C0.916,3.898,0.99,4.073,1.074,4.164c2.372,2.633,4.743,5.268,7.114,7.899c0.12,0.135,0.229,0.292,0.399,0.353
	c0.336,0.122,0.583-0.039,0.815-0.3c1.501-1.679,3.01-3.35,4.515-5.023c0.884-0.98,1.765-1.961,2.651-2.939
	c0.078-0.085,0.145-0.266,0.286-0.187c0.108,0.06,0.071,0.221,0.071,0.339c0.003,3.333,0.004,6.663-0.001,9.996
	c-0.001,0.762-0.248,1.021-0.941,1.021C13.597,15.326,11.211,15.322,8.824,15.322z"/>
<path fill-rule="evenodd" clip-rule="evenodd" fill="#666666" d="M8.804,2.825c2.202,0,4.408,0,6.61,0
	c0.121,0,0.246-0.003,0.367,0.011c0.165,0.019,0.179,0.114,0.076,0.243c-0.054,0.072-0.117,0.138-0.177,0.205
	c-2.173,2.415-4.345,4.829-6.517,7.243c-0.347,0.384-0.35,0.386-0.686,0.011c-2.182-2.422-4.363-4.845-6.544-7.27
	C1.881,3.211,1.829,3.153,1.781,3.094C1.662,2.948,1.674,2.852,1.864,2.832c0.098-0.01,0.196-0.006,0.293-0.006
	C4.373,2.826,6.588,2.826,8.804,2.825C8.804,2.826,8.804,2.826,8.804,2.825z"/>
</svg>
