<?xml version="1.0" encoding="utf-8"?>
<!-- Generator: Adobe Illustrator 16.0.0, SVG Export Plug-In . SVG Version: 6.00 Build 0)  -->
<!DOCTYPE svg PUBLIC "-//W3C//DTD SVG 1.1//EN" "http://www.w3.org/Graphics/SVG/1.1/DTD/svg11.dtd">
<svg version="1.1" id="Layer_1" xmlns="http://www.w3.org/2000/svg" xmlns:xlink="http://www.w3.org/1999/xlink" x="0px" y="0px"
	 width="20px" height="20px" viewBox="0 0 20 20" enable-background="new 0 0 20 20" xml:space="preserve">
<rect x="13" y="2" fill="#E77B21" width="1" height="14"/>
<rect x="11.586" y="12.414" transform="matrix(0.7071 -0.7071 0.7071 0.7071 -7.006 12.9141)" fill="#E77B21" width="1" height="5"/>
<rect x="14.414" y="12.414" transform="matrix(0.7071 0.7071 -0.7071 0.7071 14.9141 -6.1776)" fill="#E77B21" width="1" height="4.999"/>
<g>
	<path fill="#E77B21" d="M4.771,6.014l-0.56,1.695h-0.72L5.323,2.32h0.84l1.839,5.389H7.257L6.682,6.014H4.771z M6.538,5.471
		L6.01,3.919c-0.12-0.352-0.2-0.671-0.28-0.983H5.715c-0.08,0.32-0.168,0.647-0.272,0.976L4.915,5.471H6.538z"/>
</g>
<g>
	<path fill="#E77B21" d="M3.448,16.219l2.99-4.374V11.82H3.704v-0.584h3.638v0.424l-2.974,4.358v0.024h3.014v0.583H3.448V16.219z"/>
</g>
</svg>
