<?xml version="1.0" encoding="utf-8"?>
<!-- Generator: Adobe Illustrator 16.0.0, SVG Export Plug-In . SVG Version: 6.00 Build 0)  -->
<!DOCTYPE svg PUBLIC "-//W3C//DTD SVG 1.1//EN" "http://www.w3.org/Graphics/SVG/1.1/DTD/svg11.dtd">
<svg version="1.1" id="Layer_1" xmlns="http://www.w3.org/2000/svg" xmlns:xlink="http://www.w3.org/1999/xlink" x="0px" y="0px"
	 width="18px" height="18px" viewBox="0 0 18 18" enable-background="new 0 0 18 18" xml:space="preserve">
<path fill="none" stroke="#FFFFFF" stroke-miterlimit="10" d="M14.76,13.688c0,0.975-0.791,1.766-1.765,1.766H4.318
	c-0.975,0-1.765-0.791-1.765-1.766v-7.75c0-0.975,0.79-1.765,1.765-1.765h8.677c0.974,0,1.765,0.79,1.765,1.765V13.688z"/>
<g>
	<path fill="#FFFFFF" d="M10.983,12.106v1.343h-5.07c0.055-0.509,0.22-0.987,0.494-1.445c0.277-0.453,0.817-1.056,1.626-1.809
		C8.686,9.59,9.087,9.178,9.232,8.962c0.199-0.299,0.299-0.596,0.299-0.886c0-0.325-0.085-0.571-0.26-0.745
		C9.1,7.158,8.861,7.073,8.555,7.073c-0.303,0-0.546,0.091-0.723,0.272C7.651,7.525,7.548,7.829,7.522,8.25L6.083,8.107
		c0.086-0.798,0.355-1.369,0.809-1.716C7.345,6.045,7.909,5.873,8.59,5.873c0.744,0,1.33,0.2,1.755,0.603
		c0.425,0.402,0.639,0.9,0.639,1.498c0,0.339-0.061,0.664-0.182,0.973c-0.124,0.306-0.313,0.63-0.581,0.965
		c-0.175,0.224-0.49,0.544-0.947,0.961c-0.453,0.421-0.744,0.698-0.867,0.839c-0.124,0.136-0.221,0.271-0.296,0.398h2.873V12.106z"
		/>
</g>
<path fill="#FFFFFF" d="M6.719,3.707c0,0.438-0.424,0.793-0.948,0.793l0,0c-0.523,0-0.948-0.355-0.948-0.793V2.12
	c0-0.438,0.424-0.793,0.948-0.793l0,0c0.524,0,0.948,0.355,0.948,0.793V3.707z"/>
<path fill="#FFFFFF" d="M12.406,3.707c0,0.438-0.424,0.793-0.948,0.793l0,0c-0.523,0-0.948-0.355-0.948-0.793V2.12
	c0-0.438,0.425-0.793,0.948-0.793l0,0c0.524,0,0.948,0.355,0.948,0.793V3.707z"/>
</svg>
