<?xml version="1.0" encoding="utf-8"?>
<!-- Generator: Adobe Illustrator 16.0.0, SVG Export Plug-In . SVG Version: 6.00 Build 0)  -->
<!DOCTYPE svg PUBLIC "-//W3C//DTD SVG 1.1//EN" "http://www.w3.org/Graphics/SVG/1.1/DTD/svg11.dtd">
<svg version="1.1" id="Layer_1" xmlns="http://www.w3.org/2000/svg" xmlns:xlink="http://www.w3.org/1999/xlink" x="0px" y="0px"
	 width="18px" height="18px" viewBox="0 0 18 18" enable-background="new 0 0 18 18" xml:space="preserve">
<path fill="#003366" d="M1.616,7.624v4.706H8.89c0-2.006,1.566-3.632,3.497-3.632c0.863,0,1.644,0.338,2.255,0.879V7.624H1.616z"/>
<path fill="#003366" d="M13.65,10.427c-1.842,0-3.335,1.493-3.335,3.335c0,1.843,1.493,3.336,3.335,3.336s3.335-1.493,3.335-3.336
	C16.985,11.92,15.492,10.427,13.65,10.427z M15.98,14.407l-1.6-0.02l0.025,1.598l-1.134,0.019l-0.025-1.63l-1.632-0.021l0.014-1.134
	l1.6,0.02l-0.024-1.6l1.134-0.019l0.024,1.632l1.632,0.02L15.98,14.407z"/>
<circle fill="#003366" cx="8.077" cy="3.487" r="2.459"/>
</svg>
