<?xml version="1.0" encoding="utf-8"?>
<!-- Generator: Adobe Illustrator 16.0.0, SVG Export Plug-In . SVG Version: 6.00 Build 0)  -->
<!DOCTYPE svg PUBLIC "-//W3C//DTD SVG 1.1//EN" "http://www.w3.org/Graphics/SVG/1.1/DTD/svg11.dtd">
<svg version="1.1" id="Layer_1" xmlns="http://www.w3.org/2000/svg" xmlns:xlink="http://www.w3.org/1999/xlink" x="0px" y="0px"
	 width="18px" height="18px" viewBox="0 0 18 18" enable-background="new 0 0 18 18" xml:space="preserve">
<g>
	<g>
		<path fill="none" stroke="#336699" stroke-miterlimit="10" d="M16,8.03C16,8.013,15.986,8,15.971,8H9.03C9.013,8,9,8.013,9,8.03
			v1.941C9,9.986,9.013,10,9.03,10h6.941C15.986,10,16,9.986,16,9.971V8.03z"/>
	</g>
	<g>
		<path fill="none" stroke="#336699" stroke-miterlimit="10" d="M6,8.03C6,8.013,5.987,8,5.97,8H2.03C2.013,8,2,8.013,2,8.03v1.941
			C2,9.986,2.013,10,2.03,10h3.94C5.987,10,6,9.986,6,9.971V8.03z"/>
	</g>
</g>
<g>
	<path fill-rule="evenodd" clip-rule="evenodd" fill="#FFFFFF" d="M8.5,10.45c0,0.027-0.022,0.05-0.05,0.05h-2.9
		c-0.027,0-0.05-0.022-0.05-0.05v-3.9c0-0.027,0.022-0.05,0.05-0.05h2.9c0.027,0,0.05,0.022,0.05,0.05V10.45z"/>
	<path fill="none" stroke="#336699" stroke-miterlimit="10" d="M9,10.95C9,10.978,8.978,11,8.95,11h-2.9C6.022,11,6,10.978,6,10.95
		v-3.9C6,7.022,6.022,7,6.05,7h2.9C8.978,7,9,7.022,9,7.05V10.95z"/>
</g>
</svg>
