<?xml version="1.0" encoding="utf-8"?>
<!-- Generator: Adobe Illustrator 16.0.0, SVG Export Plug-In . SVG Version: 6.00 Build 0)  -->
<!DOCTYPE svg PUBLIC "-//W3C//DTD SVG 1.1//EN" "http://www.w3.org/Graphics/SVG/1.1/DTD/svg11.dtd">
<svg version="1.1" id="Layer_1" xmlns="http://www.w3.org/2000/svg" xmlns:xlink="http://www.w3.org/1999/xlink" x="0px" y="0px"
	 width="18px" height="18px" viewBox="0 0 18 18" enable-background="new 0 0 18 18" xml:space="preserve">
<rect x="9.95" y="4.571" transform="matrix(0.6897 0.7241 -0.7241 0.6897 7.8875 -7.8034)" fill="#B1B1B1" width="6.197" height="1.462"/>
<rect x="8.456" y="0.517" transform="matrix(0.6902 0.7236 -0.7236 0.6902 3.749 -6.2609)" fill="#B1B1B1" width="1.462" height="1.462"/>
<rect x="16.02" y="8.456" transform="matrix(0.6899 0.7239 -0.7239 0.6899 11.8459 -9.2778)" fill="#B1B1B1" width="1.462" height="1.462"/>
<rect x="1.858" y="12.07" transform="matrix(0.6899 0.7239 -0.7239 0.6899 10.8319 0.316)" fill="#B1B1B1" width="6.378" height="1.462"/>
<rect x="0.517" y="8.082" transform="matrix(0.6899 0.7239 -0.7239 0.6899 6.7672 1.83)" fill="#B1B1B1" width="1.462" height="1.462"/>
<rect x="8.082" y="16.021" transform="matrix(0.6897 0.7241 -0.7241 0.6897 14.8651 -1.1831)" fill="#B1B1B1" width="1.462" height="1.462"/>
<rect x="4.56" y="1.79" transform="matrix(0.6902 0.7236 -0.7236 0.6902 5.2291 -2.2915)" fill="#B1B1B1" width="1.462" height="6.342"/>
<rect x="12.008" y="9.763" transform="matrix(0.6895 0.7243 -0.7243 0.6895 13.3788 -5.1869)" fill="#B1B1B1" width="1.462" height="6.496"/>
</svg>
