<?xml version="1.0" encoding="utf-8"?>
<!-- Generator: Adobe Illustrator 16.0.3, SVG Export Plug-In . SVG Version: 6.00 Build 0)  -->
<!DOCTYPE svg PUBLIC "-//W3C//DTD SVG 1.1//EN" "http://www.w3.org/Graphics/SVG/1.1/DTD/svg11.dtd">
<svg version="1.1" id="Layer_1" xmlns="http://www.w3.org/2000/svg" xmlns:xlink="http://www.w3.org/1999/xlink" x="0px" y="0px"
	 width="15px" height="15px" viewBox="0 0 15 15" enable-background="new 0 0 15 15" xml:space="preserve">
<rect x="0.514" y="0.516" display="none" fill="none" stroke="#FFFFFF" stroke-miterlimit="10" width="13.472" height="12.882"/>
<rect x="3.128" y="1.885" display="none" fill="#FFFFFF" width="8.242" height="0.786"/>
<rect x="3.128" y="3.511" display="none" fill="#FFFFFF" width="8.242" height="0.787"/>
<polygon display="none" fill="#FFFFFF" points="7.25,4.716 8.457,7.229 11.157,7.633 9.204,9.588 9.665,12.348 7.25,11.043 
	4.834,12.348 5.294,9.588 3.34,7.633 6.042,7.229 "/>
<path d="M11.201,10.157c0,0.638-0.193,1.14-0.58,1.509c-0.389,0.369-0.902,0.552-1.545,0.552H2.124
	c-0.641,0-1.155-0.183-1.542-0.552C0.194,11.297,0,10.795,0,10.157c0-0.278,0.01-0.556,0.027-0.823
	c0.02-0.268,0.056-0.557,0.112-0.868C0.194,8.157,0.265,7.87,0.351,7.604C0.435,7.339,0.549,7.082,0.692,6.83S1,6.363,1.185,6.186
	c0.187-0.178,0.413-0.32,0.681-0.426C2.132,5.653,2.429,5.6,2.753,5.6c0.047,0,0.159,0.057,0.334,0.171
	C3.261,5.884,3.46,6.013,3.679,6.152c0.22,0.141,0.506,0.267,0.86,0.382c0.352,0.114,0.707,0.172,1.062,0.172
	S6.31,6.648,6.662,6.534c0.354-0.115,0.639-0.241,0.86-0.382c0.22-0.139,0.417-0.269,0.592-0.381C8.289,5.656,8.4,5.6,8.449,5.6
	c0.322,0,0.617,0.053,0.886,0.16c0.269,0.107,0.495,0.249,0.681,0.426c0.187,0.177,0.352,0.392,0.493,0.644
	c0.144,0.252,0.257,0.509,0.343,0.774c0.084,0.266,0.155,0.554,0.211,0.862c0.056,0.313,0.094,0.603,0.11,0.868
	C11.191,9.602,11.201,9.879,11.201,10.157z M8.656,3.055c0,0.843-0.299,1.563-0.896,2.16C7.163,5.812,6.443,6.11,5.6,6.11
	c-0.843,0-1.563-0.299-2.16-0.896c-0.596-0.596-0.895-1.317-0.895-2.16c0-0.844,0.298-1.563,0.895-2.16C4.037,0.298,4.757,0,5.601,0
	c0.844,0,1.563,0.299,2.16,0.895S8.656,2.211,8.656,3.055z"/>
<ellipse cx="10.177" cy="10.155" rx="4.823" ry="4.845"/>
<g id="user_x5F_half_x5F_settings">
	<path fill="#FFFFFF" d="M13.764,10.891V9.477h-1.191c-0.047-0.149-0.104-0.291-0.178-0.429l0.854-0.839l-1.016-1l-0.836,0.824
		c-0.157-0.086-0.324-0.156-0.502-0.208V6.649H9.46v1.174c-0.165,0.05-0.319,0.113-0.467,0.192L8.175,7.208l-1.015,1l0.818,0.806
		C7.896,9.16,7.832,9.314,7.782,9.477H6.591v1.414h1.192c0.051,0.174,0.124,0.338,0.211,0.492l-0.836,0.822l1.014,1.001l0.854-0.84
		c0.138,0.073,0.281,0.128,0.434,0.173v1.178h1.438V12.54c0.164-0.046,0.319-0.11,0.467-0.19l0.869,0.857l1.015-1.001l-0.87-0.854
		c0.08-0.146,0.146-0.299,0.193-0.461H13.764z M10.177,11.244c-0.595-0.001-1.075-0.475-1.075-1.061c0-0.588,0.48-1.062,1.075-1.063
		c0.595,0.001,1.075,0.475,1.076,1.063C11.252,10.77,10.771,11.243,10.177,11.244z"/>
</g>
</svg>
