<?xml version="1.0" encoding="utf-8"?>
<!-- Generator: Adobe Illustrator 16.0.0, SVG Export Plug-In . SVG Version: 6.00 Build 0)  -->
<!DOCTYPE svg PUBLIC "-//W3C//DTD SVG 1.1//EN" "http://www.w3.org/Graphics/SVG/1.1/DTD/svg11.dtd">
<svg version="1.1" id="Layer_1" xmlns="http://www.w3.org/2000/svg" xmlns:xlink="http://www.w3.org/1999/xlink" x="0px" y="0px"
	 width="70px" height="60px" viewBox="0 0 70 60" enable-background="new 0 0 70 60" xml:space="preserve">
<rect x="14.5" y="8.5" fill="#FFB848" stroke="#FFFFFF" stroke-width="3" stroke-miterlimit="10" width="54" height="28"/>
<rect x="8.5" y="15.5" fill="#FFB848" stroke="#FFFFFF" stroke-width="3" stroke-miterlimit="10" width="54" height="28"/>
<rect x="1.5" y="22.5" fill="#FFB848" stroke="#FFFFFF" stroke-width="3" stroke-miterlimit="10" width="54" height="28"/>
<g>
	<path fill="#FFFFFF" d="M29.132,43.392v2.331h-1.568v-2.267c-1.454-0.007-2.808-0.337-4.061-0.988v-2.976
		c0.415,0.337,1.035,0.648,1.858,0.935c0.823,0.286,1.558,0.451,2.202,0.494v-3.91c-1.676-0.623-2.82-1.298-3.432-2.024
		s-0.918-1.613-0.918-2.659c0-1.124,0.397-2.082,1.192-2.874c0.795-0.791,1.848-1.251,3.158-1.38v-1.998h1.568v1.955
		c1.511,0.072,2.639,0.315,3.384,0.73v2.9c-1.003-0.608-2.131-0.981-3.384-1.117v4.071c1.568,0.566,2.692,1.213,3.373,1.939
		c0.68,0.727,1.021,1.605,1.021,2.637c0,1.189-0.38,2.146-1.139,2.873C31.628,42.792,30.543,43.234,29.132,43.392z M27.564,33.992
		v-3.405c-0.996,0.179-1.493,0.698-1.493,1.558C26.071,32.883,26.568,33.498,27.564,33.992z M29.132,37.623v3.255
		c1.024-0.157,1.536-0.669,1.536-1.536C30.668,38.641,30.156,38.067,29.132,37.623z"/>
</g>
</svg>
