<?xml version="1.0" encoding="utf-8"?>
<!-- Generator: Adobe Illustrator 16.0.0, SVG Export Plug-In . SVG Version: 6.00 Build 0)  -->
<!DOCTYPE svg PUBLIC "-//W3C//DTD SVG 1.1//EN" "http://www.w3.org/Graphics/SVG/1.1/DTD/svg11.dtd">
<svg version="1.1" id="Layer_1" xmlns="http://www.w3.org/2000/svg" xmlns:xlink="http://www.w3.org/1999/xlink" x="0px" y="0px"
	 width="70px" height="60px" viewBox="0 0 70 60" enable-background="new 0 0 70 60" xml:space="preserve">
<path fill="none" stroke="#FFFFFF" stroke-width="2" stroke-miterlimit="10" d="M68,50c0,2.762-2.238,5-5,5H6c-2.761,0-5-2.238-5-5
	V13c0-2.761,2.239-5,5-5h57c2.762,0,5,2.239,5,5V50z"/>
<circle fill="#FFFFFF" cx="18.617" cy="22.589" r="6.403"/>
<path fill="#FFFFFF" d="M30,44v-8c0-2.762-2.239-5-5-5H13c-2.761,0-5,2.238-5,5v8H30z"/>
<rect x="35" y="22" fill="#FFFFFF" width="27" height="3"/>
<rect x="35" y="31" fill="#FFFFFF" width="27" height="3"/>
<rect x="35" y="40" fill="#FFFFFF" width="27" height="3"/>
</svg>
