<?xml version="1.0" encoding="utf-8"?>
<!-- Generator: Adobe Illustrator 16.0.0, SVG Export Plug-In . SVG Version: 6.00 Build 0)  -->
<!DOCTYPE svg PUBLIC "-//W3C//DTD SVG 1.1//EN" "http://www.w3.org/Graphics/SVG/1.1/DTD/svg11.dtd">
<svg version="1.1" id="Layer_1" xmlns="http://www.w3.org/2000/svg" xmlns:xlink="http://www.w3.org/1999/xlink" x="0px" y="0px"
	 width="15px" height="15px" viewBox="0 0 15 15" enable-background="new 0 0 15 15" xml:space="preserve">
<path fill="#FFFFFF" d="M14,3H1C0.448,3,0,3.448,0,4v10c0,0.553,0.448,1,1,1h13c0.553,0,1-0.447,1-1V4C15,3.448,14.553,3,14,3z
	 M5,13H2v-3h3V13z M5,9H2V6h3V9z M9,13H6v-3h3V13z M9,9H6V6h3V9z M13,13h-3v-3h3V13z M13,9h-3V6h3V9z"/>
<rect y="1" fill="#D1D1D1" width="15" height="4"/>
</svg>
