<?xml version="1.0" encoding="utf-8"?>
<!-- Generator: Adobe Illustrator 16.0.0, SVG Export Plug-In . SVG Version: 6.00 Build 0)  -->
<!DOCTYPE svg PUBLIC "-//W3C//DTD SVG 1.1//EN" "http://www.w3.org/Graphics/SVG/1.1/DTD/svg11.dtd">
<svg version="1.1" id="Layer_1" xmlns="http://www.w3.org/2000/svg" xmlns:xlink="http://www.w3.org/1999/xlink" x="0px" y="0px"
	 width="15px" height="15px" viewBox="0 0 15 15" enable-background="new 0 0 15 15" xml:space="preserve">
<path fill="#969696" d="M12,1h-2c0-0.552-0.447-1-1-1H6C5.448,0,5,0.448,5,1H3C2.448,1,2,1.448,2,2v12c0,0.553,0.448,1,1,1h9
	c0.553,0,1-0.447,1-1V2C13,1.448,12.553,1,12,1z M11,13H4v-1h7V13z M11,11H4v-1h7V11z M11,9H4V8h7V9z M11,7H4V6h7V7z M11,5H4V4h7V5z
	 M11,3H4V2h2V1h3v1h2V3z"/>
</svg>
