<?xml version="1.0" encoding="utf-8"?>
<!-- Generator: Adobe Illustrator 16.0.0, SVG Export Plug-In . SVG Version: 6.00 Build 0)  -->
<!DOCTYPE svg PUBLIC "-//W3C//DTD SVG 1.1//EN" "http://www.w3.org/Graphics/SVG/1.1/DTD/svg11.dtd">
<svg version="1.1" id="Layer_1" xmlns="http://www.w3.org/2000/svg" xmlns:xlink="http://www.w3.org/1999/xlink" x="0px" y="0px"
	 width="17px" height="15px" viewBox="0 0 17 15" enable-background="new 0 0 17 15" xml:space="preserve">
<path fill="#969696" d="M3.788,6.999c0,0,1.288,2.074,1.668,3.503c0,0,1.024,0.69,2.025,0.334c0,0,5.935-8.103,9.223-9.223
	c0,0,1.191-0.453-2.146-0.429c0,0-4.741,2.955-7.411,7.03c0,0-1.207-2.756-2.797-2.177C4.331,6.044,4.31,6.052,4.289,6.061
	C4.289,6.061,3.407,6.665,3.788,6.999z"/>
<rect y="2" fill="#969696" width="2" height="11"/>
<rect y="13" fill="#969696" width="14" height="2"/>
<rect fill="#969696" width="9" height="2"/>
<rect x="12" y="10" fill="#969696" width="2" height="5"/>
</svg>
