<?xml version="1.0" encoding="utf-8"?>
<!-- Generator: Adobe Illustrator 16.0.0, SVG Export Plug-In . SVG Version: 6.00 Build 0)  -->
<!DOCTYPE svg PUBLIC "-//W3C//DTD SVG 1.1//EN" "http://www.w3.org/Graphics/SVG/1.1/DTD/svg11.dtd">
<svg version="1.1" id="Layer_1" xmlns="http://www.w3.org/2000/svg" xmlns:xlink="http://www.w3.org/1999/xlink" x="0px" y="0px"
	 width="17px" height="18px" viewBox="0 0 17 18" enable-background="new 0 0 17 18" xml:space="preserve">
<path fill="#969696" d="M14,2.5H1c-0.552,0-1,0.448-1,1v10c0,0.553,0.448,1,1,1h13c0.553,0,1-0.447,1-1v-10
	C15,2.948,14.553,2.5,14,2.5z M5,12.5H2v-3h3V12.5z M5,8.5H2v-3h3V8.5z M9,12.5H6v-3h3V12.5z M9,8.5H6v-3h3V8.5z M13,12.5h-3v-3h3
	V12.5z M13,8.5h-3v-3h3V8.5z"/>
<rect y="0.5" fill="#757575" width="15" height="4"/>
<circle fill="#3D3D3D" stroke="#969696" stroke-miterlimit="10" cx="11.266" cy="12.263" r="5.306"/>
<rect x="10" y="9.5" fill="#969696" width="1" height="3"/>
<rect x="10" y="12.5" fill="#969696" width="4" height="1"/>
</svg>
