<?xml version="1.0" encoding="utf-8"?>
<!-- Generator: Adobe Illustrator 16.0.3, SVG Export Plug-In . SVG Version: 6.00 Build 0)  -->
<!DOCTYPE svg PUBLIC "-//W3C//DTD SVG 1.1//EN" "http://www.w3.org/Graphics/SVG/1.1/DTD/svg11.dtd">
<svg version="1.1" id="Layer_1" xmlns="http://www.w3.org/2000/svg" xmlns:xlink="http://www.w3.org/1999/xlink" x="0px" y="0px"
	 width="15px" height="15px" viewBox="0 0 15 15" enable-background="new 0 0 15 15" xml:space="preserve">
<path d="M11.296,10.803L8.67,8.004L11.3,5.24c0.108-0.115,0.108-0.301,0-0.416l-0.747-0.8C10.5,3.968,10.43,3.939,10.357,3.939
	c-0.074,0-0.146,0.031-0.199,0.084L7.542,6.778L4.918,4.025C4.866,3.971,4.797,3.941,4.722,3.941c-0.074,0-0.145,0.032-0.197,0.084
	l-0.746,0.8c-0.108,0.115-0.108,0.301,0,0.416l2.632,2.764l-2.624,2.797c-0.053,0.058-0.082,0.132-0.082,0.209
	c0,0.08,0.028,0.154,0.082,0.21l0.749,0.801c0.054,0.059,0.125,0.086,0.195,0.086s0.142-0.025,0.197-0.086l2.613-2.789l2.615,2.785
	c0.056,0.059,0.125,0.088,0.197,0.088c0.066,0,0.142-0.025,0.194-0.088l0.748-0.8c0.054-0.057,0.081-0.129,0.081-0.209
	C11.377,10.934,11.346,10.857,11.296,10.803z"/>
<rect width="3.742" height="1.436"/>
<rect y="1.265" width="1.352" height="13.735"/>
<rect y="13.564" width="3.741" height="1.436"/>
<rect x="11.259" width="3.741" height="1.436"/>
<rect x="13.648" y="1.265" width="1.352" height="13.735"/>
<rect x="11.259" y="13.563" width="3.741" height="1.438"/>
</svg>
