<?xml version="1.0" encoding="utf-8"?>
<!-- Generator: Adobe Illustrator 16.0.3, SVG Export Plug-In . SVG Version: 6.00 Build 0)  -->
<!DOCTYPE svg PUBLIC "-//W3C//DTD SVG 1.1//EN" "http://www.w3.org/Graphics/SVG/1.1/DTD/svg11.dtd">
<svg version="1.1" id="Layer_1" xmlns="http://www.w3.org/2000/svg" xmlns:xlink="http://www.w3.org/1999/xlink" x="0px" y="0px"
	 width="15px" height="15px" viewBox="0 0 16 17" enable-background="new 0 0 16 17" xml:space="preserve">
<path d="M11.448,9.788l-2.625-2.8l2.629-2.764c0.108-0.115,0.108-0.301,0-0.416l-0.746-0.8c-0.054-0.056-0.123-0.084-0.195-0.084
	c-0.073,0-0.146,0.031-0.198,0.084L7.695,5.762L5.071,3.009C5.019,2.957,4.95,2.925,4.875,2.925c-0.074,0-0.145,0.032-0.197,0.084
	l-0.746,0.8c-0.108,0.115-0.108,0.301,0,0.416l2.632,2.764L3.94,9.786c-0.053,0.06-0.082,0.133-0.082,0.209
	c0,0.08,0.028,0.153,0.082,0.211l0.749,0.801c0.054,0.06,0.125,0.086,0.195,0.086c0.07,0,0.142-0.024,0.197-0.086l2.613-2.79
	l2.617,2.786c0.055,0.06,0.125,0.088,0.196,0.088c0.063,0,0.142-0.024,0.191-0.088l0.747-0.801c0.058-0.06,0.082-0.129,0.082-0.209
	C11.529,9.919,11.499,9.843,11.448,9.788z"/>
<rect x="0.132" y="0.075" width="3.96" height="1.436"/>
<rect x="0.132" y="1.34" width="1.431" height="13.735"/>
<rect x="0.132" y="13.641" width="3.959" height="1.437"/>
<rect x="12.048" y="0.075" width="3.959" height="1.436"/>
<rect x="14.575" y="1.34" width="1.432" height="13.735"/>
<rect x="11.827" y="13.639" fill="#D7D7D6" width="3.741" height="1.438"/>
<circle fill="#3F3F3F" cx="10.993" cy="12.026" r="5.018"/>
<g enable-background="new    ">
	<path fill="#FFFFFF" d="M13.652,9.523c-0.041,0.054-0.084,0.094-0.131,0.117c-0.047,0.027-0.104,0.041-0.172,0.041
		c-0.076,0-0.166-0.031-0.271-0.091s-0.231-0.126-0.388-0.196c-0.156-0.071-0.344-0.139-0.562-0.196
		c-0.218-0.063-0.479-0.091-0.791-0.091c-0.293,0-0.549,0.031-0.771,0.094c-0.223,0.063-0.408,0.145-0.561,0.25
		C9.859,9.555,9.746,9.68,9.669,9.82c-0.075,0.144-0.112,0.298-0.112,0.462c0,0.21,0.065,0.385,0.198,0.522
		c0.132,0.139,0.308,0.258,0.522,0.354c0.222,0.099,0.468,0.187,0.742,0.255c0.276,0.072,0.561,0.146,0.852,0.227
		c0.288,0.075,0.57,0.162,0.848,0.26s0.522,0.22,0.74,0.365c0.221,0.147,0.396,0.327,0.525,0.543
		c0.132,0.213,0.197,0.479,0.197,0.789c0,0.327-0.07,0.639-0.216,0.926c-0.144,0.291-0.353,0.543-0.629,0.756
		c-0.276,0.216-0.616,0.384-1.019,0.506c-0.402,0.123-0.858,0.186-1.371,0.186c-0.629,0-1.198-0.088-1.711-0.264
		c-0.514-0.182-0.951-0.419-1.314-0.723l0.378-0.48c0.035-0.039,0.08-0.07,0.131-0.1c0.052-0.024,0.108-0.04,0.172-0.04
		c0.06,0,0.125,0.02,0.197,0.057c0.074,0.036,0.159,0.085,0.254,0.142c0.094,0.056,0.201,0.117,0.322,0.185s0.26,0.128,0.415,0.185
		c0.155,0.058,0.331,0.104,0.528,0.139c0.197,0.039,0.42,0.057,0.668,0.057c0.311,0,0.584-0.031,0.828-0.1
		c0.242-0.065,0.447-0.159,0.615-0.281c0.17-0.121,0.299-0.268,0.389-0.436c0.088-0.168,0.136-0.354,0.136-0.563
		c0-0.229-0.065-0.415-0.2-0.561c-0.13-0.146-0.307-0.269-0.521-0.365c-0.213-0.098-0.463-0.184-0.741-0.252
		c-0.275-0.066-0.56-0.137-0.847-0.211c-0.289-0.068-0.569-0.152-0.851-0.246c-0.278-0.096-0.522-0.219-0.739-0.369
		c-0.217-0.152-0.392-0.342-0.521-0.564c-0.132-0.229-0.199-0.508-0.199-0.841c0-0.269,0.066-0.524,0.199-0.772
		c0.134-0.25,0.326-0.471,0.579-0.664C9.368,8.71,9.68,8.555,10.052,8.44c0.37-0.115,0.796-0.173,1.275-0.173
		c0.541,0,1.028,0.066,1.472,0.199c0.442,0.134,0.832,0.327,1.169,0.579L13.652,9.523z"/>
</g>
</svg>
