<?xml version="1.0" encoding="utf-8"?>
<!-- Generator: Adobe Illustrator 16.0.3, SVG Export Plug-In . SVG Version: 6.00 Build 0)  -->
<!DOCTYPE svg PUBLIC "-//W3C//DTD SVG 1.1//EN" "http://www.w3.org/Graphics/SVG/1.1/DTD/svg11.dtd">
<svg version="1.1" id="Layer_1" xmlns="http://www.w3.org/2000/svg" xmlns:xlink="http://www.w3.org/1999/xlink" x="0px" y="0px"
	 width="15px" height="15px" viewBox="0 0 16 17" enable-background="new 0 0 16 17" xml:space="preserve">
<path d="M0,0v15h16V0H0z M1.186,1.242h3.708v3.34H1.186V1.242z M4.919,13.762H1.216V10.42h3.707L4.919,13.762L4.919,13.762z
	 M4.919,9.229H1.216v-3.41h3.707L4.919,9.229L4.919,9.229z M6.178,1.242h3.705v3.34H6.178V1.242z M9.91,13.762H6.204V10.42H9.91
	V13.762z M9.91,9.229H6.204v-3.41H9.91V9.229z M11.107,1.242h3.709v3.34h-3.709V1.242z M14.844,13.762h-3.705V10.42h3.705V13.762z
	 M14.844,9.229h-3.705v-3.41h3.705V9.229z"/>
<ellipse fill="#3F3F3F" cx="10.813" cy="11.969" rx="5.188" ry="5.031"/>
<g enable-background="new    ">
	<path fill="#FFFFFF" d="M13.563,9.463c-0.041,0.051-0.086,0.092-0.135,0.119c-0.051,0.025-0.107,0.039-0.178,0.039
		c-0.08,0-0.172-0.031-0.279-0.092c-0.104-0.062-0.24-0.127-0.402-0.197c-0.159-0.07-0.354-0.139-0.575-0.197
		c-0.229-0.059-0.5-0.09-0.818-0.09c-0.305,0-0.567,0.031-0.799,0.092C10.146,9.2,9.952,9.283,9.794,9.389
		C9.639,9.492,9.521,9.617,9.443,9.76c-0.08,0.143-0.119,0.297-0.119,0.461c0,0.213,0.07,0.387,0.205,0.525
		c0.137,0.139,0.32,0.258,0.543,0.355c0.227,0.1,0.484,0.186,0.77,0.256c0.285,0.072,0.576,0.146,0.879,0.225
		c0.299,0.078,0.592,0.166,0.877,0.262c0.285,0.098,0.541,0.221,0.769,0.367c0.227,0.146,0.407,0.33,0.545,0.543
		c0.135,0.215,0.205,0.479,0.205,0.791c0,0.328-0.074,0.641-0.228,0.932c-0.146,0.291-0.363,0.541-0.647,0.754
		c-0.289,0.22-0.638,0.388-1.056,0.509c-0.416,0.122-0.891,0.188-1.418,0.188c-0.649,0-1.24-0.09-1.771-0.268
		c-0.529-0.181-0.982-0.416-1.358-0.722l0.39-0.481c0.037-0.041,0.082-0.074,0.137-0.101c0.053-0.026,0.111-0.039,0.178-0.039
		c0.06,0,0.128,0.019,0.205,0.056c0.076,0.037,0.164,0.084,0.264,0.139c0.099,0.058,0.209,0.119,0.334,0.187
		c0.127,0.068,0.269,0.129,0.431,0.186c0.159,0.057,0.342,0.104,0.547,0.141c0.203,0.037,0.437,0.058,0.69,0.058
		c0.318,0,0.605-0.033,0.857-0.103c0.248-0.063,0.463-0.162,0.637-0.283c0.176-0.118,0.31-0.266,0.402-0.434
		c0.09-0.17,0.137-0.357,0.137-0.566c0-0.229-0.065-0.416-0.205-0.561c-0.135-0.146-0.315-0.268-0.539-0.365
		c-0.225-0.098-0.479-0.186-0.768-0.252c-0.289-0.065-0.58-0.139-0.877-0.211c-0.301-0.072-0.592-0.154-0.881-0.25
		s-0.541-0.219-0.766-0.369c-0.224-0.151-0.404-0.342-0.542-0.565c-0.137-0.228-0.208-0.515-0.208-0.849
		c0-0.266,0.069-0.522,0.207-0.772s0.337-0.472,0.601-0.664c0.26-0.196,0.584-0.352,0.967-0.467c0.383-0.115,0.822-0.173,1.32-0.173
		c0.559,0,1.064,0.066,1.521,0.2c0.459,0.134,0.86,0.328,1.209,0.581L13.563,9.463z"/>
</g>
</svg>
