<?xml version="1.0" encoding="utf-8"?>
<!-- Generator: Adobe Illustrator 16.0.0, SVG Export Plug-In . SVG Version: 6.00 Build 0)  -->
<!DOCTYPE svg PUBLIC "-//W3C//DTD SVG 1.1//EN" "http://www.w3.org/Graphics/SVG/1.1/DTD/svg11.dtd">
<svg version="1.1" id="Layer_1" xmlns="http://www.w3.org/2000/svg" xmlns:xlink="http://www.w3.org/1999/xlink" x="0px" y="0px"
	 width="65px" height="65px" viewBox="0 0 65 65" enable-background="new 0 0 65 65" xml:space="preserve">
<rect x="4" y="10" fill="#FFFFFF" width="3" height="49"/>
<rect x="30" y="10" fill="#FFFFFF" width="3" height="49"/>
<rect x="4" y="10" fill="#FFFFFF" width="29" height="3"/>
<rect x="4" y="59" fill="#FFFFFF" width="55" height="3"/>
<rect x="11" y="28" fill="#FFFFFF" width="5" height="5"/>
<rect x="21" y="28" fill="#FFFFFF" width="5" height="5"/>
<rect x="11" y="39" fill="#FFFFFF" width="5" height="5"/>
<rect x="21" y="39" fill="#FFFFFF" width="5" height="5"/>
<rect x="11" y="50" fill="#FFFFFF" width="5" height="5"/>
<rect x="21" y="50" fill="#FFFFFF" width="5" height="5"/>
<rect x="40" y="20" fill="#FFFFFF" width="3" height="39"/>
<rect x="56" y="20" fill="#FFFFFF" width="3" height="39"/>
<rect x="40" y="20" fill="#FFFFFF" width="19" height="3"/>
<rect x="47" y="30" fill="#FFFFFF" width="5" height="5"/>
<rect x="47" y="40" fill="#FFFFFF" width="5" height="5"/>
<rect x="47" y="50" fill="#FFFFFF" width="5" height="5"/>
<rect x="11" y="18" fill="#FFFFFF" width="5" height="5"/>
<rect x="21" y="18" fill="#FFFFFF" width="5" height="5"/>
</svg>
