<?xml version="1.0" encoding="utf-8"?>
<!-- Generator: Adobe Illustrator 16.0.0, SVG Export Plug-In . SVG Version: 6.00 Build 0)  -->
<!DOCTYPE svg PUBLIC "-//W3C//DTD SVG 1.1//EN" "http://www.w3.org/Graphics/SVG/1.1/DTD/svg11.dtd">
<svg version="1.1" id="Layer_1" xmlns="http://www.w3.org/2000/svg" xmlns:xlink="http://www.w3.org/1999/xlink" x="0px" y="0px"
	 width="40px" height="40px" viewBox="0 0 40 40" enable-background="new 0 0 40 40" xml:space="preserve">
<path fill="#FFFFFF" d="M28.969,4h-6.246C22.3,3,21.34,3,20.219,3h-2.188c-1.121,0-2.081,0-2.503,1H9.281C7.771,4,6,5.365,6,6.875
	v27.891C6,36.275,7.771,38,9.281,38h19.688C30.479,38,31,36.275,31,34.766V6.875C31,5.365,30.479,4,28.969,4z M12,10V8h5V5h2h1h1v3
	h5v2v1H12V10z M13,32h-3v-3h3V32z M13,27h-3v-3h3V27z M13,22h-3v-3h3V22z M13,17h-3v-3h3V17z M28,32H15v-3h13V32z M28,27H15v-3h13
	V27z M28,22H15v-3h13V22z M28,17H15v-3h13V17z"/>
</svg>
