<?xml version="1.0" encoding="utf-8"?>
<!-- Generator: Adobe Illustrator 16.0.3, SVG Export Plug-In . SVG Version: 6.00 Build 0)  -->
<!DOCTYPE svg PUBLIC "-//W3C//DTD SVG 1.1//EN" "http://www.w3.org/Graphics/SVG/1.1/DTD/svg11.dtd">
<svg version="1.1" id="Layer_1" xmlns="http://www.w3.org/2000/svg" xmlns:xlink="http://www.w3.org/1999/xlink" x="0px" y="0px"
	 width="11px" height="7px" viewBox="0 0 11 7" enable-background="new 0 0 11 7" xml:space="preserve">
<path d="M8.517,7.041c-0.25,0-0.453-0.168-0.453-0.375V0.333c0-0.207,0.203-0.375,0.453-0.375l0,0c0.25,0,0.452,0.168,0.452,0.375
	v6.333C8.969,6.873,8.767,7.041,8.517,7.041L8.517,7.041z"/>
<path d="M6.547,7.041c-0.25,0-0.453-0.168-0.453-0.375V0.333c0-0.207,0.203-0.375,0.453-0.375l0,0C6.797-0.042,7,0.126,7,0.333
	v6.333C7,6.873,6.797,7.041,6.547,7.041L6.547,7.041z"/>
<path d="M4.454,7.041C4.204,7.041,4,6.873,4,6.666V0.333c0-0.207,0.203-0.375,0.453-0.375l0,0c0.25,0,0.453,0.168,0.453,0.375v6.333
	C4.907,6.873,4.704,7.041,4.454,7.041L4.454,7.041z"/>
<path d="M2.485,7.041c-0.25,0-0.453-0.168-0.453-0.375V0.333c0-0.207,0.203-0.375,0.453-0.375l0,0c0.25,0,0.453,0.168,0.453,0.375
	v6.333C2.938,6.873,2.735,7.041,2.485,7.041L2.485,7.041z"/>
</svg>
