<?xml version="1.0" encoding="utf-8"?>
<!-- Generator: Adobe Illustrator 16.0.0, SVG Export Plug-In . SVG Version: 6.00 Build 0)  -->
<!DOCTYPE svg PUBLIC "-//W3C//DTD SVG 1.1//EN" "http://www.w3.org/Graphics/SVG/1.1/DTD/svg11.dtd">
<svg version="1.1" id="Layer_1" xmlns="http://www.w3.org/2000/svg" xmlns:xlink="http://www.w3.org/1999/xlink" x="0px" y="0px"
	 width="18px" height="18px" viewBox="0 0 18 18" enable-background="new 0 0 18 18" xml:space="preserve">
<path fill="none" stroke="#8A8A8A" stroke-miterlimit="10" d="M4.284,9.259"/>
<path fill="none" stroke="#8A8A8A" stroke-miterlimit="10" d="M15.936,2.664"/>
<g>
	<path fill="#DA3944" d="M10.397,14.653c-0.005-0.151-0.007-0.266-0.007-0.341c0-0.448,0.063-0.832,0.19-1.156
		c0.094-0.245,0.243-0.492,0.451-0.74c0.152-0.183,0.427-0.445,0.822-0.794c0.393-0.347,0.651-0.625,0.768-0.829
		c0.12-0.208,0.178-0.434,0.178-0.678c0-0.443-0.173-0.832-0.52-1.167c-0.345-0.335-0.771-0.502-1.273-0.502
		c-0.486,0-0.894,0.151-1.218,0.455c-0.327,0.303-0.54,0.777-0.642,1.422l-1.173-0.139C8.08,9.32,8.394,8.659,8.916,8.2
		c0.523-0.459,1.213-0.689,2.07-0.689c0.911,0,1.634,0.246,2.177,0.739c0.54,0.493,0.812,1.089,0.812,1.789
		c0,0.404-0.097,0.778-0.286,1.12c-0.191,0.342-0.562,0.756-1.117,1.244c-0.37,0.328-0.613,0.571-0.728,0.729
		c-0.114,0.154-0.2,0.333-0.254,0.536c-0.056,0.202-0.086,0.53-0.096,0.985H10.397z M10.327,16.937V15.64h1.301v1.297H10.327z"/>
</g>
<path fill="none" stroke="#6B57D5" stroke-width="2" stroke-miterlimit="10" d="M17,0"/>
<polyline fill="none" stroke="#DA3944" stroke-width="2" stroke-miterlimit="10" points="5,5 16.312,5 16.521,5 17,5 "/>
<polygon fill="#DA3944" points="7.43,9 0.476,4.997 7.437,1 "/>
</svg>
