<?xml version="1.0" encoding="utf-8"?>
<!-- Generator: Adobe Illustrator 16.0.0, SVG Export Plug-In . SVG Version: 6.00 Build 0)  -->
<!DOCTYPE svg PUBLIC "-//W3C//DTD SVG 1.1//EN" "http://www.w3.org/Graphics/SVG/1.1/DTD/svg11.dtd">
<svg version="1.1" id="Layer_1" xmlns="http://www.w3.org/2000/svg" xmlns:xlink="http://www.w3.org/1999/xlink" x="0px" y="0px"
	 width="18px" height="18px" viewBox="0 0 18 18" enable-background="new 0 0 18 18" xml:space="preserve">
<rect x="9.47" y="6.351" fill="#0A92AA" width="2.643" height="1.206"/>
<rect x="12.009" y="1.847" fill="#0A92AA" width="3.437" height="0.928"/>
<polygon fill="#0A92AA" points="14.908,3.841 14.902,0.571 17.69,2.202 "/>
<polygon fill="#0A92AA" points="14.908,12.908 14.902,9.637 17.69,11.268 "/>
<path fill="#0A92AA" d="M13.155,10.539L13.159,2h-1.143L12.01,9.138C12.475,9.521,12.859,9.997,13.155,10.539z"/>
<path fill="#0A92AA" d="M15.043,10.733h-1.62c0.115,1.04,0.203,1.04,0.263,1.04h1.357V10.733z"/>
<path fill="#0A92AA" d="M8.778,7.822c0.193,0,0.375,0.036,0.563,0.057l0.901-0.896L5.304,1.847l-5.05,5.022l3.86,4.015
	C4.898,9.083,6.688,7.822,8.778,7.822z"/>
<path d="M8.7,8.826c-2.535,0-4.59,2.055-4.59,4.59C4.11,15.947,6.166,18,8.7,18c2.534,0,4.59-2.053,4.59-4.584
	C13.29,10.881,11.234,8.826,8.7,8.826z M9.198,15.943L9.176,14H5v-1h4.163l-0.024-2.031l3.254,2.41L9.198,15.943z"/>
</svg>
