<?xml version="1.0" encoding="utf-8"?>
<!-- Generator: Adobe Illustrator 16.0.3, SVG Export Plug-In . SVG Version: 6.00 Build 0)  -->
<!DOCTYPE svg PUBLIC "-//W3C//DTD SVG 1.1//EN" "http://www.w3.org/Graphics/SVG/1.1/DTD/svg11.dtd">
<svg version="1.1" id="Capa_1" xmlns="http://www.w3.org/2000/svg" xmlns:xlink="http://www.w3.org/1999/xlink" x="0px" y="0px"
	 width="16px" height="16px" viewBox="1 1 16 16" enable-background="new 1 1 16 16" xml:space="preserve">
<g>
	<path fill="#030104" d="M16.406,2.911h-5.579v1.817h1.846v1.237h-1.846v1.208h1.827v1.218h-1.827v1.218h1.827v1.218h-1.827v1.217
		h1.827v1.219h-1.827v1.827h5.579c0.281,0,0.51-0.238,0.51-0.53V3.44C16.916,3.148,16.688,2.911,16.406,2.911z M15.698,13.263
		h-2.436v-1.219h2.436V13.263z M15.698,10.827h-2.436V9.609h2.436V10.827z M15.698,8.391h-2.436V7.173h2.436V8.391z M15.698,5.955
		h-2.436V4.737h2.436V5.955z"/>
	<path fill="#030104" d="M1.083,2.843v12.314l9.134,1.76V1.083L1.083,2.843z M6.861,12.094l-1.063-2.01
		c-0.04-0.074-0.082-0.212-0.125-0.412H5.657C5.638,9.767,5.59,9.91,5.515,10.103l-1.066,1.991H2.793L4.759,9.01L2.96,5.925h1.69
		l0.882,1.849c0.069,0.146,0.13,0.32,0.185,0.521h0.017C5.77,8.174,5.834,7.996,5.928,7.757l0.98-1.832h1.548L6.607,8.983
		l1.901,3.11L6.861,12.094L6.861,12.094z"/>
</g>
</svg>
