<?xml version="1.0" encoding="utf-8"?>
<!-- Generator: Adobe Illustrator 16.0.0, SVG Export Plug-In . SVG Version: 6.00 Build 0)  -->
<!DOCTYPE svg PUBLIC "-//W3C//DTD SVG 1.1//EN" "http://www.w3.org/Graphics/SVG/1.1/DTD/svg11.dtd">
<svg version="1.1" id="Layer_1" xmlns="http://www.w3.org/2000/svg" xmlns:xlink="http://www.w3.org/1999/xlink" x="0px" y="0px"
	 width="18px" height="18px" viewBox="0 0 18 18" enable-background="new 0 0 18 18" xml:space="preserve">
<path fill="none" stroke="#867054" stroke-miterlimit="10" d="M2,15.5"/>
<polyline fill="none" stroke="#867054" stroke-miterlimit="10" points="2.5,10 2.5,0.5 17.5,0.5 17.5,15.5 7.515,15.5 7,15.5 "/>
<rect x="7" fill="#867054" width="1" height="10"/>
<rect x="12" fill="#867054" width="1" height="15"/>
<rect x="3" y="5" fill="#867054" width="14" height="1"/>
<rect x="8" y="10" fill="#867054" width="9" height="1"/>
<path fill="#867054" d="M2.425,9.833"/>
<path d="M5.695,7.55c-2.535,0-4.59,2.055-4.59,4.591c0,2.531,2.055,4.584,4.59,4.584c2.534,0,4.59-2.053,4.59-4.584
	C10.285,9.605,8.229,7.55,5.695,7.55z M6.192,14.806L6.171,13H2v-1h4.157L6.134,9.831l3.254,2.411L6.192,14.806z"/>
</svg>
