<?xml version="1.0" encoding="utf-8"?>
<!-- Generator: Adobe Illustrator 16.0.3, SVG Export Plug-In . SVG Version: 6.00 Build 0)  -->
<!DOCTYPE svg PUBLIC "-//W3C//DTD SVG 1.1//EN" "http://www.w3.org/Graphics/SVG/1.1/DTD/svg11.dtd">
<svg version="1.1" id="Layer_1" xmlns="http://www.w3.org/2000/svg" xmlns:xlink="http://www.w3.org/1999/xlink" x="0px" y="0px"
	 width="16px" height="7px" viewBox="0 0 16 7" enable-background="new 0 0 16 7" xml:space="preserve">
<g>
	<path d="M7.979,6.676l0.496-1.07C8.613,5.689,8.771,5.73,8.947,5.73c0.574,0,1.291-0.535,2.152-1.605l0.338-0.429L10.67,1.823
		c-0.191-0.474-0.381-0.711-0.564-0.711c-0.227,0-0.569,0.318-1.027,0.955l0.146-0.766c0.551-0.751,1.021-1.125,1.412-1.125
		c0.367,0,0.707,0.378,1.029,1.138l0.645,1.528l0.367-0.487c1.098-1.452,2-2.179,2.701-2.179c0.188,0,0.383,0.063,0.58,0.193
		l-0.58,1.064c-0.152-0.097-0.303-0.146-0.445-0.146c-0.625,0-1.359,0.535-2.205,1.604l-0.27,0.343l0.848,2.045
		c0.197,0.486,0.395,0.729,0.59,0.729c0.266,0,0.639-0.292,1.119-0.874l-0.137,0.702c-0.578,0.657-1.088,0.987-1.533,0.987
		c-0.424,0-0.768-0.323-1.029-0.969l-0.734-1.791L11.127,4.67c-1.088,1.436-1.936,2.156-2.549,2.156
		C8.421,6.826,8.223,6.775,7.979,6.676z"/>
</g>
<g>
	<path d="M1.79,6.676l0.495-1.07C2.421,5.688,2.579,5.73,2.755,5.73c0.57,0,1.284-0.535,2.14-1.606l0.338-0.429L4.468,1.822
		c-0.19-0.473-0.379-0.71-0.563-0.71c-0.225,0-0.567,0.317-1.023,0.954L3.031,1.3c0.544-0.751,1.015-1.125,1.403-1.125
		c0.364,0,0.705,0.378,1.025,1.138L6.098,2.84l0.365-0.486c1.092-1.453,1.99-2.18,2.688-2.18c0.188,0,0.381,0.064,0.578,0.192
		L9.15,1.435C8.999,1.336,8.852,1.289,8.706,1.289c-0.62,0-1.35,0.535-2.186,1.605L6.248,3.233l0.841,2.042
		C7.285,5.768,7.481,6.01,7.675,6.01c0.267,0,0.636-0.292,1.113-0.874L8.652,5.841C8.078,6.497,7.57,6.826,7.13,6.826
		c-0.423,0-0.764-0.325-1.028-0.971L5.376,4.064L4.924,4.667C3.841,6.105,2.998,6.826,2.385,6.826
		C2.231,6.826,2.035,6.775,1.79,6.676z"/>
</g>
<rect y="5.744" width="1.79" height="0.906"/>
</svg>
