<?xml version="1.0" encoding="utf-8"?>
<!-- Generator: Adobe Illustrator 16.0.0, SVG Export Plug-In . SVG Version: 6.00 Build 0)  -->
<!DOCTYPE svg PUBLIC "-//W3C//DTD SVG 1.1//EN" "http://www.w3.org/Graphics/SVG/1.1/DTD/svg11.dtd">
<svg version="1.1" id="Layer_1" xmlns="http://www.w3.org/2000/svg" xmlns:xlink="http://www.w3.org/1999/xlink" x="0px" y="0px"
	 width="18px" height="18px" viewBox="0 0 18 18" enable-background="new 0 0 18 18" xml:space="preserve">
<path fill-rule="evenodd" clip-rule="evenodd" fill="#FFFFFF" d="M1.734,4.698c0.083-0.267,0.225-0.485,0.472-0.633
	c0.249-0.15,0.519-0.118,0.788-0.113C3.066,3.954,3.06,4.016,3.061,4.065c0.002,0.142,0.002,0.282,0.019,0.424
	c0.053,0.445,0.404,0.758,0.859,0.756c0.443-0.002,0.79-0.319,0.841-0.761c0.016-0.142,0.02-0.283,0.018-0.424
	C4.796,3.978,4.83,3.942,4.911,3.948c0.028,0.002,0.055,0,0.083,0c1.631,0,3.264,0,4.896,0c0.193,0,0.195,0.001,0.193,0.197
	c-0.001,0.124,0.008,0.246,0.023,0.369c0.047,0.421,0.409,0.734,0.852,0.732c0.434-0.001,0.793-0.316,0.842-0.73
	c0.017-0.146,0.026-0.291,0.021-0.438c-0.004-0.091,0.027-0.13,0.124-0.132c0.289-0.003,0.578-0.015,0.824,0.181
	c0.243,0.193,0.386,0.438,0.387,0.751c0.003,1.102-0.001,2.204,0.005,3.306c0.001,0.143-0.045,0.183-0.181,0.175
	c-0.169-0.01-0.338-0.003-0.507-0.003c-0.212,0-0.213,0-0.213-0.206c0-0.462-0.003-0.923,0.002-1.385
	c0.002-0.12-0.024-0.168-0.158-0.168C8.995,6.601,5.886,6.601,2.778,6.598c-0.118,0-0.159,0.03-0.158,0.153
	c0.004,1.924,0.002,3.849,0.003,5.774c0,0.177,0.025,0.201,0.211,0.201c1.618,0,3.237,0,4.855,0c0.2,0,0.2,0.001,0.2,0.203
	c0,0.18-0.007,0.357,0.003,0.536c0.007,0.13-0.046,0.161-0.167,0.16C7.2,13.62,6.674,13.623,6.148,13.623c-1.116,0-2.231,0-3.347,0
	c-0.589,0-0.868-0.196-1.067-0.75C1.734,10.148,1.734,7.423,1.734,4.698z"/>
<path fill-rule="evenodd" clip-rule="evenodd" fill="#FFFFFF" d="M4.094,2.201c0.214,0.111,0.292,0.285,0.288,0.527
	C4.37,3.29,4.379,3.852,4.377,4.414C4.376,4.62,4.241,4.791,4.052,4.836C3.833,4.887,3.623,4.797,3.525,4.612
	C3.487,4.541,3.48,4.465,3.48,4.386c0.001-0.552,0.009-1.105-0.003-1.658C3.472,2.486,3.55,2.312,3.765,2.201
	C3.875,2.201,3.984,2.201,4.094,2.201z"/>
<path fill-rule="evenodd" clip-rule="evenodd" fill="#FFFFFF" d="M11.117,2.201c0.215,0.111,0.293,0.285,0.288,0.527
	C11.394,3.29,11.402,3.852,11.4,4.414c-0.001,0.207-0.137,0.377-0.325,0.422c-0.22,0.051-0.43-0.039-0.527-0.224
	c-0.031-0.062-0.044-0.128-0.044-0.199c0-0.593,0.002-1.187-0.002-1.781c-0.001-0.211,0.118-0.336,0.286-0.431
	C10.897,2.201,11.007,2.201,11.117,2.201z"/>
<g>
	<path fill="#FFFFFF" d="M4.677,9.045h-0.01L4.053,9.338L3.929,8.773l0.853-0.396h0.624v3.222H4.677V9.045z"/>
</g>
<g>
	<path fill="#FFFFFF" d="M7.055,11.404v-0.457l0.416-0.375c0.704-0.629,1.046-0.991,1.056-1.368c0-0.263-0.159-0.471-0.531-0.471
		c-0.277,0-0.52,0.139-0.688,0.268L7.094,8.46c0.243-0.183,0.62-0.331,1.055-0.331c0.729,0,1.13,0.426,1.13,1.01
		c0,0.54-0.392,0.972-0.857,1.387l-0.297,0.249v0.01h1.214v0.619H7.055z"/>
</g>
<polygon fill="none" points="13,12 13,10 12,10 12,12 10,12 10,13 12,13 12,15 13,15 13,13 15,13 15,12 "/>
<path fill="#FFFFFF" d="M12.326,8.735c-2.082,0-3.767,1.667-3.767,3.728c0,2.062,1.685,3.729,3.767,3.729s3.767-1.667,3.767-3.729
	C16.093,10.402,14.408,8.735,12.326,8.735z M13,13v2h-1v-2h-2v-1h2v-2h1v2h2v1H13z"/>
</svg>
