<?xml version="1.0" encoding="utf-8"?>
<!-- Generator: Adobe Illustrator 16.0.3, SVG Export Plug-In . SVG Version: 6.00 Build 0)  -->
<!DOCTYPE svg PUBLIC "-//W3C//DTD SVG 1.1//EN" "http://www.w3.org/Graphics/SVG/1.1/DTD/svg11.dtd">
<svg version="1.1" id="Layer_1" xmlns="http://www.w3.org/2000/svg" xmlns:xlink="http://www.w3.org/1999/xlink" x="0px" y="0px"
	 width="15px" height="13px" viewBox="0 0 21 21" enable-background="new 0 0 21 21" xml:space="preserve">
<g id="Page-1_1_">
	<g id="Core_1_" transform="translate(-466.000000, -295.000000)">
		<g id="lock_1_" transform="translate(466.000000, 295.500000)">
			<path id="Shape_1_" fill="#FFFFFF" d="M16.5,6.5h-1v-2c0-2.8-2.2-5-5-5s-5,2.2-5,5v2h-1c-1.1,0-2,0.9-2,2v10c0,1.1,0.9,2,2,2h12
				c1.1,0,2-0.9,2-2v-10C18.5,7.4,17.6,6.5,16.5,6.5L16.5,6.5z M10.5,15.5c-1.1,0-2-0.9-2-2s0.9-2,2-2s2,0.9,2,2
				S11.6,15.5,10.5,15.5L10.5,15.5z M13.6,6.5H7.4v-2c0-1.7,1.399-3.1,3.1-3.1s3.1,1.399,3.1,3.1V6.5L13.6,6.5z"/>
		</g>
	</g>
</g>
</svg>
