<?xml version="1.0" encoding="utf-8"?>
<!-- Generator: Adobe Illustrator 16.0.0, SVG Export Plug-In . SVG Version: 6.00 Build 0)  -->
<!DOCTYPE svg PUBLIC "-//W3C//DTD SVG 1.1//EN" "http://www.w3.org/Graphics/SVG/1.1/DTD/svg11.dtd">
<svg version="1.1" id="Layer_1" xmlns="http://www.w3.org/2000/svg" xmlns:xlink="http://www.w3.org/1999/xlink" x="0px" y="0px"
	 width="25px" height="20px" viewBox="0 0 25 20" enable-background="new 0 0 25 20" xml:space="preserve">
<path fill="#668DD3" stroke="#333333" stroke-miterlimit="10" d="M22.631,14.43c0,1.656-1.342,3-3,3h-14c-1.657,0-3-1.344-3-3v-8
	c0-1.657,1.343-3,3-3h14c1.658,0,3,1.343,3,3V14.43z"/>
<rect x="7.819" y="11.241" transform="matrix(-0.9122 -0.4097 0.4097 -0.9122 16.8343 27.0894)" fill="#333333" width="7" height="1.001"/>
<circle fill="#FFFFFF" stroke="#333333" stroke-width="0.5" stroke-miterlimit="10" cx="7.163" cy="9.999" r="1.51"/>
<rect x="8.18" y="7.608" transform="matrix(0.9122 -0.4098 0.4098 0.9122 -2.2969 5.4984)" fill="#333333" width="7" height="1"/>
<rect x="12.5" y="11.51" fill="#FFFFFF" stroke="#333333" stroke-width="0.5" stroke-miterlimit="10" width="8" height="3"/>
<rect x="13.255" y="5.333" fill="#FFFFFF" stroke="#333333" stroke-width="0.5" stroke-miterlimit="10" width="5" height="3"/>
</svg>
