<?xml version="1.0" encoding="utf-8"?>
<!-- Generator: Adobe Illustrator 16.0.0, SVG Export Plug-In . SVG Version: 6.00 Build 0)  -->
<!DOCTYPE svg PUBLIC "-//W3C//DTD SVG 1.1//EN" "http://www.w3.org/Graphics/SVG/1.1/DTD/svg11.dtd">
<svg version="1.1" id="Layer_1" xmlns="http://www.w3.org/2000/svg" xmlns:xlink="http://www.w3.org/1999/xlink" x="0px" y="0px"
	 width="18px" height="18px" viewBox="0 0 18 18" enable-background="new 0 0 18 18" xml:space="preserve">
<path fill="none" stroke="#666666" stroke-miterlimit="10" d="M17.5,14.539c0,0.93-0.5,1.961-1.706,1.961H2.685
	c-1.207,0-2.185-1.031-2.185-1.961V4.429C0.5,3.499,1.478,3.5,2.685,3.5h13.109C17,3.5,17.5,3.499,17.5,4.429V14.539z"/>
<rect x="9.5" y="6.5" fill="none" stroke="#666666" stroke-miterlimit="10" width="5" height="2"/>
<rect x="8.5" y="11.5" fill="none" stroke="#666666" stroke-miterlimit="10" width="7" height="2"/>
<path fill="none" stroke="#666666" stroke-miterlimit="10" d="M8.886,6.341"/>
<rect x="5.788" y="11.65" transform="matrix(0.8624 0.5061 -0.5061 0.8624 7.1273 -1.9264)" fill="#666666" width="2.639" height="1"/>
<rect x="6.183" y="7.734" transform="matrix(0.9273 -0.3743 0.3743 0.9273 -2.5042 3.5724)" fill="#666666" width="3.526" height="1"/>
<circle fill="none" stroke="#666666" stroke-miterlimit="10" cx="5" cy="9.979" r="1.984"/>
</svg>
