<?xml version="1.0" encoding="utf-8"?>
<!-- Generator: Adobe Illustrator 16.0.0, SVG Export Plug-In . SVG Version: 6.00 Build 0)  -->
<!DOCTYPE svg PUBLIC "-//W3C//DTD SVG 1.1//EN" "http://www.w3.org/Graphics/SVG/1.1/DTD/svg11.dtd">
<svg version="1.1" id="Layer_1" xmlns="http://www.w3.org/2000/svg" xmlns:xlink="http://www.w3.org/1999/xlink" x="0px" y="0px"
	 width="15px" height="15px" viewBox="0 0 15 15" enable-background="new 0 0 15 15" xml:space="preserve">
<path fill-rule="evenodd" clip-rule="evenodd" fill="#848484" d="M9.301,8.188c-0.042,0.07-0.064,0.136-0.124,0.193
	c-1.567,1.504-3.138,3.004-4.708,4.505c-0.043,0.044-0.084,0.098-0.207,0.098c-0.12,0-0.163-0.054-0.208-0.097
	c-0.214-0.2-0.425-0.402-0.642-0.604c-0.141-0.131-0.145-0.262-0.006-0.393c0.775-0.741,1.549-1.484,2.325-2.226
	C6.23,9.188,6.729,8.711,7.229,8.234c0.038-0.036,0.031-0.06-0.004-0.094C5.947,6.923,4.672,5.702,3.396,4.48
	C3.271,4.361,3.268,4.238,3.394,4.116c0.219-0.211,0.44-0.419,0.665-0.628c0.042-0.041,0.09-0.089,0.203-0.089
	c0.12,0,0.164,0.052,0.207,0.093c0.69,0.66,1.381,1.321,2.07,1.982c0.876,0.837,1.755,1.675,2.626,2.515
	C9.23,8.05,9.255,8.122,9.301,8.188z"/>
<path fill-rule="evenodd" clip-rule="evenodd" fill="#848484" d="M13,8.188c-0.042,0.07-0.064,0.136-0.124,0.193
	c-1.567,1.504-3.138,3.004-4.708,4.505c-0.044,0.044-0.084,0.098-0.207,0.098c-0.12,0-0.162-0.054-0.208-0.097
	c-0.214-0.2-0.425-0.402-0.642-0.604c-0.141-0.131-0.145-0.262-0.006-0.393c0.775-0.741,1.549-1.484,2.325-2.226
	c0.499-0.478,0.997-0.954,1.497-1.431c0.038-0.036,0.031-0.06-0.004-0.094C9.646,6.923,8.371,5.702,7.096,4.48
	C6.971,4.361,6.967,4.238,7.093,4.116c0.22-0.211,0.44-0.419,0.665-0.628C7.8,3.446,7.848,3.398,7.961,3.398
	c0.119,0,0.163,0.052,0.207,0.093c0.689,0.66,1.381,1.321,2.07,1.982c0.876,0.837,1.755,1.675,2.626,2.515
	C12.93,8.05,12.954,8.122,13,8.188z"/>
</svg>
