<?xml version="1.0" encoding="utf-8"?>
<!-- Generator: Adobe Illustrator 16.0.0, SVG Export Plug-In . SVG Version: 6.00 Build 0)  -->
<!DOCTYPE svg PUBLIC "-//W3C//DTD SVG 1.1//EN" "http://www.w3.org/Graphics/SVG/1.1/DTD/svg11.dtd">
<svg version="1.1" id="Layer_1" xmlns="http://www.w3.org/2000/svg" xmlns:xlink="http://www.w3.org/1999/xlink" x="0px" y="0px"
	 width="30px" height="30px" viewBox="0 0 30 30" enable-background="new 0 0 30 30" xml:space="preserve">
<rect x="5.5" y="3.5" fill="none" stroke="#FFFFFF" stroke-miterlimit="10" width="20" height="23"/>
<path fill="#FFFFFF" d="M13.09,6.371l-0.452,2.948l2.785-1.145C14.995,7.234,14.131,6.547,13.09,6.371z"/>
<path fill="#FFFFFF" d="M11.638,10.616l0.502-3.245c-0.189-0.031-0.38-0.058-0.578-0.058c-1.933,0-3.5,1.567-3.5,3.5
	s1.567,3.5,3.5,3.5s3.5-1.567,3.5-3.5c0-0.522-0.122-1.012-0.327-1.457L11.638,10.616z"/>
<path fill="#FFFFFF" d="M9.313,5.922"/>
<rect x="8" y="16" fill="#FFFFFF" width="7" height="1"/>
<rect x="8" y="18" fill="#FFFFFF" width="7" height="1"/>
<rect x="8" y="20" fill="#FFFFFF" width="7" height="1"/>
<rect x="8" y="22" fill="#FFFFFF" width="7" height="1"/>
<rect x="18" y="8" fill="#FFFFFF" width="2" height="15"/>
<rect x="21" y="12" fill="#FFFFFF" width="2" height="11"/>
<rect x="17" y="22" fill="#FFFFFF" width="7" height="1"/>
</svg>
