<?xml version="1.0" encoding="utf-8"?>
<!-- Generator: Adobe Illustrator 16.0.3, SVG Export Plug-In . SVG Version: 6.00 Build 0)  -->
<!DOCTYPE svg PUBLIC "-//W3C//DTD SVG 1.1//EN" "http://www.w3.org/Graphics/SVG/1.1/DTD/svg11.dtd">
<svg version="1.1" id="Layer_1" xmlns:sketch="http://www.bohemiancoding.com/sketch/ns"
	 xmlns="http://www.w3.org/2000/svg" xmlns:xlink="http://www.w3.org/1999/xlink" x="0px" y="0px" width="12px" height="12px"
	 viewBox="0 0 12 12" enable-background="new 0 0 12 12" xml:space="preserve">
<title></title>
<desc></desc>
<g id="Page-1">
	<g id="icon-54-document">
		<g id="document">
			<g>
				<g>
					<polyline fill="none" stroke="#FFFFFF" stroke-width="0.7" stroke-miterlimit="5" points="6.896,0.708 6.896,0.364 
						6.546,0.364 					"/>
					<path fill="none" stroke="#FFFFFF" stroke-width="0.7" stroke-miterlimit="5" stroke-dasharray="0.6848,0.6848" d="
						M5.868,0.364H2.693c-0.467,0-0.845,0.375-0.845,0.836v9.585c0,0.463,0.374,0.84,0.841,0.84h6.308
						c0.465,0,0.839-0.373,0.839-0.836V4.381"/>
					<polyline fill="none" stroke="#FFFFFF" stroke-width="0.7" stroke-miterlimit="5" points="9.837,4.043 9.837,3.699 9.49,3.699 
											"/>
					<path fill="none" stroke="#FFFFFF" stroke-width="0.7" stroke-miterlimit="5" stroke-dasharray="0.7549,0.7549" d="
						M8.741,3.699H7.739c-0.468,0-0.846-0.369-0.846-0.833V1.079"/>
				</g>
			</g>
		</g>
	</g>
</g>
<path fill="#FFFFFF" d="M8.021,0v2.111c0,0.195,0.16,0.354,0.352,0.354h1.779L8.021,0L8.021,0z"/>
</svg>
