<?xml version="1.0" encoding="utf-8"?>
<!-- Generator: Adobe Illustrator 16.0.3, SVG Export Plug-In . SVG Version: 6.00 Build 0)  -->
<!DOCTYPE svg PUBLIC "-//W3C//DTD SVG 1.1//EN" "http://www.w3.org/Graphics/SVG/1.1/DTD/svg11.dtd">
<svg version="1.1" id="Layer_1" xmlns="http://www.w3.org/2000/svg" xmlns:xlink="http://www.w3.org/1999/xlink" x="0px" y="0px"
	 width="10px" height="10px" viewBox="891 891 10 10" enable-background="new 891 891 10 10" xml:space="preserve">
<path fill="#FFFFFF" d="M900.972,891.277c0.081,0.194,0.048,0.36-0.1,0.498l-3.501,3.501v5.271c0,0.198-0.093,0.338-0.277,0.419
	c-0.062,0.023-0.121,0.035-0.178,0.035c-0.127,0-0.234-0.045-0.319-0.135l-1.818-1.818c-0.09-0.09-0.135-0.196-0.135-0.319v-3.452
	l-3.501-3.501c-0.147-0.137-0.18-0.303-0.1-0.498c0.081-0.185,0.22-0.277,0.419-0.277h9.091
	C900.752,891,900.892,891.092,900.972,891.277z"/>
</svg>
